<svg width="173" height="618" viewBox="0 0 173 618" fill="none" xmlns="http://www.w3.org/2000/svg">
<path d="M128.19 64.7191C129.157 60.8527 130.334 56.9864 134.411 55.3474C137.942 53.9185 142.104 55.3894 144.416 58.2892C151.1 66.6522 137.606 82.0335 129.367 89.0517C127.055 91.0269 123.734 92.5819 122.557 95.4816C122.81 95.0614 123.062 94.6411 123.314 94.2209C122.978 94.6411 122.6 95.0193 122.263 95.4396C120.75 97.1626 122.179 100.23 124.617 99.516C127.77 98.5915 127.938 98.8857 133.277 94.515C135.757 92.4558 138.111 90.2705 140.338 87.875C144.794 83.0841 148.956 77.6629 151.394 71.5272C157.531 56.1039 143.953 44.9251 132.73 48.9595C126.761 51.1028 120.876 58.079 122.852 64.7191C123.608 67.2826 127.518 67.4507 128.19 64.7191Z" fill="#DF0909"/>
<path d="M124.155 118.007C128.442 118.007 128.442 111.325 124.155 111.325C119.867 111.325 119.825 118.007 124.155 118.007Z" fill="#DF0909"/>
<path d="M81.9513 28.6192C79.4292 21.8111 81.2788 13.1539 87.5 8.95134C93.5531 4.83286 102.254 6.13565 107.299 11.3048C113.814 17.9868 112.721 29.964 110.073 38.1169C108.602 42.5716 106.332 46.8582 103.347 50.4724C100.069 54.4228 96.0752 57.6587 92.292 61.1048C84.5155 68.2491 75.604 79.638 80.9425 90.6907C82.2876 93.5063 86.2389 91.4051 85.6925 88.6734C82.4558 71.9053 102.002 64.2567 111.082 50.5985C114.024 46.1438 116.168 41.1007 117.387 35.8896C119.699 25.7615 119.195 12.7336 110.662 5.50527C103.6 -0.504359 92.6283 -2.0593 84.6416 3.15185C75.8142 8.90932 71.9889 21.2648 76.9912 30.7205C78.3783 33.4101 83.0443 31.561 81.9513 28.6192Z" fill="#DF0909"/>
<path d="M89.0552 113.594C92.3518 113.594 95.0242 110.923 95.0242 107.627C95.0242 104.331 92.3518 101.659 89.0552 101.659C85.7586 101.659 83.0862 104.331 83.0862 107.627C83.0862 110.923 85.7586 113.594 89.0552 113.594Z" fill="#DF0909"/>
<path d="M129.325 151.796C121.465 139.188 107.635 129.732 92.2921 129.69C64.6328 129.648 48.197 142.844 39.0753 157.721C38.781 158.183 38.4868 158.688 38.1925 159.192C17.2169 193.695 5.69916 218.154 -31.2079 233.283C-117.801 268.752 -98.1283 364.15 -44.2389 398.947C41.2191 454.21 95.4447 399.703 124.912 334.144C170.562 232.568 134.874 160.747 129.325 151.796Z" fill="#2D2861"/>
<path d="M34.4514 464.674C34.4514 464.674 13.8541 499.597 5.78325 530.948C0.234582 552.633 -2.58179 617.941 -2.58179 617.941H173.042C173.042 617.941 153.454 487.326 116.631 470.6C79.7655 453.874 34.4514 464.674 34.4514 464.674Z" fill="#DF0909"/>
<path d="M137.606 284.428C112.091 282.032 43.0265 288.294 11.7101 293.337C7.25438 294.051 33.4424 449.419 26.2544 476.736L11.6681 506.574C11.6681 506.574 99.48 525.443 143.617 501.573L118.942 463.918C123.356 443.83 157.153 286.277 137.606 284.428Z" fill="#FFE3ED"/>
<path d="M54.4183 244.125C54.4183 244.125 50.593 336.833 72.6196 338.766C94.6461 340.657 95.1926 284.175 95.4448 277.241L96.9581 239.46L54.4183 244.125Z" fill="#F7A491"/>
<path opacity="0.5" d="M54.1658 263.835C68.2477 280.267 88.6349 277.746 95.865 266.987L96.9999 239.418L54.4181 244.125C54.4181 244.125 54.0818 252.278 54.1658 263.835Z" fill="#F47458"/>
<path d="M139.33 486.107C150.217 482.577 190.234 297.245 134.706 284.218C134.706 284.218 135.967 288.294 134.075 322.461C131.847 362.259 120.077 450.008 120.077 450.008C120.077 450.008 69.9712 437.526 30.4999 441.939L-2.62397 461.228L-7.66821 482.745C-7.66821 482.745 4.31188 494.722 6.834 494.722C9.35612 494.722 2.71454 484.174 2.71454 484.174C2.71454 484.174 8.89373 490.352 10.407 488.839C11.9203 487.326 7.63267 479.005 7.63267 479.005L31.5508 466.313C31.5508 466.313 128.484 489.637 139.33 486.107Z" fill="#F7A491"/>
<path d="M134.664 284.218C134.664 284.218 133.024 284.596 132.604 322.503C132.394 342.885 129.157 375.749 125.962 403.023C138.279 402.309 155.639 402.981 167.619 404.704C176.783 347.76 171.697 285.436 134.664 284.218Z" fill="#E4D2DA"/>
<path d="M-16.2434 332.841C-16.7058 371.504 -11.9558 430.34 12.7611 463.666C19.1925 472.365 31.5509 447.402 31.5509 447.402C31.5509 447.402 22.0088 291.74 11.6681 293.337C2.21017 294.85 -15.865 301.028 -16.2434 332.841Z" fill="#F48C7F"/>
<path d="M29.0709 412.269C25.5819 366.461 18.8142 292.244 11.6682 293.379C2.21024 294.85 -19.3539 301.028 -19.7322 332.841C-20.0265 358.392 -18.0508 394.072 -9.51763 424.078C-1.82516 419.665 9.60847 414.244 18.6881 413.614C22.1771 413.403 25.666 412.899 29.0709 412.269Z" fill="#E4D2DA"/>
<path d="M56.1415 253.371C56.1415 253.371 54.9645 256.775 54.1659 261.314C53.3672 265.894 55.1327 270.349 51.6437 274.804C48.1548 279.258 60.9336 306.029 60.9336 306.029C60.9336 306.029 63.6238 296.195 62.4889 287.664C61.3119 279.174 62.7831 258.204 64.5486 256.439C66.2721 254.758 56.1415 253.371 56.1415 253.371Z" fill="#F48C7F"/>
<path d="M43.8672 234.207L34.4513 244.419L27.7676 253.623C27.7676 253.623 29.365 270.349 28.4822 273.291C27.5995 276.233 28.0198 278.292 29.1127 282.158C30.2057 286.025 37.1836 304.978 37.6039 312.206C37.6039 312.206 24.7831 351.962 21.7986 358.939C18.8561 365.915 6.03531 414.37 3.42912 427.23C1.66363 435.845 9.14594 464.674 17.4269 468.246C25.4977 471.735 35.0397 472.911 42.9004 427.23C44.876 415.673 58.2013 325.528 58.2013 321.746C58.2013 318.006 61.9424 313.887 62.2367 306.029C62.5729 296.783 53.3672 286.319 53.3672 286.319L59.4203 276.527L64.8008 275.854C64.8008 275.854 70.6437 281.696 72.3251 280.015C74.0066 278.334 69.2566 272.913 69.2566 272.913C69.2566 272.913 71.1482 275.14 72.7035 273.585C74.2588 272.03 65.5154 262.028 65.5154 262.028L52.2322 255.85L49.542 256.271L37.9822 267.029L37.3937 254.421L42.2278 245.428C42.2278 245.428 51.1813 236.014 43.8672 234.207Z" fill="#F79C8D"/>
<path d="M68.1215 272.408C67.7011 272.24 67.2808 272.03 66.8604 271.82C66.4401 271.61 66.0197 271.4 65.6414 271.232C65.221 271.022 64.8427 270.811 64.4224 270.601C64.002 270.391 63.6237 270.181 63.2033 269.971L63.4556 270.055C62.6149 270.097 61.8162 270.139 60.9755 270.181C60.1348 270.223 59.3361 270.223 58.4954 270.223L58.9157 270.097C57.1923 271.526 55.4268 272.913 53.6193 274.215C52.6945 274.888 51.8118 275.518 50.887 276.149C49.9622 276.779 49.0374 277.409 48.0286 277.956C48.7852 277.115 49.6259 276.359 50.4246 275.56C51.2233 274.804 52.064 274.047 52.9047 273.291C54.5861 271.82 56.3095 270.391 58.075 269.004L58.2852 268.836H58.4954C59.3361 268.836 60.1348 268.878 60.9755 268.878C61.8162 268.92 62.6149 268.962 63.4556 269.004H63.6237L63.7078 269.088C64.0861 269.34 64.4644 269.593 64.8427 269.887C65.221 270.139 65.5994 270.433 65.9356 270.685C66.314 270.979 66.6503 271.232 67.0286 271.526C67.4069 271.82 67.7852 272.114 68.1215 272.408Z" fill="#F47458"/>
<path d="M68.1217 270.895C67.7014 270.433 67.323 269.929 66.9447 269.467L65.8098 267.996L64.6748 266.525L63.5819 265.012L63.8761 265.222C63.1195 265.012 62.4049 264.802 61.6482 264.592C60.8916 264.382 60.177 264.171 59.4204 263.961C57.9491 263.499 56.4779 263.037 55.0067 262.574L55.5531 262.49L53.3252 263.961L51.0553 265.39C50.2987 265.852 49.5421 266.315 48.7434 266.777C47.9868 267.239 47.1881 267.66 46.3894 268.08C47.062 267.491 47.7345 266.903 48.4071 266.315C49.0797 265.726 49.7943 265.18 50.5089 264.634L52.6527 262.995L54.7965 261.398L55.0487 261.23L55.385 261.314C56.8562 261.734 58.3275 262.196 59.8407 262.701C60.5553 262.953 61.312 263.163 62.0266 263.415C62.7412 263.667 63.4978 263.919 64.2124 264.171L64.4226 264.255L64.5067 264.382L65.4735 265.978L66.3983 267.575L67.323 269.214C67.5332 269.761 67.8275 270.307 68.1217 270.895Z" fill="#F47458"/>
<path d="M46.3473 164.823C46.3473 164.823 40.5464 177.893 40.5464 205.084C40.5464 232.274 47.0619 247.866 59.7566 256.943C72.4512 266.021 87.0796 261.986 94.2256 256.943C107.088 247.866 119.615 214.161 116 190.249C112.343 166.252 101.456 119.142 46.3473 164.823Z" fill="#F7A491"/>
<path d="M65.5575 137.423C64.2965 137.423 47.6084 143.937 39.6217 160.999C31.635 178.019 39.6217 201.259 39.6217 201.259C39.6217 201.259 45.6748 186.046 50.8031 184.743C55.9314 183.483 75.5199 189.829 83.2965 182.012C91.073 174.237 100.699 158.099 100.699 158.099C100.699 158.099 98.8075 178.692 92.9226 184.575C87.0376 190.459 110.704 193.821 116.42 186.551C122.137 179.28 124.869 209.202 124.869 209.202C124.869 209.202 127.77 170.791 109.442 150.997C91.115 131.287 65.5575 137.423 65.5575 137.423Z" fill="#2D2861"/>
</svg>
