<svg width="66" height="64" viewBox="0 0 66 64" fill="none" xmlns="http://www.w3.org/2000/svg">
<ellipse cx="32.5079" cy="32" rx="32.5079" ry="32" fill="#DF0909"/>
<path d="M30.5252 36.04L29.8052 22H34.2452L33.4952 36.04H30.5252ZM32.0252 43.21C31.3252 43.21 30.7452 42.98 30.2852 42.52C29.8252 42.06 29.5952 41.51 29.5952 40.87C29.5952 40.23 29.8252 39.69 30.2852 39.25C30.7452 38.79 31.3252 38.56 32.0252 38.56C32.7252 38.56 33.2952 38.79 33.7352 39.25C34.1752 39.69 34.3952 40.23 34.3952 40.87C34.3952 41.51 34.1752 42.06 33.7352 42.52C33.2952 42.98 32.7252 43.21 32.0252 43.21Z" fill="#FFE3ED"/>
</svg>
