<svg width="47" height="47" viewBox="0 0 47 47" fill="#DF0909" xmlns="http://www.w3.org/2000/svg">
<path d="M23.018 11.3013C16.4876 11.3013 11.2202 16.6117 11.2202 23.1953C11.2202 29.7789 16.4876 35.0892 23.018 35.0892C29.5483 35.0892 34.8157 29.7789 34.8157 23.1953C34.8157 16.6117 29.5483 11.3013 23.018 11.3013ZM23.018 30.9279C18.7979 30.9279 15.3479 27.4601 15.3479 23.1953C15.3479 18.9304 18.7876 15.4626 23.018 15.4626C27.2483 15.4626 30.6881 18.9304 30.6881 23.1953C30.6881 27.4601 27.2381 30.9279 23.018 30.9279ZM38.0501 10.8148C38.0501 12.3572 36.818 13.589 35.2983 13.589C33.7684 13.589 32.5465 12.3468 32.5465 10.8148C32.5465 9.28276 33.7787 8.04058 35.2983 8.04058C36.818 8.04058 38.0501 9.28276 38.0501 10.8148ZM45.864 13.6304C45.6894 9.91421 44.8474 6.62241 42.147 3.9103C39.4568 1.19819 36.1916 0.349365 32.5055 0.163037C28.7064 -0.0543457 17.3193 -0.0543457 13.5202 0.163037C9.84431 0.339014 6.57913 1.18784 3.87868 3.89995C1.17824 6.61206 0.34654 9.90386 0.161719 13.6201C-0.0539062 17.4501 -0.0539062 28.93 0.161719 32.7601C0.336272 36.4763 1.17824 39.7681 3.87868 42.4802C6.57913 45.1923 9.83404 46.0412 13.5202 46.2275C17.3193 46.4449 28.7064 46.4449 32.5055 46.2275C36.1916 46.0515 39.4568 45.2027 42.147 42.4802C44.8372 39.7681 45.6791 36.4763 45.864 32.7601C46.0796 28.93 46.0796 17.4605 45.864 13.6304ZM40.9559 36.8697C40.155 38.8986 38.6046 40.4617 36.5818 41.2794C33.5528 42.4906 26.3653 42.2111 23.018 42.2111C19.6706 42.2111 12.4729 42.4802 9.45413 41.2794C7.44163 40.472 5.89118 38.9089 5.08002 36.8697C3.87868 33.816 4.15592 26.5699 4.15592 23.1953C4.15592 19.8207 3.88895 12.5642 5.08002 9.52085C5.88092 7.49194 7.43136 5.92886 9.45413 5.11108C12.4831 3.89995 19.6706 4.17944 23.018 4.17944C26.3653 4.17944 33.5631 3.9103 36.5818 5.11108C38.5943 5.91851 40.1448 7.48159 40.9559 9.52085C42.1573 12.5746 41.88 19.8207 41.88 23.1953C41.88 26.5699 42.1573 33.8263 40.9559 36.8697Z"/>
</svg>
