<svg width="68" height="68" viewBox="0 0 68 68" fill="none" xmlns="http://www.w3.org/2000/svg">
<g filter="url(#filter0_d_38_51)">
<circle cx="31" cy="31" r="31" fill="#64B161"/>
</g>
<path d="M42.9076 18.9406C39.7277 15.7531 35.4929 14 30.9924 14C21.7031 14 14.1442 21.5589 14.1442 30.8482C14.1442 33.8156 14.9183 36.7147 16.3906 39.2723L14 48L22.9326 45.6549C25.3915 46.9982 28.1616 47.704 30.9848 47.704H30.9924C40.2741 47.704 48 40.1451 48 30.8558C48 26.3554 46.0875 22.1281 42.9076 18.9406ZM30.9924 44.8656C28.4728 44.8656 26.0063 44.1902 23.8585 42.9152L23.35 42.6116L18.0527 44.0004L19.4643 38.8321L19.1304 38.3009C17.7263 36.0696 16.9902 33.4969 16.9902 30.8482C16.9902 23.1299 23.2741 16.846 31 16.846C34.7415 16.846 38.2554 18.3031 40.8964 20.9518C43.5375 23.6004 45.1616 27.1143 45.154 30.8558C45.154 38.5817 38.7107 44.8656 30.9924 44.8656ZM38.6728 34.3772C38.2554 34.1647 36.1835 33.1478 35.7964 33.0112C35.4094 32.867 35.1286 32.7987 34.8478 33.2237C34.567 33.6487 33.7625 34.5897 33.5121 34.8781C33.2692 35.1589 33.0188 35.1969 32.6013 34.9844C30.1272 33.7473 28.5031 32.7759 26.8714 29.9754C26.4388 29.2317 27.304 29.2848 28.1085 27.6759C28.2451 27.3951 28.1768 27.1522 28.0705 26.9397C27.9643 26.7272 27.1219 24.6554 26.7728 23.8129C26.4313 22.9933 26.0821 23.1071 25.8241 23.092C25.5813 23.0768 25.3004 23.0768 25.0196 23.0768C24.7388 23.0768 24.2835 23.183 23.8964 23.6004C23.5094 24.0254 22.4241 25.0424 22.4241 27.1143C22.4241 29.1862 23.9344 31.1897 24.1393 31.4705C24.3518 31.7513 27.1067 36.0013 31.3339 37.8304C34.0054 38.9839 35.0527 39.0826 36.3884 38.8853C37.2004 38.7638 38.8777 37.8683 39.2268 36.8817C39.5759 35.8951 39.5759 35.0527 39.4696 34.8781C39.371 34.6884 39.0902 34.5821 38.6728 34.3772Z" fill="white"/>
<defs>
<filter id="filter0_d_38_51" x="0" y="0" width="68" height="68" filterUnits="userSpaceOnUse" color-interpolation-filters="sRGB">
<feFlood flood-opacity="0" result="BackgroundImageFix"/>
<feColorMatrix in="SourceAlpha" type="matrix" values="0 0 0 0 0 0 0 0 0 0 0 0 0 0 0 0 0 0 127 0" result="hardAlpha"/>
<feOffset dx="3" dy="3"/>
<feGaussianBlur stdDeviation="1.5"/>
<feComposite in2="hardAlpha" operator="out"/>
<feColorMatrix type="matrix" values="0 0 0 0 0 0 0 0 0 0 0 0 0 0 0 0 0 0 0.25 0"/>
<feBlend mode="normal" in2="BackgroundImageFix" result="effect1_dropShadow_38_51"/>
<feBlend mode="normal" in="SourceGraphic" in2="effect1_dropShadow_38_51" result="shape"/>
</filter>
</defs>
</svg>
