<svg width="12" height="14" viewBox="0 0 12 14" fill="none" xmlns="http://www.w3.org/2000/svg">
<path d="M2.27866 2.2378L2.27869 2.23777C3.26144 1.28794 4.59961 0.75 6.00006 0.75C7.40052 0.75 8.73869 1.28794 9.72144 2.23777C10.7033 3.18676 11.25 4.46832 11.25 5.79899C11.25 7.12966 10.7033 8.41122 9.72144 9.36021L6.00006 12.957L2.27869 9.36021L2.27866 9.36018C1.79228 8.89014 1.40788 8.3335 1.14611 7.72274C0.88436 7.11203 0.75 6.45842 0.75 5.79899C0.75 5.13956 0.88436 4.48595 1.14611 3.87524C1.40788 3.26448 1.79228 2.70784 2.27866 2.2378ZM6.00006 8.20576C6.64552 8.20576 7.26946 7.95818 7.73339 7.50979C8.19819 7.06055 8.46424 6.44571 8.46424 5.79899C8.46424 5.15227 8.19819 4.53743 7.73339 4.08819C7.26946 3.6398 6.64552 3.39222 6.00006 3.39222C5.35461 3.39222 4.73066 3.6398 4.26673 4.08819C3.80193 4.53743 3.53588 5.15227 3.53588 5.79899C3.53588 6.44571 3.80193 7.06055 4.26673 7.50979C4.73066 7.95818 5.35461 8.20576 6.00006 8.20576Z" stroke="#323232" stroke-opacity="0.7" stroke-width="1.5"/>
</svg>
