<svg width="12" height="12" viewBox="0 0 12 12" fill="none" xmlns="http://www.w3.org/2000/svg">
<path d="M10.2602 1.7984C9.71021 1.24559 9.05507 0.807288 8.33301 0.509048C7.61096 0.210808 6.83645 0.058605 6.05466 0.0613149C2.779 0.0613149 0.109274 2.71768 0.109274 5.97696C0.109274 7.0216 0.385246 8.03639 0.901193 8.9318L0.0612793 12.0001L3.21096 11.1763C4.08087 11.6479 5.05877 11.8986 6.05466 11.8986C9.33033 11.8986 12.0001 9.24221 12.0001 5.98293C12.0001 4.40105 11.3821 2.91467 10.2602 1.7984ZM6.05466 10.8957C5.16676 10.8957 4.29684 10.6569 3.53492 10.2092L3.35494 10.1018L1.48313 10.5913L1.98108 8.7766L1.86109 8.59155C1.36779 7.80775 1.10586 6.90176 1.10517 5.97696C1.10517 3.26687 3.32494 1.0582 6.04866 1.0582C7.36853 1.0582 8.6104 1.57157 9.54031 2.50279C10.0007 2.95883 10.3656 3.50126 10.6138 4.09865C10.862 4.69605 10.9886 5.33651 10.9862 5.98293C10.9982 8.69302 8.77839 10.8957 6.05466 10.8957ZM8.76639 7.21859C8.6164 7.14696 7.88448 6.7888 7.75249 6.73507C7.6145 6.68732 7.51851 6.66344 7.41652 6.8067C7.31454 6.95594 7.03256 7.29022 6.94857 7.38573C6.86458 7.48721 6.77459 7.49915 6.62461 7.42155C6.47462 7.34992 5.99467 7.18874 5.43073 6.68732C4.98677 6.29334 4.6928 5.80982 4.60281 5.66058C4.51882 5.51135 4.59081 5.43375 4.66881 5.35615C4.7348 5.29048 4.81879 5.18303 4.89078 5.09946C4.96278 5.01589 4.99277 4.95023 5.04077 4.85472C5.08876 4.75324 5.06477 4.66967 5.02877 4.59804C4.99277 4.5264 4.6928 3.79814 4.57282 3.49967C4.45283 3.21314 4.32684 3.24896 4.23685 3.24299H3.94888C3.84689 3.24299 3.69091 3.27881 3.55292 3.42804C3.42093 3.57727 3.03697 3.93544 3.03697 4.6637C3.03697 5.39196 3.57092 6.09635 3.64291 6.19186C3.7149 6.29334 4.6928 7.78568 6.18065 8.4244C6.53462 8.57961 6.81059 8.66915 7.02656 8.73481C7.38053 8.84823 7.7045 8.83032 7.96247 8.7945C8.25044 8.75272 8.84438 8.43634 8.96437 8.09012C9.09035 7.74389 9.09035 7.4514 9.04836 7.38573C9.00636 7.32007 8.91637 7.29022 8.76639 7.21859Z" fill="#323232" fill-opacity="0.7"/>
</svg>
