<svg width="174" height="179" viewBox="0 0 174 179" fill="none" xmlns="http://www.w3.org/2000/svg">
<path d="M167.973 110.409C168.171 111.2 168.171 112.188 168.171 112.978C168.369 114.955 167.577 115.152 165.202 114.362C164.806 114.164 164.41 113.966 164.014 113.966C163.816 113.966 163.42 114.164 163.222 114.362C163.222 114.559 163.42 114.559 163.42 114.757C164.212 115.943 164.212 115.943 163.42 116.931C163.222 117.128 163.222 117.326 163.024 117.919C163.222 117.721 163.024 117.524 162.628 117.721C162.43 117.721 162.43 117.919 162.232 117.919C162.034 118.116 162.034 118.512 162.034 118.709C162.034 118.907 162.232 119.105 162.43 119.302C162.628 119.105 162.826 119.105 163.024 118.907C163.024 118.709 163.024 118.314 163.024 117.919C163.222 117.721 163.42 117.721 163.42 117.721C165.004 117.721 165.202 118.116 164.41 119.5C164.014 120.093 164.014 120.093 165.004 120.29C165.993 120.488 165.993 120.488 165.4 121.278C165.202 121.476 165.004 121.674 164.608 121.871C163.618 121.674 163.42 120.686 162.628 120.488C162.034 120.093 161.242 120.093 160.648 119.5C159.857 118.907 159.065 119.5 159.065 120.686C159.065 120.883 159.065 120.883 159.065 121.278V121.081H158.669C158.273 121.278 157.877 121.476 158.471 121.871C158.471 121.871 158.867 121.674 159.065 121.278C160.054 121.081 160.054 121.674 160.054 122.266C160.054 122.662 159.659 123.057 159.065 122.859C158.669 122.859 158.075 122.859 157.679 122.859C157.481 122.859 157.283 123.057 157.283 123.057C157.283 123.255 157.481 123.452 157.679 123.65C158.867 124.045 159.263 124.638 159.065 125.231C158.471 126.812 157.283 127.997 156.689 129.578C156.689 129.776 156.095 129.776 155.897 129.776C155.303 129.974 155.105 130.171 155.105 130.566C155.105 131.357 155.699 131.555 156.293 131.555C156.689 131.555 157.283 131.555 157.679 131.752C157.877 131.752 158.075 132.147 158.075 132.543C158.075 132.74 157.877 133.135 157.679 133.333C157.085 133.531 156.491 133.531 155.699 133.531C155.105 133.531 154.907 133.926 154.907 134.321C152.334 133.926 150.75 135.112 149.958 136.89C149.76 137.483 149.364 137.878 148.77 138.274C147.187 139.262 147.979 140.645 147.979 141.831C147.979 142.028 148.573 142.226 148.77 142.226C149.958 142.226 150.948 142.226 151.146 143.807C151.146 144.005 151.74 144.005 151.938 144.202C152.928 144.202 152.928 144.4 152.334 145.19C151.542 146.376 151.542 146.376 153.126 146.969C153.324 147.166 153.72 147.166 153.918 147.364C154.116 147.562 154.116 147.957 153.918 148.155C153.72 148.747 153.324 148.55 152.928 148.155C152.73 147.957 152.532 147.957 152.136 147.957C151.938 148.747 151.542 149.538 150.948 150.131C150.75 150.328 151.146 150.921 151.344 151.316C151.74 151.712 151.542 151.909 151.344 152.305C150.75 153.095 149.76 153.095 148.77 153.095C147.979 153.095 147.979 153.293 148.573 154.083C148.77 154.478 148.968 154.676 148.573 154.676C147.583 154.874 146.593 154.874 145.603 154.874C144.217 154.676 143.821 155.269 143.821 156.257C143.821 156.454 142.832 156.454 142.634 156.652C142.238 156.85 142.04 157.245 142.04 157.64C142.04 158.035 142.436 158.431 143.03 158.431C144.811 158.431 146.791 158.431 148.573 158.431C148.77 158.431 148.77 158.035 148.77 157.838C148.77 157.838 148.573 157.64 148.375 157.64C147.979 157.64 147.781 157.64 147.385 157.64C147.187 157.64 146.989 157.443 146.989 157.443C147.187 157.245 147.385 156.85 147.583 156.85C148.375 156.85 149.166 156.454 149.958 157.245C150.354 157.64 150.75 157.64 150.948 157.245C151.344 156.652 151.74 157.047 151.938 157.443C152.136 157.838 151.938 158.233 151.938 158.826C151.938 159.419 151.74 159.419 150.75 159.024C150.552 158.826 148.968 159.616 148.968 160.012C148.968 160.209 148.968 160.209 149.166 160.407C149.364 160.407 149.364 160.604 149.562 160.604C151.344 160.407 152.928 160.604 153.918 161.988C154.116 162.185 154.907 162.581 155.105 162.383C156.689 161.988 157.877 163.174 159.263 163.371C159.857 163.371 160.054 164.359 159.659 164.754C159.263 165.15 158.867 165.743 158.273 165.94C157.679 166.138 157.085 165.743 156.491 165.347C156.293 165.15 155.897 165.15 155.699 165.15C154.709 165.347 153.918 164.557 153.126 164.359C152.532 165.347 151.344 165.15 150.552 165.15C149.562 165.15 148.375 164.754 147.583 165.15C146.593 165.743 145.405 165.743 144.613 166.533C144.019 167.126 143.425 166.731 142.436 166.928H142.634C142.634 165.743 142.238 164.557 143.623 163.766C143.425 163.569 143.425 163.569 143.227 163.371C142.832 163.371 142.436 163.174 142.238 163.174C141.644 163.569 141.05 163.766 140.852 164.359C140.258 165.15 139.466 164.754 138.872 165.347C138.872 165.347 138.674 165.545 138.872 165.545C138.872 165.743 139.07 165.94 139.268 165.94C140.456 165.94 141.644 165.743 142.634 166.928C142.832 167.719 143.623 167.916 144.019 168.312C144.415 168.904 145.207 168.904 145.801 168.509C145.999 168.312 146.197 168.114 146.593 167.916C147.187 167.324 147.781 166.731 148.573 167.126C149.364 167.324 148.968 168.114 149.166 168.707C149.166 169.102 149.562 169.497 149.76 169.695C151.146 170.09 152.532 170.485 153.522 171.474C153.918 171.671 154.314 172.264 154.116 172.462C153.72 173.054 153.126 173.647 152.73 174.24C152.532 174.24 152.532 174.043 152.334 174.043C151.344 173.054 150.354 173.252 149.166 173.845C147.781 174.438 147.781 174.438 146.791 173.647C145.999 173.054 145.405 172.462 144.613 171.869C144.217 171.474 142.04 171.869 142.04 172.462C142.04 173.054 141.446 173.45 141.248 173.845C140.654 174.635 141.248 175.228 142.04 175.821C141.644 176.216 141.248 176.612 140.654 177.007C139.664 177.6 139.268 179.181 137.486 178.983C137.091 177.995 136.101 177.204 135.903 176.019C135.903 175.624 135.705 175.228 134.913 175.624C134.517 175.821 134.121 176.019 133.725 176.216C132.933 176.414 132.339 177.797 131.152 177.007C130.558 176.414 130.558 175.426 129.766 174.833C129.37 174.438 129.766 173.647 129.568 173.054C129.568 172.659 129.172 172.659 128.974 172.857C128.38 173.845 126.994 173.252 126.598 174.043C126.4 174.24 126.005 174.438 125.807 174.24C125.015 174.043 124.421 173.647 123.629 173.45C122.639 173.252 123.035 172.462 122.639 172.264C121.847 171.474 121.451 170.881 121.649 169.893C121.649 169.3 121.451 169.102 120.857 169.102C120.066 169.102 119.67 168.904 119.67 168.114C119.67 166.928 119.67 165.743 119.67 164.557C119.67 163.174 119.67 162.976 117.69 162.976C117.096 162.976 116.7 162.778 116.7 162.383C116.7 161.988 116.502 161.395 116.7 161C117.096 159.814 115.908 159.221 115.116 158.628C114.919 158.826 114.721 159.024 114.721 159.419C114.523 159.616 114.721 160.012 114.523 160.209C113.929 160.604 113.731 160.012 113.533 159.616C113.137 159.419 112.741 158.826 112.939 158.628C113.137 157.443 112.345 156.257 111.355 156.257C110.365 156.059 109.771 155.269 108.782 155.269C108.782 154.281 109.969 153.885 110.563 153.293C110.959 152.7 110.761 152.304 110.365 151.712C109.771 150.921 108.782 150.724 107.792 150.724C107.792 149.34 107.594 148.352 106.406 147.166C105.416 146.376 105.02 144.993 103.832 144.202C103.832 144.202 103.635 144.005 103.635 143.807C103.635 142.819 103.437 142.226 102.843 141.435C102.447 141.04 102.645 140.052 102.645 139.262C102.645 138.866 102.843 138.274 102.645 137.878C102.447 137.681 101.655 137.285 101.457 137.285C100.269 138.076 98.8834 138.274 97.8936 139.262C97.1017 140.25 96.1119 141.238 94.9241 141.633C93.9343 141.831 93.1424 143.016 91.9546 142.819C91.5587 143.807 90.1729 143.412 89.579 144.005C88.5892 145.388 87.2035 145.388 85.6197 145.19C85.0259 145.19 84.6299 145.388 84.6299 145.981C84.6299 146.771 84.6299 147.759 84.6299 148.352C83.8381 149.143 83.2442 148.747 82.6503 148.747C81.0666 148.747 79.8788 148.747 78.691 149.933C78.0971 150.526 76.9093 151.119 75.9195 151.316C74.9296 150.328 74.9296 150.921 74.7317 151.712C74.7317 151.909 74.5337 151.909 74.3358 152.107C74.3358 152.107 73.9398 152.107 73.9398 151.909C73.5439 150.724 73.3459 149.538 74.1378 148.55C74.5337 148.155 74.5337 147.759 74.1378 147.759C73.7419 147.759 72.95 147.957 72.95 148.155C72.5541 149.143 73.148 150.328 71.7622 150.921C73.5439 152.305 71.7622 152.897 70.7724 153.095C69.9805 153.293 69.5846 153.688 69.1887 154.083C67.407 155.862 67.407 156.059 66.0212 155.862C64.4375 155.664 63.6457 156.257 62.6558 157.245C62.0619 157.64 61.2701 157.838 60.6762 158.233C58.4986 160.209 58.4986 160.209 56.7169 160.407C56.123 160.407 55.7271 160.604 55.7271 161C55.7271 162.581 54.5393 162.185 53.7474 162.185C52.7576 162.185 52.7576 162.383 53.3515 163.174C53.5495 163.569 53.7474 163.766 53.5495 163.766C51.3718 164.162 49.1942 165.15 47.2146 166.138C47.0166 166.335 46.4227 165.94 45.8288 165.94C45.4329 165.94 45.4329 164.952 44.839 165.545C43.6512 166.533 42.8594 167.916 40.8797 167.916C39.494 167.916 38.3062 169.102 36.7225 168.707C35.7326 168.509 35.3367 169.893 34.1489 169.695C33.1591 169.497 31.9713 169.3 31.1794 169.695C30.3876 170.09 29.5957 170.485 28.6059 170.485C27.6161 170.485 26.8242 170.288 26.0324 169.695C25.4385 170.683 24.4486 170.485 23.4588 170.485C22.667 170.485 21.8751 170.288 21.2812 169.695C20.4893 168.904 19.6975 168.509 19.4995 167.324C19.3016 166.533 18.7077 165.94 18.1138 165.15C17.9158 165.347 17.9158 165.347 17.7178 165.545C16.5301 166.335 15.9362 166.335 15.5402 165.347C15.1443 163.964 14.1545 163.371 12.7687 163.569C11.7789 163.766 10.987 161.79 9.99722 163.569C9.79925 163.569 9.79925 163.371 9.60129 163.371C9.20536 162.778 9.40332 161.988 9.99722 161.988C10.987 161.988 11.5809 161.79 11.383 160.802C11.383 160.209 11.383 159.616 11.9769 159.221C12.3728 159.024 12.3728 158.826 12.1748 158.628C11.383 158.233 11.5809 157.443 11.383 156.652C11.383 156.059 11.5809 155.862 12.1748 155.862C12.5708 155.862 13.1647 155.862 13.7585 155.862C14.9463 155.664 14.1545 154.478 14.9463 154.281C15.7382 154.083 16.5301 154.083 17.3219 153.885C17.5199 153.49 17.5199 153.095 17.5199 152.897C17.5199 152.7 17.3219 152.502 17.124 152.107C16.926 152.107 16.926 152.305 16.728 152.305C15.3423 153.095 15.5402 153.095 14.5504 151.712C13.5606 150.328 12.9667 149.34 14.5504 147.957C14.7484 147.759 14.5504 147.166 14.9463 146.178C15.1443 145.981 14.7484 145.981 14.7484 146.178V146.574H15.1443C15.1443 146.574 15.3423 146.376 15.5402 146.178C15.5402 146.178 15.3423 145.981 14.9463 146.376C13.9565 146.574 13.3626 145.981 12.5708 145.981C11.7789 145.783 10.7891 146.178 10.1952 145.981C9.60129 145.783 9.0074 144.993 8.21554 145.19L7.81961 144.993C8.01757 144.795 8.01757 144.597 8.21554 144.4H8.61147C8.80943 144.4 10.987 144.4 11.185 144.4C11.5809 144.4 11.9769 144.202 12.5708 144.005C12.3728 143.807 12.1748 143.609 11.9769 143.412C11.7789 142.819 11.5809 142.621 11.5809 142.226C12.9667 142.621 13.7585 141.04 15.1443 141.238C15.3423 141.238 15.5402 140.843 15.5402 140.645C15.5402 139.855 15.5402 139.262 15.5402 138.471C15.5402 138.274 15.1443 138.076 14.9463 137.878C14.7484 138.076 14.7484 138.076 14.5504 138.274C14.3524 138.471 13.9565 138.866 13.5606 139.262C13.1647 139.657 12.9667 139.657 12.5708 139.262C11.9769 138.669 11.5809 138.274 11.5809 137.483C11.5809 137.088 10.987 137.088 10.987 137.285C10.5911 138.076 9.99722 139.064 9.79925 139.855C9.20536 140.843 8.21554 140.447 7.62164 140.447V138.669C7.81961 138.669 8.01757 138.669 8.01757 138.669C8.21554 138.471 8.61147 138.274 8.61147 138.076C8.4135 137.088 9.0074 136.1 8.21554 135.112C7.22571 134.124 9.40332 133.531 8.61147 132.74C8.4135 132.543 8.61147 132.147 8.4135 131.95C8.21554 131.555 7.81961 131.159 7.81961 131.159C9.60129 129.776 7.62164 127.602 9.00739 126.219C9.00739 126.219 9.40332 126.219 9.99722 126.416C10.3931 126.416 10.1952 126.219 9.99722 126.219H9.60129C9.60129 126.219 9.60129 126.416 9.60129 126.614C9.79925 126.812 9.99722 127.009 10.1952 127.009C10.1952 127.009 10.3931 126.812 9.99722 126.416C9.60129 125.626 9.60129 125.033 9.60129 124.44C9.79925 124.638 10.1952 124.638 10.3931 124.836C11.5809 125.428 12.7687 125.626 13.3626 125.231C13.7585 124.836 13.5606 124.045 12.3728 123.057C12.1748 122.859 11.7789 122.859 11.5809 122.662C11.7789 121.674 12.9667 119.302 13.7585 118.512C14.3524 117.919 14.5504 118.512 14.5504 118.907C14.7484 119.105 14.5504 119.697 14.7484 119.697C15.1443 119.895 15.7382 120.093 16.1341 119.895C16.5301 119.697 16.728 119.105 16.5301 118.907C16.1341 118.314 15.5402 117.524 14.9463 117.524C13.3626 117.524 13.7585 116.536 13.5606 115.745C13.5606 115.152 13.7585 114.955 14.3524 114.757C15.3423 114.559 16.1341 114.955 16.728 115.745V115.547H16.3321C15.9362 115.745 15.5402 115.943 16.1341 116.338C16.1341 116.338 16.5301 116.14 16.728 115.745C17.3219 115.152 18.7077 113.176 18.7077 112.583C18.7077 111.99 18.7077 111.397 19.3016 111.002C19.6975 110.805 19.6975 110.607 19.4995 110.409C18.3117 109.816 18.5097 108.828 18.9056 108.038C19.3016 107.445 19.8955 106.655 21.0832 106.457C21.6771 106.457 22.667 105.469 22.667 105.074C22.667 104.086 23.8548 103.69 23.8548 102.702C23.8548 102.307 24.2507 102.109 24.8446 101.912C26.8242 101.714 26.8242 101.714 26.8242 99.9356C26.8242 98.3546 26.8242 98.3546 24.8446 98.3546C25.0425 97.7618 24.4486 97.5641 24.0527 97.3665C24.0527 97.1689 23.8548 97.1689 23.8548 96.9713C24.0527 96.7737 24.4486 96.576 24.6466 96.576C24.8446 96.576 25.2405 96.7737 25.6364 96.7737C26.0324 96.7737 26.0324 97.7617 26.6263 97.1689C26.8242 97.1689 26.8242 96.9713 26.8242 96.7737C27.4181 95.5879 27.814 94.4022 28.8039 93.4141C29.1998 93.0189 28.8039 92.4261 28.21 91.8332C28.012 91.6356 27.814 91.438 27.814 91.0427C27.814 90.8451 28.012 90.4499 28.21 90.2522C28.4079 90.4499 28.8039 90.4499 29.0018 90.6475C29.5957 91.2403 29.7937 90.8451 29.9917 90.4499C30.1896 89.857 29.9917 88.6713 31.1794 89.857C31.5754 90.2522 31.7733 90.2522 31.9713 89.857C32.3672 88.6713 33.1591 87.6832 33.753 86.4975C34.1489 86.1023 34.1489 85.5094 33.951 85.3118C33.555 84.7189 33.1591 84.3237 32.5652 84.1261C32.3672 84.1261 31.9713 84.7189 31.5754 84.9165C30.9815 85.3118 29.9917 84.9165 29.9917 84.3237C29.9917 83.9284 30.1896 83.3356 30.5856 83.3356C31.1794 83.138 31.9713 83.3356 32.5652 83.3356C33.3571 83.3356 33.951 83.138 34.3469 82.7427C34.9408 81.7546 36.3265 81.7546 37.1184 81.1618C37.1184 81.1618 37.1184 80.9642 37.5143 80.3713C37.5143 80.1737 37.3164 80.1737 37.3164 80.3713V80.7665H37.7123C37.9102 80.5689 38.1082 80.3713 38.1082 80.1737C38.1082 80.1737 37.9102 79.9761 37.5143 80.3713C36.1286 80.7665 35.9306 79.9761 35.3367 79.5808C34.9408 79.1856 35.3367 78.1975 35.9306 78.1975C36.1286 78.1975 36.3265 78.1975 36.5245 78.1975C38.7021 78.7904 39.8899 77.407 41.0777 76.2213C41.8695 75.4308 41.2756 74.2451 40.0879 73.6523C39.494 73.4547 39.098 72.6642 39.494 72.2689C40.4838 71.2809 41.4736 70.2928 42.6614 69.5023C43.0573 69.3047 43.6512 69.3047 44.0472 69.3047C45.2349 69.107 45.2349 69.1071 45.4329 68.119C45.6309 66.7356 45.6309 66.9332 47.0166 66.7356C47.4126 66.7356 48.0064 66.538 48.4024 66.3404C48.6003 66.1428 48.4024 64.5618 48.2044 64.3642C47.8085 63.969 47.0166 64.3642 46.4227 65.1547C45.2349 64.5618 45.037 64.3642 45.6309 63.7713C46.4227 62.9809 46.8187 62.5856 45.8288 61.5975C45.037 60.8071 45.037 59.6214 46.0268 59.0285C47.2146 58.238 47.6105 57.2499 47.4126 56.0642C47.0166 54.6809 48.4024 53.6928 48.6003 52.5071C48.6003 52.1118 49.5902 52.1118 50.382 52.3095C50.778 52.5071 50.778 53.2976 51.3718 52.7047C51.7678 52.3095 51.5698 51.519 50.9759 51.3214C50.58 51.1238 49.7881 51.1238 49.7881 50.9261C49.5902 50.3333 49.5902 49.5428 49.9861 48.95C50.1841 48.3571 50.9759 48.1595 49.9861 47.7642C49.7881 47.7642 49.7881 47.5666 49.5902 47.369C48.6003 46.7761 48.4024 45.9857 48.6003 44.9976C48.6003 44.4047 48.2044 44.2071 47.8085 44.2071C46.8187 44.4047 46.0268 42.6262 45.2349 44.2071C43.8492 44.2071 42.4634 44.4047 41.2756 44.2071C40.6818 44.0095 39.8899 43.0214 39.296 43.4166C38.5041 44.0095 37.7123 44.2071 36.7225 44.2071C35.9306 44.2071 35.1387 44.2071 34.5448 43.4166C34.5448 43.4166 34.3469 43.219 34.1489 43.4166C32.9611 44.6023 31.5754 44.6023 30.3876 43.4166C30.3876 43.4166 29.7937 43.8119 29.0018 44.2071C28.6059 43.8119 28.012 43.219 27.4181 42.6262C26.8242 42.2309 26.8242 42.2309 25.6364 42.6262C25.2405 42.8238 25.0425 43.4166 24.6466 42.8238C24.2507 42.2309 23.4588 42.2309 22.8649 42.4285C21.6771 42.6262 20.6873 42.2309 19.8955 41.4404C19.4995 41.0452 18.9056 40.65 18.3117 40.65C15.9362 40.4524 15.5402 39.8595 15.5402 38.6738C15.5402 38.2785 15.1443 38.2785 14.9463 38.6738C14.3524 39.4643 13.5606 39.2666 12.7687 39.2666C11.9769 38.0809 11.7789 37.2905 11.7789 36.5C11.7789 35.1166 11.7789 35.1166 9.79925 34.7214C9.20536 34.7214 8.80943 34.5238 8.80943 34.1286C8.80943 33.5357 8.4135 33.1405 8.01757 32.7452C7.62164 32.35 7.62164 32.35 6.63182 32.7452C6.23589 32.9428 5.64199 33.1405 5.24607 32.9428C4.25624 32.35 3.46438 31.5595 4.05828 29.9786C4.05828 29.7809 3.86031 29.7809 3.86031 29.9786V30.3738H4.25624C4.45421 30.1762 4.65217 29.9786 4.65217 29.7809C4.65217 29.7809 4.45421 29.5833 4.05828 29.9786C3.66235 30.3738 3.46438 30.3738 3.26642 30.3738C1.48474 31.5595 1.48474 31.5595 0.296947 30.3738C-0.0989824 29.9786 -0.0989824 29.7809 0.296947 29.3857C0.890841 28.7929 1.6827 28.3976 1.6827 27.8048C1.88066 26.4214 2.87049 26.8167 3.86031 26.8167C4.25624 28.3976 5.64199 28.7928 7.22571 28.5952C7.42368 28.5952 7.62164 28.2 7.81961 28.0024C7.22571 27.6071 6.82978 26.8167 5.83996 26.8167C5.24606 26.8167 4.45421 26.8167 3.86031 26.8167C3.86031 26.0262 3.86031 25.4333 3.86031 24.6429C3.86031 23.6548 3.86031 22.6667 4.85014 21.8762C5.44403 21.481 4.65217 20.0976 3.66235 19.7024C1.6827 18.9119 1.08881 17.5286 1.48474 15.75C1.48474 15.5524 1.6827 15.5524 1.88066 15.3548C2.27659 14.9595 4.25624 15.1572 4.45421 15.75C4.65217 16.1453 4.45421 16.5405 4.45421 17.331C4.65217 17.1334 4.45421 16.9357 4.05828 17.1334C3.86031 17.1334 3.86031 17.331 3.66235 17.331C3.66235 17.5286 3.46438 17.9238 3.46438 18.1214C3.46438 18.3191 3.66235 18.5167 3.86031 18.7143C4.05828 18.5167 4.25624 18.5167 4.45421 18.3191C4.45421 18.1214 4.45421 17.7262 4.45421 17.331C6.82978 18.7143 7.02775 18.9119 5.83996 20.6905C5.64199 21.0857 5.44403 21.2833 5.83996 21.2833C7.81961 21.2833 7.62164 22.6667 7.62164 23.6548C7.62164 23.8524 8.4135 24.05 8.80943 24.05C9.00739 24.05 9.20536 23.6548 9.40332 23.6548C8.01757 22.8643 8.4135 21.481 8.4135 20.4929C8.4135 19.3072 8.01757 18.1214 8.80943 17.1334C9.79925 17.7262 10.5911 18.3191 10.3931 19.7024C10.3931 20.0976 10.7891 20.6905 10.987 20.6905C11.9769 20.6905 12.3728 21.0857 12.3728 22.0738C12.3728 22.4691 12.9667 22.6667 13.3626 23.0619C13.5606 23.2595 13.7585 23.2595 14.1545 23.2595C14.1545 23.2595 14.5504 23.0619 14.3524 22.8643C13.9565 21.0857 16.1341 19.9 15.7382 18.3191C15.7382 18.3191 15.9362 18.1214 16.1341 18.1214L16.5301 18.3191C16.5301 19.5048 16.728 20.6905 16.728 21.8762C16.728 22.0738 17.124 22.2714 17.124 22.4691C17.3219 22.2714 17.5199 22.0738 17.7178 21.8762C17.9158 21.481 18.5097 21.2833 18.5097 20.8881C18.5097 19.7024 19.4995 19.9 20.2914 19.9C20.6873 19.9 21.0832 20.0976 21.6771 20.2952C23.2609 20.8881 23.2609 20.8881 24.8446 20.2952C25.2405 20.0976 25.6364 20.0976 26.2303 19.9C27.4181 19.5048 26.2303 19.1095 26.2303 18.7143C26.0324 18.3191 26.0324 17.9238 26.2303 17.5286C26.4283 16.7381 26.4283 15.75 25.8344 15.75C24.4486 15.5524 23.0629 14.7619 21.8751 14.7619C19.1036 14.5643 17.7178 13.5762 16.728 11.9953C17.124 11.7976 17.5199 11.4024 17.7178 11.2048C17.9158 10.8096 18.1138 11.0072 18.5097 11.2048C19.8955 11.9953 20.0934 11.9953 21.4792 11.4024C21.8751 11.2048 22.0731 10.8096 22.469 11.4024C22.8649 11.7976 23.2609 11.7976 23.4588 11.4024C23.6568 11.2048 23.4588 10.8096 23.4588 10.6119C23.4588 10.2167 23.6568 9.82146 23.8548 9.42622C24.0527 9.82146 24.2507 10.0191 24.4486 10.4143C24.6466 10.8096 24.8446 11.2048 25.4385 11.2048C26.4283 11.2048 26.4283 11.6 26.4283 12.3905C26.6263 12.9834 27.4181 13.3786 27.814 12.9834C28.4079 12.5881 28.8039 11.7976 29.5957 12.7857C29.9917 13.181 30.9815 13.181 31.3774 12.9834C32.9611 11.9953 34.1489 11.6 35.3367 11.7976C36.1286 11.9953 36.5245 11.4024 36.9204 11.0072C37.5143 10.2167 38.3062 9.82146 39.494 10.0191C39.8899 10.0191 40.4838 9.82146 40.6818 9.42622C41.2756 8.83337 41.8695 9.2286 42.4634 9.2286C43.2553 10.0191 43.6512 10.4143 44.4431 9.82146C45.2349 9.22861 46.0268 8.83337 46.8187 9.62384C47.4126 10.2167 48.4024 9.82146 49.1942 10.0191C50.1841 8.83337 51.5698 9.2286 52.7576 9.2286C53.7474 9.2286 54.1434 8.04289 55.3311 8.24051C56.123 7.25242 57.5088 6.85718 57.7067 5.67147C58.6965 5.67147 59.8843 5.27623 59.6864 6.85718C59.6864 7.0548 60.0823 7.25242 60.2803 7.45004C60.4782 7.25242 60.6762 7.25242 60.6762 7.0548C60.6762 5.86909 61.666 5.27623 62.4579 4.68338C63.0518 4.09052 62.6558 3.49766 62.8538 2.90481C64.0416 2.70719 65.0314 2.90481 66.2192 2.31195C67.6049 1.52148 69.3866 1.52148 70.7724 2.31195C71.5642 2.70719 71.7622 2.90481 71.9602 1.91672C71.9602 1.52148 71.7622 0.928622 71.9602 0.533385C72.1581 -0.059471 72.5541 0.138148 72.95 0.533385C73.148 0.731004 73.5439 0.731004 73.5439 0.731004C75.5235 -1.04756 77.1073 0.928622 78.691 1.32386C79.2849 1.52148 79.6808 2.11433 80.0767 2.50957C80.6706 2.90481 81.2645 2.70719 81.8584 2.31195C83.2442 1.52148 83.4421 1.52148 84.234 2.50957C84.6299 3.10243 85.0258 3.69528 85.2238 4.28814C87.5994 4.09052 86.6096 6.65956 88.3912 7.0548C88.7872 7.45004 88.7872 8.04289 88.9851 8.43813C88.9851 9.03099 88.9851 9.62384 88.9851 10.2167C88.9851 10.4143 89.3811 10.8096 89.579 10.8096C89.975 10.8096 90.7668 10.6119 90.7668 10.4143C90.9648 8.43813 93.5383 8.04289 94.3302 6.06671C94.9241 6.65956 95.1221 6.85718 95.518 7.25242C95.7159 7.45004 95.9139 7.84527 95.7159 7.84527C95.122 8.43813 94.3302 8.83337 93.3404 9.2286C92.5485 9.42622 93.5383 9.82146 93.7363 10.0191C93.7363 10.2167 93.9343 10.2167 93.9343 10.4143C93.5383 10.8096 93.3404 11.0072 92.9444 11.4024C92.1526 11.9953 92.1526 12.3905 92.9444 12.9834C92.9444 12.9834 92.9444 13.181 92.7465 13.181C91.7566 13.9715 91.9546 14.1691 93.1424 14.3667C93.7363 14.3667 94.1322 14.7619 93.9343 15.3548C93.9343 15.5524 93.9343 15.1572 93.9343 15.1572C93.5383 15.1572 92.9444 15.1572 92.5485 15.1572C92.3505 15.1572 92.1526 15.5524 91.9546 15.75C91.9546 15.75 92.1526 15.9476 92.3505 15.9476C92.9444 16.1453 93.5383 16.1453 93.9343 15.3548C94.5282 15.1572 95.32 15.1572 95.9139 15.1572C96.1119 15.5524 96.1119 15.9476 96.3098 15.9476C97.2997 16.3429 97.6956 15.75 98.2895 15.3548C98.8834 14.9595 99.2793 14.3667 98.6854 13.7738C98.0915 13.181 97.8936 12.7857 98.6854 12.1929C98.8834 11.9953 98.2895 11.6 97.8936 11.6C97.6956 11.6 97.2997 11.4024 97.1017 11.2048C97.2997 11.0072 97.4976 10.6119 97.6956 10.6119C99.0813 10.6119 100.269 10.6119 101.655 10.6119C102.645 10.6119 103.041 10.0191 103.635 9.62384C104.03 9.42622 104.03 9.22861 103.635 9.03099C102.843 8.43813 102.645 8.04289 103.437 7.25242C103.832 6.65956 104.228 6.06671 104.426 5.47385C104.822 5.86909 105.218 6.06671 105.416 6.26433C106.01 6.65956 106.208 7.25242 105.614 7.84527C104.426 9.03099 104.426 10.0191 105.812 11.2048C106.01 11.4024 106.01 12.1929 106.208 12.3905C107.198 13.181 107.198 13.7738 106.208 14.5643C105.812 14.7619 105.812 14.9595 106.406 15.1572C107 15.3548 107.594 15.3548 108.188 15.75C108.98 16.5405 109.376 17.1334 108.98 17.5286C108.386 18.3191 107.594 17.9238 107 17.9238C106.802 16.9357 106.01 16.3429 105.02 16.1453C105.02 15.3548 105.218 14.7619 105.02 13.9715C104.822 13.5762 104.426 13.5762 104.03 13.9715C103.635 14.3667 103.239 14.3667 103.041 13.9715C102.843 13.5762 102.645 12.7857 102.645 12.7857C101.655 12.7857 102.051 13.5762 102.051 13.9715C102.051 14.9595 102.051 15.9476 102.051 17.1334C102.051 17.331 102.051 16.9357 102.051 16.9357C101.655 16.9357 101.061 16.9357 100.665 16.9357C100.467 16.9357 100.269 17.331 100.071 17.5286C100.071 17.5286 100.269 17.7262 100.467 17.7262C101.061 17.9238 101.655 17.9238 102.051 17.1334C102.249 16.9357 102.447 16.9357 102.447 16.9357C103.041 16.1453 104.03 15.9476 105.02 16.1453C104.822 16.5405 104.624 16.9357 104.228 17.1334C103.832 17.331 103.832 17.5286 104.228 17.7262C105.02 18.3191 104.426 18.5167 104.03 18.9119C104.03 18.9119 104.03 19.5048 104.228 19.5048C104.822 19.7024 105.614 19.5048 105.812 18.9119C106.01 18.3191 105.812 17.7262 106.802 17.7262C106.802 17.9238 106.802 18.1214 106.802 18.1214C107.396 18.5167 107.792 18.7143 107.198 19.7024C105.812 21.481 105.812 22.4691 105.812 24.4452C105.812 25.0381 106.208 25.4333 106.802 25.8286C107.594 26.4214 107.99 27.0143 107.99 28.0024C107.792 29.5833 107.792 31.3619 107.99 32.9428C108.188 33.9309 107 34.3262 106.802 35.3143C106.802 36.1047 107.396 37.0928 106.406 37.8833C105.614 38.4762 106.208 38.6738 106.604 39.2666C107.198 40.0571 107 40.4524 105.812 40.8476C105.614 41.0452 105.02 41.0452 105.02 41.0452C105.02 43.0214 103.437 44.4047 102.843 45.9857C102.645 46.5785 102.051 46.9738 101.853 47.369C101.655 47.7642 102.051 48.1595 101.457 48.5547C100.863 48.95 100.863 49.5428 100.665 50.1357C100.665 50.3333 100.071 50.5309 99.8732 50.5309C99.0813 50.5309 98.6854 50.9261 98.6854 51.519C98.6854 52.1118 98.6854 52.7047 98.6854 53.2976C98.6854 53.6928 98.2895 54.088 97.6956 54.088C97.1017 54.088 96.7058 54.2857 96.7058 54.6809C96.9037 55.8666 96.1119 56.6571 95.7159 57.4476C95.32 58.0404 94.9241 58.6333 94.7261 59.2261C94.5282 59.819 94.9241 60.6095 94.1322 61.2023C93.9343 61.3999 93.9343 62.1904 93.7363 62.388C92.3505 63.1785 92.1526 64.7594 90.9648 65.7475C90.3709 66.3404 89.3811 66.9332 90.7668 67.7237C89.3811 68.5142 89.975 69.6999 89.777 70.8856C89.777 71.0832 89.579 71.4785 89.3811 71.6761C88.1933 72.4666 87.4014 73.6523 87.7974 75.0356C87.9953 75.6285 87.0055 76.0237 87.0055 76.4189C87.0055 77.6046 85.2238 78.1975 85.8177 79.5808C85.8177 79.9761 85.4218 80.3713 85.2238 80.7665C84.8279 81.1618 83.8381 81.557 83.8381 81.9523C83.8381 82.7427 82.8482 83.138 82.8482 83.7308C82.8482 84.5213 82.2543 84.9165 81.6605 85.5094C81.0666 86.1023 80.4727 86.4975 79.8788 87.0903C79.0869 87.6832 78.493 88.2761 78.691 89.2641C78.691 89.4618 78.493 89.857 78.295 90.0546C77.3052 90.8451 76.7113 91.8332 76.1174 92.8213C75.3256 94.007 75.7215 94.9951 75.7215 96.1808C75.7215 97.1689 75.1276 97.3665 74.1378 97.3665C73.9398 97.3665 73.7419 97.7618 73.7419 97.9594C73.7419 98.157 73.7419 98.5522 73.9398 98.7498C74.1378 98.9475 74.5337 99.1451 74.7317 98.9475C75.7215 98.3546 77.1073 98.157 78.0971 97.3665C78.691 96.7737 79.0869 96.1808 80.0767 96.3784C81.6604 95.1927 83.8381 94.9951 85.4218 93.8094C87.0055 94.2046 87.9953 93.4141 88.7872 92.4261C88.9851 92.2284 88.9851 92.2284 89.1831 92.0308C90.3709 91.8332 91.9546 92.0308 92.5485 90.8451C93.1424 89.857 94.7261 90.2522 95.32 89.2641C96.7058 89.4618 97.4976 88.0784 98.8834 88.2761C99.6752 88.4737 100.665 88.4737 101.259 88.2761C101.853 87.8808 102.645 87.4856 103.437 87.288C104.03 87.0903 104.228 86.4975 105.02 86.4975C105.614 86.4975 105.812 85.1142 106.802 86.1023C107.594 86.8927 107.792 85.5094 108.782 85.5094C110.563 85.5094 110.563 85.3118 110.761 83.9285C110.959 82.9404 111.751 82.5451 112.345 82.9404C113.335 83.9285 113.929 83.9284 115.314 83.138C117.096 82.1499 119.076 81.7546 121.253 81.9523C121.847 81.9523 122.639 81.9523 123.035 81.3594C123.827 80.1737 125.015 79.9761 126.4 80.1737C126.796 80.1737 126.994 78.988 127.786 79.7785C128.578 80.3713 128.776 80.3713 128.974 79.3832C128.974 79.1856 129.172 78.7904 129.37 78.5927C129.964 78.3951 130.162 79.5808 130.756 78.988C130.954 78.7904 130.954 78.1975 131.152 77.8023C131.35 77.407 131.548 77.407 131.943 77.8023C132.339 78.3951 132.933 78.5927 133.725 78.3951C134.517 78.1975 134.913 78.5927 135.507 78.988C136.101 79.3832 136.695 79.3832 137.289 78.7904C137.882 78.1975 138.674 77.9999 139.268 78.7904C139.664 79.1856 140.06 79.3832 140.258 79.7785C140.654 80.3713 141.05 79.9761 141.248 79.5808C141.446 79.1856 141.446 78.7904 141.644 78.3951C142.634 77.407 143.623 77.2094 145.009 77.8023C145.405 77.9999 145.603 78.5927 145.999 77.9999C146.197 77.8023 146.395 77.8023 146.791 77.6047C147.385 78.988 149.364 77.8023 150.156 78.988C150.354 79.3832 150.354 79.7785 150.552 80.3713C151.146 79.7785 151.542 79.3832 152.136 78.988C152.532 78.5927 152.532 78.5927 153.522 78.988C154.313 79.3832 155.303 79.9761 156.095 79.9761C157.877 80.1737 157.283 80.9642 157.481 81.7546C157.481 82.5451 157.481 82.5451 158.471 82.1499C159.857 81.557 160.252 81.557 160.45 82.7427C160.45 83.138 160.45 83.5332 160.648 84.1261C160.648 84.3237 160.846 84.3237 161.044 84.3237L161.44 84.1261C161.44 83.7308 161.638 83.3356 161.638 82.9404C161.638 81.9523 162.43 81.3594 163.222 80.9642C164.212 80.5689 164.608 81.3594 165.202 81.9523C165.4 82.1499 165.4 82.3475 165.597 82.9404V82.7427C165.597 82.7427 165.4 82.7427 165.202 82.7427C163.816 82.7427 163.618 82.7427 163.618 83.7308C163.618 83.9284 163.816 84.1261 164.014 84.3237C164.014 84.3237 164.212 84.3237 164.41 84.3237C164.806 83.9284 165.4 83.5332 165.795 82.9404C166.389 82.7427 166.587 82.3475 166.983 82.1499C167.181 81.9523 167.577 81.9523 167.775 81.9523C168.765 81.9523 169.755 81.557 170.745 82.3475C170.349 82.7427 169.953 83.138 169.359 83.5332C169.359 83.5332 168.963 83.3356 168.765 83.3356C168.567 83.3356 168.369 83.138 167.973 83.138C167.973 83.3356 167.577 83.7308 167.775 83.9285C167.973 84.3237 168.171 84.7189 168.567 84.9165C169.755 85.9046 170.943 87.0903 172.13 88.0784C173.318 88.8689 172.526 89.857 172.328 91.0427C171.536 90.4499 170.745 89.6594 169.953 89.0665C169.359 88.2761 168.567 88.4737 167.775 88.4737C167.181 88.4737 166.983 88.0784 166.587 87.8808C165.993 87.4856 165.795 88.0784 165.597 88.2761C165.4 88.4737 164.41 88.8689 165.202 89.0665C166.191 89.4618 165.4 91.0427 166.587 91.0427C167.379 91.0427 167.775 91.2403 167.775 92.0308C167.775 92.426 167.775 93.0189 167.775 93.4141C168.171 95.1927 167.181 96.7737 166.389 98.157C166.191 98.3546 165.795 98.5522 165.795 98.7498C165.795 99.1451 165.993 99.5403 166.389 99.9356C166.587 100.133 167.181 100.133 167.379 99.9356C167.973 99.5403 168.369 99.1451 168.765 98.7498C169.359 98.157 169.755 98.157 169.755 99.1451C169.953 100.726 171.932 99.5403 172.13 100.924C172.328 100.726 172.724 100.726 172.922 100.528C173.516 99.9356 173.714 100.331 173.912 100.726C174.11 100.924 173.912 101.319 173.912 101.517C173.912 102.109 173.912 102.702 172.922 102.702C171.734 102.702 170.547 102.702 169.359 102.702C169.161 102.702 168.963 103.295 168.963 103.295C169.953 103.888 169.557 104.283 168.963 104.876C168.765 105.074 168.963 105.666 169.161 106.062C169.953 106.852 170.943 107.643 171.932 108.433C170.349 109.816 169.755 110.607 167.973 110.409H168.171C168.171 110.409 168.171 110.212 168.171 110.014C167.973 109.816 167.577 109.421 167.379 109.816C167.379 109.816 167.775 110.212 167.973 110.409ZM130.756 162.778C130.558 162.976 130.36 162.976 130.162 163.174C130.162 163.174 130.162 163.371 130.162 163.569C130.36 163.569 130.558 163.569 130.558 163.569C130.756 163.371 130.954 163.174 130.954 162.976C130.954 162.976 130.756 162.778 129.964 163.569C129.37 163.569 128.974 163.766 128.974 164.359C127.984 164.557 127.39 165.15 126.994 165.94C126.796 166.138 126.994 166.533 127.192 166.731C127.588 166.928 127.984 167.126 128.38 167.126C128.578 167.126 128.974 166.731 128.974 166.533C128.974 165.743 128.974 165.15 128.974 164.359C129.766 164.557 130.162 164.162 130.756 162.778ZM161.836 114.757C161.638 114.955 161.44 114.955 161.242 115.152V115.547H161.638C161.836 115.35 162.034 115.152 162.034 114.955C162.034 114.955 161.836 114.757 161.044 115.943C161.044 115.745 161.044 115.547 161.044 115.547H160.648C160.252 115.745 159.857 115.943 160.45 116.338C160.846 116.536 161.044 116.14 161.836 114.757ZM148.177 115.745C148.77 115.745 149.166 115.745 149.562 115.745C149.76 115.745 149.958 115.35 150.156 115.152C150.156 115.152 149.958 114.955 149.76 114.955C149.166 114.955 148.573 114.757 147.979 114.955C147.781 114.955 147.385 115.152 147.385 115.35C147.187 116.14 147.979 115.547 147.385 115.745C146.989 115.943 146.593 116.14 146.395 116.338C146.197 116.733 146.395 117.128 146.395 117.524C145.009 117.524 145.603 118.512 145.207 118.907C144.811 119.5 144.019 119.895 143.425 120.488C142.832 120.883 142.04 121.278 142.238 122.266C142.238 122.464 142.238 122.464 142.04 122.662C141.644 122.662 141.446 122.662 140.654 122.662C140.852 122.662 141.05 122.662 141.05 122.662C141.05 122.662 141.05 122.464 141.05 122.266C140.852 122.069 140.456 121.674 140.258 122.069C140.258 122.069 140.456 122.464 141.05 122.662C140.852 124.045 138.674 124.243 138.872 125.824C138.872 125.824 138.278 126.021 138.08 126.219C137.684 126.416 137.091 126.614 137.091 126.812C136.893 127.405 137.091 127.997 137.091 128.59C137.091 128.986 137.486 128.986 137.684 128.788C138.08 128.195 138.872 128.393 139.268 127.997C139.862 127.8 140.06 127.009 140.258 126.219C140.654 125.231 141.446 124.44 142.238 123.452C143.03 122.662 143.227 121.476 144.415 120.883C145.999 120.093 145.801 118.709 145.801 117.524C146.197 117.326 146.593 117.128 146.791 116.931C147.385 116.536 147.187 116.14 148.177 115.745ZM79.4828 142.226C77.8991 142.226 77.7012 142.424 77.7012 143.609C77.7012 144.005 77.8991 144.202 78.0971 144.005C78.691 143.214 79.6808 143.214 80.4727 142.819C80.4727 142.819 80.6706 142.621 80.4727 142.621C80.4727 142.424 80.2747 142.424 80.0767 142.424C79.6808 142.424 79.4828 142.424 77.5032 144.597C77.5032 144.4 77.5032 144.202 77.5032 144.202H77.1073C76.7113 144.4 76.3154 144.597 76.9093 144.993C77.3052 144.795 77.7012 144.597 79.4828 142.226ZM58.3006 11.7976C58.6965 11.9953 58.8945 11.7976 58.6965 11.4024C58.6965 11.2048 58.4986 11.2048 58.3006 11.2048C58.1026 11.2048 57.7067 11.0072 57.5088 11.0072C57.3108 11.0072 56.9149 11.2048 56.7169 11.4024C57.1128 11.4024 57.1128 11.6 57.3108 11.7976C57.5088 11.7976 57.9047 11.7976 59.6864 12.9834C59.6864 12.7857 59.6864 12.3905 59.4884 12.1929C59.4884 11.9953 59.2904 11.9953 59.0925 11.7976C58.6965 11.6 58.4986 11.7976 58.4986 12.1929C58.4986 13.3786 58.3006 13.3786 57.5088 12.9834C57.3108 12.9834 57.1128 12.7857 57.1128 12.7857C56.5189 13.181 55.7271 13.5762 55.5291 14.1691C55.3311 14.7619 55.1332 15.75 55.925 16.1453C56.123 16.3429 56.9149 16.1453 57.1128 15.9476C57.5088 15.5524 57.7067 14.5643 57.9047 14.5643C59.6864 14.5643 59.8843 13.9715 58.3006 11.7976ZM13.7585 135.309C13.3626 135.705 13.3626 135.902 13.1647 135.902C12.9667 136.1 12.7687 136.297 12.5708 136.495C12.7687 136.693 12.9667 136.89 13.3626 136.89C13.9565 136.89 14.5504 136.89 15.3423 136.693C15.7382 136.495 15.7382 136.297 15.3423 136.1C14.5504 135.705 14.5504 134.914 14.7484 134.124C14.7484 133.136 14.3524 132.543 13.7585 131.752C13.1647 130.962 12.9667 131.357 12.7687 131.752C12.3728 132.543 11.185 132.147 10.7891 132.543C11.7789 133.531 12.7687 134.321 12.9667 128.985C12.7687 129.183 12.5708 129.578 12.5708 129.776C12.7687 130.369 13.1647 130.962 13.5606 131.555C13.5606 131.555 14.3524 131.357 14.3524 131.159C14.7484 130.566 13.7585 129.183 13.7585 135.309ZM68.7927 10.4143C68.5948 10.2167 68.5948 10.0191 68.3968 9.82146H68.0009C68.0009 9.82146 68.0009 10.0191 68.0009 10.2167C68.1988 10.4143 68.3968 10.6119 68.5948 10.6119C68.5948 10.6119 68.7927 10.4143 62.0619 8.43813C62.8538 9.03099 63.4477 9.62384 64.2395 10.2167C64.8334 10.6119 65.2294 10.8096 65.8233 10.2167C66.2192 10.2167 66.6151 10.0191 67.407 10.0191C68.1988 10.0191 68.1988 8.83337 69.1887 9.03099C70.5744 9.42622 71.3663 8.43813 71.7622 7.64766C71.9602 7.25242 72.1581 6.65956 72.5541 6.26433C72.752 6.06671 72.752 5.47385 72.5541 5.07861C72.5541 4.68338 71.7622 4.68338 70.9704 5.07861C70.5744 5.27623 70.1785 5.47385 69.7826 5.67147C68.7927 5.86909 67.8029 5.27623 67.0111 6.06671C66.2192 6.85718 64.8334 6.65956 64.2395 7.45004C62.8538 7.25242 62.4579 8.24051 68.7927 10.4143ZM54.9352 52.7047C55.5291 52.7047 55.925 52.7047 56.321 52.7047C56.5189 52.7047 56.7169 52.3095 56.9149 52.1118C55.7271 51.3214 55.925 50.7285 56.7169 49.7404C57.5088 48.95 56.9149 48.5547 55.5291 47.369C54.9352 46.7761 53.9454 46.3809 53.9454 45.3928C53.9454 44.9976 53.5495 44.6023 52.9556 45.1952C51.5698 46.3809 51.5698 46.9738 52.5596 48.5547C52.7576 48.95 52.9556 48.95 52.5596 49.1476C52.3617 49.3452 52.1637 49.5428 51.9657 49.7404C53.1535 50.3333 52.7576 51.9142 54.1434 52.5071C54.3413 52.5071 54.7372 52.5071 54.9352 52.7047ZM55.7271 54.8785C55.7271 54.8785 52.9556 53.6928 52.9556 53.8904C52.1637 54.8785 50.778 54.4833 49.7881 54.4833C49.3922 54.4833 48.9963 54.6809 48.9963 54.6809C48.6003 55.4714 48.2044 56.4595 47.8085 57.2499C47.8085 57.4476 48.2044 57.8428 48.4024 57.8428C49.1942 57.8428 49.9861 58.238 50.778 57.4476C50.9759 57.2499 50.9759 57.2499 51.1739 57.0523C52.3617 55.8666 53.5495 54.6809 55.7271 54.8785ZM10.3931 24.6429C10.987 25.0381 11.5809 25.631 12.1748 26.0262C12.3728 26.2238 12.5708 26.619 12.9667 26.619C13.3626 26.619 13.9565 26.619 14.3524 26.4214C14.7484 26.2238 15.1443 25.631 15.5402 25.2357C15.5402 25.2357 15.3423 24.8405 15.1443 25.0381C13.5606 25.2357 13.1647 23.6548 11.9769 23.2595C11.5809 23.8524 10.987 24.2476 10.3931 24.6429ZM149.958 132.74C149.76 132.74 149.562 132.543 149.562 132.543C148.968 133.135 148.375 133.728 147.781 134.124C146.791 134.716 147.187 135.705 147.187 136.495C147.187 136.495 147.385 136.693 147.583 136.89H147.979C148.177 136.297 148.375 135.902 148.77 135.309C149.166 134.716 149.76 134.321 150.354 133.728C150.354 133.531 150.156 133.135 149.958 132.74ZM81.8584 7.0548C81.8584 6.85718 81.8584 6.85718 81.6605 6.65956C81.6605 6.46194 81.4625 6.46194 81.2645 6.26433C80.4727 7.45004 78.493 7.0548 77.8991 8.43813V8.63575C77.8991 8.83337 78.0971 8.83337 78.295 8.83337C78.691 8.83337 79.0869 9.03099 79.2849 8.83337C79.8788 8.04289 80.8686 8.24051 81.6605 7.64766C81.8584 7.84527 81.8584 7.45004 81.8584 7.0548ZM119.076 154.281C119.076 154.478 119.076 154.478 119.076 154.676C119.076 155.466 119.472 155.664 120.264 155.664C120.857 155.664 121.055 155.269 121.055 154.874C121.055 154.676 121.055 154.281 121.055 154.083C121.055 153.293 120.66 153.095 119.868 153.095C119.274 153.095 119.076 153.49 119.076 153.885C119.076 153.885 119.076 154.083 119.076 154.281ZM49.7881 61.9928C49.7881 61.7952 49.7881 61.7952 49.7881 61.5975C49.7881 60.6095 49.7881 60.6095 48.7983 61.2023C48.2044 61.3999 47.6105 61.5975 47.2146 61.7952C47.0166 61.7952 47.0166 61.9928 46.8187 61.9928C47.0166 62.1904 47.0166 62.1904 47.2146 62.388C47.4126 62.388 47.4126 62.5856 47.6105 62.5856C48.0064 62.5856 48.2044 62.5856 48.6003 62.7833C49.7881 63.1785 49.7881 63.1785 49.7881 61.9928ZM148.177 112.188C146.791 111.793 145.999 112.583 145.207 113.374V113.571C145.207 113.769 145.405 113.769 145.603 113.769C145.999 113.769 146.395 113.966 146.593 113.769C147.187 112.978 148.177 112.978 148.968 112.583V112.386C148.77 112.188 148.375 112.188 148.177 112.188ZM138.674 169.102C138.872 168.904 139.07 168.707 139.07 168.707C140.258 167.521 140.258 167.521 139.07 166.533C138.674 166.335 138.08 166.138 137.882 166.335C136.893 166.928 138.08 167.126 138.278 167.521C138.278 167.916 138.278 168.509 138.674 169.102ZM88.9851 25.4333C89.777 26.2238 90.5689 26.8167 91.3607 27.4095C91.3607 27.4095 91.7566 27.2119 91.9546 27.2119C91.9546 27.2119 91.9546 27.0143 91.9546 26.8167C91.7566 25.8286 90.9648 25.0381 89.777 25.0381C89.3811 25.0381 89.1831 25.4333 88.9851 25.4333ZM150.156 162.976C150.156 161.988 149.76 161.79 148.968 161.79C148.375 161.79 148.177 162.185 148.177 162.581C148.177 163.174 148.573 163.569 149.364 163.371C149.76 163.569 149.958 163.174 150.156 162.976ZM88.9851 27.4095C88.7872 27.2119 88.3912 27.0143 87.9953 27.0143C87.2035 27.0143 86.8075 27.4095 87.0055 28.0024C87.0055 28.3976 87.4014 28.7929 87.9953 28.7929C88.5892 28.5952 88.9851 28.2 88.9851 27.4095ZM20.2914 23.2595C19.6975 23.2595 19.4995 23.2595 19.4995 23.2595C19.3016 23.4571 18.9056 23.4571 18.7077 23.6548C18.9056 23.8524 19.3016 24.05 19.4995 24.05C20.0934 24.05 20.6873 24.05 21.4792 23.8524C21.6771 23.8524 21.8751 23.6548 21.8751 23.6548C21.8751 23.4571 21.6771 23.4571 21.4792 23.4571C20.8853 23.4571 20.2914 23.2595 20.2914 23.2595ZM24.6466 116.931C24.2507 116.733 23.8548 116.338 23.6568 116.14C23.4588 115.943 23.2609 115.943 23.0629 115.943C22.8649 116.338 22.667 116.733 22.8649 117.128C23.0629 117.524 23.8548 117.721 24.4486 117.524C24.4486 117.326 24.4486 117.128 24.6466 116.931ZM157.283 125.428C157.085 125.231 157.085 125.033 156.887 124.638C156.689 124.638 156.491 124.836 156.293 124.836C156.095 125.033 155.897 125.231 155.699 125.428C155.501 125.428 155.501 125.626 155.303 125.824C155.501 126.021 155.699 126.219 156.095 126.219C156.887 126.416 157.283 126.219 157.283 125.428ZM78.493 147.759C78.8889 147.364 79.0869 147.166 79.4828 146.771C79.6808 146.574 79.6808 146.376 79.8788 146.178C79.4828 146.178 78.8889 145.783 78.493 145.981C77.8991 146.178 77.7011 146.969 78.0971 147.364C78.0971 147.364 78.295 147.562 78.493 147.759ZM22.469 130.962C22.271 130.566 21.2812 130.566 20.8853 130.962C20.8853 130.962 20.8853 131.159 20.8853 131.357C21.0832 131.752 22.0731 131.752 22.469 131.357C22.469 131.357 22.469 131.159 22.469 130.962ZM84.8279 139.657C84.6299 139.855 84.036 140.052 84.234 140.25C84.432 140.645 85.4218 140.645 85.8177 140.25V140.052C85.4218 139.855 85.2238 139.657 84.8279 139.657ZM15.1443 144.005C15.3423 143.807 15.5402 143.807 15.5402 143.609C15.3423 143.412 15.3423 143.412 15.1443 143.412C14.9463 143.412 14.5504 143.214 14.1545 143.214C13.9565 143.214 13.5606 143.412 13.3626 143.609C13.5606 143.807 13.7585 144.005 14.1545 144.005C14.5504 144.005 14.9463 144.005 15.1443 144.005ZM13.3626 161.79C13.7585 161.593 14.1545 161.593 14.3524 161.395V161.197C13.9565 160.802 12.9667 160.802 12.7687 161.197C12.7687 161.395 13.1647 161.79 13.3626 161.79ZM23.4588 165.347C23.8548 165.347 24.2507 165.15 24.6466 164.952C24.2507 164.754 23.8548 164.557 23.4588 164.557C23.2609 164.557 22.8649 164.754 22.667 164.952C22.8649 165.15 23.0629 165.347 23.4588 165.347ZM45.6309 13.181C45.6309 12.9834 45.6309 12.9834 45.6309 12.7857C45.2349 12.3905 44.2451 12.3905 44.0472 12.7857V12.9834C44.2451 13.7738 45.2349 13.7738 45.6309 13.181ZM37.5143 21.2833C37.5143 21.0857 37.5143 21.0857 37.5143 20.8881C37.1184 20.4929 36.1286 20.4929 35.9306 20.8881V21.0857C36.3265 21.6786 37.3164 21.6786 37.5143 21.2833ZM75.1276 6.46194C75.1276 6.65956 74.9296 6.85718 74.9296 6.85718C75.1276 7.0548 75.3256 7.0548 75.5235 7.0548C75.5235 7.0548 75.7215 6.85718 75.9195 6.85718C75.7215 6.85718 75.3256 6.65956 75.1276 6.46194ZM72.5541 13.3786C72.752 13.181 72.752 13.181 72.95 12.9834C72.752 12.9834 72.5541 12.7857 72.3561 12.7857C72.3561 12.7857 72.1581 12.9834 71.9602 12.9834C71.9602 13.181 72.3561 13.3786 72.5541 13.3786ZM100.269 14.3667C100.467 14.1691 100.665 14.1691 101.061 13.9715C100.863 13.9715 100.665 13.7738 100.665 13.7738C100.467 13.7738 100.269 13.9715 100.071 13.9715C100.071 14.1691 100.269 14.1691 100.269 14.3667ZM81.4625 16.1453C81.2645 16.1453 81.0666 16.3429 81.0666 16.3429C81.0666 16.5405 81.2645 16.7381 81.4625 16.9357C81.6604 16.7381 81.8584 16.7381 81.8584 16.7381C81.6604 16.5405 81.4625 16.3429 81.4625 16.1453ZM83.2442 16.9357C83.4421 16.7381 83.6401 16.7381 83.8381 16.5405C83.6401 16.3429 83.6401 16.3429 83.4421 16.3429C83.2442 16.3429 83.0462 16.5405 82.8482 16.5405C83.0462 16.7381 83.0462 16.9357 83.2442 16.9357ZM53.5495 61.2023C53.3515 61.0047 53.3515 60.8071 53.1535 60.6095C52.9556 60.8071 52.7576 60.8071 52.7576 60.8071C52.7576 61.0047 52.9556 61.2023 53.1535 61.3999C53.3515 61.3999 53.5495 61.2023 53.5495 61.2023ZM47.0166 72.0713C47.2146 71.8737 47.4126 71.8737 47.6105 71.6761C47.4126 71.4785 47.4126 71.4785 47.2146 71.4785C47.0166 71.4785 46.8187 71.6761 46.6207 71.6761C46.8187 71.8737 47.0166 71.8737 47.0166 72.0713ZM149.76 85.3118C149.958 85.3118 150.156 85.1142 150.156 85.1142C149.958 85.1142 149.76 84.9165 149.562 84.9165C149.562 84.9165 149.364 85.1142 149.166 85.1142C149.364 85.1142 149.562 85.3118 149.76 85.3118ZM159.263 86.6951C159.065 86.6951 159.065 86.4975 158.867 86.4975C158.669 86.4975 158.471 86.6951 158.273 86.6951C158.471 86.8927 158.471 86.8927 158.669 86.8927C158.867 87.0903 159.065 86.8927 159.263 86.6951ZM155.105 94.9951C154.907 94.7975 154.907 94.5999 154.709 94.4022C154.511 94.5999 154.313 94.5999 154.313 94.5999C154.313 94.7975 154.511 94.9951 154.709 95.1927C154.907 95.1927 154.907 94.9951 155.105 94.9951ZM15.3423 121.476C15.1443 121.278 15.1443 121.081 14.9463 120.883C14.7484 120.883 14.5504 121.081 14.5504 121.081C14.5504 121.278 14.7484 121.476 14.9463 121.674C15.1443 121.674 15.3423 121.674 15.3423 121.476ZM18.7077 150.526C18.9056 150.724 18.9056 150.921 19.1036 151.119C19.3016 150.921 19.4995 150.921 19.4995 150.921C19.4995 150.724 19.3016 150.526 19.1036 150.328C18.9056 150.328 18.9056 150.526 18.7077 150.526ZM121.055 151.712C120.857 151.514 120.857 151.514 120.659 151.514C120.462 151.514 120.264 151.712 120.066 151.712C120.264 151.909 120.264 151.909 120.462 151.909C120.659 151.909 120.857 151.712 121.055 151.712ZM146.989 153.49C146.791 153.293 146.791 153.095 146.593 152.897C146.395 152.897 146.197 153.095 146.197 153.095C146.197 153.293 146.395 153.49 146.593 153.688C146.791 153.688 146.989 153.688 146.989 153.49Z" fill="white"/>
</svg>
