<svg width="1280" height="832" viewBox="0 0 1280 832" fill="none" xmlns="http://www.w3.org/2000/svg">
<g clip-path="url(#clip0_430_656)">
<rect width="1280" height="832" fill="white"/>
<rect width="1280" height="96" fill="#DF0909"/>
<path d="M1207.19 107.793C1207.93 109.347 1206.4 108.7 1205.92 109.459C1205.6 110.068 1203.44 110.638 1202.36 110.923C1201.74 111.064 1201.27 111.362 1200.65 111.503C1200.19 111.647 1199.58 111.48 1199.11 111.471C1198.35 111.455 1198.49 111.919 1198.33 112.377C1198.17 112.682 1197.86 112.829 1197.55 112.515C1197.4 112.358 1197.1 112.198 1197.1 112.352C1196.63 112.65 1196.31 112.951 1196 113.252C1195.69 113.553 1195.69 113.553 1195.39 113.239C1194.48 112.451 1193.71 112.589 1192.77 113.185C1192.15 113.479 1191.07 113.457 1190.15 113.284C1189.38 113.268 1189.07 113.569 1189.06 114.184C1189.06 114.338 1188.44 114.479 1188.13 114.626C1187.82 114.774 1187.36 114.61 1187.05 114.758C1185.96 115.043 1185.96 115.043 1185.66 114.729C1185.36 114.415 1185.06 114.255 1184.76 113.787C1184.45 114.088 1184.13 114.543 1183.81 114.844C1183.5 115.145 1183.5 114.992 1182.74 114.822C1181.67 114.492 1180.6 114.162 1180.63 112.778L1180.17 112.615C1179.85 113.07 1178.61 113.352 1179.83 113.992C1179.67 114.143 1179.67 114.297 1179.51 114.447C1179.36 114.444 1179.05 114.438 1178.75 114.431C1177.67 114.563 1177.67 114.563 1177.65 115.331C1177.64 115.793 1177.63 116.254 1177.62 116.715C1177.62 116.869 1177.46 117.019 1177.46 117.019C1177.31 117.016 1177 117.01 1176.85 116.853C1176.55 116.693 1176.24 116.379 1176.1 116.068C1175.49 115.594 1174.41 115.572 1173.79 116.02C1173.32 116.318 1173.01 116.619 1172.69 116.92C1172.54 116.763 1172.39 116.606 1172.09 116.446C1171.48 116.126 1170.87 116.113 1170.86 116.421C1170.67 118.262 1168.82 118.07 1167.73 118.817C1166.51 118.484 1165.88 119.24 1165.1 119.839C1164.63 120.137 1164.32 120.284 1163.87 119.813C1163.26 119.185 1162.49 119.477 1161.89 118.849C1161.58 118.535 1161.27 118.99 1161.41 119.301C1161.55 120.226 1161.23 120.835 1160.15 120.813C1160 120.809 1159.84 120.96 1159.84 121.114C1159.97 122.193 1159.2 122.177 1158.43 122.161C1157.82 122.148 1157.05 121.979 1156.43 122.12C1155.97 122.264 1155.65 122.565 1155.19 122.709C1154.88 122.856 1154.42 122.693 1154.41 123.154C1154.41 123.308 1155.02 123.321 1155.33 123.481C1155.48 123.484 1155.63 123.641 1155.63 123.641C1155.63 123.795 1155.47 124.099 1155.32 124.096C1155.01 124.09 1154.55 124.08 1154.09 124.07C1153.47 124.058 1152.7 123.888 1152.24 124.032C1151.77 124.33 1151 124.468 1150.69 124.769C1150.06 125.217 1149.29 125.355 1148.52 125.339C1148.06 125.329 1147.45 125.163 1147.13 125.618C1146.49 126.681 1145.27 126.502 1144.18 126.787C1143.72 126.931 1143.56 127.235 1143.11 126.765C1142.2 126.13 1140.8 126.563 1139.73 126.387C1139.58 126.384 1139.42 126.688 1139.11 126.835C1138.63 127.287 1137.86 127.578 1137.24 127.873C1136.62 128.168 1136.31 128.315 1135.85 127.844C1135.55 127.53 1134.93 127.671 1134.63 127.357C1134.18 126.887 1134.02 127.345 1134.01 127.498C1134 128.113 1133.69 128.261 1133.22 128.559C1132.44 129.158 1131.21 129.132 1130.61 128.351C1130.46 128.194 1129.43 126.019 1129.28 125.708C1129 124.472 1128.41 123.383 1127.35 122.592L1127.04 122.585C1127.37 121.669 1128 121.067 1129.07 121.243C1130.14 121.419 1130.92 120.82 1132.46 120.852C1133.23 121.022 1133.08 120.865 1133.08 120.865C1132.77 120.705 1132.46 120.698 1132 120.689C1131.7 120.529 1131.54 120.679 1131.69 120.99C1131.69 121.144 1131.84 121.147 1131.99 121.15C1132.45 121.467 1133.22 121.329 1132.46 120.852C1131.7 120.375 1131.55 120.218 1131.4 120.061C1131.25 119.904 1130.94 119.898 1130.63 119.891C1129.41 119.712 1129.41 119.712 1129.28 118.479C1129.59 118.331 1129.9 118.184 1130.06 118.033C1130.22 117.729 1130.07 117.418 1130.08 117.111C1130.69 117.124 1130.85 116.973 1130.86 116.512C1131.94 116.227 1132.57 115.625 1132.44 114.545C1132.3 113.773 1132.47 113.161 1133.25 112.716C1133.4 112.566 1133.26 112.101 1133.11 111.79C1133.11 111.637 1132.65 111.627 1132.5 111.624C1132.35 111.621 1131.88 111.765 1131.88 111.919C1131.86 112.534 1131.86 112.995 1131.84 113.61C1131.83 114.225 1131.83 114.225 1131.07 113.901C1130.76 113.741 1130.3 113.732 1130 113.571C1129.84 113.568 1129.7 113.258 1129.7 113.104C1129.7 113.104 1129.86 112.953 1130.01 112.803C1130.49 111.89 1131.44 110.986 1131.31 109.753C1131.31 109.446 1131.78 109.302 1132.09 109.308C1133.01 109.327 1132.86 108.863 1132.26 108.542C1131.95 108.382 1131.95 108.229 1132.26 108.081C1132.58 107.934 1133.04 107.943 1133.35 107.796C1133.97 107.348 1134.6 106.745 1135.22 106.297C1134.77 105.98 1134.62 105.669 1134.32 105.509C1134.01 105.349 1133.56 105.186 1133.25 105.333C1132.62 105.781 1132.15 106.233 1131.52 106.682C1131.05 107.133 1131.2 107.598 1130.73 108.049C1130.1 108.805 1130.07 109.881 1128.54 109.85C1128.23 109.843 1127.45 110.442 1127.44 110.75C1127.41 112.287 1126.19 111.8 1125.27 111.781C1125.11 111.778 1125.11 111.624 1124.96 111.467L1125.12 111.317C1126.2 111.339 1126.67 110.734 1126.54 109.808C1126.54 109.5 1126.55 109.193 1126.56 108.732C1127.65 107.832 1128.75 106.778 1130 105.881C1131.41 104.833 1131.56 104.837 1131.43 104.065C1131.29 103.139 1131.91 102.998 1132.68 102.86C1132.83 102.863 1133 102.559 1133 102.252C1133.01 101.637 1133.48 101.646 1133.94 101.502C1134.4 101.512 1134.56 101.207 1134.57 100.746C1134.57 100.592 1134.43 100.282 1134.28 100.125C1133.97 100.118 1133.36 99.9517 1133.2 100.102C1132.1 101.31 1130.24 101.733 1128.85 102.319C1127.91 102.761 1126.83 102.892 1125.75 103.178C1125.13 103.318 1124.82 103.773 1124.2 103.914C1123.42 104.206 1122.64 104.651 1121.72 104.478C1120.65 104.302 1120.49 104.76 1120.32 105.526C1120.31 105.833 1120 105.827 1119.7 105.513C1119.4 105.353 1119.1 105.039 1118.79 105.032C1118.48 105.026 1117.72 104.856 1117.71 105.01C1117.08 106.073 1115.71 105.276 1114.93 105.875C1114.61 106.176 1114.3 106.631 1113.83 106.775C1113.52 106.922 1113.07 106.452 1112.61 106.288C1112.46 106.285 1112 106.275 1111.99 106.429C1111.68 106.73 1111.67 107.345 1111.36 107.493C1110.89 107.637 1110.43 107.627 1110.12 107.928C1109.8 108.229 1109.5 108.069 1109.03 108.213C1108.57 108.204 1107.95 108.345 1107.81 107.727C1107.68 106.647 1106.61 106.317 1106.01 105.536C1104.47 105.504 1104.65 104.585 1104.67 103.662C1104.67 103.355 1104.52 103.044 1104.54 102.429C1104.07 102.88 1103.75 103.182 1103.29 103.479C1102.97 103.627 1102.66 103.774 1102.35 103.922C1102.2 103.918 1101.89 103.912 1101.58 103.906C1100.97 103.893 1100.05 103.72 1099.74 103.867C1099.11 104.316 1098.35 104.3 1097.72 104.748C1098.16 105.68 1094.8 104.534 1096.77 106.113C1096.61 106.263 1096.61 106.417 1096.46 106.414C1095.54 106.087 1094.89 107.919 1093.99 106.516C1092.74 107.721 1091.06 106.917 1089.52 107.039L1089.67 107.042C1089.67 107.042 1089.68 106.888 1089.68 106.734C1089.53 106.577 1089.23 106.264 1089.07 106.568C1089.07 106.568 1089.22 106.879 1089.52 107.039C1089.82 107.199 1089.82 107.506 1089.97 107.663C1090.12 107.974 1090.73 107.987 1090.11 108.435C1089.95 108.432 1089.95 108.586 1089.79 108.736C1089.17 109.185 1089.92 110.123 1089.29 110.572C1087.91 110.235 1087.12 111.449 1085.74 111.267C1085.13 111.1 1084.36 111.084 1083.89 111.229C1083.28 111.37 1082.95 112.132 1082.19 111.808C1081.06 114.246 1079.99 113.916 1079.07 113.897C1079.07 113.743 1079.07 113.743 1079.08 113.589C1079.09 113.128 1079.25 112.67 1078.48 112.5C1077.87 112.488 1077.25 112.475 1076.48 112.459C1075.72 112.443 1075.7 113.058 1076.15 113.682C1076.6 114.307 1076.6 114.461 1075.98 114.448C1075.52 114.438 1074.91 114.426 1074.59 114.573C1073.81 115.172 1073.66 115.015 1073.52 114.243C1073.53 113.936 1073.38 113.779 1072.77 113.766C1072 113.75 1071.07 114.038 1070.31 113.253C1069.71 112.626 1068.78 113.068 1068.17 112.901C1067.86 112.741 1067.56 112.581 1067.25 112.421C1066.8 112.104 1066.35 111.633 1065.9 111.162C1065.44 110.691 1064.98 110.835 1064.52 110.672C1063.45 110.496 1062.54 109.862 1061.47 109.686C1061 109.676 1060.56 108.898 1060.1 108.581C1059.5 108.106 1059.67 107.495 1059.67 107.033C1059.68 106.88 1059.84 106.729 1060 106.425C1060.15 106.582 1060.3 106.739 1060.6 106.899C1060.75 107.21 1061.06 107.216 1061.21 107.373C1061.19 108.295 1061.96 108.004 1062.58 108.017C1062.89 108.023 1063.5 107.882 1063.51 107.728C1063.52 107.267 1063.68 106.655 1063.38 106.188C1063.23 106.031 1062.47 106.015 1062 106.005C1061.71 105.538 1061.25 105.067 1061.26 104.605C1061.28 103.837 1060.98 103.369 1060.53 102.744C1060.23 102.431 1060.56 101.668 1060.57 101.053C1060.87 101.213 1061.33 101.377 1061.48 101.534C1061.79 101.694 1061.94 101.851 1062.1 101.546C1062.42 100.938 1062.12 100.47 1061.35 100.454C1061.04 100.448 1060.89 100.445 1060.58 100.438C1060.6 99.5157 1060.31 98.5868 1061.4 97.9942C1061.26 97.2222 1061.58 96.9211 1062.5 96.9403C1062.81 96.9467 1063.27 96.9563 1063.58 96.8089C1063.89 96.6616 1064.37 95.9024 1064.5 96.8281C1064.64 97.6001 1065.25 97.9204 1065.7 98.3912C1066.01 98.0901 1066.17 97.9395 1066.49 97.6384C1067.42 97.0426 1067.74 96.2803 1067.61 95.3546C1067.48 94.4289 1067.78 94.4353 1068.55 94.2975C1069.63 94.1661 1070.85 94.8067 1071.8 93.7497C1073.18 93.9322 1073.52 92.4011 1074.59 92.4235C1074.58 92.8847 1074.88 93.1986 1076.11 93.3779C1076.88 93.5477 1076.73 93.3907 1076.73 93.3907C1076.42 93.2306 1076.12 93.2242 1075.65 93.2146C1075.35 93.0544 1075.19 93.205 1075.34 93.5157C1075.34 93.6694 1075.49 93.6726 1075.64 93.8296C1076.1 94.1467 1076.87 94.0089 1076.11 93.5317C1075.35 92.9007 1075.21 92.59 1074.59 92.5772C1074.59 92.4235 1074.6 92.2697 1074.6 92.2697C1075.37 91.9782 1076 91.376 1076.77 91.2382C1077.7 91.1037 1077.71 90.6424 1077.72 90.0274C1077.73 89.7199 1077.73 89.4124 1077.74 88.9512C1077.75 88.4899 1078.06 88.3426 1078.52 88.3521C1079.14 88.3649 1079.9 88.6884 1080.23 87.9261C1080.55 87.3175 1079.33 86.3694 1078.26 86.347C1077.8 86.3374 1077.49 86.331 1077.03 86.3214C1076.88 86.1645 1076.88 85.857 1076.73 85.7C1076.27 85.5367 1076.11 85.841 1076.26 86.3054C1076.11 86.1485 1075.8 86.1421 1075.65 85.9852C1075.35 85.825 1075.2 85.3606 1074.88 85.8154C1074.26 86.4176 1073.49 86.2479 1072.73 86.0782C1072.42 86.0718 1072.42 85.7643 1072.58 85.6137C1072.74 85.4632 1073.51 85.3254 1072.9 84.8514C1072.45 84.5343 1071.83 84.6752 1071.67 85.1333C1071.51 85.2838 1071.66 85.5945 1071.5 85.7451C1071.5 85.8988 1071.34 85.8956 1071.19 86.0462C1070.59 85.4184 1069.52 84.781 1069.38 84.0091C1069.4 83.0866 1068.02 82.9041 1068.67 81.2256C1068.83 80.9213 1068.52 81.2224 1068.05 81.5203L1068.04 81.8278C1068.04 81.8278 1068.2 81.831 1068.35 81.8342C1069.43 81.8566 1069.9 81.4049 1069.6 80.7835C1069.61 80.6298 1069.45 80.6266 1068.68 81.0719C1067.89 81.6709 1067.59 81.6645 1067.44 81.5075C1066.07 80.5563 1066.26 78.8682 1065.05 77.9201C1066.3 77.0232 1065.38 76.8503 1064.46 76.6773C1064.31 76.6741 1064.17 76.056 1064.33 75.7517C1064.48 75.6011 1064.95 75.4569 1065.25 75.4633C1065.41 75.4665 1065.56 75.7772 1065.86 75.7836C1066.01 75.9406 1066.32 76.1007 1066.47 76.1039C1066.63 76.1071 1066.93 76.1135 1067.09 75.9629C1067.24 75.9661 1067.25 75.8124 1067.25 75.6586C1067.12 74.4254 1069.13 74.1595 1069 72.9263C1069 72.9263 1069.46 72.7822 1069.62 72.6316C1069.6 73.4004 1070.37 73.4163 1070.67 74.0377C1071.6 73.7494 1071.77 72.8301 1073.3 73.1696C1074.22 73.4963 1074.53 73.5027 1074.68 73.5059C1074.83 73.5091 1074.99 73.3585 1074.99 73.3585C1074.84 73.2016 1074.69 73.0446 1074.54 72.8877C1074.08 72.8781 1073.62 72.8685 1073 72.8557C1072.69 72.8493 1072.54 72.8461 1072.69 73.1568C1072.68 73.3105 1072.84 73.3137 1072.99 73.3169C1073.3 73.4771 1073.76 73.4867 1073.3 73.1696C1072.86 72.3912 1072.55 72.2311 1072.25 72.071C1071.63 72.0582 1071.02 72.0454 1070.4 72.0326C1070.11 71.1037 1070.74 70.3477 1071.52 70.0562C1072.3 69.7647 1072.76 69.6206 1072.93 68.855C1072.94 68.5475 1073.4 68.5571 1073.39 68.8646C1073.53 69.4828 1073.83 70.1042 1074.43 70.5782C1074.74 70.7384 1074.74 70.7384 1075.05 70.4373C1075.68 69.5276 1076.9 70.4756 1077.53 69.7197C1077.08 69.2488 1076.47 68.7748 1076.02 68.304C1076.33 68.0029 1076.49 67.6985 1076.96 67.5544C1077.27 67.407 1077.89 67.2661 1077.89 67.2661C1078.64 68.2046 1079.72 67.9194 1082.64 68.1339C1084.48 68.1723 1084.33 68.1691 1084.33 68.0153C1083.57 67.8456 1082.48 68.1307 1082.04 67.1986C1081.58 67.3428 1081.41 67.9546 1080.8 67.7881C1080.79 68.0956 1080.78 68.4031 1080.78 68.8643C1080.77 69.0181 1081.23 69.1814 1081.23 69.0277C1081.7 68.576 1082.32 68.435 1082.94 68.4478C1083.4 68.4574 1083.86 68.3133 1084.48 68.326C1084.48 68.326 1084.64 68.1755 1082.79 67.9834C1080.8 67.6343 1080.65 67.3236 1080.66 67.1699C1080.51 66.8592 1079.9 66.5389 1080.52 66.5517C1081.44 66.5709 1081.92 65.658 1082.84 65.6771C1083.3 65.6867 1083.47 65.0749 1083.17 64.6073C1083.02 64.2966 1082.87 64.1396 1082.73 63.8289C1083.03 63.8353 1083.5 63.6912 1083.81 63.6976C1084.73 63.563 1084.73 63.7168 1084.29 62.6309C1084.29 62.4772 1084.29 62.4772 1084.3 62.3234C1084.3 62.1697 1084.15 61.859 1084.15 61.7052C1083.71 61.0806 1083.71 61.0806 1084.17 60.7827C1084.48 60.6354 1084.8 60.3343 1085.11 60.1869C1086.2 59.748 1086.2 59.748 1085.75 58.816C1085.61 58.5053 1085.46 58.1946 1085.31 57.8839C1085.31 57.7301 1085.31 57.7301 1085.47 57.5796C1085.63 57.2753 1085.79 57.2785 1086.09 57.5924C1086.38 58.06 1087.15 58.3835 1086.98 58.9953C1086.81 59.6071 1087.11 60.0747 1087.72 60.395C1087.87 60.552 1088.02 60.7089 1088.33 60.7153C1088.79 60.7249 1089.74 59.3603 1089.44 59.2002C1088.37 58.5628 1089.15 58.1175 1089.62 57.6659C1089.78 57.6691 1089.78 57.5153 1089.94 57.3648C1090.53 58.3001 1090.66 59.5333 1092.35 59.5684C1092.65 60.1898 1093.09 60.9682 1093.38 61.7433L1093.39 61.5896L1093.08 61.5832C1092.77 61.7305 1092.46 61.8779 1092.91 62.195C1092.91 62.195 1093.22 62.0476 1093.38 61.7433C1093.69 61.5959 1093.85 61.5991 1094.16 61.6055C1094.62 61.6151 1094.93 61.4678 1094.94 61.0065C1094.94 60.699 1094.65 60.2314 1094.49 60.2282C1093.72 60.2122 1093.27 59.8951 1093.44 59.2833C1093.44 59.1296 1092.83 58.963 1092.52 58.8029C1092.06 58.6395 1091.91 58.4826 1091.92 58.1751C1091.93 57.7138 1092.09 57.5633 1092.55 57.4191C1093.17 57.4319 1093.48 57.2846 1093.64 56.6728C1093.82 55.7535 1094.75 55.1576 1095.98 55.337C1096.59 55.3498 1097.36 55.5195 1097.98 55.3785C1098.44 55.3881 1098.45 55.0806 1098.14 54.7667C1097.99 54.6098 1098 54.456 1097.85 54.2991C1098.77 54.1645 1099.4 53.7161 1099.57 52.9505C1099.57 52.9505 1099.72 52.8 1099.88 52.8032C1101.26 52.9857 1101.45 51.2976 1102.83 51.4802C1103.14 51.4866 1103.45 51.1854 1103.46 50.7242C1103.46 50.5704 1103.62 50.4199 1103.78 50.1156C1103.93 50.2725 1104.23 50.4327 1104.23 50.5864C1104.22 51.3552 1104.67 51.5185 1105.44 51.5345C1106.52 51.5569 1107.44 51.7298 1107.62 50.3493C1107.62 50.3493 1107.78 50.1987 1107.93 50.2019C1108.7 50.3717 1109.16 50.0737 1109.03 49.3018C1109.03 49.1481 1109.19 48.9975 1109.19 48.9975C1110.27 48.8661 1110.9 48.1102 1111.68 47.6649C1111.68 47.6649 1112.13 48.1357 1112.44 48.1421C1112.74 48.1485 1113.2 48.1581 1113.51 48.0108C1113.67 47.8602 1113.68 47.399 1113.53 47.0883C1113.24 46.6206 1112.63 46.3003 1112.18 45.8295C1112.03 45.6726 1112.03 45.3651 1112.19 45.2145C1112.35 45.064 1112.81 44.766 1113.12 44.7724C1113.58 44.782 1114.2 44.6411 1114.5 45.1087C1114.8 45.4226 1115.25 45.7397 1115.56 46.0536C1116.01 46.3707 1116.79 46.0792 1116.8 45.4642C1116.8 45.3104 1116.81 45.0029 1116.81 44.8492C1116.81 44.6954 1116.98 44.2374 1117.13 44.2406C1118.05 44.2597 1119.14 43.9746 1120.05 44.6088C1120.96 45.243 1121.27 45.0956 1121.44 44.0226C1121.45 43.7151 1121.46 43.4076 1121.62 43.1033C1121.78 42.799 1121.93 42.9559 1122.23 43.1161C1122.68 43.5869 1122.99 43.5933 1123 42.9783C1123.01 42.6708 1123.02 42.3633 1123.48 42.3729C1124.09 42.3857 1125.79 42.2671 1125.94 42.1166C1126.12 41.1973 1126.59 40.7456 1127.66 40.9217C1128.43 41.0915 1128.76 40.0216 1129.68 40.1945C1129.98 40.3547 1130.45 40.0568 1130.76 39.9094C1131.69 39.3136 1132.33 38.2501 1133.72 37.9714C1134.19 37.8273 1133.59 36.7382 1134.67 36.7606C1135.29 36.7734 1135.6 36.4723 1135.92 36.0174C1136.39 35.412 1137.16 35.428 1137.93 35.2903C1138.7 35.1525 1139.48 34.7072 1140.26 34.4157C1140.13 33.0288 1141.2 33.3587 1142.13 33.3778C1142.59 33.3874 1142.75 33.0831 1142.75 32.7756C1142.76 32.6219 1142.92 32.1638 1143.07 32.167C1144.15 32.1894 1144.63 31.4302 1145.25 30.9818C1146.03 30.5365 1146.8 30.3988 1147.43 29.7965C1148.06 29.3481 1148.83 28.9028 1149.61 28.7651C1150.69 28.6337 1151.01 27.8713 1151.79 27.4261C1151.94 27.4293 1152.24 27.7432 1152.54 28.0571C1153.02 27.4516 1154.24 27.631 1154.41 27.1729C1154.73 26.4106 1154.89 26.1063 1155.82 25.9717C1156.59 25.8339 1157.22 25.2317 1158 24.7865C1158.92 24.4981 1159.85 24.3636 1160.63 23.7646C1161.41 23.1656 1162.19 22.7203 1163.12 22.432C1163.74 22.291 1164.06 21.6824 1164.53 21.3845C1166.08 20.8015 1167.63 20.2184 1169.03 19.3247C1169.16 20.5579 1169.94 20.1127 1170.72 19.5136C1171.66 18.9178 1172.74 18.479 1173.98 18.0433C1174.91 17.755 1175.85 17.0054 1177.08 17.031C1178.16 17.0534 1178.33 16.1341 1179.11 15.6888C1179.41 16.0027 1179.71 16.3166 1180.01 16.4767C1180.32 16.4831 1180.63 16.3358 1181.1 16.1916C1180.95 16.0347 1180.79 15.8777 1180.64 15.7208C1180.34 15.5606 1180.35 15.2531 1180.65 15.2595C1181.73 15.1282 1182.96 15.3075 1184.19 15.1793C1184.5 15.1857 1184.97 15.0415 1185.13 14.7372C1185.44 14.5899 1185.44 14.4361 1185.74 14.5963C1186.04 15.0639 1186.5 15.381 1186.79 16.0024C1187.08 16.9313 1187.23 16.9345 1188.78 16.5052C1190 16.992 1190.8 15.6243 1192.02 15.9574C1192.33 15.9638 1192.64 16.1239 1192.94 16.4378C1193.24 16.5979 1192.77 17.2033 1192.3 17.3475C1191.37 17.6358 1191.37 17.6358 1191.83 17.9529C1192.74 18.4333 1192.72 19.6633 1193.48 19.9868C1194.09 20.3071 1195.32 20.0252 1196.09 20.1949C1196.55 20.2045 1196.85 20.6722 1197.3 20.9892C1197.61 21.1494 1197.6 21.3031 1197.29 21.4505C1196.36 21.8926 1196.96 22.6741 1196.64 23.2827C1196.48 23.587 1196.33 23.5838 1196.02 23.4237C1195.42 22.7959 1194.81 22.6293 1194.18 23.3853C1193.86 23.6864 1193.4 23.9843 1193.08 24.2854C1192.77 24.4328 1192.77 24.5865 1193.07 24.7467C1193.23 24.7499 1193.22 24.9036 1193.38 24.9068C1194.3 24.7722 1195.21 25.2527 1196 24.6537C1196.47 24.0483 1196.75 25.5921 1197.52 25.1469C1197.67 25.4576 1197.98 25.6177 1197.97 25.9252C1198.11 26.3897 1197.95 26.8477 1197.94 27.309C1198.07 28.3884 1197.44 28.9906 1196.36 29.2757C1195.9 29.2661 1195.59 29.4135 1195.58 29.8748C1195.56 30.6435 1195.7 31.5692 1194.32 31.3867C1193.69 31.8351 1193.07 32.2836 1192.59 32.889C1192.12 33.4944 1191.2 33.3215 1190.58 33.7699C1189.32 34.8206 1188.85 35.426 1188.35 37.4152L1186.91 39.6926C1186.13 40.4454 1184.73 41.0316 1185.01 42.4218C1184.54 42.8734 1184.22 43.3283 1183.76 43.6262C1182.51 44.2156 1182.64 45.295 1182.62 46.525L1182.62 46.3713C1182.47 46.3681 1182.31 46.3649 1182.31 46.3649C1182 46.666 1181.53 46.9639 1181.22 47.265C1181.22 47.265 1181.06 47.4156 1181.22 47.4188C1181.37 47.5757 1181.67 47.7359 1181.82 47.7391C1182.59 47.755 1182.75 47.6045 1182.77 46.5282C1183.7 46.3937 1183.98 47.4763 1184.75 47.6461C1184.91 47.4955 1185.07 47.1912 1185.07 47.0374C1184.64 45.4904 1185.58 44.7408 1186.83 43.8439C1187.14 43.6965 1187.6 43.5524 1187.91 43.5588C1188.98 43.7349 1189.63 42.5177 1190.7 42.8476C1190.85 42.8508 1191.16 42.7034 1191.31 42.7066C1192.1 42.1076 1192.73 41.3516 1193.5 40.9064C1194.13 40.4579 1195.06 40.1696 1195.68 39.7211C1196.15 39.4232 1196.93 38.9779 1196.94 38.5167C1196.96 37.2867 1197.88 37.7671 1198.65 37.6294C1199.11 37.639 1199.42 37.6454 1199.88 37.6549C1200.03 37.6581 1200.19 37.3538 1200.35 37.2033C1200.99 36.1398 1200.99 36.1398 1201.9 36.6203C1202.21 36.7804 1202.51 36.9406 1202.81 37.1007C1202.97 37.1039 1203.28 36.9565 1203.44 36.806C1203.44 36.6522 1203.29 36.649 1203.29 36.4953C1202.84 35.8707 1202.84 35.8707 1203.31 35.5728C1203.94 34.9706 1203.94 34.9706 1204.38 35.9027C1204.53 36.0596 1204.68 36.2166 1204.67 36.5241C1204.83 36.3735 1205.14 36.2262 1205.14 36.0724C1205.16 35.4574 1205.17 34.8424 1205.8 34.2402C1206.42 33.7917 1206.57 34.1024 1206.87 34.4163L1207.33 34.2722C1207.35 33.6572 1207.51 33.1991 1208.43 33.2183C1208.89 33.2279 1209.05 32.9236 1209.06 32.4623C1209.07 32.0011 1209.23 31.8505 1209.69 31.8601C1210.77 31.8825 1211.69 31.9017 1212.77 31.9241C1213.38 31.9369 1213.38 31.9369 1213.09 31.008C1212.95 30.5435 1212.96 30.0823 1212.97 29.7748C1212.97 29.621 1213.13 29.4705 1213.29 29.1662C1213.44 29.3231 1213.59 29.4801 1213.89 29.6402C1214.05 29.6434 1214.04 29.7972 1214.2 29.8004C1214.82 29.1981 1215.45 28.7497 1216.23 28.1507C1216.7 27.699 1216.7 27.699 1216.99 28.6279C1216.99 28.7817 1217.14 28.9386 1217.28 29.2493C1217.44 29.0987 1217.75 28.9514 1217.75 28.9514C1217.61 28.1794 1218.24 27.8847 1218.7 27.5868C1219.63 27.2985 1220.41 26.8532 1221.34 26.5649C1222.11 26.4272 1222.45 25.2036 1223.52 25.2259C1223.98 25.2355 1224.14 24.9312 1224.15 24.47C1224.16 24.0087 1223.87 23.2336 1224.49 23.2464C1225.41 23.2656 1225.89 22.1989 1226.81 22.5256C1227.88 22.8555 1228.66 22.2565 1229.59 21.8144C1229.75 21.6638 1230.06 21.6702 1230.21 21.5197C1230.84 20.9175 1231.78 20.3217 1232.71 20.0333C1232.86 20.0365 1232.72 19.5721 1232.87 19.4215C1233.18 19.2742 1233.5 18.9731 1233.8 18.9795C1234.27 18.9891 1234.42 19.146 1234.41 19.6073C1234.4 19.9148 1234.54 20.3792 1234.86 20.2319C1235.64 19.6328 1236.27 19.0306 1237.34 18.8993C1237.34 18.8993 1237.5 18.7487 1237.5 18.595C1237.37 17.823 1237.99 17.682 1238.75 17.698C1239.06 17.7044 1239.52 17.714 1239.98 17.7236C1241.06 17.5922 1241.67 17.9125 1241.65 18.9888C1242.41 19.466 1242.09 19.9209 1241.47 20.2156C1241.01 20.3597 1240.54 20.5039 1240.08 20.6481C1239.92 20.7986 1239.92 20.9524 1236.49 23.1883C1233.22 25.1199 1233.22 25.1199 1233.22 25.1199C1233.68 25.1295 1234.29 25.296 1234.75 25.1518C1235.53 24.7066 1236.01 23.7937 1237.24 23.8192C1237.4 23.8224 1237.55 23.6719 1237.55 23.6719C1237.42 22.7462 1238.04 22.6052 1238.81 22.4675C1239.27 22.3233 1239.59 21.8685 1239.9 21.5674L1239.91 21.2599L1239.6 21.2535C1238.53 21.0773 1237.73 22.4451 1236.51 21.9583C1236.19 22.4131 1236.03 22.8712 1235.71 23.326C1235.4 23.7809 1234.78 24.0756 1234.16 23.9091C1233.86 23.9027 1233.39 23.8931 1233.09 23.8867C1232.63 23.8771 1232.47 24.0276 1232.31 24.4857C1232.14 24.9437 1232.44 25.2576 1233.06 25.2704C1233.21 25.2736 1233.37 25.2768 1236.79 23.3484C1242.04 22.2271 1242.04 22.2271 1244.21 21.6569C1244.36 21.6601 1244.67 21.8202 1244.67 21.8202C1244.65 22.589 1244.64 23.3577 1244.62 24.2802C1244.61 24.5877 1244.91 24.9016 1245.06 25.0585C1245.37 25.2187 1245.36 25.5262 1245.05 25.5198C1244.13 25.6544 1243.66 25.7985 1243.64 26.721C1243.02 27.1695 1242.7 27.9318 1241.78 27.7589C1241.78 27.7589 1241.46 28.2138 1241.61 28.217C1241.91 28.5308 1242.37 29.0017 1242.67 29.1618C1242.97 29.322 1243.29 29.0209 1243.6 28.8735C1243.75 28.8767 1243.76 28.723 1243.91 28.7262C1245.29 28.7549 1246.38 28.3161 1247.17 27.4096C1247.32 27.259 1247.63 27.2654 1247.94 27.4255C1248.09 27.4287 1248.39 27.7426 1248.39 27.8964C1248.52 29.1296 1248.34 30.2026 1247.09 30.9458C1246.32 31.3911 1245.69 31.9933 1245.06 32.5955C1245.51 33.2201 1246.59 32.9349 1247.04 33.7133C1247.33 34.1809 1247.48 34.3379 1246.71 34.4756C1245.94 34.6134 1245.62 35.3758 1244.7 35.2028C1244.39 35.1964 1244.21 36.2695 1244.52 36.2759C1246.2 36.7723 1246.95 38.0183 1248.16 38.9663C1247.53 39.4148 1246.77 39.2451 1246.3 39.6967C1245.83 40.1484 1245.84 39.5334 1245.69 39.3764C1245.54 39.0657 1245.4 38.6013 1245.24 38.5981C1244.32 38.5789 1243.4 38.2522 1242.62 38.8513C1242.92 39.1651 1243.23 39.3253 1243.37 39.636C1243.67 40.1036 1243.99 39.8025 1244.14 39.652C1244.61 39.2003 1244.76 39.511 1244.91 39.8217C1245.05 40.2862 1244.73 40.8948 1245.34 41.3688C1246.58 41.0869 1246.4 42.0062 1246.7 42.6276C1246.84 42.9383 1247.61 42.9542 1247.92 43.1144C1248.83 43.5948 1248.97 44.3668 1248.64 45.2829C1248.48 45.7409 1247.4 45.8723 1248.46 46.5097C1248.62 46.5129 1248.61 46.6666 1248.61 46.6666C1247.83 47.1119 1247.35 48.0248 1246.27 48.3099C1245.34 48.5982 1244.42 48.7328 1243.63 49.4856C1243 50.0878 1242.23 50.533 1241.75 51.1384C1241.28 51.7438 1240.67 51.5773 1240.05 51.5645C1239.9 51.5613 1239.43 51.7055 1239.43 51.7055C1239.41 52.7817 1238.64 52.7657 1237.71 52.9003C1236.95 52.8843 1236.01 53.3264 1235.39 53.7748C1233.98 54.8223 1232.73 56.0267 1231.47 57.0774C1231.47 57.0774 1231.47 57.2312 1231.31 57.3817C1231.31 57.5355 1231.31 57.6892 1231.31 57.6892C1231.46 57.8462 1231.61 58.0031 1231.76 58.0063C1232.55 57.2535 1233.63 57.1222 1234.71 56.6833C1234.87 56.5327 1235.18 56.5391 1235.34 56.2348C1235.98 55.1714 1237.35 55.5076 1238.14 54.6011C1238.93 53.5409 1240.32 53.2622 1241.57 52.6727C1242.34 52.3812 1243.27 52.2467 1243.89 51.7982C1244.83 50.8949 1246.37 50.7731 1247.32 49.716C1247.79 49.1106 1248.57 48.6654 1249.5 48.5308C1249.8 48.5372 1249.82 47.6147 1250.13 47.4673C1250.45 47.32 1251.21 47.4897 1251.68 47.3456C1251.83 47.3488 1252.14 47.0477 1252.15 46.8939C1252.16 46.1252 1252.63 45.8272 1253.4 45.997C1254.16 46.1667 1254.49 45.4044 1255.1 45.4172C1255.87 45.2794 1256.03 45.1288 1256.35 44.5202C1256.52 43.9084 1257.14 43.46 1258.07 43.3254C1258.53 43.335 1258.53 43.0275 1258.69 42.7232C1258.86 42.2651 1260.88 41.2305 1261.34 41.3938C1261.49 41.397 1261.64 41.7077 1261.94 41.8678C1262.25 42.028 1262.71 42.1913 1263.01 42.1977C1263.32 42.0504 1263.64 41.5955 1263.95 41.6019C1264.56 41.6147 1264.87 41.4673 1265.34 41.1694C1265.65 41.0221 1266.11 41.0317 1266.42 40.8843C1267.05 40.5896 1266.45 39.6543 1267.37 39.6735C1267.83 39.6831 1268.45 39.6959 1268.91 39.5517C1269.07 39.5549 1269.07 39.2474 1269.23 38.9431C1269.56 38.1808 1269.87 38.0334 1270.63 38.5106C1270.93 38.6708 1271.23 38.9847 1271.54 38.9911C1271.69 38.9943 1272.01 38.8469 1272.16 38.8501C1272.16 38.6964 1272.01 38.5394 1272.01 38.3857C1271.71 38.0718 1271.56 37.9148 1272.03 37.6169C1272.34 37.4696 1272.8 37.4791 1273.11 37.3318C1273.9 36.4253 1274.83 36.137 1276.21 36.3195C1276.98 36.4892 1277.75 36.3515 1278.52 36.3674C1279.44 36.5404 1280.22 35.9414 1280.99 35.8036C1281.61 35.6626 1281.93 34.9003 1282.54 35.2206C1282.85 35.3807 1282.83 35.9957 1283.13 36.3096C1283.28 36.4666 1283.44 36.6235 1283.74 36.7836C1284.19 37.2545 1284.96 37.1167 1285.13 36.5049C1285.3 35.5856 1285.61 35.7458 1286.21 36.2198C1286.82 36.6938 1286.98 36.5433 1287.61 35.7873C1288.06 35.9507 1288.38 35.6496 1288.39 35.1883C1288.4 34.4196 1288.56 34.269 1289.47 34.9032C1290.08 35.2235 1291.16 35.0921 1292.08 35.265C1292.23 35.2682 1292.38 35.5789 1292.37 35.8864C1292.37 36.0402 1292.21 36.3445 1292.21 36.4982C1292.05 36.495 1291.9 36.3381 1291.59 36.3317C1291.44 36.3285 1291.29 36.1716 1290.98 36.1652C1290.98 36.3189 1290.67 36.62 1290.82 36.777C1290.95 37.7027 1292.34 37.2702 1292.79 38.0485C1292.94 38.3592 1293.71 38.0677 1294.03 37.6129C1294.19 37.3085 1294.34 37.3117 1294.64 37.6256C1294.64 37.7794 1294.8 37.7826 1294.79 37.9363C1294.79 38.0901 1294.63 38.5481 1294.63 38.5481C1293.7 38.6827 1292.93 38.6667 1292.01 38.6475C1291.24 38.6315 1290.77 38.9295 1290.91 39.5477C1290.91 39.7014 1290.6 39.8488 1290.44 39.8456C1290.44 39.8456 1290.29 39.6886 1290.14 39.6854C1289.38 39.3619 1288.77 39.0416 1288.01 38.7182C1287.53 39.4773 1287.82 40.0987 1287.81 40.7137C1287.8 41.175 1288.11 41.3351 1288.88 41.3511C1289.95 41.3735 1290.73 40.7745 1291.51 40.4829C1292.6 39.7366 1292.28 40.4989 1292.42 40.9634C1292.57 41.2741 1292.72 41.431 1293.19 41.1331C1294.43 40.5437 1295.81 40.5725 1297.03 41.0593C1297.34 41.2194 1297.64 41.3796 1298.1 41.3892C1298.26 41.3924 1298.26 41.3924 1298.42 41.2418C1298.73 41.0945 1298.73 40.9407 1298.43 40.7806C1298.27 40.7774 1298.12 40.6204 1298.12 40.4667C1298.13 40.1592 1297.98 39.8485 1297.99 39.541C1298.31 39.0861 1298.92 39.4064 1299.38 39.2622C1299.84 39.2718 1300.15 39.432 1300.14 39.7395C1300.28 40.2039 1300.12 40.662 1300.26 41.1264C1300.26 41.2802 1300.72 41.2898 1300.87 41.4467C1300.87 41.6005 1300.87 41.7542 1300.87 41.7542C1300.86 41.908 1300.71 42.0585 1300.55 42.0553C1299.33 41.876 1298.54 42.7825 1297.46 42.7601C1296.23 42.7345 1295.3 43.0229 1294.52 43.7756C1293.89 44.2241 1292.97 44.2049 1292.52 43.7341C1291.92 43.1063 1291.14 43.3978 1290.37 43.2281C1290.37 43.2281 1290.06 43.5292 1290.06 43.6829C1290.51 44.1537 1291.27 44.631 1291.41 45.2492C1291.69 46.3318 1292.01 45.7232 1292.48 45.4253C1293.26 44.98 1294.32 45.6174 1294.81 44.7045C1295.26 44.8679 1295.56 45.3355 1296.02 45.3451C1297.1 45.5212 1298.33 45.5468 1299.56 45.4186C1300.48 45.4378 1300.94 45.7549 1300.92 46.5236C1300.91 46.8311 1301.22 46.8375 1301.38 46.687C1301.69 46.3859 1302.17 45.7805 1302.3 46.7062C1302.44 47.4781 1302.74 47.6383 1303.51 47.6542C1303.82 47.6606 1304.28 47.6702 1304.74 47.6798C1304.26 48.7465 1303.02 49.3359 1302.23 50.0887C1302.07 50.393 1301.76 50.3866 1301.77 50.0791C1301.62 49.9221 1301.63 49.6146 1301.63 49.4609C1301.63 49.3071 1301.63 49.3071 1301.79 49.1566C1301.95 48.8523 1302.88 48.7177 1302.12 48.2405C1301.66 47.9234 1301.19 48.2213 1300.88 48.6761C1300.72 48.8267 1300.41 48.8203 1300.1 48.9677L1300.25 48.9709C1300.25 48.9709 1300.26 48.8171 1300.26 48.6634C1300.11 48.5064 1299.81 48.1925 1299.65 48.4968C1299.65 48.4968 1299.8 48.8075 1300.1 48.9677C1300.24 49.8933 1300.22 50.8158 1300.19 51.8921L1300.2 51.7383L1299.89 51.732C1299.58 51.8793 1299.27 52.0267 1299.72 52.3438C1299.72 52.3438 1300.03 52.1964 1300.19 51.8921C1300.66 51.5942 1301.27 51.9145 1301.58 51.6134C1301.74 51.4628 1301.91 50.851 1302.36 51.4756C1302.66 51.7895 1303.11 52.1066 1303.41 52.4205C1303.71 52.7344 1304.64 52.5998 1304.65 52.2923C1304.84 50.6043 1306.22 50.4793 1307.6 50.6618C1307.76 50.665 1307.91 50.6682 1307.91 50.6682C1308.38 50.524 1308.53 50.3735 1308.54 49.9122C1308.55 49.6047 1308.41 48.9866 1308.56 48.9898C1309.49 48.5477 1309.21 47.6188 1309.99 47.0198C1310.45 46.7219 1310.45 46.7219 1311.06 47.0422C1311.21 47.1991 1311.52 47.3592 1311.67 47.3624C1312.75 47.2311 1313.36 47.5514 1313.34 48.6276C1313.33 48.7814 1313.8 48.791 1313.95 48.9479C1313.93 49.5629 1313.92 50.0241 1313.45 50.4758C1312.82 51.2318 1312.96 51.85 1314.18 52.3368C1315.1 52.8172 1315.38 53.8999 1316.62 53.7717C1316.77 53.7749 1317.07 54.0888 1317.07 54.2425C1317.05 54.8575 1317.04 55.6263 1316.87 56.2381C1316.87 56.3918 1316.72 56.3886 1316.56 56.3854C1316.41 56.3822 1316.26 56.2253 1316.26 56.2253C1316.26 56.0715 1316.27 55.764 1316.12 55.6071C1315.97 55.1426 1315.21 54.9729 1314.9 55.1203C1314.43 55.2644 1314.42 55.8794 1314.72 56.3471C1315.02 56.661 1315.32 56.9748 1314.7 57.2696C1314.54 57.2664 1314.39 57.4169 1314.38 57.5707C1314.67 58.3458 1316.51 58.9992 1317.29 58.4002C1317.45 58.2496 1317.46 57.7884 1317.62 57.4841C1317.77 57.3335 1318.08 57.1861 1318.24 57.1893C1318.7 57.0452 1319 57.3591 1319 57.6666C1318.98 58.5891 1318.96 59.5116 1318.94 60.4341C1318.92 61.2028 1318.46 61.347 1317.99 61.7986C1317.52 62.2503 1316.9 62.0838 1316.61 61.4624C1316.46 61.3054 1316.62 61.0011 1316.47 60.8442C1316.17 60.5303 1315.09 60.5079 1315.24 60.8186C1315.37 62.0518 1314.14 61.7187 1313.52 62.1672C1313.82 62.4811 1313.97 62.638 1314.27 62.9519C1314.57 63.2658 1314.73 63.1152 1315.04 62.9679C1315.35 62.8205 1315.66 62.6732 1316.12 62.6828C1316.43 62.6892 1316.58 62.9999 1316.26 63.301C1315.64 63.9032 1315.79 63.9064 1316.56 64.0761C1316.86 64.0825 1317.02 64.0857 1317.32 64.0921C1318.07 65.3381 1318.06 65.6456 1318.04 66.5681C1318.03 67.0293 1317.87 67.3336 1317.4 67.7853C1316.93 68.0832 1316.31 68.3779 1316.45 69.1498C1316.44 69.6111 1316.58 70.0755 1315.96 70.3702C1315.65 70.5176 1315.19 70.3543 1314.73 70.3447C1314.27 70.3351 1313.96 70.4824 1313.95 70.9437C1313.93 71.8662 1313.47 71.8566 1312.87 71.2288C1312.72 71.0719 1312.41 71.0655 1312.1 71.0591C1311.95 71.0559 1311.79 71.0527 1311.79 71.2064C1311.15 72.2699 1309.79 71.3186 1309 72.0714C1308.85 72.2219 1308.23 72.2091 1308.08 72.3597C1307.61 72.6576 1307.14 72.8018 1306.98 73.2598C1306.51 73.8652 1305.74 73.5417 1305.27 73.9934C1304.8 74.5988 1303.73 74.2689 1303.41 74.8775C1302.93 75.6367 1301.85 75.6143 1301.23 76.0628C1300.61 76.5112 1299.69 76.3383 1299.37 76.9469C1298.45 76.774 1298.12 77.6901 1297.35 77.6741C1296.27 77.6517 1296.09 78.8785 1294.86 79.0067C1294.09 79.1444 1293.31 79.5897 1292.53 80.035C1291.91 80.3297 1291.59 81.092 1290.66 81.0728C1290.2 81.0632 1289.73 81.8224 1288.96 81.6527C1288.18 82.4054 1286.94 82.5336 1286.16 83.2864C1285.37 84.0391 1284.14 84.321 1282.9 84.7567C1281.81 85.0418 1281.18 85.9515 1279.8 85.769C1279.49 85.7626 1279.18 86.0637 1278.87 86.2111C1278.4 86.509 1278.08 86.9639 1277.77 87.1112C1276.07 87.5373 1274.67 88.2773 1273.27 89.0172C1273.27 89.0172 1272.81 88.8539 1272.81 88.7001C1272.67 88.3894 1272.36 88.3831 1272.2 88.6874C1271.87 89.7572 1271.4 90.3626 1270.01 90.6413C1269.54 90.6317 1268.92 91.234 1268.9 91.849C1268.45 91.6856 1267.84 91.3653 1267.22 91.1988C1267.07 91.1956 1266.76 91.3429 1266.6 91.4935C1266.6 91.4935 1266.6 91.6472 1266.75 91.8042C1267.05 92.4256 1267.05 92.4256 1266.89 92.7299C1266.73 92.8804 1266.72 93.1879 1266.56 93.4922C1266.56 93.646 1266.56 93.3385 1266.56 93.3385C1266.26 93.3321 1265.8 93.3225 1265.49 93.3161C1265.33 93.3129 1265.17 93.6172 1265.02 93.7678C1265.02 93.7678 1265.17 93.9247 1265.32 93.9279C1265.78 94.0913 1266.24 94.1008 1266.56 93.4922C1267.79 93.5178 1268.57 93.0726 1268.9 92.0027C1269.36 92.0123 1269.97 92.1788 1269.98 92.0251C1270.45 91.2659 1271.68 91.599 1272.15 90.8399C1272.63 90.2344 1273.54 91.0224 1274.32 90.4234C1274.94 89.9749 1275.72 89.6834 1276.49 89.3919C1277.27 89.1004 1278.19 88.9658 1278.82 88.5173C1279.44 88.0689 1280.21 88.2386 1280.84 87.6364C1281.46 87.0342 1282.52 87.8253 1283.31 86.9188C1283.78 86.4671 1284.86 86.3358 1285.64 86.0443C1286.41 85.7527 1287.04 85.1505 1288.11 85.4804C1288.74 84.8782 1289.97 84.9038 1290.6 84.1478C1291.67 84.4777 1292.01 83.1003 1293.08 83.4302C1293.86 82.985 1294.48 82.5365 1295.26 82.245C1296.34 81.9599 1297.41 81.9823 1298.2 81.0757C1298.52 80.6209 1299.13 80.7874 1299.59 80.797C1300.36 80.813 1301.13 80.829 1301.6 80.2236C1302.08 79.6182 1302.85 79.6342 1303.47 79.3395C1303.94 79.0415 1304.71 78.9038 1305.02 78.6027C1305.65 78.0005 1306.41 78.3239 1307.18 78.3399C1307.8 78.3527 1308.11 78.0516 1308.43 77.7505C1309.37 76.8472 1310.91 76.7254 1311.7 75.6652C1312.78 75.6875 1313.56 74.781 1314.94 74.9635C1316.02 75.1397 1316.8 74.3869 1316.82 73.3107C1316.83 72.8494 1316.84 72.3882 1316.85 71.9269C1316.86 71.7732 1317.16 71.7796 1317.32 71.7828C1317.32 71.7828 1317.47 71.9397 1317.47 72.0935C1317.44 73.3235 1317.91 73.0256 1318.69 72.4265C1318.85 72.276 1319.3 72.5931 1319.76 72.6027C1320.07 72.6091 1320.21 73.381 1320.53 72.7724C1321 72.167 1321.92 72.4937 1322.55 71.8915C1323.17 71.2893 1324.39 72.0836 1324.87 71.1707C1325.64 71.1867 1326.41 71.0489 1327.18 71.0649C1327.95 71.0809 1328.41 70.9367 1328.88 70.4851C1329.04 70.3345 1331.04 70.3761 1331.65 70.3889C1331.96 70.3952 1332.12 70.3984 1332.42 70.4048L1332.41 71.1736L1332.41 71.0198C1332.26 71.0166 1332.1 71.0134 1332.1 71.0134C1331.79 71.1608 1331.48 71.3082 1331.94 71.6252C1331.94 71.6252 1332.25 71.4779 1332.41 71.1736C1332.87 71.1832 1333.48 71.5035 1333.93 71.6668C1334.39 71.8301 1334.71 71.529 1334.71 71.2215C1334.72 70.914 1334.58 70.4496 1334.27 70.4432C1333.66 70.2767 1333.04 70.4176 1332.42 70.4048C1332.45 69.3286 1334.12 69.9788 1334.3 69.0595C1334.75 69.3766 1335.21 69.6936 1335.82 69.8602C1336.58 70.0299 1336.25 71.4073 1335.62 72.1632C1334.99 72.6117 1334.07 72.4388 1333.6 73.0442C1333.12 73.6496 1332.51 73.7905 1331.73 74.082C1331.58 74.0788 1331.41 74.6906 1331.56 75.0013C1331.71 75.1583 1332.17 75.3216 1332.47 75.328C1332.63 75.3312 1332.94 75.0301 1333.1 74.8796C1333.26 74.5753 1333.57 74.5817 1333.71 74.8924C1333.86 75.5105 1333.84 76.2793 1333.83 76.8943C1333.82 77.2018 1333.36 77.346 1333.04 77.4933C1331.8 77.929 1330.41 78.3615 1329.62 79.4217C1328.99 80.1777 1327.76 79.9983 1327.13 80.7543C1327.13 80.9081 1326.52 80.5878 1326.06 80.5782C1325.75 80.5718 1325.3 79.7934 1325.29 80.4084C1325.28 81.1772 1324.35 81.4655 1324.33 82.0805C1324.32 82.6955 1323.85 82.9934 1323.54 83.1408C1322.61 83.4291 1321.83 84.0281 1320.91 84.1627C1320.13 84.3004 1319.81 85.2165 1318.72 85.5016C1316.72 85.9213 1315.3 87.4301 1312.99 87.3821C1312.69 87.3757 1312.53 87.68 1312.36 88.1381C1312.2 88.7499 1311.57 89.1983 1310.8 89.4898C1309.56 89.9255 1308.32 90.3612 1307.37 91.2645C1306.59 92.0173 1305.51 92.3024 1304.73 92.9014C1303.94 93.5004 1302.87 93.478 1302.24 94.234C1301.76 94.8394 1300.98 95.2846 1300.05 95.573C1299.13 95.8613 1298.49 96.771 1297.71 97.37C1297.4 97.5174 1296.94 97.2003 1296.63 97.6551C1296.47 97.8057 1296.46 98.1132 1296.46 98.2669C1296.46 98.4207 1296.76 98.7346 1296.91 98.7378C1297.84 98.6032 1298.75 98.9299 1299.84 98.3373C1301.09 97.7478 1302.33 97.0047 1303.72 96.7259C1304.36 95.6625 1305.73 96.3063 1306.82 95.7136C1307.6 95.1146 1308.69 94.522 1309.92 94.7013C1310.23 94.7077 1310.54 94.4066 1310.85 94.2593C1314.88 92.8049 1318.92 90.8893 1322.95 89.4349C1323.26 89.2876 1323.58 88.9865 1323.88 88.9928C1324.65 88.8551 1325.72 89.3387 1326.51 88.5859C1326.98 88.1343 1327.9 88.3072 1328.37 87.7018C1328.37 87.5481 1328.98 87.8684 1329.44 88.0317C1329.75 88.1918 1329.74 88.6531 1330.36 88.2046C1330.83 87.9067 1331.45 87.7658 1331.91 87.4678C1332.69 87.1763 1332.69 87.1763 1333.59 88.2718C1333.74 88.4287 1334.04 88.5889 1334.2 88.5921C1334.51 88.5984 1334.97 88.4543 1335.13 88.15C1335.29 87.6919 1335.15 87.2275 1335.92 87.2435C1336.69 87.2595 1337.46 87.2754 1338.23 87.2914C1338.99 87.3074 1339 86.9999 1339.17 86.3881C1339.17 86.2344 1339.33 85.9301 1339.64 85.9365C1339.95 85.7891 1340.41 85.9524 1340.87 85.962C1342.41 85.994 1342.41 85.994 1344.11 85.4142C1344.89 85.1227 1345.68 84.0624 1346.57 85.3116C1347.2 85.0169 1347.81 84.8759 1348.43 84.5812C1348.75 84.4338 1349.06 84.1327 1349.37 84.1391C1350.76 83.8604 1352.13 84.6579 1353.53 83.7642C1354.62 83.1716 1355.99 83.6616 1357.23 83.5334C1358.46 83.4053 1359.22 83.8825 1359.5 84.9651C1359.64 85.7371 1360.4 86.0606 1360.86 86.5314C1361 86.8421 1361.15 87.3066 1360.99 87.4571C1360.67 87.912 1360.05 88.2067 1359.58 88.6583C1359.27 88.9594 1359.26 89.4207 1358.94 89.8755C1358.62 90.3304 1358 90.6251 1357.39 90.6123C1357.23 90.6091 1357.07 91.2209 1357.06 91.5284C1357.21 91.8391 1357.51 91.9993 1357.81 92.3132C1357.34 92.6111 1357.03 93.0659 1356.86 93.6777C1356.85 93.9852 1356.23 94.2799 1355.77 94.5778C1355.45 94.8789 1355.45 95.0327 1355.75 95.3466C1356.2 95.6637 1356.35 96.1281 1356.81 96.2915C1357.87 96.7751 1358.78 97.563 1360.17 97.438C1361.09 97.3035 1362.01 97.7839 1362.64 96.8742C1363.24 97.502 1364.17 97.5212 1364.93 97.5372C1365.55 97.5499 1366.32 97.2584 1366.78 97.7293C1367.53 98.6678 1367.7 97.5947 1368.16 97.6043C1368.78 97.6171 1369.39 97.6299 1370.16 97.6459C1370.78 97.6586 1371.39 97.8252 1371.84 98.1423C1372.15 98.4562 1372.31 97.9981 1372.32 97.6906C1372.32 97.5369 1372.48 97.0788 1372.64 97.082C1374.17 97.2677 1375.43 96.0633 1376.96 96.4028C1377.57 96.5693 1377.87 96.7295 1377.86 97.1907C1377.85 97.652 1377.69 98.2638 1378.15 98.4271C1378.76 98.5936 1379.52 98.7634 1379.99 98.3117C1380.62 97.7095 1381.08 97.8729 1381.99 98.3533C1382.75 98.8305 1383.83 99.0067 1384.11 100.089C1383.65 100.08 1383.18 100.224 1383.03 100.067C1382.43 99.4391 1381.82 99.2726 1381.05 99.4104C1380.13 99.3912 1379.05 99.215 1378.27 99.9678C1377.52 98.7218 1376.88 100.247 1376.11 99.923C1375.2 99.5964 1374.72 100.356 1374.1 100.496C1373.64 100.641 1373.03 100.474 1373.19 99.8623C1373.2 99.401 1373.05 99.2441 1372.59 99.2345C1372.13 99.2249 1371.36 99.0552 1371.2 99.3595C1370.42 100.266 1368.9 99.3115 1368.26 100.375C1368.26 100.529 1367.34 100.356 1367.34 100.202C1366.89 99.5775 1365.81 99.8626 1365.36 99.238C1365.21 99.081 1364.44 98.9113 1364.44 99.0651C1363.18 100.269 1361.51 99.4656 1360.12 99.5905C1359.35 99.7283 1359.21 98.9564 1358.6 98.6361C1358.45 98.4791 1358.3 98.4759 1358 98.3158C1357.84 98.4663 1357.68 98.6169 1357.67 98.9244C1357.66 99.5394 1357.5 99.9974 1358.1 100.471C1358.56 100.789 1358.24 101.243 1358.39 101.708C1357.62 101.692 1357.33 100.917 1356.4 100.898C1355.94 100.888 1355.81 99.9623 1356.44 98.8988C1356.6 98.5945 1356.92 98.4472 1356.46 98.1301C1356.01 97.813 1355.86 97.3485 1355.25 97.3357C1355.1 97.1788 1355.11 96.7175 1354.95 96.7143C1353.72 96.6888 1353.58 96.0706 1353.75 95.1513C1353.76 94.9975 1353.61 94.8406 1353.46 94.5299C1353.3 94.6804 1352.99 94.674 1352.84 94.8246C1352.52 95.1257 1352.21 95.2731 1352.21 95.5805C1352.19 96.3493 1351.73 96.4935 1350.96 96.4775C1350.5 96.4679 1349.88 96.4551 1349.42 96.4455C1349.27 96.4423 1349.11 96.2854 1349.11 96.2854C1349.27 96.1348 1349.27 95.9811 1349.59 95.8337C1349.89 95.8401 1350.05 95.8433 1350.35 95.8497C1350.82 95.8593 1351.43 95.8721 1351.44 95.2571C1351.46 94.6421 1351.47 93.8733 1351.49 93.2583C1351.5 92.6433 1351.97 92.3454 1352.73 92.6689C1353.79 93.1525 1353.79 93.1525 1353.81 92.5375C1353.82 91.9225 1353.84 91.1538 1353.85 90.5388C1353.86 90.0775 1354.17 89.9302 1354.48 89.9366C1355.09 89.9494 1355.86 90.1191 1356.48 89.9781C1357.09 89.8372 1357.41 89.2286 1358.18 89.2446C1358.64 89.2541 1358.81 88.4886 1358.51 88.1747C1357.76 87.2362 1356.54 86.9031 1355.32 86.5701C1355.01 86.4099 1354.39 86.5509 1354.24 86.7014C1353.3 87.451 1352.06 88.0404 1352.33 89.4306C1352.33 89.5843 1352.17 89.8886 1352.02 89.8854C1351.71 89.879 1351.25 89.8694 1350.94 89.7093C1350.18 89.3858 1350.04 88.6139 1349.9 87.9957C1349.9 87.9957 1349.75 87.8387 1349.6 87.8355C1349.44 87.8323 1349.29 87.9829 1349.28 88.1366C1349.12 88.5947 1349.57 89.373 1348.94 89.6677C1348.63 89.9688 1348.02 89.956 1347.55 90.1002C1347.09 90.2444 1346.46 90.5391 1345.69 90.8306C1347.22 91.0163 1348.44 91.5031 1349.54 90.4493C1349.86 90.1482 1350.62 90.3179 1351.08 90.4812C1351.24 90.4844 1351.38 90.7951 1351.38 90.9489C1351.38 91.1026 1351.37 91.5639 1351.21 91.5607C1350.44 91.8522 1349.66 92.2975 1348.89 92.4352C1348.27 92.5762 1347.8 92.7203 1347.18 93.015C1344.7 93.8864 1344.23 94.4918 1344.18 96.6443C1344.17 97.2593 1344.93 97.5828 1345.56 96.9806C1346.03 96.6827 1346.18 96.6859 1346.79 97.0061C1347.25 97.3232 1348.02 97.3392 1348.63 97.1983C1349.56 97.0637 1350.01 97.842 1350.46 98.3129C1350.61 98.4698 1350.29 98.9247 1350.28 99.2322C1350.12 99.5365 1349.51 99.5237 1350.11 99.9977C1350.42 100.158 1350.87 100.475 1350.25 100.77C1349.94 100.917 1349.48 100.754 1349.18 100.594C1349.03 100.437 1349.04 99.9753 1348.89 99.6646C1348.44 99.1938 1347.99 98.4155 1347.06 98.7038C1345.98 98.9889 1345.23 98.2042 1344.31 97.8775C1343.85 97.7141 1343.55 97.554 1343.71 97.2497C1343.88 96.3304 1343.59 95.8628 1342.36 95.6834C1341.9 95.6738 1342.06 95.2158 1342.38 94.6072C1342.85 94.0018 1342.86 93.848 1342.09 93.832C1340.86 93.9602 1339.48 93.3164 1338.54 94.3735C1338.39 94.2166 1338.24 94.2134 1338.24 94.0596C1338.24 93.9059 1338.09 93.5952 1338.1 93.4414C1338.57 92.836 1338.89 92.2274 1339.81 92.2466C1341.04 92.2722 1341.99 91.3689 1343.37 91.5514L1343.52 91.4008C1343.53 91.2471 1343.38 91.0901 1343.22 91.0869C1342.45 91.0709 1341.69 90.9012 1340.92 91.039C1339.84 91.1703 1339.54 90.7027 1339.55 89.934C1339.56 89.6265 1339.25 89.6201 1339.09 89.9244C1338.78 90.2255 1338.32 90.3696 1338.31 90.6771C1338.14 91.4427 1337.82 92.0513 1337.04 92.3428C1336.11 92.6311 1335.04 92.6087 1333.97 91.9713C1334.6 91.5229 1335.07 91.0712 1335.69 90.6228C1335.4 90.1551 1334.78 90.4498 1334.31 90.4402C1333.7 90.2737 1333.38 90.8823 1333.07 91.1834C1332.29 91.7824 1333.21 91.8016 1333.36 92.1123C1333.5 92.5768 1333.34 93.0348 1332.87 93.179C1332.41 93.3231 1331.8 93.1566 1331.78 93.9253C1331.32 93.762 1331.01 94.0631 1331 94.5243C1330.99 94.9856 1330.83 95.4436 1330.06 95.2739C1329.75 95.2675 1329.14 95.101 1328.98 95.2515C1327.26 96.6001 1324.81 96.3952 1323.09 97.59C1322.31 98.0353 1321.4 97.4011 1320.93 98.0065C1320.45 98.6119 1319.54 98.2852 1318.91 98.8875C1318.59 99.3423 1317.97 99.637 1317.5 100.089C1316.87 100.691 1316.73 100.073 1316.43 99.9126C1316.12 99.7524 1315.66 99.7428 1315.35 99.8902C1314.88 100.188 1315.65 100.358 1315.64 100.665C1315.64 100.819 1315.48 101.123 1315.48 101.123C1314.4 100.947 1313.48 101.236 1312.84 101.992C1312.84 102.145 1312.69 102.142 1312.53 102.293C1312.37 102.443 1309.91 102.546 1309.29 102.533C1309.14 102.53 1308.83 102.677 1308.83 102.831C1308.81 103.6 1308.65 103.904 1307.73 103.885C1306.65 103.862 1305.57 103.994 1304.65 103.821C1303.58 103.645 1303.25 104.715 1302.18 104.538C1301.26 104.212 1300.78 104.971 1300.31 105.423C1300 105.57 1299.69 105.871 1299.38 105.865C1298.16 105.532 1297.36 106.899 1296.13 106.566C1295.35 107.165 1294.43 107.3 1293.35 107.277C1292.71 108.341 1291.04 107.383 1290.4 108.447C1290.25 108.597 1289.48 108.581 1288.87 108.415C1288.56 108.408 1288.26 108.094 1288.72 107.796C1289.04 107.649 1289.2 107.191 1289.2 106.884C1289.21 106.576 1288.91 106.262 1288.45 106.406C1287.98 106.551 1287.67 106.852 1287.2 106.996C1286.9 106.989 1286.6 106.522 1286.29 106.362C1285.99 106.355 1285.52 106.499 1285.36 106.65C1285.05 106.951 1284.74 106.945 1284.6 106.634C1284.44 106.477 1284.6 106.173 1284.61 106.019C1284.47 105.093 1284.02 104.622 1283.24 105.221C1282.46 105.82 1281.85 105.5 1281.08 105.638C1280.46 105.779 1280.14 106.387 1279.37 106.218C1279.22 106.215 1279.07 106.211 1278.91 106.208C1278.92 105.593 1279.25 104.831 1278.02 104.805C1277.71 104.799 1277.41 104.485 1277.42 104.177C1277.43 103.562 1277.28 103.098 1278.06 102.653C1278.69 102.204 1277.94 101.266 1278.56 100.817C1279.03 100.519 1279.5 100.068 1279.97 99.6161C1280.91 98.7128 1280.92 98.4053 1279.71 97.4572C1279.56 97.454 1279.56 97.3002 1279.4 97.297C1279.1 97.2906 1278.79 97.2843 1278.64 97.2811C1278.17 97.579 1278.47 97.7391 1278.62 98.0498C1279.07 98.8281 1279.06 99.1356 1278.44 99.4304C1278.28 99.5809 1277.82 99.4176 1277.67 99.5681C1276.72 100.471 1275.8 100.452 1274.74 99.5074C1274.14 99.0333 1273.98 99.1839 1273.5 100.097C1273.19 100.09 1273.04 100.087 1272.73 100.081C1272.12 100.068 1271.8 100.523 1271.94 100.987C1272.24 101.609 1273.45 102.403 1271.46 102.208C1269.44 103.089 1269.6 102.938 1268.08 101.83C1267.93 101.673 1267.78 101.67 1267.47 101.51C1267.31 101.814 1267.31 102.121 1267.14 102.426C1267.14 102.579 1267.14 102.579 1267.14 102.733C1266.83 102.727 1266.37 102.563 1266.06 102.711C1265.75 102.858 1265.75 103.166 1265.59 103.316C1265.28 103.31 1264.82 103.3 1264.51 103.294C1264.36 103.291 1264.2 103.441 1264.2 103.441C1264.2 103.595 1264.35 103.906 1264.5 103.909C1264.81 103.915 1265.27 103.925 1265.58 103.931C1265.57 104.085 1265.57 104.239 1265.57 104.239C1264.79 104.53 1264.17 104.979 1263.39 105.27C1262.16 105.552 1261.06 106.76 1259.85 105.35C1259.85 105.35 1259.54 105.498 1259.39 105.648C1259.23 105.953 1259.06 106.564 1259.06 106.564C1258.45 106.398 1258.61 105.94 1258.46 105.629C1258.47 105.475 1258.31 105.472 1258.16 105.469C1258.16 105.469 1258.01 105.466 1257.85 105.616C1257.53 106.071 1256.29 106.353 1257.51 106.994C1257.51 106.994 1257.35 107.452 1257.19 107.449C1256.89 107.442 1256.43 107.433 1255.81 107.42L1255.96 107.423C1255.96 107.423 1255.97 107.269 1255.97 107.116C1255.82 106.959 1255.52 106.645 1255.36 106.949C1255.36 106.949 1255.51 107.26 1255.81 107.42C1256.11 108.041 1255.49 108.182 1255.17 108.483C1254.39 109.082 1254.09 108.922 1253.65 107.99C1253.35 107.369 1252.9 107.052 1252.27 107.5C1251.96 107.647 1251.65 107.948 1251.49 108.253C1251.48 108.407 1251.63 108.563 1251.63 108.717C1251.93 109.339 1251.93 109.339 1251.15 109.476C1250.85 109.47 1250.69 109.467 1250.23 109.457L1250.38 109.46C1250.38 109.46 1250.39 109.307 1250.39 109.153C1250.24 108.996 1249.94 108.682 1249.78 108.986C1249.78 108.986 1249.93 109.297 1250.23 109.457C1250.21 110.226 1249.59 110.521 1248.97 110.815C1248.82 110.812 1248.51 110.806 1248.36 110.649C1248.06 110.489 1248.21 110.338 1248.52 110.191C1248.68 110.04 1248.84 109.89 1248.99 109.739C1248.84 109.582 1248.54 109.576 1248.39 109.419C1248.08 109.412 1247.92 109.409 1247.62 109.403C1247 109.39 1246.84 109.694 1246.68 110.152C1246.66 110.921 1246.2 110.758 1245.75 110.287C1245.45 109.973 1245.45 109.973 1245.14 110.274C1244.66 110.88 1244.05 110.713 1243.28 110.697L1243.44 110.7C1243.44 110.7 1243.44 110.547 1243.44 110.393C1243.29 110.236 1242.99 109.922 1242.83 110.226C1242.83 110.226 1242.98 110.537 1243.28 110.697C1243.28 110.851 1241.25 112.039 1241.25 112.039C1240.03 111.706 1239.4 112.616 1238.62 113.061C1238.31 113.209 1237.69 113.349 1237.53 113.346C1236.03 111.931 1234.93 112.831 1233.68 113.881C1233.68 113.881 1233.22 113.872 1233.22 113.718C1232.32 112.469 1231.56 112.299 1230.61 113.202C1229.99 113.805 1230.12 114.73 1229.19 115.019C1228.88 115.166 1228.26 115.307 1228.11 115.304C1226.6 113.734 1225.51 114.788 1224.26 115.685C1224.26 115.685 1223.95 115.679 1223.8 115.522C1223.8 115.522 1223.8 115.368 1223.8 115.214C1223.81 115.06 1223.97 114.756 1224.12 114.606C1224.28 114.301 1224.44 113.997 1225.83 113.872C1227.68 113.91 1228.29 113.923 1228.91 113.936C1229.06 113.939 1229.22 113.635 1229.22 113.481C1229.22 113.481 1229.08 113.17 1228.92 113.321C1227.84 113.452 1226.92 113.126 1226.33 112.344C1226.17 112.187 1226.03 111.723 1225.56 112.174C1225.09 112.472 1224.47 112.613 1224.01 112.911L1224.75 114.003L1225.98 114.029C1224.14 113.991 1223.68 113.981 1223.05 114.429C1222.58 114.881 1221.81 114.711 1221.82 114.404C1221.67 114.093 1221.68 113.632 1221.99 113.485C1222.62 112.882 1222.78 112.578 1221.71 112.556C1221.55 112.553 1221.09 112.389 1221.1 112.235C1220.95 111.771 1221.12 111.313 1221.13 110.852C1221.13 110.698 1221.28 110.701 1221.29 110.547C1222.22 109.798 1223.17 108.895 1224.11 108.145C1225.04 107.395 1225.99 106.492 1227.38 105.906C1228.47 105.467 1229.26 104.407 1230.2 103.657C1231.27 103.833 1231.75 103.074 1232.38 102.472C1233 101.87 1233.93 101.735 1234.55 101.287C1235.18 100.838 1236.11 100.396 1236.28 99.6306C1236.59 99.637 1237.05 99.8003 1237.36 99.653C1237.67 99.5056 1237.68 99.1981 1238.15 98.7465C1238.3 98.5959 1238 98.5895 1237.99 98.7433L1237.99 99.0508L1238.29 99.0572C1238.45 98.9066 1238.61 98.7561 1238.61 98.6023C1238.61 98.6023 1238.46 98.4453 1238.15 98.7465C1237.52 99.0412 1237.22 98.881 1236.91 99.0284C1236.6 99.1757 1236.59 99.4832 1236.44 99.6338C1236.13 99.6274 1235.82 99.621 1235.67 99.6178C1234.58 100.057 1233.49 100.649 1232.41 100.934C1231.33 101.066 1230.39 101.662 1229.46 101.95C1228.54 102.238 1228.7 101.934 1228.71 101.473C1228.71 101.319 1228.71 101.165 1228.71 101.165C1228.41 101.005 1227.95 100.842 1227.64 100.835C1227.33 100.829 1227.17 101.287 1227.16 101.594C1227.16 101.902 1227.76 102.376 1227.76 102.683C1227.6 102.988 1227.13 103.439 1226.66 103.584C1225.74 103.718 1224.8 104.314 1224.02 104.605C1223.25 104.897 1222.62 105.499 1221.85 105.791C1221.38 105.935 1221.06 106.39 1220.45 106.223C1219.84 106.057 1219.38 106.201 1219.06 106.656C1218.58 107.415 1217.51 107.392 1216.88 107.841C1215.95 108.437 1214.56 108.254 1213.62 109.158C1212.84 109.91 1211.45 110.035 1210.52 110.631C1209.02 108.447 1208.41 108.28 1207.19 107.793C1206.43 107.47 1206.57 107.934 1206.87 108.248C1207.02 108.405 1207.8 107.96 1208.27 107.662C1208.89 107.213 1208.59 107.053 1208.14 106.736C1207.98 106.579 1207.83 106.422 1207.53 106.262C1207.07 105.945 1206.45 106.24 1206.29 106.698C1206.44 106.855 1206.44 106.855 1207.19 107.793ZM1141.81 100.281L1141.82 99.9738C1141.51 99.9674 1141.05 99.9578 1140.74 99.9514C1140.59 99.9482 1140.43 100.253 1140.27 100.403C1140.27 100.403 1140.42 100.56 1140.57 100.563C1141.03 100.727 1141.49 100.736 1142.29 99.3684C1142.13 99.5189 1141.98 99.5157 1141.82 99.6663L1141.82 99.9738L1142.13 99.9802C1142.28 99.8296 1142.44 99.6791 1142.44 99.5253C1142.6 99.5285 1142.44 99.5253 1141.81 100.281ZM1126.59 85.1984C1126.43 85.1952 1126.28 85.192 1126.28 85.192C1126.12 85.3426 1125.82 85.3362 1125.81 85.4899C1125.65 86.1017 1126.27 85.807 1126.57 85.8134C1126.88 85.8198 1127.04 85.5155 1127.35 85.5219C1127.2 85.365 1126.89 85.3586 1125.8 86.2587C1125.8 86.1049 1125.8 85.9512 1125.8 85.9512L1125.49 85.9448C1125.18 86.0921 1124.87 86.2395 1125.33 86.5566C1125.33 86.5566 1125.49 86.2523 1126.59 85.1984ZM1302.55 71.6296C1302.4 71.6264 1302.25 71.6232 1302.25 71.6232C1302.09 71.7737 1301.78 71.7674 1301.78 71.9211C1301.61 72.5329 1302.23 72.2382 1302.54 72.2446C1302.85 72.251 1303.01 71.9467 1303.32 71.9531C1303.16 71.7961 1302.86 71.7897 1301.76 72.6899L1301.77 72.3824C1301.46 72.376 1301 72.3664 1300.69 72.36C1300.54 72.3568 1300.38 72.6611 1300.22 72.8116C1300.22 72.8116 1300.37 72.9686 1300.52 72.9718C1300.83 72.9782 1301.29 72.9878 1302.55 71.6296ZM1076.83 103.237C1076.68 103.08 1076.68 102.926 1076.53 102.769L1076.22 102.763C1076.22 102.763 1076.22 102.917 1076.22 103.071C1076.37 103.227 1076.52 103.384 1076.67 103.388C1076.67 103.388 1076.83 103.237 1075.15 102.741C1075.46 102.747 1075.61 102.75 1075.92 102.757C1076.22 102.917 1076.38 102.766 1076.23 102.456C1076.23 102.302 1076.08 102.299 1075.93 102.295C1075.31 102.283 1074.7 102.27 1074.24 102.26C1074.08 102.257 1073.92 102.408 1073.92 102.408C1074.07 102.565 1074.23 102.721 1074.38 102.878C1074.53 102.882 1074.84 102.734 1076.83 103.237ZM1285.5 100.192C1286.11 100.205 1286.73 100.218 1287.34 100.231C1287.5 100.234 1287.65 100.083 1287.81 99.9329C1287.66 99.9297 1287.66 99.7759 1287.51 99.7727C1287.36 99.462 1287.21 99.3051 1288 98.2448C1287.85 98.2416 1287.69 98.2384 1287.69 98.2384C1287.54 98.389 1287.23 98.3826 1287.22 98.5363C1287.06 99.1481 1287.68 98.8534 1287.99 98.8598C1288.29 98.8662 1288.45 98.5619 1288.76 98.5683C1288.61 98.4114 1288.3 98.405 1287.22 98.9976C1286.29 99.1322 1285.82 99.5838 1285.64 100.811C1285.49 100.5 1285.49 100.346 1285.5 100.192L1285.19 100.186C1284.11 100.164 1283.96 100.16 1283.94 100.929C1283.94 101.083 1284.09 101.24 1284.24 101.397C1284.24 101.397 1284.4 101.4 1284.55 101.403C1284.86 101.102 1285.17 100.955 1285.5 100.192ZM1162.32 112.859C1162.47 112.862 1162.63 112.866 1162.63 112.866C1162.63 112.866 1162.63 112.712 1162.63 112.558C1162.48 112.401 1162.18 112.087 1162.02 112.391C1162.02 112.391 1162.17 112.702 1165.1 111.994C1164.95 111.837 1164.96 111.53 1164.81 111.527C1164.5 111.52 1164.04 111.511 1163.73 111.658C1163.41 111.959 1163.4 112.42 1163.09 112.721C1162.93 112.872 1162.63 112.712 1162.78 113.022C1162.93 113.179 1163.23 113.34 1163.38 113.343C1164 113.509 1164.78 112.91 1162.32 112.859ZM1234.95 30.6932C1234.79 30.69 1234.64 30.6868 1234.48 30.6836C1233.87 30.6708 1233.87 30.8246 1234.31 31.4492C1234.46 31.7599 1234.62 31.7631 1234.31 31.9104C1233.99 32.0578 1233.99 32.3653 1233.67 32.6664C1233.98 32.6728 1234.59 32.8393 1234.75 32.6888C1235.22 32.3909 1235.69 31.9392 1236.46 31.9552C1236.46 31.9552 1236.78 31.5003 1236.62 31.4971C1236.17 31.0263 1235.72 30.4017 1233.67 32.9739C1233.67 32.8201 1233.67 32.6664 1233.67 32.6664L1233.37 32.66C1233.06 32.8073 1232.74 32.9547 1233.2 33.2718C1233.35 33.4287 1233.66 33.2814 1234.95 30.6932ZM1077.25 98.016C1077.71 98.0256 1077.86 98.0288 1077.86 98.0288C1078.02 97.8782 1078.33 97.8846 1078.48 97.7341C1078.33 97.5771 1078.18 97.4202 1078.03 97.417C1077.57 97.4074 1076.95 97.3946 1077.12 96.629C1077.13 96.1678 1076.83 96.0077 1076.52 95.8475C1076.22 95.5336 1076.07 95.3767 1075.45 95.6714C1074.51 96.2672 1073.42 97.0136 1072.04 96.6773C1071.57 97.129 1070.94 97.8849 1070.82 96.3442C1070.83 95.883 1069.91 95.71 1069.6 96.0111C1069.13 96.4628 1068.51 96.6038 1068.49 97.2188C1068.48 97.8338 1068.47 98.295 1068.92 98.7658C1069.53 99.2399 1069.21 99.6947 1068.44 99.9863C1067.82 100.127 1067.35 100.425 1066.73 100.566C1065.96 100.858 1065.96 100.858 1066.56 101.485C1067.32 102.116 1067.78 102.126 1068.4 101.524C1068.4 101.524 1068.71 101.53 1068.86 101.687C1069.02 101.69 1069.17 101.847 1069.47 102.007C1069.63 101.857 1069.79 101.553 1069.79 101.399C1069.5 100.47 1070.14 99.5602 1070.91 99.4224C1071.99 99.291 1072.62 98.5351 1073.4 97.9361C1074.34 97.0328 1075.27 96.8982 1076.33 97.8431C1076.78 98.0064 1077.25 98.016 1077.25 98.016ZM1279.92 102.23C1280.23 102.236 1280.38 102.239 1280.54 102.089C1281 101.791 1281.47 101.339 1281.95 100.888L1284.76 98.4852C1284.61 98.3282 1284.61 98.3282 1284.46 98.1713C1284.31 98.1681 1284.31 98.0144 1284.16 98.0112C1283.55 97.8446 1283.23 98.4532 1282.92 98.6006C1282.61 98.5942 1282.15 98.2771 1281.7 97.96C1281.54 97.9568 1281.39 97.9536 1281.39 97.9536C1280.45 98.7032 1279.51 99.4527 1278.57 100.356C1278.57 100.356 1278.57 100.51 1278.57 100.664C1278.4 101.122 1279.46 102.22 1279.92 102.23ZM1104.84 73.0563C1104.84 72.9025 1104.85 72.595 1104.85 72.4413C1104.87 71.8263 1104.56 71.8199 1103.95 71.6533C1103.03 71.4804 1102.56 71.9321 1102.09 72.3837C1101.61 72.8354 1101.92 73.1493 1101.75 73.6073C1101.59 74.2191 1102.04 74.3825 1102.66 74.3952C1102.81 74.3984 1102.97 74.4016 1102.97 74.4016C1103.88 74.8821 1104.81 74.44 1104.83 73.6713C1104.83 73.3638 1104.84 73.21 1104.84 73.0563ZM1114.22 73.0975C1113.92 73.0911 1113.76 73.0879 1113.46 73.0815C1112.69 73.0656 1112.52 73.6774 1112.81 74.2988C1112.96 74.6094 1113.27 74.7696 1113.41 75.0803C1113.86 75.8586 1114.01 76.0156 1114.94 75.881C1116.01 75.9034 1115.57 75.125 1115.88 74.6702C1116.2 74.0616 1115.92 73.1327 1115.3 73.1199C1114.99 73.1135 1114.53 73.1039 1114.22 73.0975ZM1113.65 63.7028C1113.5 63.5459 1113.5 63.5459 1113.35 63.3889C1112.9 62.6106 1111.82 62.742 1111.22 62.1142C1110.77 61.6433 1110.6 62.5626 1110.13 62.7068C1109.67 62.8509 1109.66 63.3122 1109.81 63.6229C1110.55 64.8689 1112.08 65.0546 1113.18 64.1545C1113.34 64.0039 1113.49 63.8534 1113.65 63.7028ZM1081.49 93.7973C1080.55 94.7006 1080.52 96.0844 1079.42 96.8308C1079.42 96.8308 1079.42 96.9845 1079.58 96.9877C1079.73 97.1446 1079.73 97.1446 1079.88 97.1478C1081.12 96.8659 1082.51 96.4334 1083.3 95.5269C1083.45 95.3764 1083.16 94.9087 1083.01 94.598C1082.85 94.7486 1082.54 94.7422 1082.39 94.8928C1081.92 95.3444 1081.77 95.0337 1081.62 94.723C1081.63 94.5693 1081.63 94.2618 1081.49 93.7973ZM1066.8 104.721C1067.11 104.727 1067.26 104.73 1067.57 104.737C1068.03 104.746 1068.34 104.599 1068.35 104.137C1068.35 103.984 1068.36 103.522 1068.21 103.519C1067.9 103.359 1067.44 103.35 1067.14 103.343C1066.98 103.34 1066.82 103.644 1066.51 103.792C1066.36 103.788 1066.05 103.628 1066.05 103.628C1066.23 102.555 1065.46 102.539 1064.69 102.523C1064.54 102.52 1064.38 102.517 1064.38 102.517C1064.23 102.667 1064.07 102.818 1063.92 102.815C1064.67 103.6 1065.1 104.993 1066.8 104.721ZM1118.77 69.1928C1119.39 68.5905 1120.02 68.1421 1120.5 67.3829C1120.65 67.2324 1120.52 66.4604 1120.36 66.4572C1119.75 66.2907 1118.98 66.121 1118.52 66.4189C1117.9 66.7136 1118.18 67.6425 1117.41 67.934C1117.86 68.4048 1118.16 68.7187 1118.77 69.1928ZM1113.08 69.0745C1114.33 67.87 1114.33 67.87 1114.35 67.1013C1114.36 66.64 1114.21 66.3294 1113.6 66.3166C1112.21 66.2878 1111.58 67.0437 1112.17 68.1328C1112.32 68.4435 1112.78 68.7606 1113.08 69.0745ZM1140.47 61.3379C1139.54 61.3187 1139.54 61.3187 1139.99 62.097C1140.44 62.7216 1139.97 63.1733 1140.27 63.6409C1140.42 63.7979 1140.87 63.9612 1141.18 63.9676C1141.64 63.9772 1141.95 63.8298 1141.81 63.3654C1141.66 63.0547 1141.51 62.744 1141.36 62.5871C1141.06 62.4269 1141.06 62.2732 1141.37 62.1258C1141.69 61.8247 1142.31 61.53 1141.39 61.3571C1140.93 61.1937 1140.77 61.3443 1140.47 61.3379ZM1131.5 70.8419C1131.35 70.6849 1131.36 70.3774 1131.21 70.2205C1131.06 70.0635 1130.75 70.0571 1130.59 70.0539C1130.13 70.1981 1129.82 70.4992 1129.5 70.8003C1129.19 71.1014 1129.02 71.867 1129.48 71.8766C1129.78 72.0367 1130.25 72.0463 1130.4 71.8957C1130.87 71.5978 1131.49 71.4569 1131.5 70.8419ZM1229.02 108.555C1229.02 108.708 1229.02 108.708 1229.01 108.862C1229 109.323 1229.77 109.647 1230.08 109.5C1230.39 109.352 1230.7 109.051 1230.86 108.901C1231.17 108.753 1231.33 108.449 1230.87 108.132C1230.57 107.972 1230.42 107.661 1230.12 107.501C1229.82 107.187 1229.04 107.478 1228.88 107.937C1229.03 108.093 1229.03 108.247 1229.02 108.555ZM1098.93 68.7803C1098.78 68.7771 1098.62 68.7739 1098.62 68.7739C1098.16 68.7643 1097.69 69.3698 1097.99 69.6836C1098.14 69.9943 1098.44 70.1545 1098.74 70.4684C1099.04 70.7823 1099.2 70.7855 1099.51 70.4844C1099.67 70.1801 1100.13 70.0359 1100.29 69.7316C1100.61 69.4305 1100.31 68.8091 1099.7 68.6426C1099.39 68.6362 1099.24 68.7867 1098.93 68.7803ZM1146.57 56.2351C1146.27 55.9212 1145.97 55.6073 1145.52 55.2902C1145.06 54.9731 1144.29 55.2646 1144.27 55.8796C1144.26 56.3409 1143.95 56.7957 1144.55 57.116C1145.16 57.4363 1145.63 57.1384 1146.1 56.6867C1146.26 56.5362 1146.42 56.3856 1146.57 56.2351ZM1101.99 62.2298C1101.53 61.9127 1101.39 61.6021 1101.08 61.4419C1100.63 61.1248 1100.01 61.112 1099.85 61.4163C1099.69 61.7206 1099.69 62.0281 1099.83 62.3388C1100.13 62.6527 1100.44 62.9666 1100.74 63.2805C1101.21 62.8289 1101.52 62.5277 1101.99 62.2298ZM1103.52 84.7188C1104.15 84.1166 1104.77 83.6682 1105.4 83.066C1105.4 83.066 1105.25 82.7553 1105.1 82.5983L1104.8 82.5919C1103.87 82.7265 1103.25 83.175 1103.23 84.0974C1103.07 84.4018 1103.37 84.5619 1103.52 84.7188ZM1129.81 56.1941C1129.96 56.1973 1130.11 56.2005 1130.11 56.2005C1130.57 56.2101 1130.89 56.0627 1130.89 55.7552C1130.9 55.4477 1130.75 54.9833 1130.6 54.9801C1130.3 54.8199 1129.83 54.9641 1129.67 55.1147C1129.36 55.262 1129.05 55.5631 1128.89 55.8674C1128.89 55.8674 1129.04 56.1781 1129.19 56.3351C1129.34 56.3383 1129.65 56.1909 1129.81 56.1941ZM1143.7 46.4849C1143.55 46.328 1143.24 46.1678 1142.94 46.1614C1142.32 46.1486 1142.01 46.4497 1142.15 46.9142C1142.15 47.2217 1142.45 47.5356 1142.91 47.5452C1143.52 47.558 1143.84 47.2569 1143.7 46.4849ZM1133.35 41.04C1133.2 41.0368 1133.04 41.0336 1133.04 41.0336C1132.58 41.024 1132.27 41.1714 1132.27 41.4789C1132.26 41.6326 1132.26 41.9401 1132.41 42.0971C1132.86 42.5679 1132.87 41.9529 1133.18 41.9593C1133.49 41.812 1133.95 41.8216 1134.26 41.6742C1134.41 41.6774 1134.57 41.3731 1134.58 41.2194C1134.58 41.2194 1134.43 41.0624 1134.27 41.0592C1133.81 41.0496 1133.5 41.0432 1133.35 41.04ZM1196.86 94.1964C1196.09 94.1804 1195.78 94.4816 1195.92 95.0997C1195.91 95.4073 1196.21 95.7211 1196.67 95.7307C1197.29 95.7435 1197.6 95.4424 1197.46 94.8242C1197.31 94.5135 1196.85 94.3502 1196.86 94.1964ZM1115.38 91.4257C1115.4 90.657 1115.09 90.4968 1114.48 90.484C1114.02 90.4744 1113.86 90.7787 1113.85 91.0862C1113.84 91.5475 1114.14 91.8614 1114.76 91.7204C1115.07 91.7268 1115.38 91.4257 1115.38 91.4257ZM1198.17 105.298C1197.4 105.282 1197.08 105.583 1197.22 106.202C1197.22 106.509 1197.52 106.823 1197.98 106.833C1198.59 106.845 1198.91 106.544 1198.77 105.926C1198.62 105.615 1198.32 105.455 1198.17 105.298ZM1141.04 77.962C1140.28 77.7923 1139.96 78.0934 1139.8 78.5514C1139.79 79.0127 1139.94 79.1696 1140.4 79.1792C1141.02 79.3458 1141.48 79.0479 1141.34 78.5834C1141.5 78.2791 1141.2 78.119 1141.04 77.962ZM1164.88 115.373C1164.58 115.06 1164.43 114.903 1164.12 114.742C1163.97 114.586 1163.67 114.425 1163.67 114.425C1163.36 114.726 1162.89 115.024 1162.57 115.326C1162.72 115.482 1162.72 115.482 1162.88 115.486C1163.49 115.652 1164.25 115.976 1164.88 115.373ZM1158.55 27.8742C1157.78 27.7045 1157.47 28.0056 1157.3 28.4637C1157.29 28.9249 1157.44 29.0819 1157.91 29.0915C1158.52 29.258 1158.99 28.9601 1158.84 28.4956C1158.85 28.1881 1158.54 28.028 1158.55 27.8742ZM1137.8 71.1267C1137.82 70.358 1137.51 70.1978 1136.9 70.185C1136.44 70.1754 1136.28 70.4797 1136.27 70.7872C1136.26 71.2485 1136.56 71.5624 1137.18 71.4214C1137.33 71.4246 1137.65 71.1235 1137.8 71.1267ZM1328.48 74.9374C1328.8 74.6363 1329.11 74.4889 1329.27 74.1846C1329.42 74.0341 1329.43 73.8803 1329.43 73.7266C1329.43 73.7266 1329.28 73.5696 1329.13 73.5664C1328.67 73.5569 1328.2 73.5473 1327.59 73.5345C1327.43 73.5313 1327.28 73.6818 1327.28 73.6818C1327.27 73.8356 1327.43 73.9925 1327.42 74.1463C1328.03 74.4666 1328.34 74.6267 1328.48 74.9374ZM1173.84 24.962C1174.01 24.1965 1173.7 24.0363 1173.09 23.8698C1172.63 23.8602 1172.47 24.0107 1172.31 24.4688C1172.15 24.9268 1172.44 25.3945 1173.06 25.2535C1173.37 25.2599 1173.68 25.1126 1173.84 24.962ZM1084.97 67.1056C1085.27 67.112 1085.43 67.1152 1085.73 67.1216C1086.2 67.1312 1086.36 66.8269 1086.36 66.5194C1086.37 66.3657 1086.37 66.2119 1086.37 66.2119C1086.22 65.9012 1085.91 65.8948 1085.6 66.1959C1085.29 66.497 1084.67 66.4843 1084.36 66.6316C1084.21 66.6284 1084.05 66.779 1084.05 66.779C1084.05 66.9327 1084.2 66.9359 1084.35 66.9391C1084.51 66.9423 1084.66 66.9455 1084.97 67.1056ZM1117.85 61.4829C1117.08 61.4669 1116.77 61.768 1116.91 62.3862C1116.9 62.6937 1117.2 63.0076 1117.66 63.0172C1118.28 63.03 1118.59 62.7289 1118.45 62.1107C1118.3 61.8 1118 61.6398 1117.85 61.4829ZM1162.96 59.8059C1162.98 59.0372 1162.67 58.877 1162.06 58.8642C1161.59 58.8546 1161.43 59.1589 1161.43 59.4664C1161.42 59.9277 1161.72 60.2416 1162.34 60.1006C1162.64 60.2608 1162.8 59.9565 1162.96 59.8059ZM1125.93 57.4979C1125.17 57.3282 1124.85 57.6293 1124.69 58.0873C1124.68 58.5486 1124.83 58.7055 1125.29 58.7151C1125.9 58.8817 1126.37 58.5838 1126.23 58.1193C1126.23 57.9656 1125.93 57.6517 1125.93 57.4979ZM1172.14 106.603C1171.99 106.446 1171.68 106.286 1171.38 106.28C1170.76 106.267 1170.45 106.568 1170.59 107.032C1170.59 107.34 1170.89 107.654 1171.35 107.663C1171.97 107.522 1172.13 107.218 1172.14 106.603ZM1198.66 103.617C1198.83 102.851 1198.53 102.691 1197.92 102.524C1197.45 102.515 1197.3 102.665 1197.13 103.124C1196.97 103.735 1197.27 104.049 1197.89 103.908C1198.19 103.915 1198.51 103.614 1198.66 103.617ZM1099.11 82.4736C1098.8 82.621 1098.64 82.7715 1098.48 82.9221C1098.63 83.079 1098.63 83.079 1098.78 83.236C1098.93 83.3929 1099.08 83.5499 1099.23 83.7068C1099.39 83.8638 1099.54 83.867 1099.69 83.8702C1099.85 83.5659 1100.01 83.2616 1099.87 82.9509C1099.87 82.6434 1099.41 82.6338 1099.11 82.4736ZM1192.09 86.8679C1191.78 86.7078 1191.64 86.3971 1191.33 86.0832C1191.03 85.7693 1190.73 85.7629 1190.57 86.0672C1190.41 86.2177 1190.4 86.5252 1190.55 86.6822C1190.7 86.9929 1191.31 87.1594 1191.78 87.0153C1191.93 87.0184 1191.93 87.0184 1192.09 86.8679ZM1202.88 92.9374C1202.74 92.6267 1202.59 92.4697 1202.44 92.3128C1202.28 92.4633 1202.28 92.4633 1202.12 92.6139C1201.96 92.7644 1201.81 92.915 1201.65 93.0655C1201.5 93.0623 1201.49 93.2161 1201.49 93.3699C1201.8 93.3762 1202.25 93.6933 1202.56 93.546C1202.72 93.5492 1202.73 93.0879 1202.88 92.9374ZM1188.06 95.7054C1187.75 95.5453 1187.45 95.2314 1187.3 95.0745C1187.15 94.9175 1187 94.9143 1186.84 94.9111C1186.68 95.2154 1186.52 95.5197 1186.67 95.8304C1186.82 96.1411 1187.43 96.3077 1187.89 96.1635C1187.74 96.0066 1187.9 95.856 1188.06 95.7054ZM1204.3 98.6581C1204.32 97.8893 1203.86 97.5722 1203.24 97.867C1203.09 97.8638 1202.93 98.1681 1202.93 98.3218C1203.07 98.6325 1203.38 98.7927 1203.68 99.1065C1203.83 99.1097 1203.83 99.2635 1203.98 99.2667C1203.99 99.1129 1204.15 98.8086 1204.3 98.6581ZM1110.05 103.466C1110.21 103.316 1110.52 103.169 1110.37 103.165C1110.37 102.858 1110.38 102.397 1110.08 102.236C1109.93 102.079 1109.46 102.224 1109.16 102.217C1109 102.214 1108.85 102.365 1108.85 102.365C1109.3 102.835 1109.75 103.153 1110.05 103.466ZM1236.73 107.792C1236.57 107.789 1236.58 107.635 1236.42 107.632C1236.12 107.626 1235.65 107.616 1235.49 107.92C1235.34 108.071 1235.48 108.535 1235.47 108.843C1235.47 108.997 1235.63 109 1235.78 109.003C1235.94 108.852 1236.72 107.946 1236.73 107.792ZM1228.24 27.785C1229.01 27.801 1229.47 27.5031 1229.18 26.728C1229.19 26.5742 1228.73 26.4109 1228.73 26.4109C1228.42 26.5583 1228.1 26.8594 1227.95 27.0099C1227.79 27.0067 1227.79 27.1605 1227.63 27.311C1227.78 27.6217 1228.08 27.7819 1228.24 27.785ZM1141.39 39.0538C1141.08 39.2011 1140.92 39.3517 1140.77 39.5022C1140.92 39.6592 1140.92 39.6592 1141.07 39.8161C1141.22 39.9731 1141.37 40.13 1141.52 40.287C1141.67 40.4439 1141.82 40.4471 1141.98 40.4503C1141.98 40.1428 1142.3 39.8417 1142.15 39.531C1142.15 39.3773 1141.7 39.2139 1141.39 39.0538ZM1180.41 49.094C1180.26 48.9371 1180.11 48.6264 1179.97 48.3157C1179.82 48.1587 1179.51 48.1523 1179.2 48.2997C1178.73 48.4439 1178.88 48.7546 1179.18 49.0684C1179.33 49.2254 1179.48 49.3823 1179.63 49.5393C1179.79 49.5425 1179.78 49.6962 1179.94 49.6994C1180.1 49.3951 1180.26 49.2446 1180.41 49.094ZM1092.07 80.4816C1091.92 80.4784 1091.92 80.3246 1091.77 80.3214C1091.46 80.315 1091 80.3054 1090.84 80.6097C1090.68 80.7603 1090.83 81.2247 1090.82 81.5322C1090.82 81.686 1090.97 81.6892 1091.12 81.6924C1091.28 81.6956 1092.07 80.6353 1092.07 80.4816ZM1164.85 27.8516C1165.32 27.7074 1165.34 26.9387 1164.88 26.7753C1164.88 26.7753 1164.72 26.7721 1164.57 26.7689C1164.1 26.9131 1164.09 27.6818 1164.55 27.8452C1164.7 27.8484 1164.85 27.8516 1164.85 27.8516ZM1236.65 29.9596C1237.12 29.8155 1237.13 29.0467 1236.68 28.8834C1236.68 28.8834 1236.52 28.8802 1236.37 28.877C1235.9 29.0212 1235.89 29.7899 1236.35 29.9532C1236.5 29.9564 1236.65 29.9596 1236.65 29.9596ZM1130.27 48.6668C1130.11 48.8173 1129.8 48.9647 1129.65 48.9615C1129.95 49.1216 1130.26 49.2818 1130.56 49.2882C1130.72 49.2913 1131.03 49.144 1131.19 48.9934C1131.04 48.8365 1130.73 48.6763 1130.58 48.6732C1130.43 48.5162 1130.27 48.6668 1130.27 48.6668ZM1173.73 52.339C1173.58 52.3358 1173.58 52.3358 1173.42 52.3326C1172.95 52.6306 1173.1 53.2487 1173.4 53.4089C1173.4 53.4089 1173.55 53.4121 1173.71 53.4153C1174.17 53.2711 1174.18 52.6561 1173.73 52.339ZM1105.99 54.776C1105.99 54.6223 1105.99 54.6223 1106 54.4685C1105.7 54.1546 1104.93 54.1387 1104.77 54.443L1104.76 54.5967C1104.91 55.0612 1105.68 55.0771 1105.99 54.776ZM1133.45 65.6527C1132.84 65.4862 1132.54 65.3261 1132.08 65.3165C1131.92 65.3133 1131.61 65.4606 1131.46 65.6112C1131.61 65.7681 1131.91 65.9283 1132.06 65.9315C1132.53 65.9411 1132.84 65.7937 1133.45 65.6527ZM1093.2 70.6608C1093.04 70.8113 1092.58 70.9555 1092.73 71.1124C1092.88 71.4231 1093.64 71.4391 1093.96 71.138L1093.96 70.9843C1093.66 70.8241 1093.5 70.8209 1093.2 70.6608ZM1325.67 76.8786C1325.98 76.7312 1326.29 76.7376 1326.45 76.5871L1326.45 76.4333C1326.15 76.1194 1325.38 76.1035 1325.22 76.4078C1325.06 76.5583 1325.52 76.7216 1325.67 76.8786ZM1283.56 38.1642C1283.41 38.0072 1283.41 38.0072 1283.26 37.8503C1283.1 38.0009 1283.1 38.1546 1282.94 38.3052C1282.94 38.3052 1283.09 38.4621 1283.24 38.4653C1283.4 38.4685 1283.4 38.3147 1283.56 38.1642ZM1239.86 38.64C1239.71 38.483 1239.71 38.483 1239.56 38.3261C1239.4 38.4766 1239.4 38.6304 1239.24 38.7809C1239.24 38.7809 1239.39 38.9379 1239.54 38.9411C1239.54 38.9411 1239.7 38.7905 1239.86 38.64ZM1129.48 42.3438C1129.64 42.1933 1129.64 42.1933 1129.79 42.0427C1129.64 41.8858 1129.49 41.8826 1129.33 41.8794C1129.33 41.8794 1129.18 42.0299 1129.02 42.0268C1129.17 42.1837 1129.33 42.1869 1129.48 42.3438ZM1241.02 49.4312C1241.17 49.2806 1241.17 49.2807 1241.33 49.1301C1241.18 49.1269 1241.03 48.97 1240.87 48.9668C1240.87 48.9668 1240.72 49.1173 1240.56 49.1141C1240.56 49.2679 1240.86 49.428 1241.02 49.4312ZM1296.67 51.0498C1296.52 50.8929 1296.52 50.8929 1296.37 50.8897C1296.22 50.8865 1296.06 51.037 1295.9 51.0338C1296.05 51.1908 1296.05 51.1908 1296.21 51.194C1296.36 51.1972 1296.52 51.0466 1296.67 51.0498ZM1176.85 50.2505C1177.01 50.0999 1177.01 50.0999 1177.16 49.9494C1177.01 49.7924 1176.86 49.7892 1176.71 49.786C1176.71 49.786 1176.55 49.9366 1176.39 49.9334C1176.55 49.9366 1176.7 50.0935 1176.85 50.2505ZM1291.7 53.2537C1291.86 53.1032 1291.86 53.1032 1292.02 52.9526C1291.87 52.7957 1291.71 52.7925 1291.56 52.7893C1291.56 52.7893 1291.4 52.9399 1291.25 52.9367C1291.25 53.0904 1291.4 53.2474 1291.7 53.2537ZM1117.75 51.329C1117.6 51.1721 1117.6 51.1721 1117.45 51.0151C1117.3 51.1657 1117.29 51.3194 1117.14 51.47C1117.14 51.47 1117.29 51.6269 1117.44 51.6301C1117.59 51.6333 1117.6 51.4796 1117.75 51.329ZM1229.46 57.8046C1229.61 57.9615 1229.61 58.1153 1229.76 58.2722C1229.91 58.2754 1230.07 58.1249 1230.07 58.1249C1230.07 57.9711 1229.92 57.8142 1229.77 57.6572C1229.62 57.654 1229.61 57.8078 1229.46 57.8046ZM1227.91 58.5414C1228.06 58.6983 1228.05 58.8521 1228.2 59.009C1228.36 58.8585 1228.51 58.8617 1228.51 58.8617C1228.52 58.7079 1228.37 58.551 1228.22 58.394C1228.06 58.3908 1228.06 58.3908 1227.91 58.5414ZM1150.81 59.5533C1150.65 59.7039 1150.65 59.7039 1150.5 59.8544C1150.65 59.8576 1150.8 60.0146 1150.96 60.0178C1150.96 60.0178 1151.11 59.8672 1151.27 59.8704C1151.12 59.7135 1150.97 59.5565 1150.81 59.5533ZM1105.09 60.91C1104.94 60.7531 1104.95 60.5993 1104.8 60.4424C1104.64 60.5929 1104.48 60.5898 1104.48 60.5898C1104.48 60.7435 1104.63 60.9004 1104.78 61.0574C1104.78 61.2111 1104.94 61.0606 1105.09 60.91ZM1150.1 64.3068C1149.94 64.4573 1149.79 64.4541 1149.63 64.6047C1149.78 64.7616 1149.78 64.7616 1149.93 64.7648C1150.09 64.768 1150.24 64.6175 1150.4 64.6207C1150.25 64.4637 1150.25 64.4637 1150.1 64.3068ZM1088.24 64.8665C1088.4 64.716 1088.55 64.7192 1088.71 64.5686C1088.56 64.4117 1088.56 64.4117 1088.41 64.4085C1088.25 64.4053 1088.1 64.5558 1087.94 64.5526C1087.94 64.7064 1088.09 64.8633 1088.24 64.8665ZM1326.04 73.9638C1326.2 73.8132 1326.35 73.8164 1326.51 73.6658C1326.36 73.5089 1326.36 73.5089 1326.2 73.5057C1326.05 73.5025 1325.89 73.6531 1325.74 73.6499C1325.89 73.8068 1326.04 73.9638 1326.04 73.9638ZM1125.03 71.1688C1125.19 71.0183 1125.19 71.0183 1125.35 70.8677C1125.2 70.7108 1125.04 70.7076 1124.89 70.7044C1124.89 70.7044 1124.73 70.8549 1124.58 70.8517C1124.57 71.0055 1124.73 71.1624 1125.03 71.1688ZM1328.77 76.02C1328.62 75.8631 1328.62 75.7093 1328.47 75.5524C1328.31 75.7029 1328.16 75.6998 1328.16 75.6998C1328.16 75.8535 1328.31 76.0104 1328.46 76.1674C1328.61 76.1706 1328.77 76.02 1328.77 76.02ZM1323.83 76.8402C1323.67 76.837 1323.52 76.9876 1323.52 76.9876C1323.51 77.1413 1323.66 77.2983 1323.82 77.4552C1323.97 77.3047 1324.13 77.3079 1324.13 77.3079C1323.98 77.1509 1323.82 76.994 1323.83 76.8402ZM1124.01 76.0696C1124.16 75.9191 1124.16 75.9191 1124.32 75.7685C1124.17 75.6116 1124.02 75.6084 1123.86 75.6052C1123.86 75.6052 1123.71 75.7557 1123.55 75.7525C1123.7 75.9095 1123.86 75.9127 1124.01 76.0696ZM1351.51 84.7989C1351.66 84.9558 1351.66 84.9558 1351.81 85.1128C1351.97 84.9622 1351.97 84.8085 1352.13 84.6579C1352.13 84.6579 1351.97 84.501 1351.82 84.4978C1351.67 84.4946 1351.51 84.6451 1351.51 84.7989ZM1111.9 81.2015C1112.05 81.3584 1112.05 81.3584 1112.2 81.5154C1112.36 81.3648 1112.36 81.2111 1112.52 81.0605C1112.52 81.0605 1112.37 80.9036 1112.22 80.9004C1112.06 80.8972 1111.9 81.0477 1111.9 81.2015ZM1309.64 86.0818C1309.79 85.9312 1309.79 85.9312 1309.95 85.7807C1309.8 85.6237 1309.65 85.6205 1309.49 85.6173C1309.49 85.6173 1309.34 85.7679 1309.18 85.7647C1309.33 85.9216 1309.48 86.0786 1309.64 86.0818ZM1330.69 87.2885C1330.53 87.2853 1330.38 87.4359 1330.38 87.4359C1330.37 87.5896 1330.52 87.7466 1330.67 87.9035C1330.83 87.753 1330.99 87.7562 1330.99 87.7562C1330.83 87.5992 1330.68 87.4423 1330.69 87.2885ZM1181.43 89.1073C1181.27 89.2578 1181.12 89.2546 1181.12 89.2546C1181.11 89.4084 1181.26 89.5653 1181.41 89.7223C1181.57 89.7255 1181.72 89.5749 1181.72 89.5749C1181.73 89.4212 1181.58 89.2642 1181.43 89.1073ZM1284.58 92.4826C1284.74 92.332 1284.74 92.332 1284.9 92.1815C1284.74 92.0245 1284.59 92.0213 1284.44 92.0181C1284.44 92.0181 1284.28 92.1687 1284.13 92.1655C1284.28 92.3224 1284.43 92.4794 1284.58 92.4826ZM1283.04 92.6043C1282.88 92.7549 1282.73 92.7517 1282.57 92.9022C1282.72 93.0592 1282.72 93.2129 1282.88 93.0624C1283.03 93.0656 1283.19 92.915 1283.34 92.9182C1283.19 92.915 1283.04 92.7581 1283.04 92.6043ZM1260.27 92.7462C1260.11 92.8967 1259.96 92.8935 1259.96 92.8935C1259.96 93.0473 1260.11 93.2042 1260.26 93.3612C1260.41 93.3644 1260.57 93.2138 1260.57 93.2138C1260.42 93.0569 1260.27 92.8999 1260.27 92.7462ZM1280.08 94.3886C1279.93 94.2316 1279.93 94.0779 1279.78 93.9209C1279.63 94.0715 1279.47 94.0683 1279.47 94.0683C1279.47 94.2221 1279.62 94.379 1279.77 94.5359C1279.77 94.5359 1279.93 94.3854 1280.08 94.3886ZM1373.1 96.9379C1373.25 97.0948 1373.25 97.0948 1373.4 97.2517C1373.56 97.1012 1373.56 96.9474 1373.72 96.7969C1373.72 96.7969 1373.57 96.6399 1373.41 96.6367L1373.1 96.9379ZM1184.57 93.3257C1184.41 93.4762 1184.26 93.473 1184.1 93.6236C1184.25 93.7805 1184.25 93.7805 1184.41 93.7837C1184.56 93.7869 1184.72 93.6364 1184.87 93.6396C1184.87 93.6396 1184.72 93.4826 1184.57 93.3257ZM1290.34 96.4478C1290.5 96.6047 1290.49 96.7585 1290.64 96.9154C1290.8 96.7649 1290.95 96.7681 1290.95 96.7681C1290.96 96.6143 1290.81 96.4574 1290.66 96.3004C1290.5 96.2972 1290.5 96.2972 1290.34 96.4478ZM1286.03 96.8195C1285.87 96.9701 1285.72 96.9669 1285.56 97.1174C1285.71 97.2744 1285.71 97.2744 1285.87 97.2776C1286.02 97.2808 1286.18 97.1302 1286.33 97.1334C1286.18 97.1302 1286.18 96.9765 1286.03 96.8195ZM1294.32 97.7609C1294.16 97.9115 1294.16 97.9115 1294 98.062C1294.15 98.219 1294.31 98.2222 1294.46 98.2254C1294.46 98.2254 1294.62 98.0748 1294.77 98.078C1294.78 97.9243 1294.47 97.7641 1294.32 97.7609ZM1269.39 97.858C1269.24 98.0085 1269.24 98.0085 1269.08 98.1591C1269.23 98.316 1269.38 98.3192 1269.54 98.3224C1269.54 98.3224 1269.69 98.1719 1269.85 98.1751C1269.7 98.0181 1269.54 98.0149 1269.39 97.858ZM1269.52 99.2449C1269.36 99.3955 1269.21 99.3923 1269.21 99.3923C1269.2 99.546 1269.36 99.703 1269.51 99.8599C1269.66 99.7094 1269.82 99.7126 1269.82 99.7126C1269.67 99.5556 1269.52 99.3987 1269.52 99.2449ZM1193.68 99.0525C1193.52 99.203 1193.37 99.1998 1193.37 99.1998C1193.37 99.3536 1193.52 99.5105 1193.67 99.6675C1193.82 99.6707 1193.98 99.5201 1193.98 99.5201C1193.98 99.3664 1193.83 99.2094 1193.68 99.0525ZM1217.04 100.153C1217.2 100.003 1217.35 100.006 1217.51 99.8555C1217.36 99.6986 1217.36 99.6986 1217.2 99.6954C1217.05 99.6922 1216.89 99.8427 1216.74 99.8396C1216.89 99.8427 1216.89 99.9965 1217.04 100.153ZM1210.09 101.393C1209.94 101.544 1209.78 101.541 1209.78 101.541C1209.78 101.694 1209.93 101.851 1210.08 102.008C1210.23 102.012 1210.39 101.861 1210.39 101.861C1210.24 101.704 1210.24 101.55 1210.09 101.393ZM1260.98 103.067C1261.14 102.916 1261.14 102.916 1261.29 102.765C1261.14 102.762 1260.99 102.605 1260.83 102.602C1260.83 102.602 1260.68 102.753 1260.52 102.749C1260.52 102.903 1260.82 103.063 1260.98 103.067ZM1073.22 99.4704L1073.51 99.938C1073.51 99.938 1073.82 99.7907 1073.67 99.7875C1073.67 99.6337 1073.52 99.4768 1073.37 99.3198C1073.37 99.3198 1073.37 99.4736 1073.22 99.4704ZM1189.12 103.726C1189.28 103.575 1189.28 103.575 1189.44 103.425C1189.28 103.422 1189.13 103.265 1188.98 103.262C1188.98 103.262 1188.82 103.412 1188.67 103.409C1188.82 103.412 1188.97 103.569 1189.12 103.726ZM1105.11 104.594C1105.26 104.751 1105.26 104.751 1105.41 104.908C1105.57 104.757 1105.57 104.604 1105.73 104.453C1105.73 104.453 1105.58 104.296 1105.42 104.293C1105.27 104.29 1105.26 104.444 1105.11 104.594ZM1223.97 107.373C1223.81 107.524 1223.81 107.524 1223.65 107.674C1223.8 107.831 1223.96 107.834 1224.11 107.837C1224.11 107.837 1224.27 107.687 1224.42 107.69C1224.27 107.533 1224.12 107.376 1223.97 107.373ZM1197.03 108.351C1196.87 108.194 1196.87 108.194 1196.72 108.037C1196.57 108.188 1196.56 108.341 1196.41 108.492C1196.41 108.492 1196.56 108.649 1196.71 108.652C1196.71 108.652 1196.87 108.502 1197.03 108.351ZM1128.71 108.776C1128.56 108.927 1128.4 108.924 1128.4 108.924C1128.4 109.078 1128.55 109.235 1128.7 109.391C1128.86 109.241 1129.01 109.244 1129.01 109.244C1129.01 109.09 1128.86 108.933 1128.71 108.776ZM1173.38 113.551C1173.23 113.394 1173.23 113.24 1173.08 113.083C1172.92 113.233 1172.77 113.23 1172.77 113.23C1172.77 113.384 1172.92 113.541 1173.07 113.698C1173.22 113.701 1173.38 113.704 1173.38 113.551ZM1238.42 18.9216C1238.58 18.7711 1238.58 18.7711 1238.74 18.6205C1238.58 18.4636 1238.43 18.4604 1238.28 18.4572C1238.28 18.4572 1238.12 18.6077 1237.97 18.6045C1238.12 18.7615 1238.27 18.9184 1238.42 18.9216ZM1191.79 19.7979C1191.64 19.641 1191.64 19.641 1191.49 19.484C1191.33 19.6346 1191.33 19.7883 1191.17 19.9389C1191.17 19.9389 1191.32 20.0958 1191.48 20.099C1191.63 20.1022 1191.63 19.9485 1191.79 19.7979ZM1221.25 30.8699C1221.1 30.713 1221.1 30.5592 1220.95 30.4023C1220.8 30.5528 1220.64 30.5496 1220.64 30.5496C1220.64 30.7034 1220.79 30.8603 1220.94 31.0173C1221.09 31.0205 1221.09 31.0205 1221.25 30.8699ZM1222.79 30.7481C1222.64 30.5912 1222.64 30.5912 1222.49 30.4342C1222.33 30.5848 1222.33 30.7386 1222.17 30.8891C1222.17 30.8891 1222.32 31.0461 1222.48 31.0492C1222.63 31.0524 1222.63 30.8987 1222.79 30.7481Z" fill="white"/>
</g>
<defs>
<clipPath id="clip0_430_656">
<rect width="1280" height="832" fill="white"/>
</clipPath>
</defs>
</svg>
