<svg width="1280" height="832" viewBox="0 0 1280 832" fill="none" xmlns="http://www.w3.org/2000/svg">
<g clip-path="url(#clip0_430_619)">
<rect width="1280" height="832" fill="white"/>
<rect x="-1.00928" y="0.681152" width="1280" height="96" fill="#DF0909"/>
<path d="M1206.18 108.474C1206.92 110.028 1205.39 109.381 1204.92 110.14C1204.6 110.749 1202.43 111.319 1201.35 111.604C1200.73 111.745 1200.26 112.043 1199.64 112.184C1199.18 112.328 1198.57 112.161 1198.1 112.152C1197.34 112.136 1197.48 112.6 1197.32 113.058C1197.16 113.363 1196.85 113.51 1196.54 113.196C1196.39 113.039 1196.09 112.879 1196.09 113.033C1195.62 113.331 1195.31 113.632 1194.99 113.933C1194.68 114.234 1194.68 114.234 1194.38 113.92C1193.47 113.132 1192.7 113.27 1191.76 113.866C1191.14 114.161 1190.06 114.138 1189.14 113.965C1188.38 113.949 1188.06 114.25 1188.05 114.865C1188.05 115.019 1187.43 115.16 1187.12 115.307C1186.81 115.455 1186.35 115.291 1186.04 115.439C1184.95 115.724 1184.95 115.724 1184.65 115.41C1184.35 115.096 1184.05 114.936 1183.75 114.468C1183.44 114.769 1183.12 115.224 1182.8 115.525C1182.49 115.826 1182.49 115.673 1181.73 115.503C1180.66 115.173 1179.59 114.843 1179.62 113.459L1179.16 113.296C1178.84 113.751 1177.61 114.033 1178.82 114.673C1178.67 114.824 1178.66 114.978 1178.51 115.128C1178.35 115.125 1178.04 115.119 1177.74 115.112C1176.66 115.244 1176.66 115.244 1176.64 116.012C1176.63 116.474 1176.62 116.935 1176.61 117.396C1176.61 117.55 1176.45 117.701 1176.45 117.701C1176.3 117.697 1175.99 117.691 1175.84 117.534C1175.54 117.374 1175.23 117.06 1175.09 116.749C1174.48 116.275 1173.41 116.253 1172.78 116.701C1172.31 116.999 1172 117.3 1171.69 117.601C1171.53 117.444 1171.38 117.288 1171.08 117.127C1170.47 116.807 1169.86 116.794 1169.85 117.102C1169.66 118.944 1167.82 118.751 1166.72 119.498C1165.5 119.165 1164.87 119.921 1164.09 120.52C1163.62 120.818 1163.31 120.965 1162.86 120.494C1162.25 119.866 1161.48 120.158 1160.88 119.53C1160.58 119.216 1160.26 119.671 1160.41 119.982C1160.54 120.907 1160.22 121.516 1159.14 121.494C1158.99 121.49 1158.83 121.641 1158.83 121.795C1158.96 122.874 1158.19 122.858 1157.42 122.842C1156.81 122.829 1156.04 122.66 1155.42 122.801C1154.96 122.945 1154.65 123.246 1154.18 123.39C1153.87 123.537 1153.41 123.374 1153.4 123.835C1153.4 123.989 1154.01 124.002 1154.32 124.162C1154.47 124.165 1154.62 124.322 1154.62 124.322C1154.62 124.476 1154.46 124.78 1154.31 124.777C1154 124.771 1153.54 124.761 1153.08 124.751C1152.46 124.739 1151.7 124.569 1151.23 124.713C1150.76 125.011 1149.99 125.149 1149.68 125.45C1149.05 125.898 1148.28 126.036 1147.51 126.02C1147.05 126.011 1146.44 125.844 1146.12 126.299C1145.48 127.362 1144.26 127.183 1143.17 127.468C1142.71 127.612 1142.55 127.917 1142.1 127.446C1141.19 126.812 1139.79 127.244 1138.72 127.068C1138.57 127.065 1138.41 127.369 1138.1 127.516C1137.63 127.968 1136.85 128.26 1136.23 128.554C1135.61 128.849 1135.3 128.996 1134.84 128.525C1134.54 128.212 1133.93 128.353 1133.62 128.039C1133.17 127.568 1133.01 128.026 1133.01 128.18C1132.99 128.795 1132.68 128.942 1132.21 129.24C1131.43 129.839 1130.2 129.813 1129.6 129.032C1129.45 128.875 1128.42 126.7 1128.27 126.389C1127.99 125.153 1127.4 124.064 1126.34 123.273L1126.03 123.266C1126.36 122.35 1126.99 121.748 1128.06 121.924C1129.13 122.1 1129.91 121.501 1131.45 121.533C1132.22 121.703 1132.07 121.546 1132.07 121.546C1131.76 121.386 1131.45 121.379 1130.99 121.37C1130.69 121.21 1130.53 121.36 1130.68 121.671C1130.68 121.825 1130.83 121.828 1130.98 121.831C1131.44 122.148 1132.21 122.01 1131.45 121.533C1130.69 121.056 1130.54 120.899 1130.39 120.742C1130.24 120.585 1129.93 120.579 1129.63 120.572C1128.4 120.393 1128.4 120.393 1128.27 119.16C1128.58 119.012 1128.89 118.865 1129.05 118.715C1129.21 118.41 1129.06 118.1 1129.07 117.792C1129.68 117.805 1129.84 117.654 1129.85 117.193C1130.93 116.908 1131.56 116.306 1131.43 115.226C1131.29 114.454 1131.46 113.843 1132.24 113.397C1132.39 113.247 1132.25 112.782 1132.1 112.472C1132.1 112.318 1131.64 112.308 1131.49 112.305C1131.34 112.302 1130.87 112.446 1130.87 112.6C1130.86 113.215 1130.85 113.676 1130.83 114.291C1130.82 114.906 1130.82 114.906 1130.06 114.583C1129.75 114.422 1129.29 114.413 1128.99 114.253C1128.83 114.249 1128.69 113.939 1128.69 113.785C1128.69 113.785 1128.85 113.634 1129 113.484C1129.48 112.571 1130.43 111.668 1130.3 110.434C1130.3 110.127 1130.77 109.983 1131.08 109.989C1132 110.008 1131.85 109.544 1131.25 109.224C1130.94 109.063 1130.94 108.91 1131.26 108.762C1131.57 108.615 1132.03 108.625 1132.34 108.477C1132.96 108.029 1133.59 107.427 1134.22 106.978C1133.76 106.661 1133.61 106.35 1133.31 106.19C1133 106.03 1132.55 105.867 1132.24 106.014C1131.61 106.463 1131.14 106.914 1130.52 107.363C1130.04 107.814 1130.19 108.279 1129.72 108.73C1129.09 109.486 1129.06 110.563 1127.53 110.531C1127.22 110.524 1126.44 111.123 1126.43 111.431C1126.4 112.968 1125.18 112.481 1124.26 112.462C1124.1 112.459 1124.11 112.305 1123.95 112.148L1124.11 111.998C1125.19 112.02 1125.66 111.415 1125.53 110.489C1125.53 110.182 1125.54 109.874 1125.55 109.413C1126.65 108.513 1127.74 107.459 1128.99 106.562C1130.4 105.514 1130.55 105.518 1130.42 104.746C1130.28 103.82 1130.9 103.679 1131.67 103.541C1131.83 103.544 1131.99 103.24 1131.99 102.933C1132 102.318 1132.47 102.327 1132.93 102.183C1133.39 102.193 1133.55 101.888 1133.56 101.427C1133.57 101.273 1133.42 100.963 1133.27 100.806C1132.96 100.799 1132.35 100.633 1132.19 100.783C1131.09 101.991 1129.23 102.414 1127.84 103C1126.9 103.442 1125.83 103.574 1124.74 103.859C1124.12 104 1123.81 104.455 1123.19 104.595C1122.41 104.887 1121.64 105.332 1120.72 105.159C1119.64 104.983 1119.48 105.441 1119.31 106.207C1119.3 106.514 1119 106.508 1118.69 106.194C1118.39 106.034 1118.09 105.72 1117.78 105.714C1117.47 105.707 1116.71 105.537 1116.7 105.691C1116.07 106.755 1114.7 105.957 1113.92 106.556C1113.6 106.857 1113.29 107.312 1112.82 107.456C1112.51 107.604 1112.06 107.133 1111.6 106.969C1111.45 106.966 1110.99 106.957 1110.98 107.11C1110.67 107.411 1110.66 108.026 1110.35 108.174C1109.88 108.318 1109.42 108.308 1109.11 108.61C1108.79 108.911 1108.49 108.75 1108.02 108.895C1107.56 108.885 1106.94 109.026 1106.8 108.408C1106.67 107.328 1105.6 106.998 1105 106.217C1103.46 106.185 1103.64 105.266 1103.66 104.343C1103.66 104.036 1103.52 103.725 1103.53 103.11C1103.06 103.562 1102.74 103.863 1102.28 104.161C1101.97 104.308 1101.65 104.455 1101.34 104.603C1101.19 104.6 1100.88 104.593 1100.57 104.587C1099.96 104.574 1099.04 104.401 1098.73 104.548C1098.1 104.997 1097.34 104.981 1096.71 105.429C1097.15 106.361 1093.79 105.215 1095.76 106.794C1095.6 106.944 1095.6 107.098 1095.45 107.095C1094.53 106.768 1093.88 108.6 1092.98 107.198C1091.73 108.402 1090.05 107.598 1088.51 107.72L1088.66 107.723C1088.66 107.723 1088.67 107.569 1088.67 107.416C1088.52 107.259 1088.22 106.945 1088.06 107.249C1088.06 107.249 1088.21 107.56 1088.51 107.72C1088.81 107.88 1088.81 108.187 1088.96 108.344C1089.11 108.655 1089.72 108.668 1089.1 109.116C1088.94 109.113 1088.94 109.267 1088.78 109.417C1088.16 109.866 1088.91 110.804 1088.28 111.253C1086.91 110.917 1086.11 112.131 1084.73 111.948C1084.12 111.782 1083.35 111.766 1082.88 111.91C1082.27 112.051 1081.94 112.813 1081.18 112.49C1080.05 114.927 1078.98 114.597 1078.06 114.578C1078.06 114.424 1078.06 114.424 1078.07 114.271C1078.08 113.809 1078.24 113.351 1077.47 113.182C1076.86 113.169 1076.24 113.156 1075.48 113.14C1074.71 113.124 1074.69 113.739 1075.14 114.364C1075.59 114.988 1075.59 115.142 1074.97 115.129C1074.51 115.12 1073.9 115.107 1073.59 115.254C1072.8 115.853 1072.65 115.696 1072.52 114.924C1072.52 114.617 1072.37 114.46 1071.76 114.447C1070.99 114.431 1070.06 114.719 1069.31 113.935C1068.7 113.307 1067.77 113.749 1067.16 113.582C1066.85 113.422 1066.55 113.262 1066.25 113.102C1065.79 112.785 1065.34 112.314 1064.89 111.843C1064.44 111.372 1063.97 111.516 1063.51 111.353C1062.44 111.177 1061.53 110.543 1060.46 110.367C1060 110.357 1059.55 109.579 1059.1 109.262C1058.49 108.788 1058.66 108.176 1058.67 107.715C1058.67 107.561 1058.83 107.41 1058.99 107.106C1059.14 107.263 1059.29 107.42 1059.59 107.58C1059.74 107.891 1060.05 107.897 1060.2 108.054C1060.18 108.977 1060.95 108.685 1061.57 108.698C1061.88 108.704 1062.49 108.563 1062.5 108.41C1062.51 107.948 1062.67 107.336 1062.38 106.869C1062.22 106.712 1061.46 106.696 1060.99 106.686C1060.7 106.219 1060.24 105.748 1060.25 105.287C1060.27 104.518 1059.97 104.05 1059.52 103.426C1059.22 103.112 1059.55 102.349 1059.56 101.734C1059.86 101.894 1060.32 102.058 1060.47 102.215C1060.78 102.375 1060.93 102.532 1061.09 102.228C1061.41 101.619 1061.11 101.151 1060.34 101.135C1060.03 101.129 1059.88 101.126 1059.57 101.119C1059.59 100.197 1059.3 99.268 1060.39 98.6753C1060.25 97.9034 1060.57 97.6023 1061.49 97.6215C1061.8 97.6279 1062.26 97.6375 1062.57 97.4901C1062.88 97.3427 1063.36 96.5836 1063.49 97.5093C1063.63 98.2812 1064.24 98.6015 1064.69 99.0724C1065.01 98.7713 1065.16 98.6207 1065.48 98.3196C1066.41 97.7238 1066.74 96.9614 1066.6 96.0357C1066.47 95.11 1066.77 95.1164 1067.55 94.9787C1068.63 94.8473 1069.84 95.4879 1070.79 94.4308C1072.17 94.6133 1072.51 93.0822 1073.58 93.1046C1073.57 93.5659 1073.88 93.8798 1075.1 94.0591C1075.87 94.2288 1075.72 94.0719 1075.72 94.0719C1075.41 93.9117 1075.11 93.9053 1074.64 93.8957C1074.34 93.7356 1074.18 93.8861 1074.33 94.1968C1074.33 94.3506 1074.48 94.3538 1074.63 94.5107C1075.09 94.8278 1075.86 94.6901 1075.1 94.2128C1074.34 93.5818 1074.2 93.2711 1073.58 93.2584C1073.58 93.1046 1073.59 92.9509 1073.59 92.9509C1074.36 92.6593 1074.99 92.0571 1075.76 91.9194C1076.69 91.7848 1076.7 91.3236 1076.71 90.7086C1076.72 90.4011 1076.72 90.0936 1076.73 89.6323C1076.74 89.1711 1077.05 89.0237 1077.51 89.0333C1078.13 89.0461 1078.89 89.3696 1079.22 88.6072C1079.54 87.9986 1078.33 87.0505 1077.25 87.0282C1076.79 87.0186 1076.48 87.0122 1076.02 87.0026C1075.87 86.8456 1075.87 86.5381 1075.72 86.3812C1075.27 86.2179 1075.11 86.5222 1075.25 86.9866C1075.1 86.8297 1074.79 86.8233 1074.64 86.6663C1074.34 86.5062 1074.19 86.0417 1073.88 86.4966C1073.25 87.0988 1072.48 86.9291 1071.72 86.7593C1071.41 86.7529 1071.41 86.4454 1071.57 86.2949C1071.73 86.1443 1072.5 86.0066 1071.9 85.5325C1071.44 85.2154 1070.82 85.3564 1070.66 85.8144C1070.5 85.965 1070.65 86.2757 1070.49 86.4262C1070.49 86.58 1070.34 86.5768 1070.18 86.7273C1069.58 86.0996 1068.51 85.4622 1068.37 84.6902C1068.39 83.7677 1067.01 83.5852 1067.66 81.9068C1067.82 81.6025 1067.51 81.9036 1067.04 82.2015L1067.04 82.509C1067.04 82.509 1067.19 82.5122 1067.34 82.5154C1068.42 82.5377 1068.89 82.0861 1068.6 81.4647C1068.6 81.3109 1068.45 81.3077 1067.67 81.753C1066.88 82.352 1066.58 82.3456 1066.43 82.1887C1065.06 81.2374 1065.25 79.5494 1064.04 78.6013C1065.29 77.7044 1064.37 77.5314 1063.45 77.3585C1063.3 77.3553 1063.16 76.7371 1063.32 76.4328C1063.47 76.2822 1063.94 76.1381 1064.24 76.1445C1064.4 76.1477 1064.55 76.4584 1064.85 76.4648C1065 76.6217 1065.31 76.7819 1065.46 76.7851C1065.62 76.7883 1065.92 76.7947 1066.08 76.6441C1066.23 76.6473 1066.24 76.4935 1066.24 76.3398C1066.11 75.1066 1068.12 74.8407 1067.99 73.6075C1067.99 73.6075 1068.45 73.4633 1068.61 73.3128C1068.6 74.0815 1069.36 74.0975 1069.66 74.7189C1070.59 74.4306 1070.76 73.5113 1072.29 73.8507C1073.21 74.1774 1073.52 74.1838 1073.67 74.187C1073.82 74.1902 1073.98 74.0397 1073.98 74.0397C1073.83 73.8827 1073.68 73.7258 1073.53 73.5688C1073.07 73.5592 1072.61 73.5496 1071.99 73.5369C1071.68 73.5305 1071.53 73.5273 1071.68 73.838C1071.67 73.9917 1071.83 73.9949 1071.98 73.9981C1072.29 74.1582 1072.75 74.1678 1072.29 73.8507C1071.85 73.0724 1071.54 72.9123 1071.24 72.7521C1070.62 72.7393 1070.01 72.7265 1069.39 72.7138C1069.1 71.7849 1069.74 71.0289 1070.51 70.7374C1071.29 70.4459 1071.75 70.3017 1071.92 69.5362C1071.93 69.2287 1072.39 69.2383 1072.38 69.5458C1072.52 70.1639 1072.82 70.7853 1073.42 71.2594C1073.73 71.4195 1073.73 71.4195 1074.04 71.1184C1074.68 70.2087 1075.89 71.1568 1076.52 70.4008C1076.07 69.93 1075.46 69.4559 1075.01 68.9851C1075.32 68.684 1075.48 68.3797 1075.95 68.2355C1076.26 68.0882 1076.88 67.9472 1076.88 67.9472C1077.63 68.8857 1078.71 68.6006 1081.63 68.8151C1083.47 68.8534 1083.32 68.8502 1083.32 68.6965C1082.56 68.5268 1081.47 68.8119 1081.03 67.8798C1080.57 68.024 1080.4 68.6358 1079.79 68.4692C1079.78 68.7767 1079.78 69.0842 1079.77 69.5455C1079.76 69.6992 1080.22 69.8626 1080.22 69.7088C1080.69 69.2572 1081.31 69.1162 1081.93 69.129C1082.39 69.1386 1082.85 68.9944 1083.47 69.0072C1083.47 69.0072 1083.63 68.8566 1081.78 68.6645C1079.79 68.3155 1079.64 68.0048 1079.65 67.851C1079.5 67.5403 1078.89 67.22 1079.51 67.2328C1080.43 67.252 1080.91 66.3391 1081.83 66.3583C1082.29 66.3679 1082.46 65.7561 1082.16 65.2884C1082.01 64.9777 1081.86 64.8208 1081.72 64.5101C1082.02 64.5165 1082.49 64.3723 1082.8 64.3787C1083.72 64.2442 1083.72 64.3979 1083.28 63.3121C1083.28 63.1583 1083.28 63.1583 1083.29 63.0046C1083.29 62.8508 1083.14 62.5401 1083.15 62.3864C1082.7 61.7618 1082.7 61.7618 1083.16 61.4639C1083.48 61.3165 1083.79 61.0154 1084.1 60.8681C1085.19 60.4292 1085.19 60.4292 1084.74 59.4971C1084.6 59.1864 1084.45 58.8757 1084.3 58.565C1084.3 58.4113 1084.3 58.4113 1084.46 58.2607C1084.62 57.9564 1084.78 57.9596 1085.08 58.2735C1085.37 58.7411 1086.14 59.0646 1085.97 59.6764C1085.8 60.2882 1086.1 60.7559 1086.71 61.0762C1086.86 61.2331 1087.01 61.3901 1087.32 61.3965C1087.78 61.406 1088.73 60.0415 1088.43 59.8813C1087.36 59.244 1088.14 58.7987 1088.61 58.347C1088.77 58.3502 1088.77 58.1965 1088.93 58.0459C1089.52 58.9812 1089.65 60.2144 1091.34 60.2496C1091.64 60.871 1092.08 61.6493 1092.37 62.4245L1092.38 62.2707L1092.07 62.2643C1091.76 62.4117 1091.45 62.559 1091.9 62.8761C1091.9 62.8761 1092.21 62.7288 1092.37 62.4245C1092.69 62.2771 1092.84 62.2803 1093.15 62.2867C1093.61 62.2963 1093.92 62.1489 1093.93 61.6877C1093.94 61.3802 1093.64 60.9125 1093.48 60.9093C1092.71 60.8934 1092.26 60.5763 1092.43 59.9645C1092.43 59.8107 1091.82 59.6442 1091.51 59.484C1091.05 59.3207 1090.9 59.1637 1090.91 58.8562C1090.92 58.395 1091.08 58.2444 1091.54 58.1003C1092.16 58.1131 1092.47 57.9657 1092.63 57.3539C1092.81 56.4346 1093.74 55.8388 1094.97 56.0181C1095.58 56.0309 1096.35 56.2007 1096.97 56.0597C1097.43 56.0693 1097.44 55.7618 1097.14 55.4479C1096.98 55.2909 1096.99 55.1372 1096.84 54.9802C1097.76 54.8457 1098.39 54.3972 1098.56 53.6317C1098.56 53.6317 1098.71 53.4811 1098.87 53.4843C1100.25 53.6668 1100.44 51.9788 1101.82 52.1613C1102.13 52.1677 1102.44 51.8666 1102.45 51.4054C1102.45 51.2516 1102.61 51.1011 1102.77 50.7968C1102.92 50.9537 1103.22 51.1138 1103.22 51.2676C1103.21 52.0363 1103.66 52.1997 1104.43 52.2157C1105.51 52.238 1106.43 52.411 1106.61 51.0304C1106.61 51.0304 1106.77 50.8799 1106.92 50.8831C1107.69 51.0528 1108.16 50.7549 1108.02 49.983C1108.02 49.8292 1108.18 49.6786 1108.18 49.6786C1109.26 49.5473 1109.89 48.7913 1110.67 48.3461C1110.67 48.3461 1111.12 48.8169 1111.43 48.8233C1111.73 48.8297 1112.19 48.8393 1112.51 48.6919C1112.66 48.5414 1112.67 48.0801 1112.52 47.7694C1112.23 47.3018 1111.62 46.9815 1111.17 46.5107C1111.02 46.3537 1111.02 46.0462 1111.18 45.8957C1111.34 45.7451 1111.8 45.4472 1112.11 45.4536C1112.57 45.4632 1113.19 45.3222 1113.49 45.7899C1113.79 46.1038 1114.25 46.4208 1114.55 46.7347C1115 47.0518 1115.78 46.7603 1115.79 46.1453C1115.79 45.9916 1115.8 45.6841 1115.8 45.5303C1115.81 45.3766 1115.97 44.9185 1116.12 44.9217C1117.04 44.9409 1118.13 44.6558 1119.04 45.29C1119.95 45.9241 1120.26 45.7768 1120.43 44.7037C1120.44 44.3962 1120.45 44.0887 1120.61 43.7844C1120.77 43.4801 1120.92 43.6371 1121.22 43.7972C1121.67 44.2681 1121.98 44.2745 1121.99 43.6595C1122 43.352 1122.01 43.0445 1122.47 43.0541C1123.08 43.0668 1124.78 42.9483 1124.94 42.7977C1125.11 41.8784 1125.58 41.4268 1126.65 41.6029C1127.42 41.7726 1127.75 40.7028 1128.67 40.8757C1128.97 41.0358 1129.44 40.7379 1129.75 40.5906C1130.69 39.9948 1131.32 38.9313 1132.71 38.6526C1133.18 38.5084 1132.59 37.4194 1133.66 37.4418C1134.28 37.4546 1134.59 37.1534 1134.91 36.6986C1135.38 36.0932 1136.15 36.1092 1136.92 35.9714C1137.69 35.8336 1138.47 35.3884 1139.25 35.0969C1139.12 33.7099 1140.19 34.0398 1141.12 34.059C1141.58 34.0686 1141.74 33.7643 1141.74 33.4568C1141.75 33.303 1141.91 32.845 1142.06 32.8482C1143.14 32.8705 1143.62 32.1114 1144.24 31.6629C1145.02 31.2177 1145.79 31.0799 1146.42 30.4777C1147.05 30.0292 1147.82 29.584 1148.6 29.4462C1149.68 29.3148 1150 28.5525 1150.78 28.1072C1150.93 28.1104 1151.23 28.4243 1151.53 28.7382C1152.01 28.1328 1153.23 28.3121 1153.4 27.8541C1153.72 27.0917 1153.88 26.7874 1154.81 26.6529C1155.58 26.5151 1156.21 25.9129 1156.99 25.4676C1157.92 25.1793 1158.84 25.0447 1159.62 24.4457C1160.4 23.8467 1161.18 23.4014 1162.11 23.1131C1162.73 22.9722 1163.05 22.3636 1163.52 22.0657C1165.07 21.4826 1166.62 20.8996 1168.02 20.0059C1168.15 21.2391 1168.93 20.7938 1169.71 20.1948C1170.65 19.599 1171.73 19.1601 1172.97 18.7244C1173.9 18.4361 1174.84 17.6866 1176.07 17.7121C1177.15 17.7345 1177.32 16.8152 1178.1 16.37C1178.4 16.6838 1178.7 16.9977 1179 17.1579C1179.31 17.1643 1179.62 17.0169 1180.09 16.8728C1179.94 16.7158 1179.79 16.5589 1179.64 16.4019C1179.33 16.2418 1179.34 15.9343 1179.64 15.9407C1180.72 15.8093 1181.95 15.9886 1183.18 15.8605C1183.49 15.8669 1183.96 15.7227 1184.12 15.4184C1184.43 15.271 1184.43 15.1173 1184.74 15.2774C1185.03 15.7451 1185.49 16.0622 1185.78 16.6836C1186.07 17.6124 1186.22 17.6156 1187.77 17.1864C1188.99 17.6732 1189.79 16.3054 1191.01 16.6385C1191.32 16.6449 1191.63 16.805 1191.93 17.1189C1192.23 17.2791 1191.76 17.8845 1191.29 18.0287C1190.36 18.317 1190.36 18.317 1190.82 18.6341C1191.73 19.1145 1191.71 20.3445 1192.47 20.668C1193.08 20.9883 1194.31 20.7063 1195.08 20.8761C1195.54 20.8857 1195.84 21.3533 1196.29 21.6704C1196.6 21.8305 1196.6 21.9843 1196.28 22.1316C1195.35 22.5737 1195.95 23.3552 1195.63 23.9639C1195.47 24.2682 1195.32 24.265 1195.01 24.1048C1194.41 23.477 1193.8 23.3105 1193.17 24.0664C1192.85 24.3676 1192.39 24.6655 1192.07 24.9666C1191.76 25.1139 1191.76 25.2677 1192.06 25.4278C1192.22 25.431 1192.21 25.5848 1192.37 25.588C1193.29 25.4534 1194.21 25.9338 1194.99 25.3348C1195.46 24.7294 1195.74 26.2733 1196.52 25.828C1196.66 26.1387 1196.97 26.2989 1196.96 26.6064C1197.1 27.0708 1196.94 27.5289 1196.93 27.9901C1197.06 29.0696 1196.44 29.6718 1195.35 29.9569C1194.89 29.9473 1194.58 30.0947 1194.57 30.5559C1194.55 31.3247 1194.69 32.2503 1193.31 32.0678C1192.68 32.5163 1192.06 32.9647 1191.59 33.5701C1191.11 34.1756 1190.19 34.0026 1189.57 34.4511C1188.31 35.5018 1187.84 36.1072 1187.34 38.0963L1185.91 40.3738C1185.12 41.1265 1183.72 41.7128 1184 43.1029C1183.53 43.5546 1183.21 44.0094 1182.75 44.3073C1181.5 44.8968 1181.64 45.9762 1181.61 47.2062L1181.61 47.0524C1181.46 47.0492 1181.31 47.0461 1181.31 47.0461C1180.99 47.3472 1180.52 47.6451 1180.21 47.9462C1180.21 47.9462 1180.05 48.0967 1180.21 48.0999C1180.36 48.2569 1180.66 48.417 1180.82 48.4202C1181.58 48.4362 1181.74 48.2856 1181.76 47.2094C1182.69 47.0748 1182.97 48.1575 1183.74 48.3272C1183.9 48.1766 1184.06 47.8723 1184.06 47.7186C1183.63 46.1715 1184.57 45.4219 1185.82 44.525C1186.13 44.3777 1186.59 44.2335 1186.9 44.2399C1187.98 44.416 1188.62 43.1988 1189.69 43.5287C1189.84 43.5319 1190.15 43.3845 1190.3 43.3877C1191.09 42.7887 1191.72 42.0328 1192.5 41.5875C1193.12 41.139 1194.05 40.8507 1194.67 40.4023C1195.14 40.1044 1195.92 39.6591 1195.93 39.1979C1195.96 37.9679 1196.87 38.4483 1197.64 38.3105C1198.1 38.3201 1198.41 38.3265 1198.87 38.3361C1199.02 38.3393 1199.18 38.035 1199.34 37.8844C1199.98 36.821 1199.98 36.821 1200.89 37.3014C1201.2 37.4616 1201.5 37.6217 1201.8 37.7818C1201.96 37.785 1202.27 37.6377 1202.43 37.4871C1202.43 37.3334 1202.28 37.3302 1202.28 37.1764C1201.83 36.5518 1201.83 36.5518 1202.3 36.2539C1202.93 35.6517 1202.93 35.6517 1203.37 36.5838C1203.52 36.7408 1203.67 36.8977 1203.66 37.2052C1203.82 37.0547 1204.13 36.9073 1204.13 36.7536C1204.15 36.1386 1204.16 35.5236 1204.79 34.9213C1205.41 34.4729 1205.56 34.7836 1205.86 35.0975L1206.32 34.9533C1206.34 34.3383 1206.5 33.8803 1207.42 33.8995C1207.89 33.909 1208.05 33.6047 1208.05 33.1435C1208.06 32.6822 1208.22 32.5317 1208.68 32.5413C1209.76 32.5637 1210.68 32.5828 1211.76 32.6052C1212.37 32.618 1212.37 32.618 1212.08 31.6891C1211.94 31.2247 1211.95 30.7634 1211.96 30.4559C1211.96 30.3022 1212.12 30.1516 1212.28 29.8473C1212.43 30.0043 1212.58 30.1612 1212.88 30.3214C1213.04 30.3246 1213.03 30.4783 1213.19 30.4815C1213.81 29.8793 1214.44 29.4308 1215.22 28.8318C1215.69 28.3802 1215.69 28.3802 1215.98 29.3091C1215.98 29.4628 1216.13 29.6198 1216.28 29.9305C1216.43 29.7799 1216.74 29.6325 1216.74 29.6325C1216.6 28.8606 1217.23 28.5659 1217.69 28.268C1218.62 27.9797 1219.4 27.5344 1220.33 27.2461C1221.1 27.1083 1221.44 25.8847 1222.51 25.9071C1222.97 25.9167 1223.13 25.6124 1223.14 25.1511C1223.15 24.6899 1222.86 23.9147 1223.48 23.9275C1224.4 23.9467 1224.88 22.8801 1225.8 23.2067C1226.87 23.5366 1227.65 22.9376 1228.58 22.4955C1228.74 22.345 1229.05 22.3514 1229.2 22.2008C1229.83 21.5986 1230.77 21.0028 1231.7 20.7145C1231.85 20.7177 1231.71 20.2532 1231.86 20.1027C1232.17 19.9553 1232.49 19.6542 1232.8 19.6606C1233.26 19.6702 1233.41 19.8272 1233.4 20.2884C1233.39 20.5959 1233.54 21.0604 1233.85 20.913C1234.63 20.314 1235.26 19.7118 1236.34 19.5804C1236.34 19.5804 1236.49 19.4299 1236.5 19.2761C1236.36 18.5042 1236.98 18.3632 1237.74 18.3792C1238.05 18.3856 1238.51 18.3952 1238.98 18.4048C1240.05 18.2734 1240.66 18.5937 1240.64 19.6699C1241.4 20.1472 1241.08 20.602 1240.46 20.8967C1240 21.0409 1239.53 21.185 1239.07 21.3292C1238.91 21.4798 1238.91 21.6335 1235.48 23.8694C1232.21 25.801 1232.21 25.801 1232.21 25.801C1232.67 25.8106 1233.28 25.9771 1233.74 25.833C1234.52 25.3877 1235 24.4748 1236.23 24.5004C1236.39 24.5036 1236.54 24.353 1236.54 24.353C1236.41 23.4273 1237.03 23.2864 1237.8 23.1486C1238.26 23.0045 1238.58 22.5496 1238.9 22.2485L1238.9 21.941L1238.59 21.9346C1237.52 21.7585 1236.72 23.1262 1235.5 22.6394C1235.19 23.0943 1235.02 23.5523 1234.7 24.0072C1234.39 24.462 1233.77 24.7567 1233.15 24.5902C1232.85 24.5838 1232.39 24.5742 1232.08 24.5678C1231.62 24.5582 1231.46 24.7088 1231.3 25.1668C1231.13 25.6249 1231.43 25.9388 1232.05 25.9516C1232.2 25.9548 1232.36 25.958 1235.78 24.0296C1241.04 22.9083 1241.04 22.9083 1243.2 22.338C1243.35 22.3412 1243.66 22.5014 1243.66 22.5014C1243.64 23.2701 1243.63 24.0389 1243.61 24.9614C1243.6 25.2689 1243.9 25.5828 1244.05 25.7397C1244.36 25.8998 1244.35 26.2073 1244.04 26.2009C1243.12 26.3355 1242.65 26.4797 1242.63 27.4022C1242.01 27.8506 1241.69 28.613 1240.77 28.4401C1240.77 28.4401 1240.45 28.8949 1240.6 28.8981C1240.9 29.212 1241.36 29.6828 1241.66 29.843C1241.96 30.0031 1242.28 29.702 1242.59 29.5547C1242.74 29.5579 1242.75 29.4041 1242.9 29.4073C1244.28 29.4361 1245.37 28.9972 1246.16 28.0907C1246.31 27.9402 1246.62 27.9465 1246.93 28.1067C1247.08 28.1099 1247.38 28.4238 1247.38 28.5775C1247.51 29.8107 1247.33 30.8838 1246.08 31.6269C1245.31 32.0722 1244.68 32.6744 1244.05 33.2766C1244.5 33.9012 1245.58 33.6161 1246.03 34.3944C1246.32 34.8621 1246.48 35.019 1245.7 35.1568C1244.93 35.2946 1244.61 36.0569 1243.69 35.884C1243.38 35.8776 1243.2 36.9506 1243.51 36.957C1245.19 37.4534 1245.94 38.6994 1247.15 39.6475C1246.52 40.096 1245.76 39.9262 1245.29 40.3779C1244.82 40.8295 1244.83 40.2145 1244.68 40.0576C1244.53 39.7469 1244.39 39.2825 1244.23 39.2793C1243.31 39.2601 1242.39 38.9334 1241.61 39.5324C1241.91 39.8463 1242.22 40.0064 1242.37 40.3171C1242.66 40.7848 1242.98 40.4837 1243.13 40.3331C1243.61 39.8815 1243.75 40.1922 1243.9 40.5029C1244.04 40.9673 1243.72 41.5759 1244.33 42.0499C1245.57 41.768 1245.39 42.6873 1245.69 43.3087C1245.84 43.6194 1246.6 43.6354 1246.91 43.7955C1247.82 44.276 1247.96 45.0479 1247.63 45.964C1247.47 46.4221 1246.39 46.5534 1247.45 47.1908C1247.61 47.194 1247.6 47.3478 1247.6 47.3478C1246.83 47.793 1246.34 48.7059 1245.26 48.9911C1244.33 49.2794 1243.41 49.4139 1242.62 50.1667C1241.99 50.7689 1241.22 51.2142 1240.74 51.8196C1240.27 52.425 1239.66 52.2585 1239.04 52.2457C1238.89 52.2425 1238.42 52.3866 1238.42 52.3866C1238.4 53.4629 1237.63 53.4469 1236.71 53.5815C1235.94 53.5655 1235 54.0075 1234.38 54.456C1232.97 55.5035 1231.72 56.7079 1230.46 57.7586C1230.46 57.7586 1230.46 57.9123 1230.3 58.0629C1230.3 58.2166 1230.3 58.3704 1230.3 58.3704C1230.45 58.5273 1230.6 58.6843 1230.75 58.6875C1231.54 57.9347 1232.62 57.8033 1233.7 57.3645C1233.86 57.2139 1234.17 57.2203 1234.33 56.916C1234.97 55.8525 1236.34 56.1888 1237.13 55.2823C1237.92 54.222 1239.31 53.9433 1240.56 53.3539C1241.33 53.0624 1242.26 52.9278 1242.88 52.4793C1243.82 51.576 1245.36 51.4543 1246.31 50.3972C1246.78 49.7918 1247.56 49.3465 1248.49 49.2119C1248.8 49.2183 1248.81 48.2958 1249.13 48.1485C1249.44 48.0011 1250.2 48.1709 1250.67 48.0267C1250.82 48.0299 1251.13 47.7288 1251.14 47.5751C1251.15 46.8063 1251.62 46.5084 1252.39 46.6781C1253.15 46.8479 1253.48 46.0855 1254.09 46.0983C1254.86 45.9605 1255.02 45.81 1255.34 45.2014C1255.51 44.5896 1256.13 44.1411 1257.06 44.0066C1257.52 44.0161 1257.52 43.7086 1257.69 43.4043C1257.85 42.9463 1259.87 41.9116 1260.33 42.0749C1260.48 42.0781 1260.63 42.3888 1260.93 42.549C1261.24 42.7091 1261.7 42.8725 1262 42.8789C1262.31 42.7315 1262.63 42.2767 1262.94 42.283C1263.55 42.2958 1263.86 42.1485 1264.33 41.8506C1264.64 41.7032 1265.1 41.7128 1265.42 41.5655C1266.04 41.2707 1265.44 40.3355 1266.36 40.3546C1266.82 40.3642 1267.44 40.377 1267.9 40.2329C1268.06 40.2361 1268.06 39.9286 1268.22 39.6243C1268.55 38.8619 1268.86 38.7146 1269.62 39.1918C1269.92 39.3519 1270.22 39.6658 1270.53 39.6722C1270.69 39.6754 1271 39.5281 1271.15 39.5313C1271.15 39.3775 1271 39.2206 1271.01 39.0668C1270.7 38.7529 1270.55 38.596 1271.02 38.2981C1271.33 38.1507 1271.79 38.1603 1272.1 38.0129C1272.89 37.1064 1273.82 36.8181 1275.2 37.0006C1275.97 37.1704 1276.74 37.0326 1277.51 37.0486C1278.43 37.2215 1279.21 36.6225 1279.98 36.4847C1280.6 36.3438 1280.92 35.5814 1281.53 35.9017C1281.84 36.0619 1281.82 36.6769 1282.12 36.9908C1282.28 37.1477 1282.43 37.3047 1282.73 37.4648C1283.18 37.9356 1283.95 37.7979 1284.12 37.1861C1284.29 36.2668 1284.6 36.4269 1285.2 36.901C1285.81 37.375 1285.97 37.2244 1286.6 36.4685C1287.06 36.6318 1287.37 36.3307 1287.38 35.8695C1287.39 35.1007 1287.55 34.9502 1288.46 35.5843C1289.07 35.9046 1290.15 35.7733 1291.07 35.9462C1291.22 35.9494 1291.37 36.2601 1291.36 36.5676C1291.36 36.7213 1291.2 37.0256 1291.2 37.1794C1291.04 37.1762 1290.89 37.0192 1290.59 37.0129C1290.43 37.0097 1290.28 36.8527 1289.97 36.8463C1289.97 37.0001 1289.66 37.3012 1289.81 37.4581C1289.94 38.3838 1291.34 37.9513 1291.78 38.7297C1291.93 39.0404 1292.7 38.7489 1293.02 38.294C1293.18 37.9897 1293.33 37.9929 1293.64 38.3068C1293.63 38.4605 1293.79 38.4637 1293.78 38.6175C1293.78 38.7712 1293.62 39.2293 1293.62 39.2293C1292.69 39.3639 1291.92 39.3479 1291 39.3287C1290.23 39.3127 1289.76 39.6106 1289.9 40.2288C1289.9 40.3826 1289.59 40.5299 1289.44 40.5267C1289.44 40.5267 1289.29 40.3698 1289.13 40.3666C1288.37 40.0431 1287.76 39.7228 1287 39.3993C1286.52 40.1585 1286.82 40.7799 1286.8 41.3949C1286.79 41.8561 1287.1 42.0163 1287.87 42.0322C1288.94 42.0546 1289.72 41.4556 1290.5 41.1641C1291.59 40.4177 1291.27 41.1801 1291.41 41.6445C1291.56 41.9552 1291.71 42.1122 1292.18 41.8143C1293.42 41.2248 1294.8 41.2536 1296.03 41.7404C1296.33 41.9006 1296.63 42.0607 1297.1 42.0703C1297.25 42.0735 1297.25 42.0735 1297.41 41.923C1297.72 41.7756 1297.72 41.6219 1297.42 41.4617C1297.26 41.4585 1297.11 41.3016 1297.11 41.1478C1297.12 40.8403 1296.97 40.5296 1296.98 40.2221C1297.3 39.7673 1297.91 40.0876 1298.37 39.9434C1298.83 39.953 1299.14 40.1131 1299.13 40.4206C1299.27 40.8851 1299.11 41.3431 1299.25 41.8076C1299.25 41.9613 1299.71 41.9709 1299.86 42.1279C1299.86 42.2816 1299.86 42.4354 1299.86 42.4354C1299.85 42.5891 1299.7 42.7397 1299.54 42.7365C1298.32 42.5571 1297.53 43.4637 1296.45 43.4413C1295.22 43.4157 1294.29 43.704 1293.51 44.4568C1292.88 44.9052 1291.96 44.8861 1291.51 44.4152C1290.91 43.7874 1290.13 44.0789 1289.37 43.9092C1289.37 43.9092 1289.05 44.2103 1289.05 44.3641C1289.5 44.8349 1290.26 45.3121 1290.4 45.9303C1290.69 47.013 1291.01 46.4044 1291.47 46.1065C1292.25 45.6612 1293.32 46.2986 1293.8 45.3857C1294.25 45.549 1294.55 46.0167 1295.01 46.0262C1296.09 46.2024 1297.32 46.228 1298.55 46.0998C1299.47 46.119 1299.93 46.4361 1299.91 47.2048C1299.91 47.5123 1300.21 47.5187 1300.37 47.3681C1300.68 47.067 1301.16 46.4616 1301.29 47.3873C1301.43 48.1593 1301.73 48.3194 1302.5 48.3354C1302.81 48.3418 1303.27 48.3514 1303.73 48.361C1303.25 49.4276 1302.01 50.0171 1301.22 50.7698C1301.06 51.0741 1300.75 51.0677 1300.76 50.7602C1300.61 50.6033 1300.62 50.2958 1300.62 50.142C1300.62 49.9883 1300.62 49.9883 1300.78 49.8377C1300.94 49.5334 1301.87 49.3989 1301.11 48.9216C1300.65 48.6045 1300.18 48.9024 1299.87 49.3573C1299.71 49.5078 1299.4 49.5015 1299.09 49.6488L1299.25 49.652C1299.25 49.652 1299.25 49.4983 1299.25 49.3445C1299.1 49.1876 1298.8 48.8737 1298.64 49.178C1298.64 49.178 1298.79 49.4887 1299.09 49.6488C1299.23 50.5745 1299.21 51.497 1299.18 52.5732L1299.19 52.4195L1298.88 52.4131C1298.57 52.5605 1298.26 52.7078 1298.71 53.0249C1298.71 53.0249 1299.02 52.8775 1299.18 52.5732C1299.65 52.2753 1300.26 52.5956 1300.58 52.2945C1300.73 52.144 1300.9 51.5322 1301.35 52.1568C1301.65 52.4707 1302.1 52.7877 1302.4 53.1016C1302.71 53.4155 1303.63 53.281 1303.64 52.9735C1303.83 51.2854 1305.21 51.1604 1306.59 51.343C1306.75 51.3462 1306.9 51.3494 1306.9 51.3494C1307.37 51.2052 1307.52 51.0546 1307.53 50.5934C1307.54 50.2859 1307.4 49.6677 1307.55 49.6709C1308.48 49.2288 1308.2 48.2999 1308.98 47.7009C1309.45 47.403 1309.45 47.403 1310.05 47.7233C1310.2 47.8803 1310.51 48.0404 1310.66 48.0436C1311.74 47.9122 1312.35 48.2325 1312.33 49.3088C1312.33 49.4625 1312.79 49.4721 1312.94 49.6291C1312.92 50.2441 1312.92 50.7053 1312.44 51.157C1311.81 51.9129 1311.95 52.5311 1313.17 53.0179C1314.09 53.4984 1314.37 54.581 1315.61 54.4528C1315.76 54.456 1316.06 54.7699 1316.06 54.9237C1316.05 55.5387 1316.03 56.3074 1315.86 56.9192C1315.86 57.073 1315.71 57.0698 1315.55 57.0666C1315.4 57.0634 1315.25 56.9064 1315.25 56.9064C1315.25 56.7527 1315.26 56.4452 1315.11 56.2882C1314.96 55.8238 1314.2 55.6541 1313.89 55.8014C1313.42 55.9456 1313.41 56.5606 1313.71 57.0282C1314.01 57.3421 1314.31 57.656 1313.69 57.9507C1313.53 57.9475 1313.38 58.0981 1313.37 58.2518C1313.67 59.027 1315.5 59.6803 1316.28 59.0813C1316.44 58.9308 1316.45 58.4695 1316.61 58.1652C1316.76 58.0147 1317.07 57.8673 1317.23 57.8705C1317.69 57.7263 1317.99 58.0402 1317.99 58.3477C1317.97 59.2702 1317.95 60.1927 1317.93 61.1152C1317.91 61.884 1317.45 62.0281 1316.98 62.4798C1316.51 62.9314 1315.9 62.7649 1315.6 62.1435C1315.45 61.9866 1315.61 61.6823 1315.46 61.5253C1315.16 61.2114 1314.08 61.189 1314.23 61.4997C1314.36 62.7329 1313.13 62.3999 1312.51 62.8483C1312.81 63.1622 1312.96 63.3192 1313.26 63.6331C1313.56 63.9469 1313.72 63.7964 1314.03 63.649C1314.34 63.5017 1314.65 63.3543 1315.11 63.3639C1315.42 63.3703 1315.57 63.681 1315.25 63.9821C1314.63 64.5843 1314.78 64.5875 1315.55 64.7573C1315.85 64.7636 1316.01 64.7668 1316.31 64.7732C1317.06 66.0192 1317.05 66.3267 1317.03 67.2492C1317.02 67.7105 1316.86 68.0148 1316.39 68.4664C1315.92 68.7643 1315.3 69.059 1315.44 69.831C1315.43 70.2922 1315.58 70.7567 1314.95 71.0514C1314.64 71.1988 1314.18 71.0354 1313.72 71.0258C1313.26 71.0162 1312.95 71.1636 1312.94 71.6248C1312.92 72.5473 1312.46 72.5377 1311.86 71.91C1311.71 71.753 1311.4 71.7466 1311.09 71.7402C1310.94 71.737 1310.79 71.7338 1310.78 71.8876C1310.15 72.951 1308.78 71.9998 1308 72.7525C1307.84 72.9031 1307.22 72.8903 1307.07 73.0408C1306.6 73.3387 1306.13 73.4829 1305.97 73.941C1305.5 74.5464 1304.73 74.2229 1304.26 74.6745C1303.79 75.2799 1302.72 74.9501 1302.4 75.5587C1301.92 76.3178 1300.85 76.2954 1300.22 76.7439C1299.6 77.1924 1298.68 77.0194 1298.36 77.628C1297.44 77.4551 1297.11 78.3712 1296.34 78.3552C1295.26 78.3328 1295.09 79.5596 1293.85 79.6878C1293.08 79.8256 1292.3 80.2708 1291.52 80.7161C1290.9 81.0108 1290.58 81.7732 1289.66 81.754C1289.19 81.7444 1288.72 82.5036 1287.95 82.3338C1287.17 83.0866 1285.93 83.2148 1285.15 83.9675C1284.36 84.7203 1283.13 85.0022 1281.89 85.4379C1280.8 85.723 1280.17 86.6327 1278.79 86.4502C1278.48 86.4438 1278.17 86.7449 1277.86 86.8922C1277.39 87.1901 1277.07 87.645 1276.76 87.7924C1275.06 88.2184 1273.66 88.9584 1272.26 89.6984C1272.26 89.6984 1271.8 89.535 1271.81 89.3813C1271.66 89.0706 1271.35 89.0642 1271.19 89.3685C1270.86 90.4384 1270.39 91.0438 1269 91.3225C1268.53 91.3129 1267.91 91.9151 1267.89 92.5301C1267.44 92.3668 1266.83 92.0465 1266.22 91.8799C1266.06 91.8767 1265.75 92.0241 1265.59 92.1747C1265.59 92.1747 1265.59 92.3284 1265.74 92.4853C1266.04 93.1067 1266.04 93.1067 1265.88 93.411C1265.72 93.5616 1265.71 93.8691 1265.55 94.1734C1265.55 94.3271 1265.56 94.0196 1265.56 94.0196C1265.25 94.0133 1264.79 94.0037 1264.48 93.9973C1264.33 93.9941 1264.17 94.2984 1264.01 94.4489C1264.01 94.4489 1264.16 94.6059 1264.31 94.6091C1264.77 94.7724 1265.23 94.782 1265.55 94.1734C1266.78 94.199 1267.56 93.7537 1267.89 92.6839C1268.35 92.6935 1268.96 92.86 1268.97 92.7062C1269.44 91.9471 1270.67 92.2802 1271.15 91.521C1271.62 90.9156 1272.53 91.7035 1273.31 91.1045C1273.93 90.6561 1274.71 90.3645 1275.48 90.073C1276.26 89.7815 1277.18 89.6469 1277.81 89.1985C1278.43 88.75 1279.2 88.9198 1279.83 88.3175C1280.45 87.7153 1281.52 88.5065 1282.3 87.6C1282.77 87.1483 1283.85 87.0169 1284.63 86.7254C1285.4 86.4339 1286.03 85.8317 1287.1 86.1616C1287.73 85.5594 1288.96 85.5849 1289.59 84.829C1290.66 85.1589 1291 83.7815 1292.07 84.1114C1292.85 83.6661 1293.47 83.2177 1294.25 82.9261C1295.33 82.641 1296.41 82.6634 1297.19 81.7569C1297.51 81.302 1298.12 81.4686 1298.58 81.4782C1299.35 81.4942 1300.12 81.5101 1300.6 80.9047C1301.07 80.2993 1301.84 80.3153 1302.46 80.0206C1302.93 79.7227 1303.7 79.5849 1304.01 79.2838C1304.64 78.6816 1305.4 79.0051 1306.17 79.0211C1306.79 79.0339 1307.1 78.7328 1307.42 78.4317C1308.36 77.5284 1309.9 77.4066 1310.69 76.3463C1311.77 76.3687 1312.55 75.4622 1313.94 75.6447C1315.01 75.8208 1315.79 75.0681 1315.82 73.9918C1315.83 73.5306 1315.83 73.0693 1315.84 72.6081C1315.85 72.4543 1316.15 72.4607 1316.31 72.4639C1316.31 72.4639 1316.46 72.6209 1316.46 72.7746C1316.43 74.0046 1316.9 73.7067 1317.68 73.1077C1317.84 72.9571 1318.29 73.2742 1318.75 73.2838C1319.06 73.2902 1319.2 74.0622 1319.52 73.4536C1319.99 72.8482 1320.91 73.1748 1321.54 72.5726C1322.16 71.9704 1323.38 72.7647 1323.86 71.8518C1324.63 71.8678 1325.4 71.73 1326.17 71.746C1326.94 71.762 1327.4 71.6179 1327.87 71.1662C1328.03 71.0157 1330.03 71.0572 1330.64 71.07C1330.95 71.0764 1331.11 71.0796 1331.41 71.086L1331.4 71.8547L1331.4 71.701C1331.25 71.6978 1331.09 71.6946 1331.09 71.6946C1330.78 71.842 1330.47 71.9893 1330.93 72.3064C1330.93 72.3064 1331.24 72.159 1331.4 71.8547C1331.86 71.8643 1332.47 72.1846 1332.93 72.348C1333.38 72.5113 1333.7 72.2102 1333.7 71.9027C1333.71 71.5952 1333.57 71.1308 1333.26 71.1244C1332.65 70.9578 1332.03 71.0988 1331.41 71.086C1331.44 70.0097 1333.11 70.6599 1333.29 69.7406C1333.74 70.0577 1334.2 70.3748 1334.81 70.5413C1335.57 70.7111 1335.24 72.0884 1334.61 72.8444C1333.98 73.2928 1333.06 73.1199 1332.59 73.7253C1332.12 74.3307 1331.5 74.4717 1330.72 74.7632C1330.57 74.76 1330.4 75.3718 1330.55 75.6825C1330.7 75.8394 1331.16 76.0028 1331.47 76.0092C1331.62 76.0124 1331.93 75.7113 1332.09 75.5607C1332.25 75.2564 1332.56 75.2628 1332.7 75.5735C1332.85 76.1917 1332.83 76.9604 1332.82 77.5754C1332.81 77.8829 1332.35 78.0271 1332.04 78.1745C1330.8 78.6101 1329.4 79.0426 1328.61 80.1029C1327.98 80.8588 1326.75 80.6795 1326.12 81.4355C1326.12 81.5892 1325.51 81.2689 1325.05 81.2593C1324.74 81.2529 1324.3 80.4746 1324.28 81.0896C1324.27 81.8583 1323.34 82.1467 1323.33 82.7617C1323.31 83.3767 1322.84 83.6746 1322.53 83.8219C1321.6 84.1102 1320.82 84.7092 1319.9 84.8438C1319.13 84.9816 1318.8 85.8977 1317.72 86.1828C1315.71 86.6025 1314.29 88.1112 1311.98 88.0633C1311.68 88.0569 1311.52 88.3612 1311.35 88.8192C1311.19 89.431 1310.56 89.8795 1309.79 90.171C1308.55 90.6067 1307.31 91.0423 1306.37 91.9457C1305.58 92.6984 1304.5 92.9835 1303.72 93.5825C1302.93 94.1816 1301.86 94.1592 1301.23 94.9151C1300.75 95.5205 1299.97 95.9658 1299.05 96.2541C1298.12 96.5424 1297.48 97.4521 1296.7 98.0512C1296.39 98.1985 1295.94 97.8814 1295.62 98.3363C1295.46 98.4868 1295.45 98.7943 1295.45 98.9481C1295.45 99.1018 1295.75 99.4157 1295.9 99.4189C1296.83 99.2844 1297.75 99.611 1298.83 99.0184C1300.08 98.429 1301.32 97.6858 1302.71 97.4071C1303.35 96.3436 1304.72 96.9874 1305.81 96.3948C1306.59 95.7958 1307.68 95.2032 1308.91 95.3825C1309.22 95.3889 1309.53 95.0878 1309.84 94.9404C1313.87 93.4861 1317.91 91.5704 1321.94 90.1161C1322.25 89.9687 1322.57 89.6676 1322.87 89.674C1323.65 89.5362 1324.71 90.0199 1325.5 89.2671C1325.97 88.8154 1326.89 88.9884 1327.36 88.383C1327.36 88.2292 1327.97 88.5495 1328.43 88.7128C1328.74 88.873 1328.73 89.3342 1329.35 88.8858C1329.82 88.5879 1330.44 88.4469 1330.9 88.149C1331.68 87.8575 1331.68 87.8575 1332.58 88.9529C1332.73 89.1099 1333.04 89.27 1333.19 89.2732C1333.5 89.2796 1333.96 89.1354 1334.12 88.8311C1334.28 88.3731 1334.14 87.9086 1334.91 87.9246C1335.68 87.9406 1336.45 87.9566 1337.22 87.9726C1337.98 87.9886 1337.99 87.6811 1338.16 87.0693C1338.16 86.9155 1338.32 86.6112 1338.63 86.6176C1338.94 86.4703 1339.4 86.6336 1339.86 86.6432C1341.4 86.6752 1341.4 86.6752 1343.1 86.0953C1343.88 85.8038 1344.67 84.7436 1345.56 85.9927C1346.19 85.698 1346.8 85.5571 1347.43 85.2624C1347.74 85.115 1348.05 84.8139 1348.36 84.8203C1349.75 84.5416 1351.12 85.3391 1352.52 84.4454C1353.61 83.8527 1354.98 84.3428 1356.22 84.2146C1357.45 84.0864 1358.21 84.5637 1358.49 85.6463C1358.63 86.4182 1359.39 86.7417 1359.85 87.2126C1359.99 87.5233 1360.14 87.9877 1359.98 88.1383C1359.66 88.5931 1359.04 88.8878 1358.57 89.3395C1358.26 89.6406 1358.25 90.1018 1357.93 90.5567C1357.61 91.0115 1356.99 91.3063 1356.38 91.2935C1356.22 91.2903 1356.06 91.9021 1356.05 92.2096C1356.2 92.5203 1356.5 92.6804 1356.8 92.9943C1356.34 93.2922 1356.02 93.7471 1355.85 94.3589C1355.85 94.6664 1355.22 94.9611 1354.76 95.259C1354.44 95.5601 1354.44 95.7138 1354.74 96.0277C1355.19 96.3448 1355.34 96.8093 1355.8 96.9726C1356.86 97.4562 1357.77 98.2442 1359.16 98.1192C1360.08 97.9846 1361 98.4651 1361.63 97.5553C1362.23 98.1831 1363.16 98.2023 1363.92 98.2183C1364.54 98.2311 1365.32 97.9396 1365.77 98.4104C1366.52 99.3489 1366.69 98.2759 1367.15 98.2854C1367.77 98.2982 1368.38 98.311 1369.15 98.327C1369.77 98.3398 1370.38 98.5063 1370.83 98.8234C1371.14 99.1373 1371.3 98.6793 1371.31 98.3718C1371.31 98.218 1371.47 97.76 1371.63 97.7632C1373.16 97.9489 1374.42 96.7445 1375.95 97.0839C1376.56 97.2505 1376.86 97.4106 1376.85 97.8719C1376.84 98.3331 1376.68 98.9449 1377.14 99.1083C1377.75 99.2748 1378.51 99.4445 1378.98 98.9929C1379.61 98.3907 1380.07 98.554 1380.98 99.0344C1381.74 99.5117 1382.82 99.6878 1383.1 100.77C1382.64 100.761 1382.18 100.905 1382.03 100.748C1381.42 100.12 1380.81 99.9537 1380.04 100.092C1379.12 100.072 1378.04 99.8962 1377.26 100.649C1376.51 99.403 1375.87 100.928 1375.11 100.604C1374.19 100.278 1373.71 101.037 1373.09 101.178C1372.63 101.322 1372.02 101.155 1372.18 100.543C1372.19 100.082 1372.04 99.9253 1371.58 99.9157C1371.12 99.9061 1370.35 99.7363 1370.19 100.041C1369.41 100.947 1367.89 99.9927 1367.25 101.056C1367.25 101.21 1366.33 101.037 1366.33 100.883C1365.88 100.259 1364.8 100.544 1364.35 99.9191C1364.2 99.7622 1363.43 99.5925 1363.43 99.7462C1362.18 100.951 1360.5 100.147 1359.11 100.272C1358.34 100.409 1358.2 99.6375 1357.59 99.3172C1357.44 99.1603 1357.29 99.1571 1356.99 98.9969C1356.83 99.1475 1356.67 99.298 1356.67 99.6055C1356.65 100.221 1356.49 100.679 1357.09 101.153C1357.55 101.47 1357.23 101.925 1357.38 102.389C1356.61 102.373 1356.32 101.598 1355.39 101.579C1354.93 101.569 1354.8 100.643 1355.44 99.58C1355.6 99.2757 1355.91 99.1283 1355.45 98.8112C1355 98.4941 1354.85 98.0297 1354.24 98.0169C1354.09 97.8599 1354.1 97.3987 1353.94 97.3955C1352.71 97.3699 1352.57 96.7517 1352.74 95.8324C1352.75 95.6787 1352.6 95.5217 1352.45 95.211C1352.29 95.3616 1351.98 95.3552 1351.83 95.5057C1351.51 95.8069 1351.2 95.9542 1351.2 96.2617C1351.18 97.0305 1350.72 97.1746 1349.95 97.1586C1349.49 97.149 1348.87 97.1362 1348.41 97.1267C1348.26 97.1235 1348.11 96.9665 1348.11 96.9665C1348.26 96.816 1348.27 96.6622 1348.58 96.5148C1348.88 96.5212 1349.04 96.5244 1349.35 96.5308C1349.81 96.5404 1350.42 96.5532 1350.43 95.9382C1350.45 95.3232 1350.46 94.5545 1350.48 93.9395C1350.49 93.3245 1350.96 93.0266 1351.72 93.35C1352.79 93.8337 1352.79 93.8337 1352.8 93.2187C1352.81 92.6037 1352.83 91.8349 1352.84 91.2199C1352.85 90.7587 1353.16 90.6113 1353.47 90.6177C1354.08 90.6305 1354.85 90.8003 1355.47 90.6593C1356.09 90.5183 1356.41 89.9097 1357.17 89.9257C1357.64 89.9353 1357.81 89.1698 1357.5 88.8559C1356.75 87.9174 1355.53 87.5843 1354.31 87.2512C1354 87.0911 1353.38 87.232 1353.23 87.3826C1352.29 88.1322 1351.05 88.7216 1351.32 90.1117C1351.32 90.2655 1351.16 90.5698 1351.01 90.5666C1350.7 90.5602 1350.24 90.5506 1349.93 90.3904C1349.17 90.067 1349.03 89.295 1348.89 88.6768C1348.89 88.6768 1348.74 88.5199 1348.59 88.5167C1348.43 88.5135 1348.28 88.664 1348.27 88.8178C1348.11 89.2758 1348.56 90.0542 1347.94 90.3489C1347.62 90.65 1347.01 90.6372 1346.54 90.7814C1346.08 90.9255 1345.46 91.2202 1344.68 91.5117C1346.21 91.6975 1347.44 92.1843 1348.53 91.1304C1348.85 90.8293 1349.61 90.999 1350.07 91.1624C1350.23 91.1656 1350.37 91.4763 1350.37 91.63C1350.37 91.7838 1350.36 92.245 1350.2 92.2418C1349.43 92.5333 1348.65 92.9786 1347.88 93.1164C1347.26 93.2573 1346.79 93.4015 1346.17 93.6962C1343.69 94.5675 1343.22 95.173 1343.18 97.3254C1343.16 97.9404 1343.92 98.2639 1344.55 97.6617C1345.02 97.3638 1345.17 97.367 1345.78 97.6873C1346.24 98.0044 1347.01 98.0204 1347.62 97.8794C1348.55 97.7448 1349 98.5232 1349.45 98.994C1349.6 99.151 1349.28 99.6058 1349.27 99.9133C1349.11 100.218 1348.5 100.205 1349.11 100.679C1349.41 100.839 1349.86 101.156 1349.24 101.451C1348.93 101.598 1348.47 101.435 1348.17 101.275C1348.02 101.118 1348.03 100.656 1347.88 100.346C1347.43 99.875 1346.98 99.0966 1346.06 99.3849C1344.97 99.6701 1344.22 98.8853 1343.3 98.5586C1342.85 98.3953 1342.54 98.2352 1342.7 97.9308C1342.87 97.0116 1342.58 96.5439 1341.35 96.3646C1340.89 96.355 1341.05 95.8969 1341.37 95.2883C1341.85 94.6829 1341.85 94.5292 1341.08 94.5132C1339.85 94.6414 1338.48 93.9976 1337.53 95.0547C1337.38 94.8977 1337.23 94.8945 1337.23 94.7408C1337.23 94.587 1337.08 94.2763 1337.09 94.1226C1337.56 93.5172 1337.88 92.9086 1338.81 92.9277C1340.04 92.9533 1340.98 92.05 1342.36 92.2325L1342.51 92.082C1342.52 91.9282 1342.37 91.7713 1342.21 91.7681C1341.44 91.7521 1340.68 91.5824 1339.91 91.7201C1338.83 91.8515 1338.53 91.3839 1338.55 90.6151C1338.55 90.3076 1338.24 90.3012 1338.08 90.6055C1337.77 90.9066 1337.31 91.0508 1337.3 91.3583C1337.13 92.1238 1336.81 92.7324 1336.03 93.0239C1335.11 93.3123 1334.03 93.2899 1332.97 92.6525C1333.59 92.204 1334.06 91.7524 1334.69 91.3039C1334.39 90.8363 1333.77 91.131 1333.3 91.1214C1332.69 90.9549 1332.37 91.5635 1332.06 91.8646C1331.28 92.4636 1332.2 92.4828 1332.35 92.7935C1332.49 93.2579 1332.33 93.716 1331.86 93.8601C1331.4 94.0043 1330.79 93.8377 1330.77 94.6065C1330.31 94.4431 1330 94.7443 1329.99 95.2055C1329.98 95.6667 1329.82 96.1248 1329.05 95.9551C1328.74 95.9487 1328.13 95.7821 1327.97 95.9327C1326.25 97.2813 1323.8 97.0764 1322.08 98.2712C1321.3 98.7164 1320.39 98.0823 1319.92 98.6877C1319.44 99.2931 1318.53 98.9664 1317.9 99.5686C1317.58 100.023 1316.96 100.318 1316.49 100.77C1315.86 101.372 1315.72 100.754 1315.42 100.594C1315.11 100.434 1314.65 100.424 1314.34 100.571C1313.87 100.869 1314.64 101.039 1314.63 101.346C1314.63 101.5 1314.47 101.805 1314.47 101.805C1313.39 101.628 1312.47 101.917 1311.83 102.673C1311.83 102.826 1311.68 102.823 1311.52 102.974C1311.36 103.124 1308.9 103.227 1308.29 103.214C1308.13 103.211 1307.82 103.358 1307.82 103.512C1307.8 104.281 1307.64 104.585 1306.72 104.566C1305.64 104.544 1304.56 104.675 1303.64 104.502C1302.57 104.326 1302.24 105.396 1301.17 105.22C1300.25 104.893 1299.77 105.652 1299.3 106.104C1298.99 106.251 1298.68 106.552 1298.37 106.546C1297.15 106.213 1296.35 107.58 1295.13 107.247C1294.34 107.846 1293.42 107.981 1292.34 107.959C1291.7 109.022 1290.03 108.064 1289.39 109.128C1289.24 109.278 1288.47 109.262 1287.86 109.096C1287.55 109.089 1287.25 108.776 1287.72 108.478C1288.03 108.33 1288.19 107.872 1288.2 107.565C1288.2 107.257 1287.9 106.943 1287.44 107.087C1286.97 107.232 1286.66 107.533 1286.19 107.677C1285.89 107.671 1285.59 107.203 1285.28 107.043C1284.98 107.036 1284.51 107.181 1284.35 107.331C1284.04 107.632 1283.73 107.626 1283.59 107.315C1283.44 107.158 1283.6 106.854 1283.6 106.7C1283.46 105.774 1283.01 105.304 1282.23 105.903C1281.45 106.502 1280.84 106.181 1280.07 106.319C1279.45 106.46 1279.13 107.069 1278.36 106.899C1278.21 106.896 1278.06 106.892 1277.9 106.889C1277.92 106.274 1278.24 105.512 1277.01 105.486C1276.7 105.48 1276.4 105.166 1276.41 104.859C1276.42 104.244 1276.28 103.779 1277.05 103.334C1277.68 102.885 1276.93 101.947 1277.55 101.498C1278.02 101.201 1278.49 100.749 1278.96 100.297C1279.9 99.3939 1279.91 99.0864 1278.7 98.1383C1278.55 98.1351 1278.55 97.9814 1278.4 97.9782C1278.09 97.9718 1277.78 97.9654 1277.63 97.9622C1277.16 98.2601 1277.46 98.4203 1277.61 98.731C1278.06 99.5093 1278.05 99.8168 1277.43 100.112C1277.27 100.262 1276.81 100.099 1276.66 100.249C1275.71 101.153 1274.79 101.133 1273.73 100.189C1273.13 99.7145 1272.97 99.865 1272.49 100.778C1272.18 100.772 1272.03 100.768 1271.72 100.762C1271.11 100.749 1270.79 101.204 1270.93 101.668C1271.23 102.29 1272.44 103.084 1270.45 102.889C1268.43 103.77 1268.59 103.619 1267.07 102.511C1266.92 102.354 1266.77 102.351 1266.46 102.191C1266.3 102.495 1266.3 102.803 1266.14 103.107C1266.13 103.261 1266.13 103.261 1266.13 103.414C1265.82 103.408 1265.36 103.245 1265.05 103.392C1264.74 103.539 1264.74 103.847 1264.58 103.997C1264.27 103.991 1263.81 103.981 1263.5 103.975C1263.35 103.972 1263.19 104.122 1263.19 104.122C1263.19 104.276 1263.34 104.587 1263.49 104.59C1263.8 104.596 1264.26 104.606 1264.57 104.612C1264.56 104.766 1264.56 104.92 1264.56 104.92C1263.78 105.211 1263.16 105.66 1262.38 105.951C1261.15 106.233 1260.05 107.441 1258.84 106.032C1258.84 106.032 1258.53 106.179 1258.38 106.329C1258.22 106.634 1258.05 107.246 1258.05 107.246C1257.44 107.079 1257.6 106.621 1257.45 106.31C1257.46 106.157 1257.3 106.153 1257.15 106.15C1257.15 106.15 1257 106.147 1256.84 106.298C1256.52 106.752 1255.29 107.034 1256.5 107.675C1256.5 107.675 1256.34 108.133 1256.19 108.13C1255.88 108.123 1255.42 108.114 1254.8 108.101L1254.96 108.104C1254.96 108.104 1254.96 107.95 1254.96 107.797C1254.81 107.64 1254.51 107.326 1254.35 107.63C1254.35 107.63 1254.5 107.941 1254.8 108.101C1255.1 108.722 1254.48 108.863 1254.16 109.164C1253.38 109.763 1253.08 109.603 1252.64 108.671C1252.34 108.05 1251.89 107.733 1251.26 108.181C1250.95 108.329 1250.64 108.63 1250.48 108.934C1250.47 109.088 1250.62 109.245 1250.62 109.398C1250.92 110.02 1250.92 110.02 1250.14 110.158C1249.84 110.151 1249.68 110.148 1249.22 110.138L1249.37 110.142C1249.37 110.142 1249.38 109.988 1249.38 109.834C1249.23 109.677 1248.93 109.363 1248.77 109.668C1248.77 109.668 1248.92 109.978 1249.22 110.138C1249.21 110.907 1248.58 111.202 1247.96 111.497C1247.81 111.493 1247.5 111.487 1247.35 111.33C1247.05 111.17 1247.2 111.019 1247.51 110.872C1247.67 110.721 1247.83 110.571 1247.98 110.42C1247.83 110.263 1247.53 110.257 1247.38 110.1C1247.07 110.094 1246.91 110.09 1246.61 110.084C1245.99 110.071 1245.83 110.376 1245.67 110.834C1245.65 111.602 1245.19 111.439 1244.74 110.968C1244.44 110.654 1244.44 110.654 1244.13 110.955C1243.65 111.561 1243.04 111.394 1242.27 111.378L1242.43 111.381C1242.43 111.381 1242.43 111.228 1242.43 111.074C1242.28 110.917 1241.98 110.603 1241.82 110.907C1241.82 110.907 1241.97 111.218 1242.27 111.378C1242.27 111.532 1240.24 112.72 1240.24 112.72C1239.02 112.387 1238.39 113.297 1237.61 113.742C1237.3 113.89 1236.68 114.031 1236.53 114.027C1235.02 112.612 1233.92 113.512 1232.67 114.563C1232.67 114.563 1232.21 114.553 1232.21 114.399C1231.31 113.15 1230.55 112.98 1229.61 113.884C1228.98 114.486 1229.11 115.411 1228.18 115.7C1227.87 115.847 1227.25 115.988 1227.1 115.985C1225.59 114.415 1224.5 115.469 1223.25 116.366C1223.25 116.366 1222.94 116.36 1222.79 116.203C1222.79 116.203 1222.79 116.049 1222.8 115.895C1222.8 115.742 1222.96 115.437 1223.12 115.287C1223.28 114.982 1223.44 114.678 1224.82 114.553C1226.67 114.592 1227.28 114.604 1227.9 114.617C1228.05 114.62 1228.21 114.316 1228.22 114.162C1228.22 114.162 1228.07 113.852 1227.91 114.002C1226.83 114.134 1225.92 113.807 1225.32 113.025C1225.17 112.868 1225.02 112.404 1224.55 112.856C1224.08 113.153 1223.46 113.294 1223 113.592L1223.74 114.685L1224.97 114.71C1223.13 114.672 1222.67 114.662 1222.04 115.111C1221.57 115.562 1220.81 115.393 1220.81 115.085C1220.66 114.774 1220.67 114.313 1220.98 114.166C1221.61 113.564 1221.77 113.259 1220.7 113.237C1220.54 113.234 1220.08 113.07 1220.09 112.917C1219.94 112.452 1220.11 111.994 1220.12 111.533C1220.12 111.379 1220.27 111.382 1220.28 111.229C1221.22 110.479 1222.16 109.576 1223.1 108.826C1224.03 108.077 1224.98 107.173 1226.37 106.587C1227.46 106.148 1228.25 105.088 1229.19 104.338C1230.26 104.514 1230.74 103.755 1231.37 103.153C1232 102.551 1232.92 102.416 1233.55 101.968C1234.17 101.519 1235.1 101.077 1235.27 100.312C1235.58 100.318 1236.04 100.481 1236.35 100.334C1236.66 100.187 1236.67 99.8793 1237.14 99.4276C1237.29 99.2771 1236.99 99.2707 1236.98 99.4244L1236.98 99.7319L1237.28 99.7383C1237.44 99.5878 1237.6 99.4372 1237.6 99.2835C1237.6 99.2835 1237.45 99.1265 1237.14 99.4276C1236.52 99.7223 1236.21 99.5622 1235.9 99.7095C1235.59 99.8569 1235.58 100.164 1235.43 100.315C1235.12 100.309 1234.81 100.302 1234.66 100.299C1233.57 100.738 1232.48 101.33 1231.4 101.616C1230.32 101.747 1229.38 102.343 1228.46 102.631C1227.53 102.919 1227.69 102.615 1227.7 102.154C1227.7 102 1227.7 101.846 1227.7 101.846C1227.4 101.686 1226.94 101.523 1226.63 101.516C1226.32 101.51 1226.16 101.968 1226.15 102.276C1226.15 102.583 1226.75 103.057 1226.75 103.365C1226.59 103.669 1226.12 104.121 1225.65 104.265C1224.73 104.399 1223.79 104.995 1223.02 105.287C1222.24 105.578 1221.61 106.18 1220.84 106.472C1220.37 106.616 1220.06 107.071 1219.44 106.904C1218.83 106.738 1218.37 106.882 1218.05 107.337C1217.57 108.096 1216.5 108.074 1215.87 108.522C1214.94 109.118 1213.56 108.935 1212.61 109.839C1211.83 110.591 1210.44 110.716 1209.51 111.312C1208.01 109.128 1207.4 108.961 1206.18 108.474C1205.42 108.151 1205.56 108.615 1205.86 108.929C1206.01 109.086 1206.79 108.641 1207.26 108.343C1207.89 107.895 1207.58 107.734 1207.13 107.417C1206.98 107.26 1206.82 107.103 1206.52 106.943C1206.07 106.626 1205.44 106.921 1205.28 107.379C1205.43 107.536 1205.43 107.536 1206.18 108.474ZM1140.8 100.962L1140.81 100.655C1140.5 100.649 1140.04 100.639 1139.73 100.633C1139.58 100.629 1139.42 100.934 1139.26 101.084C1139.26 101.084 1139.41 101.241 1139.57 101.244C1140.02 101.408 1140.48 101.417 1141.28 100.05C1141.13 100.2 1140.97 100.197 1140.81 100.347L1140.81 100.655L1141.12 100.661C1141.27 100.511 1141.43 100.36 1141.43 100.206C1141.59 100.21 1141.43 100.206 1140.8 100.962ZM1125.58 85.8796C1125.42 85.8764 1125.27 85.8732 1125.27 85.8732C1125.11 86.0237 1124.81 86.0173 1124.8 86.1711C1124.64 86.7829 1125.26 86.4882 1125.57 86.4946C1125.87 86.501 1126.03 86.1967 1126.34 86.2031C1126.19 86.0461 1125.88 86.0397 1124.79 86.9398C1124.79 86.7861 1124.79 86.6323 1124.79 86.6323L1124.49 86.6259C1124.17 86.7733 1123.86 86.9206 1124.32 87.2377C1124.32 87.2377 1124.48 86.9334 1125.58 85.8796ZM1301.54 72.3107C1301.39 72.3075 1301.24 72.3043 1301.24 72.3043C1301.08 72.4549 1300.77 72.4485 1300.77 72.6023C1300.6 73.2141 1301.22 72.9193 1301.53 72.9257C1301.84 72.9321 1302 72.6278 1302.31 72.6342C1302.16 72.4773 1301.85 72.4709 1300.75 73.371L1300.76 73.0635C1300.45 73.0571 1299.99 73.0475 1299.68 73.0411C1299.53 73.0379 1299.37 73.3422 1299.21 73.4928C1299.21 73.4928 1299.36 73.6497 1299.52 73.6529C1299.82 73.6593 1300.28 73.6689 1301.54 72.3107ZM1075.82 103.918C1075.67 103.761 1075.67 103.608 1075.52 103.451L1075.22 103.444C1075.22 103.444 1075.21 103.598 1075.21 103.752C1075.36 103.909 1075.51 104.066 1075.66 104.069C1075.66 104.069 1075.82 103.918 1074.14 103.422C1074.45 103.428 1074.6 103.431 1074.91 103.438C1075.21 103.598 1075.37 103.447 1075.22 103.137C1075.22 102.983 1075.07 102.98 1074.92 102.977C1074.3 102.964 1073.69 102.951 1073.23 102.941C1073.07 102.938 1072.92 103.089 1072.92 103.089C1073.07 103.246 1073.22 103.403 1073.37 103.56C1073.52 103.563 1073.83 103.415 1075.82 103.918ZM1284.49 100.874C1285.1 100.886 1285.72 100.899 1286.33 100.912C1286.49 100.915 1286.64 100.765 1286.8 100.614C1286.65 100.611 1286.65 100.457 1286.5 100.454C1286.35 100.143 1286.2 99.9862 1286.99 98.926C1286.84 98.9228 1286.68 98.9196 1286.68 98.9196C1286.53 99.0701 1286.22 99.0637 1286.22 99.2175C1286.05 99.8293 1286.67 99.5346 1286.98 99.541C1287.29 99.5474 1287.45 99.2431 1287.75 99.2495C1287.6 99.0925 1287.3 99.0861 1286.21 99.6787C1285.28 99.8133 1284.81 100.265 1284.63 101.492C1284.48 101.181 1284.49 101.027 1284.49 100.874L1284.18 100.867C1283.1 100.845 1282.95 100.842 1282.94 101.61C1282.93 101.764 1283.08 101.921 1283.23 102.078C1283.23 102.078 1283.39 102.081 1283.54 102.084C1283.85 101.783 1284.17 101.636 1284.49 100.874ZM1161.31 113.54C1161.46 113.543 1161.62 113.547 1161.62 113.547C1161.62 113.547 1161.62 113.393 1161.62 113.239C1161.47 113.082 1161.17 112.768 1161.01 113.073C1161.01 113.073 1161.16 113.383 1164.1 112.675C1163.95 112.518 1163.95 112.211 1163.8 112.208C1163.49 112.201 1163.03 112.192 1162.72 112.339C1162.4 112.64 1162.39 113.101 1162.08 113.403C1161.92 113.553 1161.62 113.393 1161.77 113.704C1161.92 113.861 1162.22 114.021 1162.38 114.024C1162.99 114.19 1163.77 113.591 1161.31 113.54ZM1233.94 31.3744C1233.78 31.3712 1233.63 31.368 1233.48 31.3648C1232.86 31.352 1232.86 31.5057 1233.31 32.1303C1233.45 32.441 1233.61 32.4442 1233.3 32.5916C1232.99 32.7389 1232.98 33.0464 1232.66 33.3475C1232.97 33.3539 1233.58 33.5205 1233.74 33.3699C1234.21 33.072 1234.68 32.6204 1235.45 32.6363C1235.45 32.6363 1235.77 32.1815 1235.61 32.1783C1235.16 31.7074 1234.71 31.0829 1232.66 33.655C1232.66 33.5013 1232.66 33.3475 1232.66 33.3475L1232.36 33.3411C1232.05 33.4885 1231.74 33.6359 1232.19 33.9529C1232.34 34.1099 1232.65 33.9625 1233.94 31.3744ZM1076.24 98.6971C1076.7 98.7067 1076.85 98.7099 1076.85 98.7099C1077.01 98.5594 1077.32 98.5658 1077.47 98.4152C1077.32 98.2583 1077.17 98.1013 1077.02 98.0981C1076.56 98.0885 1075.94 98.0757 1076.11 97.3102C1076.12 96.8489 1075.82 96.6888 1075.51 96.5287C1075.21 96.2148 1075.06 96.0578 1074.44 96.3525C1073.5 96.9483 1072.41 97.6947 1071.03 97.3584C1070.56 97.8101 1069.93 98.5661 1069.81 97.0254C1069.82 96.5641 1068.9 96.3912 1068.59 96.6923C1068.12 97.144 1067.5 97.2849 1067.48 97.8999C1067.47 98.5149 1067.46 98.9762 1067.91 99.447C1068.52 99.921 1068.2 100.376 1067.43 100.667C1066.81 100.808 1066.34 101.106 1065.72 101.247C1064.95 101.539 1064.95 101.539 1065.55 102.167C1066.31 102.798 1066.77 102.807 1067.4 102.205C1067.4 102.205 1067.7 102.211 1067.85 102.368C1068.01 102.371 1068.16 102.528 1068.46 102.689C1068.62 102.538 1068.78 102.234 1068.78 102.08C1068.49 101.151 1069.13 100.241 1069.9 100.104C1070.98 99.9722 1071.61 99.2162 1072.39 98.6172C1073.33 97.7139 1074.26 97.5793 1075.32 98.5242C1075.78 98.6876 1076.24 98.6971 1076.24 98.6971ZM1278.91 102.911C1279.22 102.917 1279.37 102.921 1279.53 102.77C1279.99 102.472 1280.47 102.02 1280.94 101.569L1283.76 99.1663C1283.6 99.0094 1283.6 99.0094 1283.45 98.8524C1283.3 98.8493 1283.3 98.6955 1283.15 98.6923C1282.54 98.5258 1282.22 99.1344 1281.91 99.2817C1281.6 99.2753 1281.14 98.9582 1280.69 98.6412C1280.54 98.638 1280.38 98.6348 1280.38 98.6348C1279.44 99.3843 1278.5 100.134 1277.56 101.037C1277.56 101.037 1277.56 101.191 1277.56 101.345C1277.39 101.803 1278.45 102.901 1278.91 102.911ZM1103.83 73.7374C1103.83 73.5837 1103.84 73.2762 1103.84 73.1224C1103.86 72.5074 1103.55 72.501 1102.94 72.3345C1102.02 72.1615 1101.55 72.6132 1101.08 73.0649C1100.61 73.5165 1100.91 73.8304 1100.74 74.2885C1100.58 74.9003 1101.03 75.0636 1101.65 75.0764C1101.8 75.0796 1101.96 75.0828 1101.96 75.0828C1102.87 75.5632 1103.8 75.1212 1103.82 74.3524C1103.83 74.0449 1103.83 73.8912 1103.83 73.7374ZM1113.21 73.7787C1112.91 73.7723 1112.75 73.7691 1112.45 73.7627C1111.68 73.7467 1111.51 74.3585 1111.81 74.9799C1111.95 75.2906 1112.26 75.4507 1112.4 75.7614C1112.85 76.5398 1113 76.6967 1113.93 76.5622C1115 76.5845 1114.56 75.8062 1114.87 75.3513C1115.19 74.7427 1114.91 73.8139 1114.29 73.8011C1113.98 73.7947 1113.52 73.7851 1113.21 73.7787ZM1112.64 64.384C1112.49 64.227 1112.49 64.227 1112.34 64.0701C1111.89 63.2917 1110.81 63.4231 1110.21 62.7953C1109.76 62.3245 1109.59 63.2438 1109.12 63.3879C1108.66 63.5321 1108.65 63.9933 1108.8 64.304C1109.54 65.55 1111.07 65.7357 1112.17 64.8356C1112.33 64.6851 1112.48 64.5345 1112.64 64.384ZM1080.48 94.4785C1079.54 95.3818 1079.51 96.7655 1078.42 97.5119C1078.42 97.5119 1078.41 97.6657 1078.57 97.6689C1078.72 97.8258 1078.72 97.8258 1078.87 97.829C1080.11 97.5471 1081.5 97.1146 1082.29 96.2081C1082.45 96.0575 1082.15 95.5899 1082 95.2792C1081.84 95.4298 1081.54 95.4234 1081.38 95.5739C1080.91 96.0256 1080.76 95.7149 1080.61 95.4042C1080.62 95.2504 1080.62 94.9429 1080.48 94.4785ZM1065.79 105.402C1066.1 105.408 1066.25 105.411 1066.56 105.418C1067.02 105.427 1067.33 105.28 1067.34 104.819C1067.34 104.665 1067.35 104.204 1067.2 104.2C1066.9 104.04 1066.43 104.031 1066.13 104.024C1065.97 104.021 1065.81 104.325 1065.5 104.473C1065.35 104.47 1065.04 104.309 1065.04 104.309C1065.22 103.236 1064.45 103.22 1063.68 103.204C1063.53 103.201 1063.37 103.198 1063.37 103.198C1063.22 103.349 1063.06 103.499 1062.91 103.496C1063.66 104.281 1064.09 105.674 1065.79 105.402ZM1117.76 69.8739C1118.39 69.2717 1119.01 68.8232 1119.49 68.0641C1119.64 67.9135 1119.51 67.1416 1119.35 67.1384C1118.74 66.9718 1117.97 66.8021 1117.51 67.1C1116.89 67.3947 1117.17 68.3236 1116.4 68.6151C1116.85 69.086 1117.15 69.3999 1117.76 69.8739ZM1112.07 69.7556C1113.32 68.5512 1113.32 68.5512 1113.34 67.7824C1113.35 67.3212 1113.2 67.0105 1112.59 66.9977C1111.2 66.9689 1110.57 67.7249 1111.16 68.8139C1111.31 69.1246 1111.77 69.4417 1112.07 69.7556ZM1139.46 62.019C1138.54 61.9999 1138.54 61.9999 1138.98 62.7782C1139.43 63.4028 1138.96 63.8544 1139.26 64.3221C1139.41 64.479 1139.86 64.6424 1140.17 64.6488C1140.63 64.6584 1140.94 64.511 1140.8 64.0465C1140.65 63.7359 1140.51 63.4252 1140.35 63.2682C1140.05 63.1081 1140.05 62.9543 1140.36 62.807C1140.68 62.5059 1141.3 62.2111 1140.38 62.0382C1139.92 61.8749 1139.77 62.0254 1139.46 62.019ZM1130.49 71.523C1130.34 71.3661 1130.35 71.0586 1130.2 70.9016C1130.05 70.7447 1129.74 70.7383 1129.58 70.7351C1129.12 70.8792 1128.81 71.1804 1128.49 71.4815C1128.18 71.7826 1128.01 72.5481 1128.47 72.5577C1128.77 72.7178 1129.24 72.7274 1129.39 72.5769C1129.86 72.279 1130.48 72.138 1130.49 71.523ZM1228.01 109.236C1228.01 109.39 1228.01 109.39 1228 109.543C1227.99 110.005 1228.76 110.328 1229.07 110.181C1229.38 110.033 1229.69 109.732 1229.85 109.582C1230.16 109.434 1230.32 109.13 1229.87 108.813C1229.56 108.653 1229.41 108.342 1229.11 108.182C1228.81 107.868 1228.03 108.16 1227.87 108.618C1228.02 108.775 1228.02 108.928 1228.01 109.236ZM1097.92 69.4615C1097.77 69.4583 1097.61 69.4551 1097.61 69.4551C1097.15 69.4455 1096.68 70.0509 1096.98 70.3648C1097.13 70.6755 1097.43 70.8356 1097.73 71.1495C1098.03 71.4634 1098.19 71.4666 1098.5 71.1655C1098.66 70.8612 1099.13 70.7171 1099.29 70.4128C1099.6 70.1116 1099.3 69.4903 1098.69 69.3237C1098.39 69.3173 1098.23 69.4679 1097.92 69.4615ZM1145.56 56.9162C1145.26 56.6023 1144.96 56.2884 1144.51 55.9714C1144.05 55.6543 1143.28 55.9458 1143.26 56.5608C1143.25 57.022 1142.94 57.4769 1143.55 57.7972C1144.15 58.1175 1144.62 57.8195 1145.09 57.3679C1145.25 57.2173 1145.41 57.0668 1145.56 56.9162ZM1100.98 62.911C1100.52 62.5939 1100.38 62.2832 1100.07 62.1231C1099.62 61.806 1099 61.7932 1098.84 62.0975C1098.68 62.4018 1098.68 62.7093 1098.82 63.02C1099.12 63.3339 1099.43 63.6478 1099.73 63.9617C1100.2 63.51 1100.51 63.2089 1100.98 62.911ZM1102.51 85.4C1103.14 84.7978 1103.76 84.3493 1104.39 83.7471C1104.39 83.7471 1104.25 83.4364 1104.09 83.2795L1103.79 83.2731C1102.86 83.4076 1102.24 83.8561 1102.22 84.7786C1102.06 85.0829 1102.36 85.2431 1102.51 85.4ZM1128.8 56.8752C1128.95 56.8784 1129.1 56.8816 1129.1 56.8816C1129.57 56.8912 1129.88 56.7439 1129.88 56.4364C1129.89 56.1289 1129.74 55.6644 1129.59 55.6612C1129.29 55.5011 1128.82 55.6452 1128.66 55.7958C1128.35 55.9432 1128.04 56.2443 1127.88 56.5486C1127.88 56.5486 1128.03 56.8593 1128.18 57.0162C1128.33 57.0194 1128.64 56.872 1128.8 56.8752ZM1142.69 47.1661C1142.54 47.0091 1142.23 46.849 1141.93 46.8426C1141.31 46.8298 1141 47.1309 1141.14 47.5953C1141.14 47.9028 1141.44 48.2167 1141.9 48.2263C1142.51 48.2391 1142.83 47.938 1142.69 47.1661ZM1132.34 41.7212C1132.19 41.718 1132.03 41.7148 1132.03 41.7148C1131.57 41.7052 1131.26 41.8525 1131.26 42.16C1131.25 42.3138 1131.25 42.6213 1131.4 42.7782C1131.85 43.2491 1131.86 42.6341 1132.17 42.6405C1132.48 42.4931 1132.94 42.5027 1133.25 42.3554C1133.41 42.3586 1133.57 42.0543 1133.57 41.9005C1133.57 41.9005 1133.42 41.7436 1133.26 41.7404C1132.8 41.7308 1132.5 41.7244 1132.34 41.7212ZM1195.85 94.8776C1195.08 94.8616 1194.77 95.1627 1194.91 95.7809C1194.9 96.0884 1195.2 96.4023 1195.66 96.4119C1196.28 96.4247 1196.59 96.1236 1196.45 95.5054C1196.3 95.1947 1195.85 95.0313 1195.85 94.8776ZM1114.37 92.1069C1114.39 91.3381 1114.08 91.178 1113.47 91.1652C1113.01 91.1556 1112.85 91.4599 1112.84 91.7674C1112.83 92.2286 1113.13 92.5425 1113.75 92.4016C1114.06 92.408 1114.37 92.1069 1114.37 92.1069ZM1197.16 105.98C1196.39 105.964 1196.07 106.265 1196.21 106.883C1196.21 107.19 1196.51 107.504 1196.97 107.514C1197.59 107.527 1197.9 107.226 1197.76 106.607C1197.61 106.297 1197.31 106.136 1197.16 105.98ZM1140.04 78.6432C1139.27 78.4734 1138.96 78.7745 1138.79 79.2326C1138.78 79.6938 1138.93 79.8508 1139.39 79.8604C1140.01 80.0269 1140.47 79.729 1140.33 79.2646C1140.49 78.9603 1140.19 78.8001 1140.04 78.6432ZM1163.87 116.055C1163.57 115.741 1163.42 115.584 1163.12 115.424C1162.96 115.267 1162.66 115.107 1162.66 115.107C1162.35 115.408 1161.88 115.706 1161.57 116.007C1161.72 116.164 1161.72 116.164 1161.87 116.167C1162.48 116.333 1163.24 116.657 1163.87 116.055ZM1157.54 28.5554C1156.77 28.3857 1156.46 28.6868 1156.29 29.1448C1156.28 29.6061 1156.44 29.763 1156.9 29.7726C1157.51 29.9391 1157.98 29.6412 1157.83 29.1768C1157.84 28.8693 1157.53 28.7091 1157.54 28.5554ZM1136.79 71.8079C1136.81 71.0391 1136.5 70.879 1135.89 70.8662C1135.43 70.8566 1135.27 71.1609 1135.26 71.4684C1135.25 71.9296 1135.55 72.2435 1136.17 72.1026C1136.33 72.1058 1136.64 71.8047 1136.79 71.8079ZM1327.47 75.6186C1327.79 75.3174 1328.1 75.1701 1328.26 74.8658C1328.42 74.7152 1328.42 74.5615 1328.42 74.4077C1328.42 74.4077 1328.27 74.2508 1328.12 74.2476C1327.66 74.238 1327.19 74.2284 1326.58 74.2156C1326.43 74.2124 1326.27 74.363 1326.27 74.363C1326.27 74.5167 1326.42 74.6737 1326.41 74.8274C1327.02 75.1477 1327.33 75.3079 1327.47 75.6186ZM1172.83 25.6432C1173 24.8776 1172.69 24.7175 1172.08 24.5509C1171.62 24.5413 1171.46 24.6919 1171.3 25.15C1171.14 25.608 1171.43 26.0756 1172.05 25.9347C1172.36 25.9411 1172.67 25.7937 1172.83 25.6432ZM1083.96 67.7868C1084.26 67.7932 1084.42 67.7964 1084.73 67.8028C1085.19 67.8124 1085.35 67.5081 1085.35 67.2006C1085.36 67.0468 1085.36 66.8931 1085.36 66.8931C1085.21 66.5824 1084.9 66.576 1084.59 66.8771C1084.28 67.1782 1083.66 67.1654 1083.35 67.3128C1083.2 67.3096 1083.04 67.4601 1083.04 67.4601C1083.04 67.6139 1083.19 67.6171 1083.34 67.6203C1083.5 67.6235 1083.65 67.6266 1083.96 67.7868ZM1116.84 62.1641C1116.07 62.1481 1115.76 62.4492 1115.9 63.0674C1115.89 63.3749 1116.19 63.6888 1116.65 63.6984C1117.27 63.7111 1117.58 63.41 1117.44 62.7918C1117.3 62.4811 1116.99 62.321 1116.84 62.1641ZM1161.95 60.4871C1161.97 59.7183 1161.66 59.5582 1161.05 59.5454C1160.59 59.5358 1160.43 59.8401 1160.42 60.1476C1160.41 60.6088 1160.71 60.9227 1161.33 60.7818C1161.63 60.9419 1161.79 60.6376 1161.95 60.4871ZM1124.92 58.1791C1124.16 58.0093 1123.84 58.3104 1123.68 58.7685C1123.67 59.2297 1123.82 59.3867 1124.28 59.3963C1124.89 59.5628 1125.36 59.2649 1125.22 58.8005C1125.22 58.6467 1124.92 58.3328 1124.92 58.1791ZM1171.13 107.284C1170.98 107.127 1170.68 106.967 1170.37 106.961C1169.75 106.948 1169.44 107.249 1169.58 107.713C1169.58 108.021 1169.88 108.335 1170.34 108.344C1170.96 108.204 1171.12 107.899 1171.13 107.284ZM1197.65 104.298C1197.82 103.532 1197.52 103.372 1196.91 103.206C1196.45 103.196 1196.29 103.347 1196.12 103.805C1195.96 104.416 1196.26 104.73 1196.88 104.589C1197.19 104.596 1197.5 104.295 1197.65 104.298ZM1098.1 83.1548C1097.79 83.3021 1097.63 83.4527 1097.47 83.6032C1097.62 83.7602 1097.62 83.7602 1097.77 83.9171C1097.92 84.0741 1098.08 84.231 1098.23 84.388C1098.38 84.5449 1098.53 84.5481 1098.68 84.5513C1098.84 84.247 1099 83.9427 1098.86 83.632C1098.86 83.3245 1098.4 83.3149 1098.1 83.1548ZM1191.08 87.5491C1190.77 87.3889 1190.63 87.0782 1190.33 86.7643C1190.02 86.4504 1189.72 86.444 1189.56 86.7483C1189.4 86.8989 1189.39 87.2064 1189.54 87.3633C1189.69 87.674 1190.3 87.8406 1190.77 87.6964C1190.92 87.6996 1190.92 87.6996 1191.08 87.5491ZM1201.87 93.6185C1201.73 93.3078 1201.58 93.1509 1201.43 92.9939C1201.27 93.1445 1201.27 93.1445 1201.11 93.295C1200.96 93.4456 1200.8 93.5961 1200.64 93.7467C1200.49 93.7435 1200.48 93.8973 1200.48 94.051C1200.79 94.0574 1201.24 94.3745 1201.55 94.2271C1201.71 94.2303 1201.72 93.7691 1201.87 93.6185ZM1187.05 96.3866C1186.74 96.2265 1186.44 95.9126 1186.29 95.7556C1186.14 95.5987 1185.99 95.5955 1185.83 95.5923C1185.67 95.8966 1185.51 96.2009 1185.66 96.5116C1185.81 96.8223 1186.42 96.9888 1186.89 96.8446C1186.73 96.6877 1186.89 96.5371 1187.05 96.3866ZM1203.29 99.3392C1203.31 98.5705 1202.86 98.2534 1202.23 98.5481C1202.08 98.5449 1201.92 98.8492 1201.92 99.003C1202.06 99.3137 1202.37 99.4738 1202.67 99.7877C1202.82 99.7909 1202.82 99.9446 1202.97 99.9478C1202.98 99.7941 1203.14 99.4898 1203.29 99.3392ZM1109.05 104.148C1109.2 103.997 1109.51 103.85 1109.36 103.846C1109.37 103.539 1109.37 103.078 1109.07 102.918C1108.92 102.761 1108.46 102.905 1108.15 102.898C1107.99 102.895 1107.84 103.046 1107.84 103.046C1108.29 103.517 1108.74 103.834 1109.05 104.148ZM1235.72 108.473C1235.56 108.47 1235.57 108.316 1235.41 108.313C1235.11 108.307 1234.64 108.297 1234.48 108.601C1234.33 108.752 1234.47 109.216 1234.47 109.524C1234.46 109.678 1234.62 109.681 1234.77 109.684C1234.93 109.534 1235.71 108.627 1235.72 108.473ZM1227.23 28.4662C1228 28.4822 1228.46 28.1843 1228.17 27.4091C1228.18 27.2554 1227.72 27.092 1227.72 27.092C1227.41 27.2394 1227.09 27.5405 1226.94 27.6911C1226.78 27.6879 1226.78 27.8416 1226.62 27.9922C1226.77 28.3029 1227.07 28.463 1227.23 28.4662ZM1140.38 39.7349C1140.07 39.8823 1139.92 40.0328 1139.76 40.1834C1139.91 40.3403 1139.91 40.3403 1140.06 40.4973C1140.21 40.6542 1140.36 40.8112 1140.51 40.9681C1140.66 41.1251 1140.82 41.1283 1140.97 41.1315C1140.98 40.824 1141.29 40.5229 1141.14 40.2122C1141.15 40.0584 1140.69 39.8951 1140.38 39.7349ZM1179.4 49.7752C1179.25 49.6182 1179.1 49.3075 1178.96 48.9968C1178.81 48.8399 1178.5 48.8335 1178.19 48.9809C1177.72 49.125 1177.87 49.4357 1178.17 49.7496C1178.32 49.9065 1178.47 50.0635 1178.62 50.2204C1178.78 50.2236 1178.77 50.3774 1178.93 50.3806C1179.09 50.0763 1179.25 49.9257 1179.4 49.7752ZM1091.06 81.1627C1090.91 81.1595 1090.91 81.0058 1090.76 81.0026C1090.45 80.9962 1089.99 80.9866 1089.83 81.2909C1089.67 81.4414 1089.82 81.9059 1089.81 82.2134C1089.81 82.3671 1089.96 82.3703 1090.11 82.3735C1090.27 82.3767 1091.06 81.3165 1091.06 81.1627ZM1163.85 28.5327C1164.31 28.3886 1164.33 27.6198 1163.87 27.4565C1163.87 27.4565 1163.71 27.4533 1163.56 27.4501C1163.1 27.5942 1163.08 28.363 1163.54 28.5263C1163.69 28.5295 1163.85 28.5327 1163.85 28.5327ZM1235.64 30.6408C1236.11 30.4966 1236.12 29.7279 1235.67 29.5645C1235.67 29.5645 1235.51 29.5613 1235.36 29.5581C1234.89 29.7023 1234.88 30.4711 1235.34 30.6344C1235.49 30.6376 1235.64 30.6408 1235.64 30.6408ZM1129.26 49.3479C1129.1 49.4985 1128.79 49.6458 1128.64 49.6426C1128.94 49.8028 1129.25 49.9629 1129.56 49.9693C1129.71 49.9725 1130.02 49.8251 1130.18 49.6746C1130.03 49.5176 1129.72 49.3575 1129.57 49.3543C1129.42 49.1974 1129.26 49.3479 1129.26 49.3479ZM1172.72 53.0202C1172.57 53.017 1172.57 53.017 1172.41 53.0138C1171.94 53.3117 1172.09 53.9299 1172.39 54.09C1172.39 54.09 1172.54 54.0932 1172.7 54.0964C1173.16 53.9523 1173.18 53.3373 1172.72 53.0202ZM1104.98 55.4572C1104.98 55.3034 1104.98 55.3034 1104.99 55.1497C1104.69 54.8358 1103.92 54.8198 1103.76 55.1241L1103.75 55.2779C1103.9 55.7423 1104.67 55.7583 1104.98 55.4572ZM1132.45 66.3339C1131.83 66.1674 1131.53 66.0072 1131.07 65.9976C1130.91 65.9944 1130.6 66.1418 1130.45 66.2923C1130.6 66.4493 1130.9 66.6094 1131.06 66.6126C1131.52 66.6222 1131.83 66.4749 1132.45 66.3339ZM1092.19 71.3419C1092.03 71.4925 1091.57 71.6366 1091.72 71.7936C1091.87 72.1043 1092.63 72.1203 1092.95 71.8192L1092.95 71.6654C1092.65 71.5053 1092.49 71.5021 1092.19 71.3419ZM1324.66 77.5597C1324.97 77.4124 1325.28 77.4188 1325.44 77.2682L1325.44 77.1145C1325.14 76.8006 1324.37 76.7846 1324.21 77.0889C1324.06 77.2395 1324.51 77.4028 1324.66 77.5597ZM1282.55 38.8453C1282.4 38.6884 1282.4 38.6884 1282.25 38.5315C1282.09 38.682 1282.09 38.8358 1281.93 38.9863C1281.93 38.9863 1282.08 39.1433 1282.23 39.1464C1282.39 39.1496 1282.39 38.9959 1282.55 38.8453ZM1238.85 39.3211C1238.7 39.1642 1238.7 39.1642 1238.55 39.0072C1238.39 39.1578 1238.39 39.3115 1238.23 39.4621C1238.23 39.4621 1238.38 39.619 1238.53 39.6222C1238.53 39.6222 1238.69 39.4717 1238.85 39.3211ZM1128.47 43.025C1128.63 42.8744 1128.63 42.8744 1128.78 42.7239C1128.63 42.5669 1128.48 42.5637 1128.32 42.5605C1128.32 42.5605 1128.17 42.7111 1128.01 42.7079C1128.16 42.8649 1128.32 42.868 1128.47 43.025ZM1240.01 50.1124C1240.17 49.9618 1240.17 49.9618 1240.32 49.8112C1240.17 49.8081 1240.02 49.6511 1239.86 49.6479C1239.86 49.6479 1239.71 49.7985 1239.55 49.7953C1239.55 49.949 1239.85 50.1092 1240.01 50.1124ZM1295.66 51.731C1295.51 51.574 1295.51 51.574 1295.36 51.5708C1295.21 51.5676 1295.05 51.7182 1294.9 51.715C1295.05 51.8719 1295.05 51.8719 1295.2 51.8751C1295.35 51.8783 1295.51 51.7278 1295.66 51.731ZM1175.84 50.9316C1176 50.7811 1176 50.7811 1176.15 50.6305C1176 50.4736 1175.85 50.4704 1175.7 50.4672C1175.7 50.4672 1175.54 50.6177 1175.39 50.6146C1175.54 50.6177 1175.69 50.7747 1175.84 50.9316ZM1290.7 53.9349C1290.85 53.7843 1290.85 53.7843 1291.01 53.6338C1290.86 53.4768 1290.7 53.4737 1290.55 53.4705C1290.55 53.4705 1290.39 53.621 1290.24 53.6178C1290.24 53.7716 1290.39 53.9285 1290.7 53.9349ZM1116.74 52.0102C1116.59 51.8532 1116.59 51.8532 1116.44 51.6963C1116.29 51.8468 1116.28 52.0006 1116.13 52.1511C1116.13 52.1511 1116.28 52.3081 1116.43 52.3113C1116.58 52.3145 1116.59 52.1607 1116.74 52.0102ZM1228.45 58.4857C1228.6 58.6427 1228.6 58.7964 1228.75 58.9534C1228.9 58.9566 1229.06 58.806 1229.06 58.806C1229.06 58.6523 1228.91 58.4953 1228.76 58.3384C1228.61 58.3352 1228.6 58.4889 1228.45 58.4857ZM1226.9 59.2225C1227.05 59.3795 1227.04 59.5332 1227.19 59.6902C1227.35 59.5396 1227.5 59.5428 1227.5 59.5428C1227.51 59.3891 1227.36 59.2321 1227.21 59.0752C1227.05 59.072 1227.05 59.072 1226.9 59.2225ZM1149.8 60.2345C1149.65 60.385 1149.65 60.385 1149.49 60.5356C1149.64 60.5388 1149.79 60.6957 1149.95 60.6989C1149.95 60.6989 1150.1 60.5484 1150.26 60.5516C1150.11 60.3946 1149.96 60.2377 1149.8 60.2345ZM1104.08 61.5912C1103.93 61.4342 1103.94 61.2805 1103.79 61.1235C1103.63 61.2741 1103.48 61.2709 1103.48 61.2709C1103.47 61.4247 1103.62 61.5816 1103.77 61.7385C1103.77 61.8923 1103.93 61.7417 1104.08 61.5912ZM1149.09 64.9879C1148.93 65.1385 1148.78 65.1353 1148.62 65.2859C1148.77 65.4428 1148.77 65.4428 1148.92 65.446C1149.08 65.4492 1149.24 65.2986 1149.39 65.3018C1149.24 65.1449 1149.24 65.1449 1149.09 64.9879ZM1087.23 65.5477C1087.39 65.3971 1087.54 65.4003 1087.7 65.2498C1087.55 65.0928 1087.55 65.0928 1087.4 65.0896C1087.24 65.0864 1087.09 65.237 1086.93 65.2338C1086.93 65.3875 1087.08 65.5445 1087.23 65.5477ZM1325.03 74.6449C1325.19 74.4943 1325.34 74.4975 1325.5 74.347C1325.35 74.19 1325.35 74.19 1325.2 74.1868C1325.04 74.1837 1324.88 74.3342 1324.73 74.331C1324.88 74.488 1325.03 74.6449 1325.03 74.6449ZM1124.02 71.85C1124.18 71.6994 1124.18 71.6994 1124.34 71.5489C1124.19 71.3919 1124.03 71.3887 1123.88 71.3855C1123.88 71.3855 1123.72 71.5361 1123.57 71.5329C1123.57 71.6866 1123.72 71.8436 1124.02 71.85ZM1327.76 76.7012C1327.61 76.5442 1327.61 76.3905 1327.46 76.2336C1327.3 76.3841 1327.15 76.3809 1327.15 76.3809C1327.15 76.5347 1327.3 76.6916 1327.45 76.8485C1327.6 76.8517 1327.76 76.7012 1327.76 76.7012ZM1322.82 77.5214C1322.66 77.5182 1322.51 77.6687 1322.51 77.6687C1322.5 77.8225 1322.66 77.9794 1322.81 78.1364C1322.96 77.9858 1323.12 77.989 1323.12 77.989C1322.97 77.8321 1322.82 77.6751 1322.82 77.5214ZM1123 76.7508C1123.16 76.6002 1123.16 76.6002 1123.31 76.4497C1123.16 76.2927 1123.01 76.2895 1122.85 76.2863C1122.85 76.2863 1122.7 76.4369 1122.54 76.4337C1122.69 76.5906 1122.85 76.5938 1123 76.7508ZM1350.5 85.48C1350.65 85.637 1350.65 85.637 1350.8 85.7939C1350.96 85.6434 1350.96 85.4896 1351.12 85.3391C1351.12 85.3391 1350.97 85.1821 1350.81 85.1789C1350.66 85.1757 1350.5 85.3263 1350.5 85.48ZM1110.89 81.8827C1111.04 82.0396 1111.04 82.0396 1111.19 82.1965C1111.35 82.046 1111.35 81.8922 1111.51 81.7417C1111.51 81.7417 1111.36 81.5847 1111.21 81.5815C1111.05 81.5783 1110.9 81.7289 1110.89 81.8827ZM1308.63 86.7629C1308.78 86.6124 1308.78 86.6124 1308.94 86.4618C1308.79 86.3049 1308.64 86.3017 1308.48 86.2985C1308.48 86.2985 1308.33 86.449 1308.17 86.4458C1308.32 86.6028 1308.47 86.7597 1308.63 86.7629ZM1329.68 87.9697C1329.52 87.9665 1329.37 88.117 1329.37 88.117C1329.36 88.2708 1329.51 88.4277 1329.67 88.5847C1329.82 88.4341 1329.98 88.4373 1329.98 88.4373C1329.83 88.2804 1329.67 88.1234 1329.68 87.9697ZM1180.42 89.7884C1180.26 89.939 1180.11 89.9358 1180.11 89.9358C1180.1 90.0895 1180.25 90.2465 1180.4 90.4034C1180.56 90.4066 1180.71 90.2561 1180.71 90.2561C1180.72 90.1023 1180.57 89.9454 1180.42 89.7884ZM1283.57 93.1637C1283.73 93.0132 1283.73 93.0132 1283.89 92.8626C1283.74 92.7057 1283.58 92.7025 1283.43 92.6993C1283.43 92.6993 1283.27 92.8498 1283.12 92.8466C1283.27 93.0036 1283.42 93.1605 1283.57 93.1637ZM1282.03 93.2855C1281.87 93.436 1281.72 93.4328 1281.56 93.5834C1281.71 93.7403 1281.71 93.8941 1281.87 93.7435C1282.02 93.7467 1282.18 93.5962 1282.33 93.5994C1282.18 93.5962 1282.03 93.4392 1282.03 93.2855ZM1259.26 93.4273C1259.1 93.5779 1258.95 93.5747 1258.95 93.5747C1258.95 93.7284 1259.1 93.8854 1259.25 94.0423C1259.4 94.0455 1259.56 93.895 1259.56 93.895C1259.41 93.738 1259.26 93.5811 1259.26 93.4273ZM1279.07 95.0697C1278.92 94.9128 1278.92 94.759 1278.77 94.6021C1278.62 94.7527 1278.46 94.7495 1278.46 94.7495C1278.46 94.9032 1278.61 95.0601 1278.76 95.2171C1278.76 95.2171 1278.92 95.0665 1279.07 95.0697ZM1372.09 97.619C1372.24 97.776 1372.24 97.776 1372.39 97.9329C1372.55 97.7824 1372.55 97.6286 1372.71 97.4781C1372.71 97.4781 1372.56 97.3211 1372.4 97.3179L1372.09 97.619ZM1183.56 94.0068C1183.4 94.1574 1183.25 94.1542 1183.09 94.3047C1183.24 94.4617 1183.24 94.4617 1183.4 94.4649C1183.55 94.4681 1183.71 94.3175 1183.86 94.3207C1183.86 94.3207 1183.71 94.1638 1183.56 94.0068ZM1289.34 97.1289C1289.49 97.2859 1289.48 97.4396 1289.63 97.5966C1289.79 97.446 1289.94 97.4492 1289.94 97.4492C1289.95 97.2955 1289.8 97.1385 1289.65 96.9816C1289.49 96.9784 1289.49 96.9784 1289.34 97.1289ZM1285.02 97.5007C1284.86 97.6512 1284.71 97.648 1284.55 97.7986C1284.7 97.9555 1284.7 97.9555 1284.86 97.9587C1285.01 97.9619 1285.17 97.8114 1285.32 97.8146C1285.17 97.8114 1285.17 97.6576 1285.02 97.5007ZM1293.31 98.4421C1293.15 98.5926 1293.15 98.5926 1292.99 98.7432C1293.14 98.9001 1293.3 98.9033 1293.45 98.9065C1293.45 98.9065 1293.61 98.756 1293.76 98.7592C1293.77 98.6054 1293.46 98.4453 1293.31 98.4421ZM1268.38 98.5391C1268.23 98.6897 1268.23 98.6897 1268.07 98.8402C1268.22 98.9972 1268.37 99.0004 1268.53 99.0036C1268.53 99.0036 1268.69 98.853 1268.84 98.8562C1268.69 98.6993 1268.53 98.6961 1268.38 98.5391ZM1268.51 99.9261C1268.35 100.077 1268.2 100.073 1268.2 100.073C1268.2 100.227 1268.35 100.384 1268.5 100.541C1268.65 100.391 1268.81 100.394 1268.81 100.394C1268.66 100.237 1268.51 100.08 1268.51 99.9261ZM1192.67 99.7336C1192.51 99.8842 1192.36 99.881 1192.36 99.881C1192.36 100.035 1192.51 100.192 1192.66 100.349C1192.81 100.352 1192.97 100.201 1192.97 100.201C1192.97 100.048 1192.82 99.8906 1192.67 99.7336ZM1216.03 100.835C1216.19 100.684 1216.34 100.687 1216.5 100.537C1216.35 100.38 1216.35 100.38 1216.19 100.377C1216.04 100.373 1215.88 100.524 1215.73 100.521C1215.88 100.524 1215.88 100.678 1216.03 100.835ZM1209.08 102.074C1208.93 102.225 1208.77 102.222 1208.77 102.222C1208.77 102.376 1208.92 102.533 1209.07 102.689C1209.22 102.693 1209.38 102.542 1209.38 102.542C1209.23 102.385 1209.23 102.231 1209.08 102.074ZM1259.97 103.748C1260.13 103.597 1260.13 103.597 1260.28 103.447C1260.13 103.443 1259.98 103.286 1259.82 103.283C1259.82 103.283 1259.67 103.434 1259.51 103.431C1259.51 103.584 1259.82 103.745 1259.97 103.748ZM1072.21 100.152L1072.5 100.619C1072.5 100.619 1072.82 100.472 1072.66 100.469C1072.67 100.315 1072.51 100.158 1072.36 100.001C1072.36 100.001 1072.36 100.155 1072.21 100.152ZM1188.11 104.407C1188.27 104.257 1188.27 104.257 1188.43 104.106C1188.27 104.103 1188.12 103.946 1187.97 103.943C1187.97 103.943 1187.81 104.093 1187.66 104.09C1187.81 104.093 1187.96 104.25 1188.11 104.407ZM1104.1 105.275C1104.25 105.432 1104.25 105.432 1104.4 105.589C1104.56 105.439 1104.56 105.285 1104.72 105.134C1104.72 105.134 1104.57 104.977 1104.41 104.974C1104.26 104.971 1104.26 105.125 1104.1 105.275ZM1222.96 108.054C1222.8 108.205 1222.8 108.205 1222.64 108.355C1222.79 108.512 1222.95 108.515 1223.1 108.519C1223.1 108.519 1223.26 108.368 1223.41 108.371C1223.26 108.214 1223.11 108.057 1222.96 108.054ZM1196.02 109.032C1195.87 108.875 1195.87 108.875 1195.71 108.718C1195.56 108.869 1195.55 109.023 1195.4 109.173C1195.4 109.173 1195.55 109.33 1195.7 109.333C1195.7 109.333 1195.86 109.183 1196.02 109.032ZM1127.7 109.458C1127.55 109.608 1127.39 109.605 1127.39 109.605C1127.39 109.759 1127.54 109.916 1127.69 110.073C1127.85 109.922 1128 109.925 1128 109.925C1128 109.771 1127.85 109.615 1127.7 109.458ZM1172.37 114.232C1172.22 114.075 1172.22 113.921 1172.07 113.764C1171.92 113.915 1171.76 113.911 1171.76 113.911C1171.76 114.065 1171.91 114.222 1172.06 114.379C1172.21 114.382 1172.37 114.385 1172.37 114.232ZM1237.41 19.6028C1237.57 19.4522 1237.57 19.4522 1237.73 19.3017C1237.58 19.1447 1237.42 19.1415 1237.27 19.1383C1237.27 19.1383 1237.11 19.2889 1236.96 19.2857C1237.11 19.4426 1237.26 19.5996 1237.41 19.6028ZM1190.78 20.4791C1190.63 20.3221 1190.63 20.3221 1190.48 20.1652C1190.32 20.3157 1190.32 20.4695 1190.16 20.62C1190.16 20.62 1190.31 20.777 1190.47 20.7802C1190.62 20.7834 1190.62 20.6296 1190.78 20.4791ZM1220.24 31.5511C1220.09 31.3941 1220.09 31.2404 1219.94 31.0834C1219.79 31.234 1219.63 31.2308 1219.63 31.2308C1219.63 31.3845 1219.78 31.5415 1219.93 31.6984C1220.08 31.7016 1220.08 31.7016 1220.24 31.5511ZM1221.78 31.4293C1221.63 31.2723 1221.63 31.2723 1221.48 31.1154C1221.32 31.266 1221.32 31.4197 1221.16 31.5703C1221.16 31.5703 1221.31 31.7272 1221.47 31.7304C1221.62 31.7336 1221.63 31.5798 1221.78 31.4293Z" fill="white"/>
<path d="M-73.9408 101.2C-63.8173 105.393 -53.3194 106.195 -42.7271 107.96C-31.8062 109.475 -21.0025 111.597 -9.96439 112.505C1.40238 113.163 12.4633 112.501 23.8301 113.159C34.6567 113.71 44.9203 115.726 55.5125 117.492C65.5645 119.151 75.7338 120.203 85.9487 118.115C95.8349 116.278 106.05 114.19 115.653 109.462C124.928 104.985 133.05 97.7622 136.992 87.5136C140.487 78.1223 139.661 67.8822 136.323 59.0383C133.079 51.1577 128.191 44.5291 121.543 39.7591C115.858 35.8083 107.873 33.61 102.991 41.4694C102.216 42.577 102.405 44.5037 104.026 44.8219C110.719 46.4515 118.185 39.7295 121.635 33.4785C125.319 26.0138 122.849 17.0256 119.042 10.6091C115.352 3.58574 110.23 -1.82926 103.348 -5.38548C96.4655 -8.94169 88.034 -10.2826 80.5429 -9.23443C71.8542 -7.79154 63.9887 -3.3526 59.2014 5.4701C58.3097 7.18456 59.9074 9.07299 61.4336 8.42794C67.4214 6.4546 73.3376 1.94776 74.7438 -5.33445C75.7041 -11.7594 73.5175 -17.8577 70.345 -23.2047C62.3078 -36.7506 48.9889 -44.7203 33.7951 -42.9803C24.5662 -41.6435 15.6203 -37.4168 8.6951 -30.5886C1.11254 -23.2597 -4.21493 -14.5431 -8.3677 -4.65096C-16.6733 15.1333 -21.1032 36.6235 -31.4523 55.3765C-37.3428 65.5572 -45.6056 74.957 -55.9605 79.222C-61.7368 81.5518 -67.9361 83.1687 -73.7609 81.3948C-79.1628 80.3339 -83.7673 76.5952 -88.4889 73.4634C-90.744 72.0757 -92.3159 75.8611 -90.3895 77.4991C-86.4196 80.1684 -82.2381 83.1942 -77.4936 84.7558C-73.2893 86.2114 -69.1793 86.7037 -64.8349 85.9823C-55.2774 84.3951 -46.4258 79.205 -39.0548 71.5196C-25.0872 57.2564 -19.3654 36.3349 -12.9148 17.4461C-6.67566 -1.7992 0.338016 -22.1521 17.6182 -33.2452C25.9296 -38.5414 35.6043 -40.7354 44.4588 -38.6815C50.6124 -37.158 55.8742 -33.9201 60.573 -29.218C64.7316 -24.6221 69.4075 -18.3499 70.2793 -11.2502C71.2454 -3.18713 65.6579 1.06934 59.5529 3.64953C60.1874 4.71895 61.1506 5.53802 61.7852 6.60743C69.1304 -6.75181 85.6161 -7.92314 97.1487 -3.76857C103.185 -1.63824 107.79 2.10046 111.831 7.30325C115.332 12.3999 119.351 19.1729 118.485 26.5612C117.525 32.9862 110.154 40.6716 104.211 39.5046C104.517 40.8244 105.152 41.8938 105.246 42.8571C109.025 36.3557 115.367 39.8058 119.76 43.1881C124.904 47.0328 128.946 52.2356 131.555 59.0468C135.011 67.2838 135.954 76.9171 132.247 85.952C127.766 96.0945 119.337 101.997 110.18 105.868C101.351 109.488 91.8879 112.038 82.659 113.375C73.1014 114.962 63.801 113.765 54.2892 112.212C44.7773 110.659 35.0539 108.749 25.6364 108.16C15.35 107.714 5.27512 107.625 -4.79978 107.536C-10.6475 107.332 -16.4953 107.129 -22.4373 105.962C-28.1679 105.151 -33.5698 104.09 -38.9716 103.029C-49.8925 101.514 -61.4708 100.5 -72.1345 96.2011C-74.0838 96.1332 -75.9844 100.169 -73.9408 101.2Z" fill="#C7C1C3" fill-opacity="0.6"/>
</g>
<defs>
<clipPath id="clip0_430_619">
<rect width="1280" height="832" fill="white"/>
</clipPath>
</defs>
</svg>
