<svg width="1280" height="832" viewBox="0 0 1280 832" fill="none" xmlns="http://www.w3.org/2000/svg">
<g clip-path="url(#clip0_430_430)">
<rect width="1280" height="832" fill="white"/>
<g clip-path="url(#clip1_430_430)">
<path d="M-74.6422 240.397C-78.8752 237.764 -82.5824 234.881 -86.2896 231.997C-87.3194 231.196 -88.669 230.807 -88.6933 229.138C-88.5794 228.567 -88.9453 228.612 -89.5171 228.497C-90.4547 228.428 -91.4385 227.993 -92.3761 227.923C-93.1079 228.014 -93.5198 227.694 -93.4059 227.122C-93.4302 225.454 -94.0264 223.67 -95.9478 223.166C-97.7093 222.455 -96.682 220.285 -98.4435 219.575C-99.6332 218.979 -100.503 217.973 -101.533 217.172C-100.872 215.047 -103.891 214.678 -104.075 213.215C-104.327 212.689 -104.373 212.323 -105.151 212.048C-107.232 211.749 -109.039 210.673 -109.522 208.319C-110.963 207.197 -110.668 205.117 -112.429 204.407C-113.619 203.812 -113.231 202.464 -113.53 201.572C-113.714 200.109 -114.949 199.148 -116.093 198.918C-119.112 198.55 -120.6 197.063 -121.654 194.593C-121.998 193.335 -123.234 192.374 -123.784 190.957C-124.082 190.065 -124.174 189.333 -125.158 188.898C-126.919 188.188 -127.149 186.359 -128.225 185.192C-128.889 184.346 -128.228 182.221 -130.331 183.225C-130.331 183.225 -130.697 183.27 -130.743 182.904C-130.995 182.378 -130.881 181.807 -130.973 181.075C-131.775 179.132 -132.417 176.982 -134.637 175.586C-135.667 174.785 -137.222 174.235 -137.726 173.183C-138.23 172.131 -138.94 170.919 -139.444 169.867C-139.696 169.341 -139.788 168.61 -140.2 168.289C-141.39 167.694 -141.734 166.437 -142.238 165.385C-143.495 165.726 -143.953 165.04 -144.092 163.943C-145.647 163.393 -144.986 161.268 -146.381 160.512C-147.571 159.917 -148.441 158.91 -149.471 158.109C-150.66 157.514 -150.799 156.417 -150.731 155.479C-150.823 154.748 -150.183 153.926 -150.435 153.4C-150.733 152.508 -151.923 151.912 -152.747 151.272C-153.777 150.471 -154.806 149.67 -155.836 148.869C-156.66 148.228 -156.912 147.702 -157.05 146.605C-157.188 145.508 -157.532 144.25 -158.768 143.289C-159.18 142.968 -159.638 142.282 -159.684 141.917C-159.914 140.088 -160.464 138.67 -162.226 137.96C-163.828 137.044 -163.532 134.964 -165.134 134.048C-166.529 133.293 -167.605 132.126 -168.841 131.165C-169.047 131.005 -168.933 130.434 -168.773 130.228C-168.133 129.406 -168.385 128.88 -169.209 128.239C-170.285 127.072 -172.572 126.613 -172.803 124.784C-173.033 122.955 -175.846 122.747 -175.55 120.667C-175.391 120.462 -176.008 119.981 -176.42 119.661C-179.67 117.463 -179.67 117.463 -179.946 115.269C-180.176 113.44 -182.03 111.998 -181.894 110.124C-181.826 109.187 -182.81 108.752 -183.428 108.271C-184.252 107.63 -185.282 106.829 -186.105 106.189C-186.769 105.342 -186.382 103.994 -187.731 103.604C-187.915 102.141 -188.373 101.455 -189.997 101.842C-190.363 101.887 -190.661 100.996 -191.119 100.31C-191.371 99.7835 -191.257 99.2122 -191.989 99.303C-193.086 99.4392 -194.07 99.004 -194.048 97.7011C-194.232 96.238 -194.576 94.9805 -195.652 93.8137C-195.904 93.2878 -195.996 92.5562 -196.408 92.2358C-197.278 91.2293 -198.332 88.7597 -198.676 87.5021C-198.768 86.7706 -198.861 86.039 -199.524 85.1927C-200.554 84.3917 -202.478 80.9156 -202.57 80.184C-202.801 78.3551 -203.922 76.8226 -205.044 75.2901C-205.754 74.078 -206.258 73.0261 -205.665 71.8379C-204.751 70.2386 -205.643 70.535 -206.787 70.3054C-207.724 70.2361 -208.182 69.5499 -208.48 68.6582C-208.778 67.7664 -208.757 66.4635 -209.581 65.8227C-210.45 64.8162 -211.64 64.2208 -211.458 62.7123C-213.998 61.7272 -213.634 58.7102 -216.014 57.5195C-217.775 56.8093 -216.794 54.2729 -218.921 53.6081C-219.333 53.2878 -220.157 52.647 -220.089 51.7099C-219.976 51.1385 -219.45 50.8875 -218.97 50.2707C-218.171 49.2428 -218.171 49.2428 -219.68 49.0586C-220.252 48.9438 -220.618 48.9892 -221.03 48.6689C-221.236 48.5087 -221.442 48.3485 -221.442 48.3485C-222.745 48.3245 -223.843 48.4607 -223.707 46.5864L-226.385 44.5039C-225.745 43.6816 -225.311 42.699 -223.962 43.0888C-223.756 43.249 -223.596 43.0434 -223.436 42.8378C-223.482 42.472 -223.734 41.9461 -223.94 41.7859C-224.352 41.4655 -225.084 41.5563 -225.655 41.4415C-227.577 40.937 -228.241 40.0906 -228.585 38.8331C-228.769 37.37 -228.587 35.8615 -227.124 35.6799C-225.66 35.4983 -225.021 34.6759 -224.381 33.8536C-224.061 33.4424 -224.154 32.7108 -225.251 32.847C-225.983 32.9378 -226.555 32.8231 -226.281 32.0461C-226.373 31.3145 -225.847 31.0636 -225.116 30.9728C-224.75 30.9274 -224.498 31.4533 -223.926 31.5681C-223.354 31.6829 -222.736 32.1635 -222.874 31.0661C-223.172 30.1744 -223.105 29.2372 -224.134 28.4363C-225.53 27.6808 -225.462 26.7436 -225.991 24.023C-226.381 22.3997 -226.931 20.982 -227.115 19.5189C-225.971 19.7484 -224.12 18.2185 -224.164 20.8244C-223.066 20.6882 -221.923 20.9177 -221.237 20.4612C-220.391 19.799 -219.798 18.6109 -219.158 17.7885C-220.234 16.6218 -221.239 17.4895 -222.177 17.4201C-223.115 17.3508 -224.006 17.6472 -225.31 17.6232C-224.809 15.7035 -223.437 14.7903 -222.684 13.3966C-222.044 12.5742 -221.426 13.0548 -220.602 13.6956C-219.001 14.6113 -219.001 14.6113 -217.835 13.538C-217.516 13.1268 -216.99 12.8758 -216.464 12.6248C-215.001 12.4432 -213.491 12.6274 -212.692 11.5994C-212.372 11.1883 -211.754 11.6688 -212.074 12.08C-212.507 13.0625 -212.781 13.8395 -212.277 14.8914C-212.231 15.2572 -212.025 15.4174 -211.773 15.9434C-209.83 15.145 -210.491 17.2703 -209.668 17.911C-209.05 18.3916 -208.478 18.5064 -207.952 18.2554C-207.426 18.0044 -207.313 17.433 -206.833 16.8163C-206.353 16.1995 -205.781 16.3143 -205.689 17.0459C-205.711 18.3488 -204.361 18.7385 -204.063 19.6303C-203.719 20.8878 -203.559 20.6822 -202.622 20.7516C-201.684 20.821 -201.684 20.821 -201.662 19.5181C-201.434 18.3753 -201.001 17.3928 -201.345 16.1353C-201.849 15.0833 -201.621 13.9406 -201.759 12.8433C-200.296 12.6617 -198.786 12.8459 -198.307 12.2291C-197.141 11.1557 -195.06 11.4547 -194.513 9.9008C-193.483 10.7017 -192.797 10.2452 -192.683 9.67381C-192.456 8.53107 -192.594 7.43374 -193.464 6.42721C-192.778 5.97063 -192.87 5.23907 -191.772 5.10287C-189.783 4.67029 -189.829 4.30451 -187.751 1.63185C-187.271 1.01509 -186.791 0.398322 -186.311 -0.218444C-185.992 -0.629622 -185.26 -0.720422 -184.802 -0.0342655C-183.772 0.766678 -183.292 0.149912 -182.813 -0.466854C-182.653 -0.672444 -182.081 -0.557654 -181.715 -0.603052C-181.783 0.334091 -180.913 1.34062 -180.455 2.02678C-179.997 2.71293 -180.683 3.16951 -181.003 3.58069C-182.374 4.49384 -181.458 5.86615 -181.32 6.96349C-181.114 7.12367 -180.29 7.76443 -179.924 7.71903C-178.987 7.78842 -178.255 7.69762 -178.483 8.84035C-178.596 9.41172 -178.39 9.57191 -177.659 9.48111C-176.401 9.13932 -175.737 9.98566 -174.914 10.6264C-174.708 10.7866 -174.456 11.3126 -174.41 11.6784C-174.41 11.6784 -174.775 11.7237 -175.141 11.7691C-175.713 11.6544 -176.697 11.2192 -176.697 11.2192C-177.336 12.0415 -178.388 12.5435 -178.044 13.801C-177.746 14.6928 -178.225 15.3096 -178.499 16.0865C-178.659 16.2921 -178.407 16.8181 -178.407 16.8181C-178.041 16.7727 -177.469 16.8875 -177.31 16.6819C-176.67 15.8595 -176.19 15.2427 -175.551 14.4204C-175.231 14.0092 -174.499 13.9184 -173.881 14.399C-173.263 14.8795 -172.599 15.7259 -171.868 15.6351C-170.244 15.2479 -169.58 16.0942 -169.396 17.5574C-169.098 18.4491 -168.412 17.9925 -168.047 17.9471C-166.377 17.9257 -166.263 17.3543 -166.288 15.6856C-166.426 14.5883 -167.25 13.9476 -167.754 12.8956L-167.068 12.4391C-166.038 13.24 -165.26 13.515 -164.461 12.487C-164.301 12.2814 -163.729 12.3962 -163.363 12.3508C-163.317 12.7166 -163.271 13.0824 -163.591 13.4936C-163.933 15.2077 -164.093 15.4132 -162.011 15.7122C-160.708 15.7362 -160.044 16.5825 -159.22 17.2233C-158.602 17.7039 -158.51 18.4354 -159.036 18.6864C-159.721 19.143 -159.469 19.669 -158.852 20.1495C-157.822 20.9505 -156.998 21.5912 -156.608 23.2145C-156.516 23.9461 -154.96 24.496 -154.662 25.3878C-154.364 26.2795 -154.272 27.0111 -153.22 26.5091C-152.695 26.2581 -152.489 26.4183 -152.397 27.1499C-152.35 27.5156 -152.464 28.087 -152.052 28.4074C-151.641 28.7278 -151.069 28.8425 -150.291 29.1175C-150.337 28.7517 -150.383 28.386 -150.429 28.0202C-150.475 27.6544 -150.155 27.2432 -150.201 26.8775C-148.966 27.8386 -147.73 28.7997 -146.494 29.7608C-146.288 29.921 -146.608 30.3322 -146.768 30.5378C-146.768 30.5378 -147.134 30.5832 -147.34 30.423C-147.752 30.1026 -147.958 29.9425 -148.37 29.6221C-148.575 29.4619 -148.735 29.6675 -149.101 29.7129C-149.101 29.7129 -149.261 29.9185 -149.055 30.0786C-149.009 30.4444 -148.597 30.7648 -148.391 30.925C-147.202 31.5204 -146.857 32.7779 -146.353 33.8298C-145.988 33.7844 -145.668 33.3732 -145.302 33.3278C-144.456 32.6657 -143.313 32.8952 -143.427 33.4666C-143.196 35.2955 -141.595 36.2112 -140.519 37.3779C-139.443 38.5447 -139.213 40.3736 -137.451 41.0837C-137.039 41.4041 -137.359 41.8153 -138.091 41.9061C-138.617 42.157 -139.302 42.6136 -139.622 43.0248C-139.782 43.2304 -139.69 43.9619 -139.484 44.1221C-138.134 44.5119 -136.831 44.5359 -135.321 44.7201C-134.384 44.7895 -133.926 45.4756 -133.788 46.5729C-133.742 46.9387 -133.49 47.4647 -133.284 47.6249C-133.078 47.7851 -132.872 47.9452 -132.872 47.9452C-130.929 47.1469 -129.622 50.1425 -127.839 49.5497C-125.37 48.5004 -123.858 51.6562 -121.503 51.1782C-121.799 53.258 -120.061 52.2995 -119.238 52.9402C-118.002 53.9014 -116.766 54.8625 -115.53 55.8236C-114.501 56.6246 -113.471 57.4255 -112.441 58.2265C-110.634 59.3024 -109.672 61.0405 -109.647 62.7092C-109.509 63.8065 -108.664 63.1444 -108.458 63.3045C-108.252 63.4647 -107.52 63.3739 -107.474 63.7397C-107.222 64.2657 -106.97 64.7916 -106.718 65.3176C-106.42 66.2093 -105.596 66.8501 -105.092 67.902C-104.794 68.7938 -103.423 67.8806 -102.279 68.1102C-101.913 68.0648 -101.547 68.0194 -100.975 68.1342C-98.7802 67.8618 -98.5743 68.022 -98.092 70.3768C-97.84 70.9028 -97.9538 71.4742 -97.7018 72.0001C-95.8725 71.7731 -93.8833 71.3405 -92.3495 73.1934C-91.9376 73.5138 -91.046 73.2174 -90.4742 73.3322C-90.4742 73.3322 -90.0162 74.0184 -90.1761 74.2239C-90.9756 75.2519 -90.8835 75.9834 -89.6938 76.5788C-89.2819 76.8992 -88.6641 77.3797 -88.0922 77.4945C-87.1546 77.5639 -86.8808 76.787 -87.019 75.6896C-87.065 75.3239 -86.9051 75.1183 -86.9512 74.7525C-86.7452 74.9127 -86.1734 75.0275 -85.9675 75.1877C-85.7615 75.3478 -85.5095 75.8738 -85.4634 76.2396C-85.4174 76.6054 -85.7372 77.0165 -85.8971 77.2221C-87.0625 78.2955 -86.5584 79.3474 -86.2143 80.6049C-86.1683 80.9707 -85.3444 81.6115 -84.7726 81.7263C-83.1033 81.7048 -81.6398 81.5232 -79.8783 82.2334C-78.6886 82.8287 -78.5287 82.6232 -78.4366 83.3547C-78.2524 84.8178 -77.9083 86.0753 -76.3067 86.9911C-74.9111 87.7466 -73.7892 89.2791 -71.8 88.8465C-71.4341 88.8011 -71.1821 89.3271 -70.9301 89.8531C-70.632 90.7448 -70.5399 91.4764 -70.4478 92.2079C-70.1037 93.4654 -69.326 93.7404 -68.1823 93.97C-66.8788 93.994 -66.6728 94.1542 -66.5347 95.2515C-66.3965 96.3488 -65.9846 96.6692 -65.093 96.3728C-64.9331 96.1672 -64.7271 96.3274 -64.5212 96.4876C-64.1093 96.808 -63.6973 97.1284 -63.4914 97.2886C-63.6052 97.8599 -63.5131 98.5915 -64.0389 98.8425C-64.7246 99.299 -66.0741 98.9093 -66.5078 99.8918C-67.2152 101.651 -68.451 100.69 -69.4347 100.255C-69.6406 100.095 -69.8005 100.3 -69.8005 100.3C-69.3643 102.289 -69.2939 104.324 -68.8577 106.313C-68.4919 106.268 -68.2859 106.428 -68.126 106.222C-67.3265 105.194 -66.5948 105.104 -65.1531 106.225C-63.5054 107.506 -62.248 107.165 -60.6029 105.474C-59.7791 106.115 -58.9552 106.756 -58.1314 107.397C-57.7195 107.717 -57.8333 108.288 -58.5651 108.379C-59.1369 108.264 -59.7765 109.087 -59.2047 109.202C-57.809 109.957 -58.3565 111.511 -57.3268 112.312C-57.4867 112.518 -57.4867 112.518 -57.6466 112.723C-58.606 113.957 -58.2619 115.214 -56.9583 115.238C-55.6548 115.262 -55.083 115.377 -55.1047 116.68C-55.1047 116.68 -54.327 116.955 -54.1671 116.749C-53.8473 116.338 -53.5274 115.927 -53.0477 115.31C-52.5898 115.996 -51.9041 115.54 -51.3323 115.655C-50.9664 115.609 -50.3486 116.09 -50.8743 116.341C-52.5194 118.031 -49.7742 119.176 -49.9558 120.685C-49.9558 120.685 -49.384 120.799 -49.1781 120.96C-48.6063 121.074 -48.0805 120.823 -47.3488 120.733C-47.6008 120.207 -47.8067 120.046 -47.8528 119.681C-47.8988 119.315 -48.4706 119.2 -48.5167 118.834C-48.6088 118.103 -47.6033 117.235 -47.1914 117.555C-45.9557 118.517 -44.9259 119.317 -43.2565 119.296C-42.5248 119.205 -41.6089 120.578 -40.785 121.218L-38.7255 122.82C-39.525 123.848 -40.2785 125.242 -41.2839 126.11C-42.2894 126.977 -41.7854 128.029 -41.4873 128.921C-41.1432 130.179 -40.3654 130.454 -39.2679 130.317C-38.1703 130.181 -37.7123 130.867 -37.0945 131.348C-36.4766 131.828 -36.1107 131.783 -35.4251 131.326C-34.8993 131.076 -34.3735 130.825 -34.0077 130.779C-34.1215 131.35 -34.4413 131.762 -34.5552 132.333C-34.4631 133.065 -34.5309 134.002 -34.0729 134.688C-33.8209 135.214 -32.9971 135.855 -32.6312 135.809C-31.1678 135.628 -30.9158 136.154 -30.9375 137.456C-30.5717 137.411 -30.1598 137.731 -29.634 137.48C-29.1082 137.229 -29.0622 137.595 -28.8102 138.121C-28.0081 140.065 -28.0081 140.065 -26.3387 140.043C-25.2411 139.907 -25.2411 139.907 -25.3793 138.81C-25.3115 137.873 -24.4659 137.211 -24.81 135.953C-25.268 135.267 -24.9482 134.856 -26.2517 134.832C-27.1894 134.762 -27.6474 134.076 -28.4712 133.436C-29.249 133.161 -29.3871 132.063 -29.0213 132.018C-26.7583 130.808 -27.9045 127.607 -26.2594 125.917C-26.0995 125.711 -26.7634 124.865 -27.0154 124.339C-26.9016 123.768 -27.3135 123.447 -27.3595 123.082C-26.2159 123.311 -24.3649 121.781 -24.4084 124.387C-22.6008 125.463 -22.0047 127.246 -21.7744 129.075C-21.5902 130.538 -21.0401 131.956 -19.6445 132.712C-18.4548 133.307 -17.5849 134.314 -16.5552 135.115C-16.3492 135.275 -15.7774 135.39 -15.4115 135.344C-15.4576 134.978 -15.7096 134.452 -15.9156 134.292C-17.1513 133.331 -16.8775 132.554 -16.032 131.892C-15.7122 131.481 -15.1864 131.23 -14.7067 130.613C-14.4086 131.505 -14.3626 131.87 -14.2705 132.602C-13.9264 133.86 -13.7665 133.654 -12.1649 134.57C-10.9752 135.165 -10.1974 135.44 -9.60384 134.252C-9.44394 134.046 -8.87213 134.161 -8.66617 134.321C-8.41417 134.847 -8.32207 135.579 -8.07007 136.105C-7.6121 136.791 -6.62837 137.226 -6.1704 137.912C-5.91839 138.438 -5.98618 139.375 -5.41437 139.49C-4.22468 140.086 -5.13805 141.685 -3.83452 141.709C-3.26271 141.824 -2.66914 140.635 -2.34933 140.224C-2.02953 139.813 -1.45771 139.928 -0.679949 140.203C0.303776 140.638 -0.769486 142.443 0.899909 142.422C2.36334 142.24 1.92967 143.222 2.18169 143.748C2.63965 144.435 3.46347 145.075 4.08135 145.556C5.06508 145.991 6.64236 145.238 6.78051 146.335C7.37664 148.119 9.02429 149.4 8.88869 151.275C8.86696 152.578 9.2328 152.532 10.0784 151.87C11.2898 151.163 11.8616 151.277 12.3656 152.329C12.6176 152.855 12.3899 153.998 13.6474 153.656C14.1732 153.405 14.3791 153.565 14.6312 154.091C14.7233 154.823 14.9753 155.349 14.8614 155.92C15.0917 157.749 15.0917 157.749 17.6066 157.066C17.9725 157.02 18.4983 156.769 18.7042 156.929C20.1459 158.051 21.5876 159.172 22.8233 160.133C23.8531 160.934 23.7853 161.871 24.0834 162.763C24.3814 163.655 23.17 164.362 23.674 165.414C24.178 166.466 24.1103 167.403 24.2484 168.501C24.9801 168.41 25.7118 168.319 26.6495 168.388C28.6848 168.322 28.5249 168.527 28.2754 170.973C28.1155 171.178 28.3215 171.339 28.3675 171.704C29.0314 172.551 31.9123 171.822 31.6142 170.93C30.972 168.781 32.5276 169.331 33.6252 169.194C34.5628 169.264 35.1807 169.744 35.3189 170.842C35.3892 172.876 36.3051 174.249 38.3186 175.485C41.5679 177.682 41.5679 177.682 43.6518 180.953C43.9038 181.478 45.2534 181.868 45.7331 181.251C46.8984 180.178 47.1044 180.338 47.4946 181.962C47.5406 182.327 49.21 182.306 49.2561 182.672C49.3942 183.769 50.0581 184.615 50.882 185.256C53.3534 187.178 55.8249 189.101 58.2964 191.023C59.3261 191.824 60.3559 192.625 61.6134 192.283C61.9793 192.238 62.6432 193.084 62.6893 193.45C62.9873 194.342 63.0794 195.073 64.0632 195.508C65.0469 195.943 65.139 196.675 65.437 197.567C65.5752 198.664 65.7351 198.458 67.9546 199.855C68.3665 200.175 68.8245 200.861 68.8705 201.227C69.0087 202.324 69.6943 201.868 70.2661 201.983C71.6157 202.372 71.7756 202.167 72.1198 203.424C72.602 205.779 73.1495 204.225 73.8352 203.769C73.9951 203.563 74.5669 203.678 74.9328 203.633C75.3472 206.925 77.2661 204.457 79.2335 205.328C79.2796 205.694 79.2118 206.631 79.3039 207.362C79.5559 207.888 79.648 208.62 80.0599 208.94C81.1358 210.107 82.5314 210.862 83.3335 212.806C83.9296 214.59 85.8049 214.728 88.2739 213.679C88.7996 213.428 89.3254 213.177 89.7373 213.497C90.5611 214.138 90.8131 214.664 90.1735 215.486C90.0136 215.692 89.7398 216.469 89.9458 216.629C91.5934 217.911 91.2519 219.625 91.802 221.043C92.5337 220.952 93.4714 221.021 94.2031 220.93C95.6665 220.749 96.0785 221.069 96.2627 222.532C96.5607 223.424 96.6528 224.156 96.791 225.253C97.8885 225.117 98.6203 225.026 99.5119 224.729C100.404 224.433 101.913 224.617 102.737 225.258C103.561 225.899 104.384 226.54 104.363 227.842C104.409 228.208 106.078 228.187 106.124 228.553C106.422 229.444 106.674 229.97 107.498 230.611C108.322 231.252 109.146 231.893 110.105 230.659C110.425 230.248 111.157 230.157 111.775 230.638C111.615 230.843 111.295 231.254 111.135 231.46C110.815 231.871 110.747 232.808 111.273 232.557C113.102 232.33 114.018 233.703 115.048 234.504C115.872 235.144 116.398 234.893 117.083 234.437C117.769 233.98 118.707 234.05 119.438 233.959C120.17 233.868 120.994 234.509 121.04 234.874C121.224 236.338 122.048 236.978 122.918 237.985C123.536 238.465 123.468 239.403 123.766 240.294C124.248 242.649 125.026 242.924 127.221 242.652C127.747 242.401 128.067 241.99 128.593 241.739C128.753 241.533 129.324 241.648 129.324 241.648C129.37 242.014 129.622 242.54 129.622 242.54C127.977 244.23 131.088 245.33 130.701 246.678C131.067 246.632 131.067 246.632 131.432 246.587C132.69 246.245 133.354 247.092 134.178 247.732C136.283 249.7 136.123 249.906 137.015 249.609C139.164 248.971 140.972 250.047 142.779 251.123C144.974 250.851 145.319 252.108 145.503 253.571C145.755 254.097 145.641 254.668 145.939 255.56C146.625 255.104 146.944 254.692 147.264 254.281C147.904 253.459 148.384 252.842 149.619 253.803C150.237 254.284 150.695 254.97 151.793 254.834C153.256 254.652 152.982 255.429 152.503 256.046C152.023 256.663 152.275 257.189 152.687 257.509C153.099 257.829 154.242 258.059 154.402 257.853C155.11 256.094 156.644 257.947 157.535 257.65C159.524 257.218 158.611 258.817 159.229 259.298C160.053 259.938 160.305 260.464 160.443 261.562C160.535 262.293 160.581 262.659 160.673 263.391L161.085 263.711C161.451 263.666 161.611 263.46 162.137 263.209C162.296 263.003 162.616 262.592 162.776 262.387C163.394 262.867 164.378 263.302 164.218 263.508C164.082 265.382 165.386 265.406 166.483 265.27L166.895 265.59C168.245 265.98 168.771 265.729 168.792 264.426C168.746 264.061 168.7 263.695 168.654 263.329C169.752 263.193 170.689 263.262 171.787 263.126C173.41 262.739 174.12 263.951 175.15 264.752C175.356 264.912 175.242 265.483 175.082 265.689C174.922 265.895 174.603 266.306 174.237 266.351C173.139 266.487 172.429 265.275 171.378 265.777C170.852 266.028 169.822 265.227 170.166 266.485C170.212 266.851 171.036 267.491 171.608 267.606C174.009 267.494 175.497 268.981 176.505 271.085C176.757 271.611 177.009 272.137 177.627 272.617C178.703 273.784 179.068 273.739 180.074 272.871C180.234 272.665 180.554 272.254 180.714 272.049C181.033 271.637 181.765 271.547 182.383 272.027C183.825 273.149 185.632 274.224 185.543 276.464C185.383 276.67 185.589 276.83 185.635 277.196C186.047 277.516 186.505 278.203 186.916 278.523C187.122 278.683 187.648 278.432 187.968 278.021C188.288 277.61 188.562 276.833 189.087 276.582C189.453 276.536 190.391 276.606 190.803 276.926C191.421 277.407 191.513 278.138 190.987 278.389C190.461 278.64 189.935 278.891 189.364 278.777C188.998 278.822 188.472 279.073 189.09 279.553C190.944 280.995 192.157 283.259 195.084 282.896C195.816 282.805 196.32 283.857 196.252 284.794C196.092 285 196.298 285.16 196.504 285.32C196.71 285.48 197.076 285.435 197.076 285.435C198.288 284.727 198.629 283.013 200.345 283.358C200.298 282.992 200.252 282.626 200.206 282.26C200.16 281.895 200.16 281.895 200.114 281.529C200.48 281.483 200.846 281.438 201.258 281.758C201.464 281.919 202.082 282.399 202.128 282.765C202.198 284.799 203.342 285.029 205.011 285.008C205.377 284.962 205.675 285.854 206.293 286.335C206.133 286.54 205.767 286.586 205.401 286.631C205.241 286.837 205.035 286.676 204.67 286.722C204.51 286.927 203.984 287.178 203.824 287.384C203.664 287.589 203.916 288.115 203.962 288.481C204.328 288.436 204.328 288.436 204.694 288.39C205.266 288.505 205.792 288.254 205.884 288.986C205.93 289.352 206.182 289.878 206.022 290.083C205.794 291.226 205.612 292.734 205.385 293.877C205.431 294.243 205.111 294.654 205.157 295.02C205.821 295.866 206.805 296.301 205.845 297.535C204.886 298.768 204.084 296.825 203.192 297.121C202.301 297.418 201.523 297.143 200.859 296.296C199.989 295.29 199.097 295.586 198 295.722C197.634 295.768 197.634 295.768 197.268 295.813C197.268 295.813 197.314 296.179 197.154 296.384C197.36 296.545 197.2 296.75 197.406 296.91C199.054 298.192 201.273 299.588 202.395 301.121C203.357 302.859 203.268 305.099 203.704 307.088C204.14 309.077 202.609 310.196 200.276 309.371C199.498 309.096 198.834 308.249 198.056 307.974C197.85 307.814 197.53 308.226 196.593 308.156C194.853 306.143 193.595 306.485 192.132 306.666C192.132 306.666 191.972 306.872 192.018 307.238C192.224 307.398 192.064 307.604 192.27 307.764C193.186 309.136 194.717 308.017 195.747 308.818C196.571 309.459 197.622 308.957 197.21 308.637C196.799 308.316 196.593 308.156 196.593 308.156C198.034 309.277 199.59 309.827 198.311 311.472C198.151 311.678 198.243 312.409 198.449 312.569C199.273 313.21 199.777 314.262 201.08 314.286C201.446 314.241 202.338 313.944 202.27 314.881C202.408 315.979 202.866 316.665 204.17 316.689C204.741 316.804 205.313 316.918 205.725 317.239C207.281 317.789 206.617 316.942 206.89 316.166C207.004 315.594 207.324 315.183 207.438 314.612C208.078 313.789 208.877 312.761 209.517 311.939C213.292 313.885 213.292 313.885 213.866 316.972C212.722 316.742 211.877 317.404 210.641 316.443C210.687 316.809 211.053 316.763 211.167 316.192C211.327 315.986 211.121 315.826 210.915 315.666C210.709 315.506 210.457 314.98 210.251 314.82C210.045 314.66 209.473 314.545 209.107 314.59C209.153 314.956 209.199 315.322 209.245 315.688C209.451 315.848 209.863 316.168 210.481 316.649C209.888 317.837 210.917 318.638 210.896 319.941C212.359 319.759 213.869 319.943 215.126 319.601C215.858 319.511 216.405 317.957 217.481 319.124C218.717 320.085 220.524 321.161 220.389 323.035C220.275 323.606 220.161 324.178 219.841 324.589C219.522 325 218.332 324.405 217.874 323.718C216.912 321.98 215.608 321.956 214.443 323.03C213.963 323.646 214.513 325.064 215.405 324.768C216.868 324.586 217.852 325.021 218.722 326.028C219.34 326.508 219.524 327.972 218.792 328.062C217.329 328.244 216.117 328.951 215.524 330.14C215.364 330.345 214.952 330.025 214.586 330.07C214.768 328.562 213.212 328.012 212.548 327.165C211.885 326.319 211.334 324.901 212.134 323.873C212.294 323.668 212.248 323.302 212.362 322.731C211.63 322.822 211.264 322.867 210.692 322.752C209.755 322.683 210.007 323.209 209.893 323.78C209.757 325.654 209.757 325.654 207.63 324.99C207.424 324.829 206.852 324.715 206.486 324.76C206.99 325.812 207.174 327.275 207.998 327.916C209.028 328.717 208.892 330.591 209.83 330.66C210.928 330.524 211.638 331.736 212.735 331.6C213.627 331.304 214.245 331.784 215.069 332.425C216.716 333.707 218.57 335.148 220.217 336.43C220.629 336.75 221.407 337.025 221.979 337.14C224.22 337.233 222.849 338.146 222.575 338.923C222.415 339.129 222.667 339.655 222.873 339.815L223.445 339.93C224.518 338.125 225.89 337.212 228.475 338.563C228.681 338.723 229.253 338.838 229.778 338.587C231.927 337.949 233.209 339.276 234.857 340.557C234.377 341.174 234.469 341.905 235.339 342.912C235.751 343.232 235.705 342.867 235.499 342.706L235.087 342.386C235.087 342.386 234.927 342.592 234.767 342.797C234.813 343.163 234.86 343.529 235.065 343.689C235.065 343.689 235.431 343.643 235.339 342.912C235.567 341.769 235.475 341.038 234.857 340.557C235.497 339.735 235.884 338.386 237.532 339.668C238.927 340.423 239.795 338.458 241.304 338.643C241.898 337.454 242.676 337.729 243.705 338.53C244.735 339.331 245.765 340.132 246.795 340.933C247.001 341.093 247.093 341.825 246.933 342.03C246.499 343.013 245.7 344.041 245.06 344.863C244.9 345.069 245.106 345.229 245.312 345.389C245.312 345.389 245.678 345.344 245.884 345.504C246.044 345.298 246.57 345.047 246.729 344.842C247.963 342.831 249.494 341.713 252.125 343.429C252.537 343.75 253.337 342.722 254.068 342.631C254.8 342.54 255.624 343.181 256.196 343.296C257.063 341.331 258.391 343.023 259.74 343.413C259.556 341.95 259.258 341.058 259.12 339.961L259.806 339.504C260.424 339.985 261.613 340.58 261.865 341.106C262.234 344.032 264.887 344.446 266.581 346.093C266.786 346.254 267.152 346.208 267.152 346.208C267.106 345.842 267.266 345.637 267.22 345.271C267.174 344.905 267.174 344.905 266.922 344.379C268.591 344.358 270.627 344.291 272.456 344.064C273.394 344.134 274.171 344.409 274.104 345.346C274.288 346.809 275.637 347.199 275.822 348.662C275.754 349.599 277.15 350.354 277.469 349.943C277.469 349.943 277.629 349.738 277.583 349.372C277.537 349.006 277.491 348.64 277.239 348.114C278.337 347.978 279.64 348.002 280.738 347.866C280.44 346.974 280.348 346.243 280.415 345.305C280.231 343.842 281.077 343.18 282.128 342.678C282.288 342.473 283.066 342.748 283.112 343.113C283.364 343.639 283.616 344.165 283.868 344.691C284.166 345.583 284.098 346.52 284.968 347.527C286.204 348.488 284.627 349.241 284.193 350.223L284.353 350.018L283.941 349.697C283.369 349.583 282.797 349.468 283.095 350.36C283.095 350.36 283.667 350.474 284.193 350.223C284.971 350.498 285.429 351.184 285.795 351.139C287.304 351.323 288.927 350.936 290.689 351.646C292.084 352.402 293.822 351.443 295.423 352.359C295.835 352.679 296.635 351.651 297.32 351.195C297.412 351.926 297.664 352.452 297.757 353.184C298.055 354.076 297.689 354.121 296.957 354.212C296.225 354.303 295.494 354.393 294.51 353.958C293.526 353.523 292.635 353.819 291.537 353.956C291.195 355.67 288.816 354.479 288.269 356.033C287.675 357.221 286.876 358.249 285.71 359.322C285.024 359.779 283.927 359.915 283.241 360.372C282.715 360.623 282.602 361.194 282.488 361.765C282.328 361.971 282.534 362.131 282.58 362.497C283.244 363.343 283.816 363.458 284.913 363.322C285.645 363.231 286.583 363.3 286.079 362.249C285.827 361.723 286.146 361.311 286.558 361.632C287.748 362.227 288.778 363.028 289.807 363.829C290.837 364.63 291.615 364.905 292.713 364.769C292.713 364.769 292.965 365.295 293.011 365.661C293.973 367.399 294.385 367.719 295.55 366.646C295.87 366.234 296.19 365.823 296.715 365.572C296.875 365.367 297.653 365.642 297.859 365.802C298.065 365.962 298.523 366.648 298.523 366.648C298.089 367.631 297.29 368.659 296.65 369.481C296.33 369.892 295.552 369.617 295.027 369.868C293.769 370.21 292.647 368.678 291.596 369.18C291.23 369.225 290.864 369.27 290.498 369.316C290.544 369.681 290.796 370.207 291.002 370.368C292.032 371.169 292.696 372.015 293.246 373.433C293.544 374.324 295.306 375.035 296.175 376.041C296.633 376.727 296.726 377.459 296.658 378.396C296.704 378.762 296.064 379.584 295.698 379.629C294.601 379.766 293.503 379.902 292.267 378.941C290.62 377.659 290.094 377.91 290.004 380.15C289.845 380.356 290.257 380.676 290.097 380.882C289.777 381.293 289.503 382.07 288.725 381.795C287.742 381.36 286.964 381.085 285.66 381.061C284.723 380.991 284.265 380.305 284.332 379.368C284.446 378.797 284.034 378.476 283.509 378.727C282.823 379.184 282.343 379.801 281.863 380.417C281.544 380.829 280.812 380.919 280.194 380.439C279.164 379.638 278.454 378.426 277.175 380.071C276.695 380.687 275.346 380.298 274.248 380.434C273.517 380.525 273.037 381.141 272.145 381.438C271.048 381.574 270.11 381.505 269.012 381.641C268.647 381.686 268.235 381.366 267.869 381.411C266.359 381.227 266.359 381.227 266.703 382.484C266.749 382.85 266.795 383.216 267.047 383.742C267.552 384.794 266.362 384.199 266.042 384.61C264.671 385.523 263.001 385.544 261.538 385.726C260.074 385.908 258.909 386.981 257.492 387.528C256.6 387.825 256.096 386.773 255.318 386.498C255.112 386.338 254.335 386.063 254.175 386.268C253.855 386.679 253.169 387.136 253.215 387.502C253.147 388.439 253.651 389.491 253.79 390.588C252.486 390.564 251.388 390.7 250.085 390.676C248.987 390.813 247.844 390.583 246.952 390.879C246.06 391.176 245.169 391.472 244.483 391.929C243.478 392.796 242.746 392.887 241.51 391.926C239.703 390.85 237.621 390.551 235.974 389.27C234.738 388.309 235.082 389.566 235.174 390.298C235.014 390.503 235.22 390.663 235.06 390.869C234.535 391.12 234.215 391.531 233.689 391.782C233.643 391.416 233.597 391.051 233.345 390.525C233.139 390.364 233.299 390.159 233.093 389.999C230.852 389.905 228.749 390.909 226.529 389.513C225.112 390.06 224.196 388.688 223.212 388.253C222.594 387.772 221.724 386.766 221.291 387.748C220.971 388.159 221.155 389.623 221.773 390.103C222.437 390.949 223.101 391.796 224.404 391.82C225.548 392.049 225.548 392.049 225.846 392.941C225.892 393.307 225.938 393.673 226.19 394.199C225.047 393.969 223.903 393.74 222.759 393.51C221.982 393.235 221.364 392.754 221.226 391.657C221.087 390.56 220.402 391.016 220.036 391.062C219.304 391.153 219.304 391.153 219.212 390.421C219.074 389.324 218.57 388.272 217.312 388.613C215.529 389.206 213.676 387.765 211.846 387.992C210.749 388.128 210.589 388.333 211.459 389.34C212.123 390.186 212.009 390.758 212.307 391.649C212.605 392.541 212.239 392.586 211.507 392.677C210.776 392.768 209.838 392.699 209.106 392.789C209.084 394.092 210.434 394.482 211.052 394.963C211.67 395.443 211.35 395.854 211.076 396.631C210.483 397.82 211.147 398.666 212.45 398.69C213.754 398.714 214.965 398.006 215.995 398.807C216.041 399.173 215.721 399.584 215.767 399.95C216.019 400.476 216.477 401.162 216.935 401.848C216.043 402.145 215.539 401.093 214.762 400.818C213.778 400.383 212.68 400.519 211.857 399.878C210.415 398.757 210.233 400.265 209.342 400.562C208.976 400.607 208.404 400.492 208.358 400.126C208.152 399.966 207.9 399.44 207.854 399.075C207.464 397.451 206.388 396.284 204.924 396.466C203.621 396.442 202.957 395.596 201.973 395.161C200.784 394.565 200.098 395.022 200.076 396.325C200.168 397.056 200.146 398.359 199.575 398.244C196.762 398.036 195.276 399.521 193.631 401.211C193.471 401.416 193.265 401.256 193.059 401.096C193.059 401.096 193.013 400.73 192.808 400.57C192.967 400.365 193.081 399.793 193.241 399.588C193.675 398.605 192.691 398.17 192.073 397.689C191.455 397.209 190.791 396.362 189.992 397.39C189.033 398.624 188.209 397.983 187.545 397.137C186.515 396.336 185.783 396.427 185.144 397.249C184.984 397.455 184 397.019 183.428 396.905C182.604 396.264 183.106 394.344 181.163 395.143C180.133 394.342 179.103 393.541 177.913 392.945C177.707 392.785 176.976 392.876 176.816 393.082C176.176 393.904 175.697 394.521 175.057 395.343C174.577 395.96 174.005 395.845 173.388 395.364C172.77 394.884 172.198 394.769 171.878 395.18C171.032 395.842 170.599 396.825 170.119 397.442C168.954 398.515 168.816 397.418 168.723 396.686C168.837 396.115 168.219 395.634 168.106 396.206C167.512 397.394 165.751 396.684 165.111 397.506C164.471 398.328 163.694 398.053 162.962 398.144C161.864 398.28 160.582 396.953 159.531 397.455C158.639 397.752 157.634 398.62 157.062 398.505C155.712 398.115 154.637 396.948 155.325 399.463C155.623 400.355 155.715 401.087 155.807 401.818C155.853 402.184 156.105 402.71 155.945 402.915C155.991 403.281 155.672 403.692 155.306 403.738C154.94 403.783 154.574 403.829 154.162 403.508C153.544 403.028 152.72 402.387 152.102 401.906C151.691 401.586 151.279 401.266 150.913 401.311C149.243 401.332 147.986 401.674 146.178 400.598C145.149 399.797 143.067 399.498 141.558 399.314C140.986 399.199 140.734 398.673 141.054 398.262C141.374 397.851 141.647 397.074 142.173 396.823C143.431 396.481 144.368 396.551 143.772 394.767C143.726 394.401 144.412 393.945 144.732 393.534C144.938 393.694 145.715 393.969 145.875 393.763C146.561 393.307 145.943 392.826 145.325 392.346L145.531 392.506C145.531 392.506 145.691 392.3 145.851 392.095C145.805 391.729 145.713 390.997 145.187 391.248C145.187 391.248 145.073 391.82 145.325 392.346C145.211 392.917 145.051 393.123 144.891 393.328C143.084 392.252 141.439 393.942 139.585 392.501C139.173 392.18 138.008 393.254 138.466 393.94C138.924 394.626 139.382 395.312 139.84 395.998C140.642 397.942 139.523 399.381 137.327 399.653C136.962 399.699 136.596 399.744 136.23 399.79C135.52 398.577 137.669 397.939 136.021 396.658C134.786 395.697 133.848 395.627 132.544 395.603C131.813 395.694 131.081 395.785 130.669 395.464C129.433 394.503 128.748 394.96 128.108 395.782C128.108 395.782 127.536 395.667 127.33 395.507C127.078 394.981 126.986 394.25 126.574 393.929C125.704 392.923 124.173 394.042 123.097 392.875C123.097 392.875 122.366 392.966 122.206 393.171C121.68 393.422 120.994 393.879 120.788 393.719C120.01 393.444 119.347 392.597 118.729 392.117C118.317 391.796 118.225 391.065 118.179 390.699C116.601 391.452 115.593 389.348 114.29 389.324C113.924 389.37 113.764 389.575 113.238 389.826C112.187 390.328 112.187 390.328 111.751 388.339C110.653 388.475 109.761 388.772 108.824 388.702C107.154 388.724 105.371 389.316 105.209 386.55C103.355 385.109 102.141 382.845 99.374 383.002C97.8402 381.149 95.5311 381.993 93.8375 380.346C91.7318 378.378 91.5719 378.584 88.1871 378.261C87.6153 378.146 86.6316 377.711 86.5855 377.345C86.3553 375.516 85.5314 374.875 83.4962 374.942C82.7645 375.033 81.5748 374.438 80.6371 374.368C79.6994 374.299 78.8295 373.292 78.3255 372.24C77.8676 371.554 77.9354 370.617 76.9516 370.182C75.556 369.426 74.594 367.688 73.1306 367.87C71.4612 367.891 70.7051 366.313 69.7675 366.244C68.0981 366.266 67.0683 365.465 65.8326 364.503C63.5671 362.741 61.4615 360.774 59.036 359.217C56.6106 357.661 54.9387 354.711 51.5999 354.753C50.5701 353.952 49.5403 353.151 48.5105 352.351C47.4808 351.55 46.497 351.114 45.1474 350.725C43.638 350.54 41.9903 349.259 41.6001 347.636C41.3021 346.744 40.7763 346.995 40.2045 346.88C38.2831 346.376 37.0474 345.414 36.2913 343.837C35.8334 343.15 35.7413 342.419 34.9175 341.778C33.2238 340.131 30.5246 339.351 30.2022 336.791C28.7605 335.669 27.4327 333.977 25.2836 334.615C24.0261 334.957 23.5681 334.271 23.43 333.173C23.3839 332.807 22.7661 332.327 22.4002 332.372C20.411 332.805 19.1292 331.478 18.0534 330.311C17.0236 329.51 16.0398 329.075 14.7363 329.051C13.7986 328.982 13.0887 327.77 12.2648 327.129C10.8692 326.373 10.3652 325.321 10.3869 324.019C10.2948 323.287 10.2027 322.555 9.7908 322.235C7.20549 320.884 7.59308 319.536 9.07827 318.051C9.39808 317.64 9.87779 317.023 9.62579 316.497C8.96187 315.651 8.29795 314.805 8.36575 313.868C7.99987 313.913 7.42808 313.798 7.26817 314.004C6.9023 314.049 6.78846 314.621 6.62856 314.826C5.82904 315.854 5.46318 315.899 4.22746 314.938C3.19768 314.137 2.30604 314.434 1.16242 314.204C0.224726 314.135 -0.325325 312.717 -1.62886 312.693C-1.99472 312.738 -2.88636 313.035 -2.81855 312.098C-2.86461 311.732 -3.16266 310.84 -3.73447 310.725C-5.33605 309.81 -5.31434 308.507 -5.49855 307.044C-4.60692 306.747 -3.94298 307.594 -3.32512 308.074C-2.13543 308.67 -1.76959 308.624 -1.28988 308.007C-0.970076 307.596 -1.06219 306.865 -1.68005 306.384C-3.3277 305.103 -4.7694 303.981 -6.41705 302.7C-7.03491 302.219 -7.30866 302.996 -7.05666 303.522C-7.0106 303.888 -6.96452 304.254 -7.28432 304.665C-7.60413 305.076 -8.49576 305.372 -8.70172 305.212C-12.6149 302.169 -16.734 298.965 -20.6472 295.921C-21.2651 295.441 -21.1973 294.504 -21.8151 294.023C-22.227 293.703 -23.1187 293.999 -23.5306 293.679C-24.1024 293.564 -24.9262 292.923 -24.9723 292.557C-25.2486 290.363 -27.0561 289.287 -28.6577 288.371C-29.6875 287.57 -30.1455 286.884 -30.2836 285.787C-30.8555 285.672 -31.5872 285.763 -31.953 285.808C-31.7036 283.362 -33.9665 284.572 -34.8364 283.565C-35.2483 283.245 -35.5003 282.719 -35.8662 282.764C-37.7876 282.26 -37.0124 279.563 -38.7739 278.853C-39.9418 276.955 -41.8389 278.119 -43.2806 276.998C-43.8985 276.517 -44.5163 276.036 -44.6545 274.939C-45.0446 273.316 -47.6978 272.902 -47.1963 270.982C-48.638 269.861 -49.8738 268.9 -51.3154 267.779C-54.6082 268.187 -56.2801 265.237 -58.3397 263.635C-60.1933 262.193 -61.6132 259.769 -61.1118 257.849C-60.4504 255.724 -60.9762 255.975 -62.4396 256.157C-62.6021 253.391 -65.827 252.862 -66.789 251.124C-67.545 249.546 -67.6832 248.449 -69.6724 248.881C-71.8919 247.485 -74.2712 246.294 -75.4852 244.03C-75.6937 240.899 -75.3279 240.853 -74.6422 240.397C-74.4823 240.191 -74.6882 240.031 -74.8482 240.236L-75.168 240.648L-74.756 240.968C-74.3902 240.923 -74.0243 240.877 -73.8644 240.672C-74.0243 240.877 -74.0704 240.511 -74.6422 240.397ZM-41.7673 255.077C-42.1332 255.123 -42.3391 254.963 -42.705 255.008L-43.0248 255.419L-42.6129 255.74C-42.247 255.694 -41.8811 255.649 -41.7212 255.443C-41.7212 255.443 -41.7673 255.077 -43.2307 255.259C-44.0546 254.618 -44.4204 254.664 -45.3798 255.897C-45.2199 255.692 -45.06 255.486 -45.06 255.486C-45.3581 254.594 -46.022 253.748 -46.6859 252.902C-46.8919 252.741 -47.6697 252.466 -47.8296 252.672C-48.2632 253.655 -47.4611 255.598 -46.2715 256.194C-46.0655 256.354 -45.9056 256.148 -45.2199 255.692C-44.2362 256.127 -43.5045 256.036 -41.7673 255.077ZM-37.8784 256.452C-38.2443 256.498 -38.4503 256.338 -38.8161 256.383L-39.1359 256.794L-38.724 257.115C-38.3581 257.069 -37.9923 257.024 -37.8324 256.818C-37.8324 256.818 -37.8785 256.452 -39.6617 257.045C-39.5018 256.84 -39.3419 256.634 -39.3419 256.634L-39.7538 256.314C-40.3256 256.199 -40.8974 256.084 -40.5994 256.976C-40.5533 257.341 -39.8216 257.251 -37.8784 256.452ZM-199.679 38.2181C-199.725 37.8523 -199.565 37.6468 -199.612 37.281L-200.023 36.9606C-200.023 36.9606 -200.183 37.1662 -200.343 37.3718C-200.297 37.7376 -200.251 38.1033 -200.045 38.2635C-200.045 38.2635 -199.679 38.2181 -200.023 36.9606C-199.544 36.3438 -199.636 35.6123 -200.414 35.3373C-200.254 35.1317 -200.094 34.9261 -200.094 34.9261C-198.584 35.1103 -197.739 34.4481 -196.048 33.1238C-196.413 33.1692 -196.619 33.009 -196.985 33.0544L-197.305 33.4656L-196.893 33.786C-196.527 33.7406 -196.161 33.6952 -196.002 33.4896C-196.002 33.4896 -196.048 33.1238 -197.511 33.3054L-199.571 31.7035C-198.977 30.5154 -199.481 29.4635 -199.985 28.4115C-200.191 28.2513 -200.603 27.931 -200.969 27.9764C-201.335 28.0218 -201.86 28.2727 -201.814 28.6385C-202.042 29.7813 -202.064 31.0842 -201.034 31.8851C-201.628 33.0733 -201.284 34.3308 -200.414 35.3373C-201.099 35.7939 -201.053 36.1597 -199.679 38.2181ZM-197.659 20.3216C-197.706 19.9558 -197.546 19.7502 -197.752 19.59L-198.163 19.2697C-198.163 19.2697 -198.323 19.4753 -198.483 19.6808C-198.483 19.6808 -198.437 20.0466 -198.231 20.2068C-198.231 20.2068 -197.865 20.1614 -198.621 18.5835C-198.416 18.7437 -198.21 18.9039 -198.21 18.9039C-198.21 18.9039 -198.05 18.6983 -197.89 18.4927C-197.936 18.1269 -198.028 17.3954 -198.554 17.6464C-198.714 17.852 -198.827 18.4233 -197.659 20.3216ZM-184.087 7.1211C-184.133 6.75532 -183.973 6.54973 -184.179 6.38954L-184.591 6.06916C-184.591 6.06916 -184.751 6.27475 -184.911 6.48034C-184.911 6.48034 -184.865 6.84612 -184.613 7.37208C-184.613 7.37208 -184.247 7.32668 -184.591 6.06916C-183.951 5.24681 -184.203 4.72084 -185.439 3.75971C-185.233 3.9199 -185.027 4.08009 -185.027 4.08009C-185.027 4.08009 -184.867 3.8745 -184.707 3.66891C-184.753 3.30313 -184.64 2.73177 -185.531 3.02815C-185.531 3.02815 -185.645 3.59952 -185.187 4.28568C-185.507 4.69686 -185.415 5.42841 -184.087 7.1211ZM219.307 341.001C219.101 340.841 218.895 340.68 218.895 340.68C218.529 340.726 218.117 340.405 217.957 340.611C217.111 341.273 218.255 341.503 218.667 341.823C219.079 342.143 219.605 341.892 220.017 342.213C219.971 341.847 219.559 341.527 217.158 341.639L217.477 341.228C217.271 341.068 217.065 340.907 217.065 340.907C216.494 340.793 215.922 340.678 216.22 341.57C216.38 341.364 216.746 341.319 219.307 341.001ZM180.867 290.976C180.867 290.976 181.027 290.77 181.187 290.564C180.775 290.244 180.157 289.764 179.745 289.443C179.539 289.283 179.013 289.534 178.648 289.579C178.648 289.579 178.694 289.945 178.9 290.105C179.358 290.791 179.975 291.272 182.444 290.223C182.078 290.268 181.873 290.108 181.507 290.153L181.187 290.564L181.599 290.885C181.965 290.839 182.33 290.794 182.49 290.588C182.49 290.588 182.444 290.223 180.867 290.976ZM111.462 239.964C111.416 239.598 111.576 239.392 111.53 239.027L111.118 238.706C111.118 238.706 110.958 238.912 110.799 239.117C110.845 239.483 110.891 239.849 111.097 240.009C111.097 240.009 111.462 239.964 111.118 238.706C111.804 238.25 111.552 237.724 110.934 237.243C110.316 236.762 109.492 236.122 108.739 237.515C108.899 237.31 109.059 237.104 109.059 237.104L108.647 236.784C108.075 236.669 107.503 236.554 107.801 237.446C107.801 237.446 108.373 237.561 109.059 237.104C109.311 237.63 109.929 238.111 111.462 239.964ZM193.053 313.982C193.007 313.616 193.167 313.411 193.121 313.045L192.709 312.724C192.709 312.724 192.549 312.93 192.389 313.136C192.435 313.501 192.481 313.867 192.687 314.027C192.687 314.027 193.053 313.982 192.297 312.404C192.549 312.93 192.915 312.885 193.029 312.313C193.143 311.742 193.462 311.331 193.782 310.92C193.576 310.759 193.37 310.599 193.004 310.645C192.639 310.69 192.273 310.735 191.907 310.781C191.541 310.826 191.221 311.237 191.221 311.237C191.267 311.603 191.679 311.924 191.885 312.084C191.679 311.924 191.885 312.084 193.053 313.982ZM279.818 368.598C280.276 369.284 281.008 369.193 281.327 368.782C281.807 368.165 282.447 367.343 284.344 366.179C283.978 366.224 283.772 366.064 283.406 366.109L283.086 366.521L283.498 366.841C283.864 366.796 284.23 366.75 284.39 366.545C284.39 366.545 284.344 366.179 282.88 366.36C282.263 365.88 281.691 365.765 281.371 366.176C280.891 366.793 280.252 367.615 279.292 368.849C279.658 368.803 279.658 368.803 279.818 368.598L279.406 368.277C277.964 367.156 277.758 366.996 276.959 368.024C276.799 368.229 276.845 368.595 276.891 368.961C276.891 368.961 277.097 369.121 277.303 369.281C278.035 369.191 278.766 369.1 279.818 368.598ZM11.968 301.161C11.0982 300.155 9.90848 299.559 8.651 299.901C8.651 299.901 8.23908 299.581 7.62121 299.1C7.82718 299.26 8.03311 299.421 8.03311 299.421C8.03311 299.421 8.19303 299.215 8.35293 299.009C8.30689 298.644 8.21479 297.912 7.68902 298.163C7.68902 298.163 7.57516 298.734 8.03311 299.421C7.3935 300.243 7.85148 300.929 8.62925 301.204C9.613 301.639 10.9165 301.663 13.7973 300.934C13.5914 300.774 13.3854 300.614 13.3854 300.614C13.0196 300.659 12.6077 300.339 12.4478 300.545C11.6022 301.207 12.7458 301.436 13.1577 301.757C13.5697 302.077 14.0954 301.826 14.5073 302.146C14.0954 301.826 14.0494 301.46 11.968 301.161ZM-207.446 22.2789C-207.652 22.1188 -208.429 21.8438 -208.589 22.0494C-209.275 22.5059 -208.657 22.9865 -208.245 23.3069C-208.405 23.5125 -208.725 23.9237 -217.649 17.9727C-217.418 19.8016 -217.028 21.4249 -216.638 23.0482C-216.546 23.7797 -216.248 24.6715 -215.264 25.1066L-215.332 26.0438C-217.779 25.7902 -216.451 27.4829 -216.153 28.3746C-216.153 28.3746 -215.535 28.8552 -215.375 28.6496C-214.69 28.193 -214.096 27.0049 -213.365 26.9141C-212.061 26.9381 -211.673 25.5898 -210.164 25.774C-209.798 25.7286 -209.318 25.1118 -208.793 24.8608C-208.633 24.6552 -208.633 24.6552 -208.473 24.4496C-208.679 24.2894 -208.885 24.1292 -208.885 24.1292C-209.868 23.6941 -210.6 23.7849 -211.332 23.8757C-213.733 23.9879 -213.733 23.9879 -213.689 21.382C-213.576 20.8107 -213.828 20.2847 -213.92 19.5532C-214.264 18.2956 -214.516 17.7697 -215.979 17.9513C-216.551 17.8365 -217.283 17.9273 -209.091 23.9691C-207.901 24.5644 -207.397 25.6163 -207.053 26.8739C-206.801 27.3998 -205.611 27.9952 -205.451 27.7896C-204.446 26.9218 -203.074 26.0087 -203.305 24.1798L-203.717 23.8594C-202.757 22.6259 -204.107 22.2361 -204.931 21.5954C-206.166 20.6342 -206.166 20.6342 -207.286 22.0734C-207.126 21.8678 -207.286 22.0734 -207.446 22.2789ZM-98.8186 76.4109C-98.8186 76.4109 -98.6587 76.2053 -98.8646 76.0451C-99.2765 75.7247 -99.5285 75.1988 -100.146 74.7182C-100.398 74.1922 -100.764 74.2376 -100.878 74.809C-101.038 75.0146 -100.832 75.1748 -100.786 75.5405C-100.488 76.4323 -99.2983 77.0276 -103.03 72.4755C-101.794 73.4367 -101.176 73.9172 -100.558 74.3978L-100.239 73.9866C-100.948 72.7745 -101.293 71.517 -102.003 70.3049C-102.209 70.1447 -102.62 69.8243 -102.986 69.8697C-103.352 69.9151 -103.718 69.9605 -103.878 70.1661C-104.038 70.3717 -104.358 70.7829 -104.312 71.1486C-103.488 71.7894 -102.87 72.27 -98.8186 76.4109ZM186.924 287.438C186.604 287.849 186.285 288.26 185.805 288.877C185.645 289.083 185.897 289.609 186.103 289.769L186.675 289.883C187.154 289.267 187.84 288.81 187.954 288.239C188.114 288.033 188.228 287.462 187.816 287.141C186.946 286.135 187.13 287.598 181.068 285.193C182.211 285.422 183.355 285.652 184.339 286.087C185.688 286.477 187.564 286.615 188.821 286.274C188.981 286.068 189.187 286.228 189.347 286.023C189.301 285.657 189.049 285.131 188.843 284.971C188.019 284.33 187.401 283.849 186.258 283.62C184.382 283.481 182.301 283.182 180.607 281.535C180.401 281.375 179.876 281.626 179.51 281.671C179.51 281.671 179.556 282.037 179.762 282.197C180.426 283.043 180.198 284.186 186.924 287.438ZM115.337 304.68C114.056 303.353 113.026 302.552 111.996 301.751C111.172 301.11 110.142 300.309 109.319 299.668C108.701 299.188 107.695 300.056 107.031 299.209C106.871 299.415 106.711 299.62 106.711 299.62C106.552 299.826 106.598 300.192 106.804 300.352C108.245 301.473 109.321 302.64 110.923 303.556C112.112 304.151 113.416 304.175 100.622 292.575C99.7985 291.934 99.5926 291.774 99.1807 291.453C98.4029 291.178 98.037 291.224 97.5573 291.841C97.3974 292.046 97.2836 292.618 97.3296 292.983C97.3296 292.983 97.5356 293.144 97.5816 293.509C98.6114 294.31 100.373 295.02 98.7278 296.711L99.1858 297.397C101.015 297.17 102.844 296.943 104.378 298.796C104.584 298.956 105.636 298.454 106.048 298.774C106.459 299.095 106.665 299.255 106.779 298.683C106.939 298.478 106.733 298.318 106.687 297.952C104.834 296.51 103.62 294.246 101.059 294.564C101.218 294.358 100.714 293.306 115.337 304.68ZM21.0442 297.992C21.868 298.633 22.8977 299.433 23.7216 300.074C23.9275 300.234 24.6132 299.778 25.139 299.527C25.2989 299.321 25.2067 298.59 25.0008 298.43C23.5591 297.308 21.7516 296.232 21.3153 294.243C21.2693 293.877 20.1257 293.648 19.7598 293.693C18.4563 293.669 17.6785 293.394 17.7002 292.091C17.6542 291.726 18.02 291.68 17.4022 291.2C16.9902 290.879 16.2125 290.604 16.1204 289.873C16.0743 289.507 16.1882 288.936 15.7763 288.615C14.1286 287.334 12.275 285.892 10.6274 284.61C10.6274 284.61 10.1016 284.861 9.94171 285.067C11.0175 286.234 8.38872 287.489 10.4022 288.725C12.3262 292.201 12.3262 292.201 16.7869 293.691C16.9928 293.851 17.7706 294.126 17.8166 294.492C17.887 296.526 19.6485 297.236 19.0716 291.178C18.7057 291.224 18.4998 291.063 18.1339 291.109L17.8141 291.52L18.226 291.84C18.5919 291.795 18.9577 291.75 19.1176 291.544C19.4374 291.133 19.3914 290.767 21.0442 297.992ZM-18.8296 149.513C-18.2578 149.628 -17.732 149.377 -17.1602 149.492C-16.7944 149.447 -16.7944 149.447 -16.4285 149.401C-15.5369 149.105 -15.1032 148.122 -16.133 147.321C-17.0029 146.315 -16.889 145.743 -16.2034 145.287C-15.1518 144.785 -13.8944 144.443 -12.6369 144.101C-12.5448 144.833 -12.2928 145.359 -12.4066 145.93C-12.1546 146.456 -12.1086 146.822 -12.0165 147.554C-10.553 147.372 -9.24948 147.396 -8.15191 147.26C-7.78604 147.214 -7.26028 146.963 -7.30633 146.598C-7.23853 145.66 -7.17075 144.723 -7.46881 143.832C-7.51486 143.466 -8.49858 143.031 -9.0704 142.916C-10.0081 142.846 -10.7398 142.937 -11.4715 143.028C-12.2032 143.119 -13.233 142.318 -13.5989 142.363C-14.3306 142.454 -14.6043 143.231 -15.7019 143.367C-16.6396 143.298 -17.4852 143.96 -18.1708 144.417C-19.2223 144.919 -19.5882 144.964 -19.4501 146.061C-19.3119 147.159 -19.1737 148.256 -18.8296 149.513ZM206.198 335.755C206.358 335.549 206.152 335.389 206.106 335.023C205.03 333.856 203.955 332.69 202.033 332.185C199.746 331.726 197.665 331.427 195.971 329.78C194.895 328.613 193.684 329.321 192.586 329.457C192.22 329.502 192.106 330.074 192.152 330.439C192.404 330.965 193.068 331.812 193.068 331.812C195.469 331.699 197.505 331.633 199.45 333.806C200.96 333.99 202.516 334.54 203.957 335.661C204.415 336.348 205.467 335.846 206.198 335.755ZM-159.784 26.0234C-159.738 26.3892 -159.692 26.7549 -159.44 27.2809C-159.05 28.9042 -159.05 28.9042 -156.969 29.2032C-155.825 29.4327 -155.619 29.5929 -155.115 30.6449C-154.863 31.1708 -155.503 31.9932 -154.245 31.6514C-152.782 31.4698 -151.912 32.4763 -151.042 33.4829C-150.836 33.643 -150.95 34.2144 -150.698 34.7404C-150.492 34.9006 -150.08 35.2209 -149.92 35.0154C-149.6 34.6042 -148.961 33.7818 -149.166 33.6216C-150.036 32.6151 -151.066 31.8142 -151.89 31.1734C-152.714 30.5326 -151.846 28.5676 -153.996 29.2057C-154.727 29.2965 -155.391 28.4502 -155.483 27.7186C-155.621 26.6213 -156.445 25.9806 -157.543 26.1168C-158.687 25.8872 -159.418 25.978 -159.784 26.0234ZM-1.78241 293.766C-2.14827 293.811 -2.67402 294.062 -2.83392 294.268C-3.31363 294.885 -4.36516 295.387 -3.70124 296.233C-2.7853 297.605 -1.5035 298.932 0.531737 298.865C1.83529 298.89 2.45315 299.37 2.43139 300.673C2.52351 301.405 2.52349 301.405 3.25521 301.314C3.98693 301.223 4.71866 301.132 5.61029 300.836C5.97615 300.79 6.08997 300.219 6.04391 299.853C6.15778 299.282 5.79192 299.327 5.22012 299.212C4.64829 299.098 3.91656 299.188 3.50466 298.868C1.81096 297.221 -0.842184 296.807 -1.37051 294.086C-1.57645 293.926 -1.62251 293.56 -1.78241 293.766ZM206.635 390.867C206.383 390.341 206.61 389.199 205.946 388.352C204.871 387.185 203.475 386.43 202.239 385.469C201.621 384.988 200.89 385.079 200.776 385.65C200.616 385.856 200.502 386.427 200.548 386.793C201.67 388.326 202.426 389.903 203.182 391.481C203.434 392.007 203.48 392.373 204.006 392.122C204.897 391.826 205.583 391.369 206.635 390.867ZM12.9696 269.274C14.0454 270.441 15.2351 271.036 16.3545 269.597C16.5144 269.392 17.3382 270.033 17.91 270.147C18.116 270.308 18.6417 270.057 18.8016 269.851C18.8016 269.851 18.7556 269.485 18.5496 269.325C17.9318 268.844 17.0619 267.838 16.4901 267.723C14.5009 268.156 13.379 266.623 12.1432 265.662C11.7313 265.342 11.1135 264.861 10.7016 264.541C10.4956 264.381 9.96983 264.631 9.80993 264.837C9.80993 264.837 9.69608 265.408 10.0619 265.363C11.8695 266.439 11.2081 268.564 12.9696 269.274ZM-3.19343 275.181C-3.67314 275.798 -4.51871 276.46 -4.63256 277.031C-4.54044 277.763 -3.67058 278.769 -3.3725 279.661C-3.12051 280.187 -3.23435 280.758 -3.14223 281.49C-3.0962 281.856 -2.89024 282.016 -2.68428 282.176C-2.36447 281.765 -1.47284 281.468 -1.5189 281.103C-1.49715 279.8 -2.00116 278.748 -1.97941 277.445C-2.07153 276.713 -2.07156 276.713 -0.49425 275.96C-0.12841 275.915 0.351303 275.298 0.145366 275.138C-0.106655 274.612 -0.358651 274.086 -0.610647 273.56C-0.816609 273.4 -1.5944 273.125 -1.7543 273.33C-2.23401 273.947 -2.71372 274.564 -3.19343 275.181ZM-42.3545 237.133C-42.2624 237.864 -41.9643 238.756 -42.0782 239.328C-42.3276 241.773 -40.1542 242.804 -38.5066 244.085C-38.3006 244.245 -37.7749 243.994 -37.615 243.789C-37.2951 243.378 -37.0214 242.601 -37.4333 242.28C-38.0972 241.434 -39.4007 241.41 -39.379 240.107C-39.6093 238.278 -40.7989 237.683 -42.3545 237.133ZM6.74108 286.207C6.25881 283.852 6.25881 283.852 5.59489 283.006C4.97701 282.525 4.35914 282.045 4.06109 281.153C3.92294 280.056 2.32136 279.14 2.54905 277.997C2.18318 278.043 1.61138 277.928 1.45148 278.134C1.13167 278.545 0.857897 279.322 0.903956 279.687C1.72778 280.328 1.9798 280.854 2.27788 281.746C2.41602 282.843 3.39973 283.278 3.90374 284.33C3.99586 285.062 5.23161 286.023 6.74108 286.207ZM243.608 384.979C244.432 385.62 245.256 386.26 246.08 386.901C246.286 387.061 246.971 386.605 247.497 386.354C247.657 386.148 247.771 385.577 247.565 385.417C246.329 384.456 245.093 383.494 244.064 382.693C243.24 382.053 242.554 382.509 241.616 382.44C241.251 382.485 241.091 382.691 240.725 382.736C240.725 382.736 240.771 383.102 240.977 383.262C241.961 383.697 242.784 384.338 243.608 384.979ZM-188.15 16.1696C-187.784 16.1242 -187.784 16.1242 -187.418 16.0788C-187.968 14.6611 -187.467 12.7414 -188.748 11.4145C-188.954 11.2543 -189.526 11.1395 -189.892 11.1849C-190.83 11.1155 -191.423 12.3036 -190.805 12.7842C-189.776 13.5851 -189.478 14.4769 -190.323 15.1391C-190.803 15.7558 -191.283 16.3726 -191.762 16.9894C-191.922 17.1949 -191.67 17.7209 -191.464 17.8811C-191.464 17.8811 -190.892 17.9959 -190.732 17.7903C-190.047 17.3337 -189.659 15.9854 -188.15 16.1696ZM23.4708 274.472C22.0291 273.351 22.0291 273.351 20.8637 274.424C19.7444 275.864 19.5845 276.069 21.2322 277.351C22.6739 278.472 22.6739 278.472 23.8393 277.399C24.9586 275.96 24.9125 275.594 23.4708 274.472ZM184.496 336.033C185.114 336.514 185.938 337.154 186.556 337.635C187.792 338.596 188.843 338.094 189.895 337.592C190.26 337.547 190.488 336.404 190.076 336.084C189.824 335.558 189.093 335.648 188.475 335.168C188.475 335.168 188.109 335.213 187.949 335.419C187.469 336.036 186.784 336.492 186.12 335.646C185.296 335.005 184.472 334.364 183.648 333.724C183.442 333.563 183.076 333.609 183.076 333.609C182.916 333.814 182.803 334.386 183.009 334.546C183.466 335.232 183.878 335.553 184.496 336.033ZM-74.0193 193.697C-73.8811 194.794 -72.9435 194.864 -72.4855 195.55C-71.8216 196.396 -71.5235 197.288 -70.8596 198.134C-70.6536 198.295 -70.0818 198.409 -69.8759 198.569L-69.716 198.364C-70.0601 197.106 -70.0383 195.803 -70.5424 194.752C-70.8404 193.86 -71.6182 193.585 -72.5559 193.515C-72.5559 193.515 -73.2876 193.606 -74.0193 193.697ZM-163.198 18.0885C-163.724 18.3395 -164.204 18.9562 -164.57 19.0016C-165.095 19.2526 -165.873 18.9776 -166.193 19.3888C-166.833 20.2112 -165.483 20.6009 -165.231 21.1269C-164.475 22.7048 -164.475 22.7048 -162.806 22.6834L-162.44 22.638C-162.464 20.9693 -162.808 19.7118 -163.198 18.0885ZM197.681 324.181C198.093 324.501 198.711 324.982 198.871 324.776C199.969 324.64 200.792 325.281 201.936 325.51C202.142 325.671 202.302 325.465 202.462 325.259C202.622 325.054 202.416 324.894 202.37 324.528C202.164 324.368 201.958 324.208 201.958 324.208C200.974 323.772 201.316 322.058 200.95 322.104C199.966 321.668 198.914 322.17 198.045 321.164C198.045 321.164 197.519 321.415 197.359 321.62C197.497 322.718 197.589 323.449 197.681 324.181ZM-85.5452 140.518C-86.2769 140.609 -86.6428 140.654 -87.3745 140.745C-87.7403 140.79 -87.7404 140.79 -88.1062 140.836C-88.9979 141.132 -89.2255 142.275 -88.4017 142.916C-87.9898 143.236 -87.7839 143.396 -87.3719 143.717C-86.5481 144.357 -85.2906 144.015 -85.2228 143.078C-85.3149 142.347 -85.407 141.615 -85.5452 140.518ZM-78.2523 191.065C-77.8403 191.385 -77.6344 191.545 -77.2225 191.866C-76.6046 192.346 -75.3471 192.004 -75.2793 191.067C-75.1655 190.496 -75.4175 189.97 -75.5096 189.238C-75.6017 188.507 -75.8076 188.347 -76.5394 188.437C-77.2711 188.528 -77.6369 188.574 -78.3687 188.664C-79.1004 188.755 -79.1221 190.058 -78.5043 190.539C-78.6642 190.744 -78.4582 190.904 -78.2523 191.065ZM-81.1307 88.5184C-81.8867 86.9405 -80.8812 86.0728 -80.0817 85.0448C-79.7619 84.6336 -80.6778 83.2613 -81.4096 83.3521C-81.7754 83.3975 -82.667 83.6939 -82.7809 84.2653C-82.8487 85.2024 -82.3447 86.2544 -83.1902 86.9165C-83.3501 87.1221 -82.6862 87.9685 -82.2743 88.2888C-82.2283 88.6546 -81.4965 88.5638 -81.1307 88.5184ZM93.9474 348.755C94.7712 349.396 95.5951 350.037 96.4189 350.678C96.6249 350.838 97.5165 350.541 97.8363 350.13C98.316 349.514 97.606 348.301 96.8743 348.392C95.2509 348.779 94.0152 347.818 93.1453 346.812C92.9394 346.652 92.5735 346.697 92.5735 346.697C92.4136 346.903 92.2998 347.474 92.5057 347.634C92.9176 347.954 93.3296 348.275 93.9474 348.755ZM-5.253 273.579C-5.5971 272.321 -5.73526 271.224 -5.91947 269.761C-6.01158 269.029 -6.01159 269.029 -6.90319 269.326C-8.06858 270.399 -8.66216 271.587 -7.6541 273.691C-7.0823 273.806 -6.19066 273.509 -5.253 273.579ZM185.65 295.026C185.948 295.918 186.04 296.649 186.498 297.335C186.91 297.656 187.848 297.725 188.626 298C188.832 298.16 189.037 298.32 189.037 298.32C189.403 298.275 189.769 298.23 190.135 298.184C190.089 297.818 189.677 297.498 189.631 297.132C189.425 296.972 189.219 296.812 189.219 296.812C188.051 294.914 188.051 294.914 185.65 295.026ZM-91.1982 82.3379C-91.1521 82.7036 -91.1522 82.7036 -90.9462 82.8638C-90.5343 83.1842 -90.0763 83.8704 -89.6644 84.1907C-88.6346 84.9917 -88.2688 84.9463 -87.3093 83.7128C-86.9895 83.3016 -86.8757 82.7302 -86.2361 81.9078C-88.2713 81.9747 -89.7348 82.1563 -91.1982 82.3379ZM237.73 384.037C237.89 383.831 237.89 383.831 238.05 383.625C238.69 382.803 238.69 382.803 237.34 382.413C236.562 382.138 235.784 381.863 235.213 381.749C234.847 381.794 234.161 382.251 233.841 382.662C233.727 383.233 233.979 383.759 234.871 383.463C235.603 383.372 235.809 383.532 235.901 384.264C235.993 384.995 236.405 385.316 236.931 385.065C237.25 384.653 237.41 384.448 237.73 384.037ZM2.08216 293.472C2.70002 293.953 3.52384 294.594 4.14172 295.074C4.34766 295.234 4.66747 294.823 5.03333 294.778C5.03333 294.778 4.98727 294.412 4.78134 294.252C4.16345 293.771 3.33963 293.13 2.72177 292.65C1.39393 290.957 1.39391 290.957 0.45624 290.888C0.0903753 290.933 -0.115562 290.773 -0.115562 290.773C-0.0695034 291.139 -0.389333 291.55 -0.183371 291.71C0.640451 292.351 1.25834 292.831 2.08216 293.472ZM270.632 350.234C270.61 351.537 272.531 352.042 272.144 353.39C272.51 353.345 272.922 353.665 273.082 353.46C273.447 353.414 273.561 352.843 273.721 352.637C274.201 352.02 274.887 351.564 274.017 350.557C273.605 350.237 273.033 350.122 272.461 350.007C271.729 350.098 271.204 350.349 270.632 350.234ZM119.967 236.679C119.601 236.725 118.869 236.816 118.549 237.227C117.956 238.415 118.346 240.038 119.376 240.839C119.582 240.999 120.154 241.114 120.519 241.069C119.809 239.857 120.815 238.989 120.677 237.892C120.837 237.686 120.425 237.366 119.967 236.679ZM16.2533 231.903C16.4593 232.064 16.6653 232.224 16.6653 232.224C17.2831 232.704 17.8549 232.819 18.1747 232.408C18.4946 231.997 18.7683 231.22 18.5623 231.06C18.3564 230.899 17.5326 230.259 17.1667 230.304C16.5949 230.189 15.8632 230.28 15.3374 230.531C15.3374 230.531 15.0636 231.308 15.2696 231.468C15.4295 231.263 15.8414 231.583 16.2533 231.903ZM179.12 333.171C179.326 333.331 179.532 333.491 179.532 333.491C179.738 333.652 180.309 333.766 180.515 333.927C180.469 333.561 180.629 333.355 180.583 332.99C180.491 332.258 180.445 331.892 180.193 331.366C180.147 331 179.529 330.52 179.163 330.565C178.797 330.611 178.112 331.067 177.746 331.113C177.586 331.318 177.472 331.89 177.678 332.05C178.136 332.736 178.708 332.851 179.12 333.171ZM228.434 344.14C228.09 342.883 227.472 342.402 226.374 342.538C225.277 342.675 224.133 342.445 223.905 343.588C223.746 343.793 224.204 344.479 224.204 344.479C225.667 344.298 226.97 344.322 228.434 344.14ZM0.631428 255.389C0.219529 255.068 -0.398355 254.588 -0.810278 254.267C-1.01622 254.107 -1.54198 254.358 -1.70189 254.564C-1.70189 254.564 -1.65582 254.929 -1.44988 255.09C-1.19787 255.616 -0.420082 255.891 -0.533926 256.462C-0.509617 258.131 0.541888 257.629 1.47956 257.698C1.84542 257.653 2.00533 257.447 2.37119 257.402C2.32514 257.036 1.91321 256.715 1.70728 256.555C1.4092 255.663 0.83739 255.549 0.631428 255.389ZM175.402 318.401C175.196 318.241 174.578 317.76 174.007 317.646C173.641 317.691 173.161 318.308 172.635 318.559L173.093 319.245C173.985 318.949 175.015 319.75 175.792 320.025C175.998 320.185 176.158 319.979 176.158 319.979C176.318 319.774 176.112 319.613 175.906 319.453C176.066 319.248 175.86 319.087 175.402 318.401ZM-8.42417 282.331C-8.05831 282.286 -7.48648 282.4 -7.32658 282.195C-6.64091 281.738 -6.73304 281.007 -7.39696 280.16C-8.01482 279.68 -8.3807 279.725 -9.06634 280.182C-9.54605 280.798 -9.45396 281.53 -8.42417 282.331ZM-27.9785 253.924C-27.1547 254.564 -26.5368 255.045 -26.1249 255.365C-25.9189 255.526 -25.3471 255.64 -24.9813 255.595C-25.0273 255.229 -25.2793 254.703 -25.4853 254.543C-26.5151 253.742 -27.5449 252.941 -28.7345 252.346C-28.9405 252.186 -29.3063 252.231 -29.3063 252.231C-29.3063 252.231 -29.2603 252.597 -29.0543 252.757C-28.4365 253.237 -27.8186 253.718 -27.9785 253.924ZM197.743 342.376C198.542 341.348 198.29 340.822 197.466 340.182C196.849 339.701 196.323 339.952 196.003 340.363C195.523 340.98 195.615 341.712 196.599 342.147C197.011 342.467 197.743 342.376 197.743 342.376ZM-195.102 42.1081C-194.53 42.2228 -194.005 41.9719 -193.433 42.0866C-193.067 42.0412 -192.541 41.7903 -192.541 41.7903C-192.633 41.0587 -192.725 40.3271 -193.024 39.4354C-193.024 39.4354 -193.389 39.4808 -193.595 39.3206C-194.441 39.9828 -195.652 40.6903 -195.102 42.1081ZM-38.9709 262.532C-38.4912 261.915 -39.1551 261.069 -39.0413 260.497C-38.8814 260.292 -39.0873 260.132 -39.1334 259.766C-39.4992 259.811 -39.8651 259.857 -40.025 260.062C-41.0305 260.93 -40.7324 261.822 -39.5427 262.417C-39.3368 262.577 -39.3368 262.577 -38.9709 262.532ZM192.742 298.232C193.314 298.347 193.932 298.827 194.504 298.942L194.664 298.737C194.365 297.845 192.718 296.563 191.986 296.654L191.826 296.86C192.238 297.18 192.49 297.706 192.742 298.232ZM198.078 306.672C198.444 306.626 199.015 306.741 198.809 306.581C199.129 306.17 199.609 305.553 199.357 305.027C199.311 304.661 198.533 304.386 198.121 304.066C197.915 303.906 197.549 303.951 197.549 303.951C197.848 304.843 197.94 305.574 198.078 306.672ZM12.5115 162.341C12.4654 161.976 12.5793 161.404 12.6931 160.833C12.6471 160.467 12.2352 160.147 11.6634 160.032C10.8856 159.757 10.7717 160.328 10.8638 161.06C10.9099 161.426 10.9559 161.792 11.002 162.157C11.2079 162.317 11.0481 162.523 11.254 162.683C11.6199 162.638 11.9857 162.592 12.5115 162.341ZM-19.7993 138.861C-20.0052 138.7 -19.8453 138.495 -20.0513 138.335C-20.4632 138.014 -21.0811 137.534 -21.6068 137.785C-21.9727 137.83 -22.2465 138.607 -22.5663 139.018C-22.7262 139.224 -22.5202 139.384 -22.3143 139.544C-22.3143 139.544 -20.1191 139.272 -19.7993 138.861ZM119.408 251.423C119.362 251.057 119.522 250.851 119.635 250.28C119.43 250.12 119.064 250.165 118.858 250.005C118.492 250.05 118.126 250.096 117.76 250.141C117.554 249.981 117.394 250.187 117.028 250.232C117.074 250.598 117.326 251.124 117.532 251.284C118.356 251.925 118.722 251.879 119.408 251.423ZM143.486 327.563C144.057 327.678 144.217 327.472 143.965 326.946C143.919 326.58 143.873 326.214 143.621 325.688C143.575 325.323 143.369 325.162 143.163 325.002C142.637 325.253 142.112 325.504 141.998 326.076C141.678 326.487 142.548 327.493 143.486 327.563ZM-10.8982 277.437C-11.2641 277.482 -11.47 277.322 -11.6299 277.528C-11.9497 277.939 -12.6354 278.396 -12.5893 278.761C-12.5433 279.127 -11.9254 279.608 -11.6734 280.134C-11.4675 280.294 -10.9417 280.043 -10.7818 279.837C-10.508 279.06 -10.6002 278.329 -10.8982 277.437ZM280.261 351.454C279.895 351.5 279.689 351.339 279.735 351.705C279.415 352.116 278.935 352.733 279.187 353.259C279.233 353.625 280.011 353.9 280.423 354.22C280.629 354.381 280.995 354.335 280.995 354.335C281.109 353.764 280.467 351.614 280.261 351.454ZM-108.704 68.7218C-109.368 67.8755 -109.62 67.3495 -110.238 66.8689C-110.444 66.7087 -111.016 66.594 -111.382 66.6394C-111.336 67.0051 -111.084 67.5311 -110.878 67.6913C-110.26 68.1719 -109.688 68.2866 -108.704 68.7218ZM166.312 278.665C167.09 278.94 167.889 277.912 167.431 277.226C167.431 277.226 167.225 277.066 167.019 276.906C166.242 276.631 165.442 277.659 165.9 278.345C166.106 278.505 166.106 278.505 166.312 278.665ZM288.143 369.794C287.479 368.947 287.227 368.421 286.609 367.941C286.403 367.781 285.832 367.666 285.466 367.711C285.512 368.077 285.764 368.603 285.97 368.763C286.382 369.084 286.954 369.198 288.143 369.794ZM2.82388 145.898C2.61792 145.738 2.61792 145.738 2.41196 145.577C1.47427 145.508 1.04061 146.49 1.29264 147.016C1.29264 147.016 1.4986 147.177 1.70456 147.337C2.48232 147.612 3.12193 146.789 2.82388 145.898ZM274.569 354.947C273.724 355.609 273.198 355.86 272.878 356.271C272.718 356.477 272.97 357.003 272.81 357.208C273.176 357.163 273.542 357.117 273.702 356.912C274.022 356.501 274.136 355.929 274.569 354.947ZM-70.0459 240.012C-69.9999 240.378 -70.1138 240.949 -70.2276 241.52C-69.7018 241.269 -69.1761 241.018 -68.8563 240.607C-68.6964 240.402 -68.9484 239.876 -68.7885 239.67C-69.1083 240.081 -69.4741 240.127 -70.0459 240.012ZM-22.9089 272.055C-22.749 271.849 -22.749 271.849 -22.749 271.849C-22.8411 271.118 -23.8709 270.317 -24.3966 270.568L-24.5566 270.773C-24.4644 271.505 -23.4347 272.306 -22.9089 272.055ZM-58.4037 242.468C-58.2898 241.897 -59.3196 241.096 -60.0513 241.186L-60.2112 241.392C-60.3251 241.963 -59.2953 242.764 -58.5636 242.674C-58.5636 242.674 -58.5636 242.674 -58.4037 242.468ZM35.9203 284.815C36.0341 284.244 35.0043 283.443 34.2726 283.534L34.1127 283.739C33.9989 284.311 35.0286 285.112 35.7604 285.021L35.9203 284.815ZM-6.59878 251.085C-6.02695 251.2 -5.61505 251.52 -5.24919 251.475L-5.08929 251.269C-5.18138 250.537 -6.21116 249.737 -6.73693 249.987C-6.89684 250.193 -6.64484 250.719 -6.59878 251.085ZM-120.633 158.431C-120.519 157.86 -121.549 157.059 -122.281 157.15L-122.441 157.356C-122.555 157.927 -121.525 158.728 -120.793 158.637C-120.793 158.637 -120.793 158.637 -120.633 158.431ZM-190.76 91.3492C-191.126 91.3946 -191.904 91.1197 -191.858 91.4854C-191.972 92.0568 -190.942 92.8578 -190.21 92.767L-190.051 92.5614C-190.462 92.241 -190.508 91.8752 -190.76 91.3492ZM202.569 290.697C203.141 290.812 203.553 291.132 203.919 291.087L204.079 290.881C203.987 290.15 202.957 289.349 202.431 289.6C202.065 289.645 202.363 290.537 202.569 290.697ZM80.5385 339.646C80.1727 339.691 79.3949 339.416 79.441 339.782C79.3271 340.354 80.3569 341.155 81.0886 341.064L81.2485 340.858C81.2025 340.492 80.9965 340.332 80.5385 339.646ZM-17.7025 263.236C-17.1306 263.351 -16.7187 263.671 -16.3529 263.626L-16.193 263.42C-16.2851 262.689 -17.3148 261.888 -17.8406 262.139C-18.0005 262.344 -17.7485 262.87 -17.7025 263.236ZM173.697 329.943C173.857 329.738 173.857 329.738 174.017 329.532C173.925 328.801 172.895 328 172.369 328.251L172.209 328.456C171.982 329.599 173.011 330.4 173.697 329.943ZM169.67 327.471C170.036 327.426 170.448 327.746 170.814 327.701C170.768 327.335 170.516 326.809 170.31 326.649C169.898 326.328 169.326 326.214 168.754 326.099C169.166 326.419 169.418 326.945 169.67 327.471ZM-213.362 29.8857C-213.248 29.3144 -213.088 29.1088 -213.134 28.743C-213.134 28.743 -213.34 28.5828 -213.546 28.4226C-214.484 28.3532 -215.123 29.1756 -214.666 29.8617C-214.254 30.1821 -213.568 29.7255 -213.362 29.8857ZM-206.064 33.2523C-205.904 33.0467 -205.904 33.0467 -205.904 33.0467C-205.996 32.3151 -207.026 31.5142 -207.552 31.7652L-207.712 31.9708C-207.825 32.5421 -206.796 33.3431 -206.064 33.2523ZM-192.069 32.2586C-191.909 32.053 -191.909 32.053 -191.749 31.8475C-191.842 31.1159 -192.871 30.315 -193.397 30.5659C-193.397 30.5659 -193.557 30.7715 -193.717 30.9771C-193.625 31.7087 -192.595 32.5096 -192.069 32.2586ZM112.657 246.502C112.771 245.931 111.741 245.13 111.01 245.221L110.85 245.426C110.736 245.998 111.766 246.799 112.497 246.708C112.703 246.868 112.497 246.708 112.657 246.502ZM60.8702 205.563C60.5043 205.609 59.7266 205.334 59.7727 205.7C59.6588 206.271 60.6885 207.072 61.4203 206.981L61.5802 206.775C61.1683 206.455 61.1222 206.089 60.8702 205.563ZM40.0469 190.687C40.4128 190.642 40.4128 190.642 40.7786 190.596C40.7326 190.231 40.7326 190.231 40.5266 190.07C40.3207 189.91 40.0686 189.384 39.6567 189.064C39.4508 188.904 38.879 188.789 38.5131 188.834C38.5591 189.2 38.6052 189.566 39.0171 189.886C39.2691 190.412 39.6811 190.733 40.0469 190.687ZM6.9072 160.622C6.54133 160.668 5.76354 160.393 5.8096 160.758C5.69576 161.33 6.72554 162.131 7.45725 162.04L7.61715 161.834C7.20525 161.514 7.15919 161.148 6.9072 160.622ZM-72.3859 98.9495C-72.9577 98.8347 -73.5295 98.7199 -74.1013 98.6052C-73.8493 99.1311 -73.5973 99.6571 -73.1854 99.9775C-72.9794 100.138 -72.4076 100.252 -72.0417 100.207C-71.8818 100.001 -72.1338 99.4755 -72.3859 98.9495ZM202.176 286.102C201.97 285.942 201.605 285.988 201.605 285.988C201.445 286.193 201.491 286.559 201.537 286.925C201.743 287.085 202.109 287.04 202.109 287.04C202.063 286.674 202.222 286.468 202.176 286.102ZM202.732 293.463C202.778 293.829 202.778 293.829 202.824 294.195C203.19 294.15 203.349 293.944 203.715 293.898C203.715 293.898 203.669 293.533 203.463 293.373C203.257 293.212 202.892 293.258 202.732 293.463ZM158.362 261.263C158.315 260.897 158.315 260.897 158.269 260.531C157.904 260.577 157.744 260.782 157.378 260.828C157.378 260.828 157.424 261.193 157.63 261.354C157.836 261.514 157.996 261.308 158.362 261.263ZM174.225 279.541C174.179 279.175 174.179 279.175 174.133 278.809C173.767 278.854 173.607 279.06 173.242 279.105C173.242 279.105 173.288 279.471 173.494 279.631C173.7 279.792 174.065 279.746 174.225 279.541ZM283.295 369.652C283.661 369.607 283.661 369.607 284.027 369.562C283.981 369.196 283.775 369.036 283.569 368.875C283.569 368.875 283.203 368.921 282.997 368.761C283.043 369.126 283.249 369.287 283.295 369.652ZM57.4073 194.291C57.0414 194.336 56.8355 194.176 56.4696 194.222C56.5157 194.587 56.5157 194.587 56.7217 194.748C56.9276 194.908 57.2935 194.862 57.4994 195.023C57.4534 194.657 57.4534 194.657 57.4073 194.291ZM-76.3911 95.1744C-76.4372 94.8086 -76.4372 94.8086 -76.4832 94.4428C-76.8491 94.4882 -77.009 94.6938 -77.3748 94.7392C-77.3748 94.7392 -77.3288 95.105 -77.1228 95.2652C-76.9169 95.4254 -76.757 95.2198 -76.3911 95.1744ZM161.076 279.872C161.03 279.506 161.03 279.506 160.824 279.346C160.618 279.186 160.252 279.231 160.046 279.071C160.252 279.231 160.092 279.437 160.298 279.597C160.298 279.597 160.504 279.757 161.076 279.872ZM240.301 342.482C239.935 342.527 239.935 342.527 239.57 342.573C239.616 342.938 239.822 343.099 240.028 343.259C240.028 343.259 240.393 343.213 240.599 343.374C240.553 343.008 240.347 342.848 240.301 342.482ZM92.6335 230.598C92.4275 230.438 92.0617 230.483 92.0617 230.483C91.9018 230.689 91.9478 231.055 91.9939 231.421C92.3597 231.375 92.5657 231.535 92.5657 231.535C92.7256 231.33 92.6795 230.964 92.6335 230.598ZM178.815 298.289C178.861 298.654 178.861 298.654 178.907 299.02C179.273 298.975 179.433 298.769 179.799 298.724C179.799 298.724 179.753 298.358 179.547 298.198C179.181 298.243 178.815 298.289 178.815 298.289ZM-9.40426 153.545C-9.45032 153.179 -9.29041 152.973 -9.33647 152.608C-9.54242 152.447 -9.90827 152.493 -9.90827 152.493C-10.0682 152.698 -10.0221 153.064 -9.97608 153.43C-9.77012 153.59 -9.77012 153.59 -9.40426 153.545ZM86.9371 228.147C86.891 227.782 86.891 227.782 86.845 227.416C86.4791 227.461 86.3192 227.667 85.9533 227.712C85.9533 227.712 85.9994 228.078 86.2054 228.238C86.4113 228.398 86.5712 228.193 86.9371 228.147ZM22.4511 179.311C22.405 178.945 22.4051 178.945 22.359 178.58C21.9931 178.625 21.8332 178.831 21.4674 178.876C21.4674 178.876 21.5134 179.242 21.7194 179.402C21.9254 179.562 22.2912 179.517 22.4511 179.311ZM38.1037 191.485C38.0577 191.12 38.0577 191.12 38.0117 190.754C37.6458 190.799 37.4859 191.005 37.12 191.05C37.12 191.05 37.1661 191.416 37.372 191.576C37.578 191.736 37.9438 191.691 38.1037 191.485ZM186.598 306.982C186.552 306.616 186.552 306.616 186.506 306.25C186.14 306.296 185.98 306.501 185.614 306.546C185.614 306.546 185.66 306.912 185.866 307.072C186.072 307.233 186.232 307.027 186.598 306.982ZM-36.7938 135.211C-36.7478 135.577 -36.7478 135.577 -36.7017 135.943C-36.3359 135.897 -36.176 135.692 -35.8101 135.646C-35.8101 135.646 -35.8562 135.281 -36.0621 135.12C-36.0621 135.12 -36.428 135.166 -36.7938 135.211ZM-195.995 14.3569C-195.949 14.7227 -195.949 14.7227 -195.903 15.0885C-195.537 15.0431 -195.377 14.8375 -195.011 14.7921C-195.011 14.7921 -195.058 14.4263 -195.263 14.2661C-195.469 14.106 -195.629 14.3115 -195.995 14.3569ZM174.839 302.125C174.473 302.171 174.268 302.011 173.902 302.056C174.108 302.216 173.948 302.422 174.154 302.582C174.36 302.742 174.725 302.697 174.931 302.857C174.885 302.491 175.045 302.286 174.839 302.125ZM-185.169 25.087C-185.535 25.1324 -185.741 24.9722 -186.107 25.0176C-186.061 25.3834 -186.061 25.3834 -185.855 25.5436C-185.649 25.7038 -185.283 25.6584 -185.077 25.8186C-184.917 25.613 -184.963 25.2472 -185.169 25.087ZM195.484 321.482C195.437 321.116 195.438 321.116 195.391 320.75C195.026 320.796 194.866 321.001 194.5 321.047C194.5 321.047 194.546 321.412 194.752 321.573C194.958 321.733 195.118 321.527 195.484 321.482ZM189.535 318.505C189.329 318.345 189.489 318.139 189.283 317.979C189.077 317.819 188.711 317.864 188.505 317.704C188.711 317.864 188.551 318.07 188.757 318.23C188.963 318.39 189.329 318.345 189.535 318.505ZM209.792 339.209C210.158 339.164 210.158 339.164 210.523 339.119C210.477 338.753 210.271 338.593 210.065 338.433C210.065 338.433 209.7 338.478 209.494 338.318C209.54 338.684 209.746 338.844 209.792 339.209ZM262.928 380.538C262.722 380.378 262.357 380.423 262.357 380.423C262.197 380.629 262.243 380.995 262.289 381.361C262.495 381.521 262.861 381.475 262.861 381.475C262.814 381.11 262.974 380.904 262.928 380.538ZM258.584 381.449C258.95 381.403 259.156 381.564 259.522 381.518C259.476 381.152 259.476 381.152 259.27 380.992C259.064 380.832 258.698 380.877 258.492 380.717C258.538 381.083 258.584 381.449 258.584 381.449ZM181.695 322.636C181.741 323.001 181.581 323.207 181.627 323.573C181.993 323.527 182.199 323.687 182.199 323.687C182.359 323.482 182.313 323.116 182.267 322.75C182.221 322.385 181.855 322.43 181.695 322.636ZM179.684 324.371C179.638 324.005 179.798 323.8 179.752 323.434C179.546 323.274 179.18 323.319 179.18 323.319C179.02 323.525 179.066 323.89 179.112 324.256C179.318 324.416 179.684 324.371 179.684 324.371ZM-179.867 48.0188C-179.501 47.9734 -179.295 48.1336 -178.929 48.0882C-179.135 47.928 -178.975 47.7224 -179.181 47.5622C-179.387 47.402 -179.753 47.4474 -179.959 47.2872C-179.913 47.653 -179.913 47.653 -179.867 48.0188ZM-188.539 42.5938C-188.173 42.5484 -188.173 42.5484 -187.807 42.503C-188.013 42.3428 -188.059 41.977 -188.265 41.8168C-188.265 41.8168 -188.631 41.8622 -188.837 41.702C-188.791 42.0678 -188.745 42.4336 -188.539 42.5938ZM-168.171 59.7554C-168.217 59.3896 -168.057 59.184 -168.103 58.8183C-168.309 58.6581 -168.675 58.7035 -168.675 58.7035C-168.835 58.9091 -168.789 59.2748 -168.742 59.6406C-168.537 59.8008 -168.171 59.7554 -168.171 59.7554ZM-221.939 28.1639C-222.145 28.0037 -221.985 27.7981 -222.191 27.6379C-222.397 27.4777 -222.763 27.5231 -222.969 27.363C-222.763 27.5231 -222.923 27.7287 -222.717 27.8889C-222.717 27.8889 -222.145 28.0037 -221.939 28.1639ZM-81.3557 145.756C-81.7216 145.802 -81.7216 145.802 -82.0875 145.847C-81.8815 146.007 -81.8354 146.373 -81.6295 146.533C-81.6295 146.533 -81.2636 146.488 -81.0577 146.648C-81.1037 146.282 -81.1498 145.916 -81.3557 145.756ZM123.895 310.676C123.941 311.042 123.941 311.042 123.987 311.408C124.353 311.362 124.513 311.157 124.879 311.111C124.879 311.111 124.833 310.745 124.627 310.585C124.421 310.425 124.055 310.47 123.895 310.676ZM66.6422 269.115C66.5961 268.749 66.756 268.544 66.71 268.178C66.3441 268.223 66.1382 268.063 66.1382 268.063C65.9783 268.269 66.0243 268.635 66.0704 269C66.2763 269.161 66.6422 269.115 66.6422 269.115ZM202.649 382.818C202.283 382.863 202.077 382.703 201.711 382.748C201.917 382.908 201.757 383.114 201.963 383.274C202.169 383.434 202.535 383.389 202.741 383.549C202.695 383.183 202.695 383.183 202.649 382.818ZM195.426 387.429C195.792 387.383 195.998 387.543 196.364 387.498C196.158 387.338 196.318 387.132 196.112 386.972C195.906 386.812 195.54 386.857 195.334 386.697C195.334 386.697 195.38 387.063 195.426 387.429ZM-196.823 88.9438C-196.777 89.3096 -196.937 89.5152 -196.891 89.881C-196.685 90.0412 -196.319 89.9958 -196.319 89.9958C-196.159 89.7902 -196.205 89.4244 -196.251 89.0586C-196.457 88.8984 -196.663 88.7383 -196.823 88.9438ZM-133.177 144.385C-133.223 144.02 -133.223 144.02 -133.269 143.654C-133.635 143.699 -133.795 143.905 -134.161 143.95C-134.161 143.95 -134.115 144.316 -133.909 144.476C-133.703 144.636 -133.543 144.431 -133.177 144.385ZM33.3055 275.852C33.3516 276.218 33.3516 276.218 33.3976 276.584C33.7635 276.539 33.9234 276.333 34.2893 276.288C34.2893 276.288 34.2432 275.922 34.0372 275.762C34.0372 275.762 33.6714 275.807 33.3055 275.852ZM-130.589 148.708C-130.795 148.548 -131.161 148.593 -131.161 148.593C-131.321 148.799 -131.275 149.165 -131.229 149.53C-130.863 149.485 -130.657 149.645 -130.657 149.645C-130.497 149.439 -130.543 149.074 -130.589 148.708ZM-125.142 153.604C-125.188 153.239 -125.188 153.239 -125.394 153.078C-125.6 152.918 -125.966 152.964 -126.172 152.803C-125.966 152.964 -126.126 153.169 -125.92 153.329C-125.874 153.695 -125.508 153.65 -125.142 153.604ZM132.785 356.195C133.151 356.15 133.151 356.15 133.517 356.104C133.311 355.944 133.264 355.578 133.059 355.418C133.059 355.418 132.693 355.464 132.487 355.304C132.533 355.669 132.579 356.035 132.785 356.195ZM84.0218 321.568C83.8159 321.408 83.45 321.453 83.45 321.453C83.2901 321.659 83.3362 322.024 83.3822 322.39C83.5882 322.55 83.9541 322.505 83.9541 322.505C83.908 322.139 84.0679 321.934 84.0218 321.568ZM29.102 280.832C29.0559 280.466 29.0559 280.466 29.0099 280.1C28.644 280.146 28.4841 280.351 28.1183 280.397C28.1183 280.397 28.1643 280.763 28.3703 280.923C28.5762 281.083 28.7361 280.877 29.102 280.832ZM-85.1064 198.602C-84.7405 198.557 -84.7405 198.557 -84.3746 198.511C-84.5806 198.351 -84.6266 197.985 -84.8326 197.825C-84.8326 197.825 -85.1985 197.87 -85.4044 197.71C-85.3584 198.076 -85.3123 198.442 -85.1064 198.602ZM-9.03057 268.661C-9.23651 268.501 -9.60237 268.546 -9.60237 268.546C-9.76227 268.752 -9.71622 269.118 -9.67018 269.483C-9.46422 269.644 -9.09836 269.598 -9.09836 269.598C-8.98449 269.027 -8.98452 269.027 -9.03057 268.661ZM150.883 393.699C150.837 393.333 150.997 393.128 150.951 392.762C150.745 392.602 150.379 392.647 150.379 392.647C150.219 392.853 150.266 393.218 150.312 393.584C150.358 393.95 150.723 393.905 150.883 393.699ZM148.092 392.188C147.726 392.233 147.52 392.073 147.52 392.073C147.36 392.279 147.406 392.645 147.452 393.01C147.658 393.171 148.024 393.125 148.024 393.125C148.184 392.919 148.138 392.554 148.092 392.188ZM-15.9358 269.889C-15.9819 269.524 -15.822 269.318 -15.868 268.952C-16.074 268.792 -16.4398 268.837 -16.4398 268.837C-16.5997 269.043 -16.5537 269.409 -16.5076 269.775C-16.5076 269.775 -16.3017 269.935 -15.9358 269.889ZM-12.2504 274.076C-12.2043 274.441 -12.3642 274.647 -12.3182 275.013C-12.1122 275.173 -11.7463 275.128 -11.7463 275.128C-11.5864 274.922 -11.6325 274.556 -11.6786 274.19C-11.5187 273.985 -11.8845 274.03 -12.2504 274.076ZM-36.0926 258.831C-36.1387 258.465 -35.9788 258.26 -36.0248 257.894C-36.2308 257.734 -36.5967 257.779 -36.5967 257.779C-36.7566 257.985 -36.7105 258.351 -36.6644 258.716C-36.4585 258.877 -36.0926 258.831 -36.0926 258.831ZM-13.0256 276.772C-13.0716 276.407 -12.9117 276.201 -12.9578 275.835C-13.1637 275.675 -13.5296 275.72 -13.5296 275.72C-13.6895 275.926 -13.6435 276.292 -13.5974 276.658C-13.3914 276.818 -13.2315 276.612 -13.0256 276.772ZM-36.7975 263.562C-37.1634 263.608 -37.3693 263.448 -37.7352 263.493C-37.5292 263.653 -37.6891 263.859 -37.4832 264.019C-37.2772 264.179 -36.9114 264.134 -36.7054 264.294C-36.5455 264.088 -36.5915 263.722 -36.7975 263.562ZM-3.0885 290.77C-2.72263 290.725 -2.51669 290.885 -2.15082 290.84C-2.19688 290.474 -2.19689 290.474 -2.40285 290.314C-2.60879 290.154 -2.97464 290.199 -3.1806 290.039C-3.13455 290.405 -2.92859 290.565 -3.0885 290.77ZM-25.8575 273.721C-25.9036 273.355 -25.9036 273.355 -25.9496 272.989C-26.3155 273.035 -26.4754 273.24 -26.8412 273.286C-26.8412 273.286 -26.7952 273.652 -26.5892 273.812C-26.3833 273.972 -26.0174 273.927 -25.8575 273.721ZM-21.4403 277.817C-21.0745 277.771 -20.8685 277.931 -20.5027 277.886C-20.7086 277.726 -20.5487 277.52 -20.7547 277.36C-20.9606 277.2 -21.3265 277.245 -21.5324 277.085C-21.4864 277.451 -21.6463 277.656 -21.4403 277.817Z" fill="#FFE3ED"/>
</g>
<path d="M-56.173 655.661C-46.8211 650.255 -37.3994 645.409 -28.3266 639.365C-19.4633 633.241 -11.2978 625.922 -3.62101 618.285C3.84647 610.97 11.1045 603.575 17.5949 595.224C24.2946 586.553 30.3661 577.245 36.7169 568.175C42.6489 559.748 48.4413 551.001 53.3264 541.779C57.8625 533.358 61.631 524.382 64.9806 515.248C68.2605 505.954 70.9122 496.423 72.7265 486.577C74.75 476.41 75.5871 465.928 76.1451 455.609C76.4938 449.609 76.6332 443.53 76.6329 437.532C76.5629 430.974 75.6553 424.501 74.7478 418.027C73.9101 412.513 73.2119 406.918 72.5138 401.323C72.0251 397.407 71.6759 391.811 68.8841 389.026C69.2331 389.024 69.5821 389.022 69.931 389.02C64.8364 394.565 59.5324 400.03 54.7868 405.972C49.762 412.476 46.2029 419.532 43.2021 427.465C37.2704 443.49 32.8742 460.227 29.3852 477.04C25.8265 494.093 23.9427 511.377 21.0121 528.667C19.6166 537.072 18.1513 545.317 15.8485 553.246C13.6154 561.335 10.7543 569.187 7.61393 576.801C3.98506 585.297 0.077015 593.554 -3.83102 601.811C-6.0642 606.301 -8.22756 610.951 -10.4607 615.441C-12.2054 619.049 -14.7178 622.5 -15.3458 626.662C-15.7645 626.505 -16.2531 626.187 -16.6718 626.029C-11.2282 621.283 -5.99402 616.058 -1.24838 610.516C3.63685 604.892 7.96372 598.792 12.6396 593.09C17.3852 587.148 21.9913 581.286 25.69 574.549C29.3887 568.213 32.7385 561.478 35.7393 554.744C47.7425 528.611 55.7675 500.179 60.3029 471.364C61.5588 463.041 62.6054 454.638 63.3728 446.396C63.7216 441.996 64.2099 437.515 64.0702 433.197C63.9304 428.879 63.1626 424.724 62.5343 420.488C63.0926 420.566 63.5811 420.483 63.9999 420.641C62.3252 428.407 61.2088 436.25 59.9529 444.174C58.7667 451.458 56.8826 458.746 55.487 465.951C52.4865 480.681 49.2767 495.333 45.0199 509.591C42.9264 516.799 40.4141 523.85 38.1113 530.979C35.8782 537.869 33.7149 544.918 31.2725 551.728C28.6904 558.619 25.8292 565.272 22.5492 571.766C19.1297 578.342 15.4309 584.679 12.2208 591.333C10.6157 594.86 8.87102 598.468 6.98675 601.756C4.96291 605.126 2.5203 608.337 -0.131685 611.07C-2.71389 613.962 -5.43568 616.535 -8.22727 618.949C-9.69284 620.396 -11.0188 621.762 -12.2052 623.447C-13.2521 625.052 -14.0895 626.736 -15.3457 628.262C-15.3457 627.862 -15.2759 627.622 -15.1364 627.141C-13.6008 630.252 -10.4601 631.036 -7.80801 631.902C-4.73712 632.927 -1.66624 633.951 1.54421 634.494C8.03493 635.741 14.5954 637.147 20.8768 638.715C34.0676 642.086 47.1189 646.339 59.8213 651.793C73.082 657.324 86.4125 662.614 99.5336 668.226C105.745 670.833 111.887 674.081 118.308 675.968C124.38 677.856 130.522 678.705 136.733 679.713C140.083 680.176 143.433 680.639 146.923 680.621C150.761 680.602 154.809 679.861 158.578 679.282C162.487 678.623 166.465 678.122 170.303 677.703C174.072 677.124 177.91 676.705 181.4 675.087C181.26 675.568 181.26 675.968 181.121 676.448C178.887 673.341 176.863 669.912 174.63 666.804C172.327 663.537 169.605 660.512 166.673 657.807C161.09 652.238 154.878 647.231 148.806 642.143C137.778 632.922 125.285 626.347 112.374 621.215C99.5316 616.241 86.3408 612.47 72.8708 610.859C59.0519 609.249 45.0237 609.561 31.2748 612.11C24.0165 613.506 17.0373 615.541 9.98841 617.816C4.19576 619.765 -3.5511 621.644 -6.90088 627.979C-6.90089 627.579 -7.11029 627.1 -7.1103 626.701C-5.36544 628.291 -2.85292 628.038 -0.828965 627.868C1.75334 627.775 4.26586 627.922 6.77838 628.069C12.9201 628.518 18.9223 629.447 25.1338 630.455C37.3475 632.393 49.5612 635.13 61.8447 637.627C86.6211 642.699 111.118 649.133 135.337 656.527C139.175 657.707 143.014 659.287 146.783 660.708C150.133 661.97 153.483 663.633 156.972 664.415C157.182 664.494 158.089 664.569 158.089 664.569C158.159 664.729 157.81 665.53 157.81 665.53C157.67 665.611 157.531 665.292 157.321 665.213C156.135 664.499 154.948 663.785 153.762 663.072C150.551 661.328 147.411 659.745 144.13 658.242C135.197 653.809 125.705 651.698 116.353 648.706C104.977 645.085 93.3909 641.785 81.7355 638.725C69.5916 635.748 57.3779 633.011 45.1642 630.673C33.6484 628.333 22.0628 625.433 10.4074 624.372C7.47615 624.067 4.68447 624.081 1.82298 623.936C0.636526 624.022 -0.689552 623.789 -1.73641 624.194C-1.87599 624.275 -2.92285 624.68 -2.99263 624.92C-2.99263 624.92 -2.22491 625.076 -2.43429 624.997C-1.80615 625.234 -0.759265 625.229 -0.131139 625.065C3.84698 624.565 7.61566 621.987 11.1052 619.97C16.4791 617.063 21.0154 612.242 25.6215 607.98C34.5546 600.017 42.0219 590.702 48.8612 580.35C56.2587 569.276 63.5167 558.282 70.8444 547.048C84.9416 525.303 97.922 502.204 104.691 476.097C108.04 463.364 109.506 450.321 110.203 437.121C110.831 423.362 111.179 409.364 110.201 395.534C109.224 381.703 107.269 367.237 102.104 354.627C99.5213 348.322 95.8221 342.663 92.6114 336.921C91.2155 334.529 89.7498 331.977 87.8653 330.067C86.4694 328.474 82.3516 325.056 80.2579 327.067C79.2808 328.031 79.5601 329.869 79.9788 330.827C80.4674 331.944 81.4446 332.579 82.2821 332.894C84.2363 333.764 86.679 333.752 88.7029 332.782C88.5634 333.262 88.4936 333.503 88.354 333.983C86.1903 328.636 82.3515 324.257 77.6056 321.802C75.3722 320.693 72.7898 319.987 70.3471 319.999C67.9742 320.171 64.4148 321.229 63.1587 323.954C61.4838 327.722 66.0902 329.858 68.4631 330.485C71.534 331.11 74.5351 331.174 77.4664 331.879C80.8862 332.902 84.3061 333.524 87.7259 334.146C90.727 334.611 93.3093 335.718 95.0542 338.508C96.5898 340.819 99.0326 345.206 101.964 342.711C103.848 341.022 104.755 337.499 104.476 334.861C104.336 332.942 103.778 331.266 102.103 332.634C100.707 333.84 99.5906 335.686 98.823 337.529C98.1949 338.892 96.9388 344.416 99.7305 343.203C101.057 342.636 102.103 341.031 103.29 340.145C104.476 339.26 105.872 338.453 107.268 338.046C109.78 336.993 112.432 336.26 114.596 334.41C116.341 332.801 117.946 330.874 119.062 328.629C121.156 325.019 123.249 318.61 119.55 315.35C117.317 313.442 113.967 312.979 111.385 313.872C108.663 314.846 106.709 317.575 105.243 320.221C103.638 322.949 102.522 325.994 101.265 329.119C100.079 332.004 98.6135 334.651 97.9855 337.613C96.7993 344.097 99.9401 350.079 102.453 355.425C104.896 360.611 106.99 368.198 113.48 366.646C115.086 366.318 116.272 365.432 115.853 363.275C115.574 361.836 114.667 360.561 113.69 359.527C111.735 357.457 109.083 358.59 107.687 360.997C106.362 363.163 106.222 366.842 108.944 367.468C111.317 368.096 113.899 367.203 116.272 367.031C118.994 366.858 121.786 367.643 124.438 368.509C127.858 369.532 131.278 370.154 134.837 369.496C141.328 368.344 146.352 362.24 147.12 354.798C147.608 349.917 146.282 344.486 142.513 341.466C137.907 337.73 131.835 339.441 127.298 342.663C121.576 346.77 117.947 353.267 112.643 357.933C109.991 360.265 107.129 362.919 107.478 367.316C107.618 368.435 106.013 368.763 105.873 367.644C105.524 363.247 107.897 359.876 110.828 357.382C114.108 354.486 116.969 351.033 119.831 347.579C124.716 341.956 131.486 336.243 138.814 337.805C144.048 338.979 147.747 344.238 148.585 350.152C149.493 357.425 146.352 365.439 140.63 369.147C137.21 371.324 133.162 372.064 129.393 371.443C125.275 370.824 121.297 368.925 117.04 368.787C114.248 368.801 111.317 370.096 108.456 369.15C106.013 368.363 104.826 365.65 105.175 362.849C105.594 360.208 107.478 357.719 109.711 356.828C112.433 355.854 114.597 357.603 116.063 360.154C117.458 362.547 118.156 366.142 115.504 367.675C112.992 369.127 109.572 368.905 107.199 367.077C104.547 365.012 103.36 361.499 101.964 358.307C100.429 354.796 98.4048 351.367 97.2879 347.614C96.1013 344.101 95.6127 340.584 96.3104 336.982C97.078 333.139 99.1716 329.53 100.567 325.924C103.219 319.592 106.708 311.577 113.688 311.541C116.479 311.527 119.76 312.63 121.644 315.34C123.11 317.491 123.25 320.21 122.691 322.932C121.645 328.536 117.806 334.553 113.41 337.295C109.711 339.633 105.663 339.973 102.383 343.269C100.847 344.956 97.916 346.651 96.7294 343.538C95.1939 339.227 98.6134 332.651 101.963 330.715C103.499 329.827 105.034 330.539 105.662 332.376C106.57 335.25 106.151 338.691 104.965 341.177C103.709 343.902 101.475 345.993 98.7535 344.967C97.2878 344.415 96.0315 343.141 95.0544 341.707C93.5188 339.395 92.4719 337.401 89.9593 336.454C88.0749 335.744 85.9812 335.755 83.8874 335.366C81.7936 334.976 79.5602 334.268 77.3967 333.719C75.3727 333.09 73.3487 332.86 71.2549 332.471C69.4403 332.32 67.4163 332.09 65.6715 331.299C63.0891 330.193 60.5765 327.646 61.3441 324.204C62.0419 321.001 65.1825 319.385 67.8345 318.652C73.7668 317.022 80.0482 320.19 84.3755 324.886C86.609 327.194 88.5632 330.063 89.7498 333.176C89.9592 333.655 89.8197 334.136 89.4009 334.378C86.2603 335.993 80.7468 335.781 78.7924 332.112C77.8851 330.438 77.6756 327.959 78.7224 326.354C79.9786 324.429 82.0724 324.818 83.7474 325.449C88.7725 327.343 91.7738 332.606 94.5656 337.391C98.1951 343.69 102.104 349.829 104.686 356.933C109.572 370.504 111.387 385.85 112.156 400.402C112.924 414.954 112.366 429.672 111.599 444.312C110.065 472.791 100.365 499.392 87.2446 523.372C80.1961 536.044 72.3799 548.16 64.4938 560.116C56.8171 571.752 49.629 583.705 40.9752 594.306C33.8567 603.219 25.6216 610.779 17.177 617.86C15.5021 619.228 13.9667 620.515 12.0823 621.405C8.45323 623.502 4.33557 626.082 0.217861 626.663C-1.10818 626.83 -3.83006 627.004 -4.31868 625.087C-4.73752 622.93 -1.87606 622.275 -0.689596 622.189C5.17291 621.6 11.3146 622.448 17.1074 623.298C23.319 624.307 29.5305 625.714 35.6723 626.963C42.2328 628.369 48.8631 629.535 55.3538 630.782C68.056 633.436 80.6885 636.331 93.2512 639.866C105.325 643.084 117.19 647.022 129.055 650.561C134.08 652.055 138.966 653.63 143.642 655.925C146.992 657.588 150.482 659.169 153.762 661.072C155.158 661.865 156.484 662.498 157.81 663.531C158.368 664.008 159.276 664.483 159.206 665.523C158.996 667.843 154.39 665.708 153.413 665.473C149.225 663.894 144.968 662.157 140.78 660.578C135.686 658.525 130.381 657.192 125.147 655.619C111.886 651.688 98.6255 648.156 85.1555 644.946C71.6855 641.735 58.2156 638.925 44.8154 636.274C31.6246 633.701 18.364 630.97 5.03365 630.078C2.52114 629.931 0.0784208 629.943 -2.36429 629.955C-4.31848 629.885 -6.48206 629.736 -8.08731 628.465C-8.3665 628.226 -8.57589 627.748 -8.29675 627.186C-5.29591 621.653 0.636342 619.223 5.6613 617.518C11.7331 615.408 17.6654 613.379 23.8768 611.987C37.6956 608.798 52.0029 607.526 66.1009 608.574C79.9896 609.543 93.7387 612.992 107.139 617.642C120.4 622.373 133.381 628.466 145.037 637.124C152.016 642.287 158.786 648.171 165.277 654.216C168.488 657.158 171.629 660.342 174.351 663.767C177.142 667.351 179.446 671.418 182.168 675.243C182.517 675.642 182.517 676.441 181.889 676.604C175.607 679.436 168.489 679.552 161.789 680.625C155.228 681.619 148.598 682.852 141.898 682.326C135.686 681.718 129.266 680.631 123.054 679.223C116.703 677.896 110.84 675.286 104.768 672.598C91.1585 666.669 77.2697 661.301 63.5204 655.453C50.2597 649.922 36.9292 645.031 23.0404 641.263C15.2934 639.143 7.47667 637.663 -0.409892 636.024C-3.69015 635.321 -6.97041 634.218 -10.0413 633.193C-12.7633 632.168 -15.4154 630.901 -17.0207 628.03C-17.1603 627.711 -17.0207 627.231 -16.8114 626.91C-15.625 625.624 -14.7875 623.94 -13.8803 622.416C-12.9731 620.892 -11.9262 619.687 -10.8096 618.642C-8.36694 616.23 -5.99411 614.059 -3.55149 611.647C1.40357 606.583 5.38149 600.885 8.59168 594.23C10.1968 591.103 11.5925 587.897 13.1976 584.77C14.8725 581.402 16.8265 578.273 18.5712 575.065C22.1304 568.409 25.3405 561.755 28.2017 554.703C30.8536 547.971 33.0867 541.082 35.2499 534.033C37.4132 526.984 39.7859 520.014 42.019 513.125C46.4851 498.946 49.9742 484.533 52.9049 470.043C54.5796 461.876 56.5334 453.949 57.9988 445.704C59.464 437.059 60.5804 428.416 62.4645 419.929C62.604 419.049 63.8603 419.122 63.9301 420.081C64.4886 423.758 65.1867 427.353 65.3962 431.031C65.6755 434.868 65.4662 438.788 65.1872 442.548C64.5594 450.309 63.7222 457.991 62.536 465.675C60.5126 480.241 57.5819 494.731 53.6741 508.987C49.9058 523.162 45.0907 536.942 39.2287 550.328C33.2271 564.194 26.388 577.745 17.4551 589.307C14.8729 592.599 12.2209 595.732 9.63874 599.024C7.05656 602.316 4.54417 605.768 1.7526 608.981C-3.76071 615.567 -9.8324 621.676 -16.1135 627.306C-16.602 627.788 -17.4395 627.473 -17.4395 626.673C-16.9511 623.392 -15.5554 620.585 -14.0201 617.698C-11.9962 613.929 -10.2516 610.321 -8.43714 606.473C-4.66865 598.697 -0.76059 590.839 2.72871 582.824C6.14822 575.049 9.42814 566.954 12.0101 558.864C14.5921 550.773 16.4762 542.286 18.0113 533.801C21.0815 516.43 23.035 498.906 26.3145 481.614C29.6639 464.482 33.8507 447.266 39.5731 431.162C42.7134 422.349 46.1329 414.174 51.5066 406.869C56.5314 399.965 62.5333 394.096 68.1862 387.83C68.5351 387.428 68.9539 387.586 69.2331 387.824C71.5363 390.292 72.1646 394.527 72.7928 397.963C73.4909 402.358 73.9099 406.915 74.5382 411.55C75.3759 417.464 76.3532 423.297 76.842 429.213C77.3308 434.729 77.4008 440.487 77.2614 446.166C76.7737 467.042 74.3317 487.848 68.3304 507.713C62.2592 527.418 53.3963 545.537 42.2302 561.989C35.9493 571.218 29.3892 580.209 23.0384 589.278C16.8273 598.267 9.70881 606.381 2.17156 613.937C-6.48233 622.539 -15.1362 631.14 -24.7673 638.307C-34.817 645.716 -45.7044 651.209 -56.4521 657.422C-56.3125 657.741 -57.0105 656.145 -56.173 655.661Z" fill="#C7C1C3"/>
</g>
<defs>
<clipPath id="clip0_430_430">
<rect width="1280" height="832" fill="white"/>
</clipPath>
<clipPath id="clip1_430_430">
<rect width="632.987" height="155.751" fill="white" transform="translate(-189.378 -29) rotate(37.8751)"/>
</clipPath>
</defs>
</svg>
